G04*
G04 #@! TF.GenerationSoftware,Altium Limited,Altium Designer,26.2.0 (7)*
G04*
G04 Layer_Physical_Order=4*
G04 Layer_Color=16711680*
%FSLAX25Y25*%
%MOIN*%
G70*
G04*
G04 #@! TF.SameCoordinates,17A3E6CB-15BD-4058-B425-0E0A4CEE79B2*
G04*
G04*
G04 #@! TF.FilePolarity,Positive*
G04*
G01*
G75*
%ADD10C,0.00787*%
%ADD12C,0.00591*%
G04:AMPARAMS|DCode=17|XSize=21.65mil|YSize=19.68mil|CornerRadius=2.46mil|HoleSize=0mil|Usage=FLASHONLY|Rotation=90.000|XOffset=0mil|YOffset=0mil|HoleType=Round|Shape=RoundedRectangle|*
%AMROUNDEDRECTD17*
21,1,0.02165,0.01476,0,0,90.0*
21,1,0.01673,0.01968,0,0,90.0*
1,1,0.00492,0.00738,0.00837*
1,1,0.00492,0.00738,-0.00837*
1,1,0.00492,-0.00738,-0.00837*
1,1,0.00492,-0.00738,0.00837*
%
%ADD17ROUNDEDRECTD17*%
G04:AMPARAMS|DCode=18|XSize=21.65mil|YSize=19.68mil|CornerRadius=2.46mil|HoleSize=0mil|Usage=FLASHONLY|Rotation=180.000|XOffset=0mil|YOffset=0mil|HoleType=Round|Shape=RoundedRectangle|*
%AMROUNDEDRECTD18*
21,1,0.02165,0.01476,0,0,180.0*
21,1,0.01673,0.01968,0,0,180.0*
1,1,0.00492,-0.00837,0.00738*
1,1,0.00492,0.00837,0.00738*
1,1,0.00492,0.00837,-0.00738*
1,1,0.00492,-0.00837,-0.00738*
%
%ADD18ROUNDEDRECTD18*%
%ADD31R,0.04724X0.04724*%
%ADD36R,0.04724X0.04724*%
%ADD54R,0.05118X0.05118*%
%ADD63C,0.02362*%
%ADD65C,0.02559*%
%ADD68C,0.01968*%
%ADD69C,0.01181*%
%ADD70C,0.00532*%
%ADD71C,0.00472*%
%ADD72C,0.06102*%
%ADD73O,0.08268X0.03937*%
%ADD74O,0.07087X0.03937*%
%ADD75C,0.01968*%
%ADD76C,0.23622*%
%ADD77C,0.02756*%
%ADD78C,0.01000*%
%ADD90R,0.05118X0.14173*%
G04:AMPARAMS|DCode=91|XSize=29.92mil|YSize=26mil|CornerRadius=3.25mil|HoleSize=0mil|Usage=FLASHONLY|Rotation=90.000|XOffset=0mil|YOffset=0mil|HoleType=Round|Shape=RoundedRectangle|*
%AMROUNDEDRECTD91*
21,1,0.02992,0.01950,0,0,90.0*
21,1,0.02342,0.02600,0,0,90.0*
1,1,0.00650,0.00975,0.01171*
1,1,0.00650,0.00975,-0.01171*
1,1,0.00650,-0.00975,-0.01171*
1,1,0.00650,-0.00975,0.01171*
%
%ADD91ROUNDEDRECTD91*%
%ADD92R,0.02362X0.01378*%
%ADD93R,0.02559X0.06496*%
%ADD94R,0.02756X0.05118*%
G04:AMPARAMS|DCode=95|XSize=14.96mil|YSize=13.78mil|CornerRadius=0.62mil|HoleSize=0mil|Usage=FLASHONLY|Rotation=180.000|XOffset=0mil|YOffset=0mil|HoleType=Round|Shape=RoundedRectangle|*
%AMROUNDEDRECTD95*
21,1,0.01496,0.01254,0,0,180.0*
21,1,0.01372,0.01378,0,0,180.0*
1,1,0.00124,-0.00686,0.00627*
1,1,0.00124,0.00686,0.00627*
1,1,0.00124,0.00686,-0.00627*
1,1,0.00124,-0.00686,-0.00627*
%
%ADD95ROUNDEDRECTD95*%
%ADD96R,0.04724X0.05512*%
%ADD97R,0.04724X0.07874*%
%ADD98R,0.04331X0.06693*%
G36*
X180083Y15181D02*
X179583Y15142D01*
X179331Y16733D01*
X178732Y18576D01*
X177852Y20303D01*
X176713Y21870D01*
X175343Y23241D01*
X173775Y24380D01*
X172049Y25260D01*
X170206Y25858D01*
X168292Y26161D01*
X166354D01*
X164440Y25858D01*
X162597Y25260D01*
X160871Y24380D01*
X159303Y23241D01*
X157932Y21870D01*
X156793Y20303D01*
X155914Y18576D01*
X155315Y16733D01*
X155012Y14819D01*
Y12881D01*
X155315Y10967D01*
X155914Y9125D01*
X156793Y7398D01*
X157932Y5830D01*
X159303Y4460D01*
X160871Y3321D01*
X162597Y2441D01*
X164440Y1843D01*
X166354Y1539D01*
X168292D01*
X170206Y1843D01*
X172049Y2441D01*
X173775Y3321D01*
X175343Y4460D01*
X176713Y5830D01*
X177852Y7398D01*
X178732Y9125D01*
X179331Y10967D01*
X179583Y12559D01*
X180083Y12520D01*
Y1020D01*
X99403D01*
X99300Y1170D01*
X99211Y1520D01*
X106121Y8430D01*
X106121Y8430D01*
X106449Y8921D01*
X106564Y9500D01*
Y30835D01*
X107064Y31169D01*
X107178Y31122D01*
X107925D01*
X108615Y31408D01*
X109143Y31936D01*
X109429Y32626D01*
Y32738D01*
X110272Y33580D01*
X110272Y33581D01*
X124133Y47442D01*
X124133Y47442D01*
X124461Y47933D01*
X124576Y48512D01*
X124576Y48512D01*
Y54640D01*
X124588Y54667D01*
X124598Y55024D01*
X124624Y55322D01*
X124665Y55570D01*
X124718Y55768D01*
X124778Y55913D01*
X124835Y56006D01*
X124883Y56058D01*
X124921Y56083D01*
X124964Y56099D01*
X125088Y56112D01*
X125136Y56138D01*
X125925D01*
Y61862D01*
X124627D01*
X124578Y61888D01*
X124455Y61901D01*
X124411Y61917D01*
X124373Y61942D01*
X124325Y61994D01*
X124268Y62088D01*
X124209Y62232D01*
X124155Y62430D01*
X124114Y62678D01*
X124088Y62976D01*
X124078Y63333D01*
X124066Y63360D01*
Y64388D01*
X124078Y64415D01*
X124088Y64772D01*
X124114Y65070D01*
X124155Y65318D01*
X124209Y65516D01*
X124268Y65661D01*
X124325Y65754D01*
X124373Y65806D01*
X124411Y65831D01*
X124455Y65847D01*
X124578Y65860D01*
X124627Y65886D01*
X125102D01*
Y72004D01*
X118984Y72004D01*
X118862Y72453D01*
Y74492D01*
X118984Y74941D01*
X119362Y74941D01*
X125102D01*
Y81059D01*
X118984Y81059D01*
X118862Y81508D01*
Y83547D01*
X118984Y83996D01*
X119362Y83996D01*
X125102D01*
Y90114D01*
X124117D01*
X124068Y90140D01*
X123945Y90153D01*
X123901Y90169D01*
X123863Y90194D01*
X123815Y90246D01*
X123758Y90339D01*
X123699Y90484D01*
X123646Y90682D01*
X123604Y90930D01*
X123578Y91228D01*
X123574Y91382D01*
X132046Y99855D01*
X132074Y99866D01*
X132341Y100120D01*
X132596Y100336D01*
X132846Y100524D01*
X133093Y100684D01*
X133335Y100817D01*
X133572Y100924D01*
X133805Y101005D01*
X134034Y101063D01*
X134260Y101097D01*
X134512Y101109D01*
X134572Y101138D01*
X136913D01*
Y101927D01*
X136940Y101975D01*
X136953Y102099D01*
X136968Y102142D01*
X136994Y102180D01*
X137045Y102228D01*
X137139Y102285D01*
X137284Y102345D01*
X137481Y102398D01*
X137730Y102439D01*
X138027Y102465D01*
X138384Y102475D01*
X138411Y102487D01*
X139711D01*
X141245Y100953D01*
X141459Y100436D01*
X141987Y99908D01*
X142678Y99622D01*
X143425D01*
X144115Y99908D01*
X144643Y100436D01*
X144929Y101126D01*
Y101874D01*
X144643Y102564D01*
X144564Y102643D01*
Y103858D01*
X144643Y103936D01*
X144929Y104626D01*
Y105025D01*
X145382Y105379D01*
X145391Y105379D01*
X146051D01*
X146669Y105635D01*
X147142Y106108D01*
X147239Y106342D01*
X148569D01*
X148677Y106181D01*
X148924Y106016D01*
X149215Y105958D01*
X150888D01*
X151179Y106016D01*
X151281Y106084D01*
X151600Y105696D01*
X144981Y99077D01*
X144653Y98586D01*
X144538Y98007D01*
X144538Y98007D01*
Y94000D01*
X144538Y94000D01*
X144653Y93421D01*
X144981Y92930D01*
X147471Y90440D01*
X147471Y90440D01*
X147962Y90112D01*
X148541Y89996D01*
X148541Y89996D01*
X149367D01*
Y89827D01*
X149431Y89505D01*
X149614Y89232D01*
X149887Y89050D01*
X150208Y88986D01*
X150318D01*
Y86431D01*
Y82676D01*
X150077Y82394D01*
X149818Y82246D01*
X149686Y82268D01*
X149488Y82321D01*
X149343Y82380D01*
X149250Y82437D01*
X149198Y82485D01*
X149173Y82523D01*
X149157Y82567D01*
X149144Y82691D01*
X149118Y82739D01*
Y85587D01*
X143000D01*
Y70413D01*
X143673D01*
X143880Y69913D01*
X143702Y69735D01*
X143370Y68934D01*
Y68066D01*
X143675Y67331D01*
X144517Y68173D01*
X145224Y67466D01*
X144382Y66624D01*
X145117Y66319D01*
X145985D01*
X146721Y66624D01*
X145878Y67466D01*
X146585Y68173D01*
X147428Y67331D01*
X147732Y68066D01*
Y68934D01*
X147400Y69735D01*
X147222Y69913D01*
X147429Y70413D01*
X149118D01*
Y73261D01*
X149144Y73309D01*
X149157Y73433D01*
X149173Y73477D01*
X149198Y73515D01*
X149250Y73563D01*
X149343Y73620D01*
X149488Y73679D01*
X149686Y73732D01*
X149934Y73774D01*
X150232Y73800D01*
X150589Y73809D01*
X150616Y73821D01*
X153886D01*
X153886Y73821D01*
X154465Y73936D01*
X154520Y73973D01*
X155020Y73713D01*
Y73713D01*
X156013D01*
X156173Y73473D01*
Y72527D01*
X156524Y71680D01*
X156551Y71707D01*
Y81000D01*
X160051D01*
Y76000D01*
X161051Y75000D01*
X163392D01*
Y76000D01*
X164500D01*
Y77189D01*
X164000D01*
Y78253D01*
X164500Y78352D01*
X164626Y78048D01*
X165099Y77575D01*
X165717Y77319D01*
X166386D01*
X167003Y77575D01*
X167476Y78048D01*
X167732Y78666D01*
Y79334D01*
X167564Y79739D01*
Y80487D01*
X169551D01*
X169624Y80501D01*
X170388D01*
X170679Y80559D01*
X170926Y80724D01*
X171091Y80971D01*
X171149Y81262D01*
Y82738D01*
X171091Y83029D01*
X171002Y83161D01*
X170990Y83205D01*
X171036Y83621D01*
X171084Y83772D01*
X171286Y83907D01*
X171562Y84319D01*
X171658Y84805D01*
Y85043D01*
X170526D01*
Y86043D01*
X171658D01*
Y86282D01*
X171562Y86768D01*
X171286Y87180D01*
X171064Y87328D01*
Y91997D01*
X171564Y92097D01*
X171675Y91831D01*
X172517Y92673D01*
X173224Y91966D01*
X172382Y91124D01*
X173117Y90819D01*
X173985D01*
X174721Y91124D01*
X173878Y91966D01*
X174585Y92673D01*
X175428Y91831D01*
X175732Y92566D01*
Y93434D01*
X175428Y94169D01*
X174585Y93327D01*
X173878Y94034D01*
X174721Y94876D01*
X173985Y95181D01*
X173701D01*
X173262Y95681D01*
X173301Y95976D01*
X173199Y96751D01*
X172900Y97473D01*
X172731Y97693D01*
X171931Y96893D01*
X171224Y97600D01*
X172024Y98400D01*
X171804Y98569D01*
X171082Y98869D01*
X170307Y98971D01*
X169232D01*
Y97837D01*
X168232D01*
Y98971D01*
X167157D01*
X166383Y98869D01*
X165660Y98569D01*
X165440Y98400D01*
X166241Y97600D01*
X165534Y96893D01*
X164733Y97693D01*
X164565Y97473D01*
X164265Y96751D01*
X164163Y95976D01*
X164265Y95201D01*
X164565Y94479D01*
X164733Y94259D01*
X165534Y95060D01*
X166241Y94353D01*
X165440Y93552D01*
X165660Y93383D01*
X166383Y93084D01*
X167157Y92982D01*
X168038D01*
Y87328D01*
X167816Y87180D01*
X167541Y86768D01*
X167444Y86282D01*
Y86043D01*
X168576D01*
Y85043D01*
X167444D01*
Y84805D01*
X167541Y84319D01*
X167745Y84013D01*
X167616Y83638D01*
X167524Y83513D01*
X166791D01*
X166386Y83681D01*
X165717D01*
X165099Y83425D01*
X164626Y82952D01*
X164571Y82819D01*
X163883Y82131D01*
X162319D01*
X161850Y82038D01*
X161489Y82236D01*
X161350Y82357D01*
Y82406D01*
X158685D01*
Y81298D01*
X157685D01*
Y82406D01*
X155020D01*
Y82373D01*
X154668Y82124D01*
X154520Y82076D01*
X154004Y82179D01*
X154004Y82179D01*
X153345D01*
Y84404D01*
X153470Y84497D01*
X153845Y84625D01*
X154150Y84421D01*
X154637Y84324D01*
X154875D01*
Y85456D01*
X155875D01*
Y84324D01*
X156113D01*
X156599Y84421D01*
X157011Y84697D01*
X157287Y85109D01*
X157383Y85595D01*
Y85931D01*
X156251D01*
Y86932D01*
X157383D01*
Y87268D01*
X157287Y87754D01*
X157139Y87976D01*
X157380Y88476D01*
X157670D01*
X158187Y88579D01*
X158625Y88872D01*
X158918Y89310D01*
X159021Y89827D01*
Y90572D01*
X159468Y90881D01*
X159617Y90819D01*
X160485D01*
X161221Y91124D01*
X160378Y91966D01*
X161085Y92673D01*
X161928Y91831D01*
X162232Y92566D01*
Y93434D01*
X161928Y94169D01*
X161085Y93327D01*
X160378Y94034D01*
X161221Y94876D01*
X160485Y95181D01*
X159617D01*
X158882Y94876D01*
X159724Y94034D01*
X159017Y93327D01*
X158175Y94169D01*
X157888Y93477D01*
X157670Y93520D01*
X156894D01*
X156681Y94020D01*
X157034Y94479D01*
X157333Y95201D01*
X157435Y95976D01*
X157333Y96751D01*
X157034Y97473D01*
X156865Y97693D01*
X156065Y96893D01*
X155358Y97600D01*
X156158Y98400D01*
X155938Y98569D01*
X155216Y98869D01*
X154943Y98904D01*
X154876Y99418D01*
X155526Y99687D01*
X156163Y100324D01*
X156508Y101156D01*
Y102057D01*
X156163Y102889D01*
X155526Y103525D01*
X154742Y103850D01*
X154517Y104332D01*
X162121Y111937D01*
X162121Y111937D01*
X162449Y112428D01*
X162565Y113007D01*
Y130500D01*
X162449Y131079D01*
X162121Y131570D01*
X162121Y131570D01*
X154621Y139070D01*
X154130Y139398D01*
X153551Y139513D01*
X153551Y139513D01*
X147678D01*
X138565Y148627D01*
Y157988D01*
X138449Y158567D01*
X138121Y159058D01*
X138121Y159058D01*
X132413Y164766D01*
Y168350D01*
X126689D01*
Y166885D01*
X125449D01*
X125371Y166964D01*
X124680Y167250D01*
X123933D01*
X123243Y166964D01*
X122715Y166436D01*
X122429Y165746D01*
Y164999D01*
X122715Y164308D01*
X123243Y163780D01*
X123933Y163494D01*
X124680D01*
X125371Y163780D01*
X125449Y163859D01*
X126689D01*
Y162626D01*
X130273D01*
X135538Y157361D01*
Y148000D01*
X135538Y148000D01*
X135653Y147421D01*
X135981Y146930D01*
X145981Y136930D01*
X145981Y136930D01*
X146472Y136602D01*
X147051Y136487D01*
X147051Y136487D01*
X150707D01*
X150902Y135987D01*
X150426Y135511D01*
X150094Y134709D01*
Y133842D01*
X150242Y133486D01*
X150202Y133335D01*
X149918Y132961D01*
X149335Y132884D01*
X148613Y132585D01*
X148393Y132416D01*
X149193Y131616D01*
X148486Y130909D01*
X147686Y131709D01*
X147517Y131489D01*
X147218Y130767D01*
X147116Y129992D01*
X147218Y129217D01*
X147517Y128495D01*
X147686Y128275D01*
X148486Y129075D01*
X149193Y128368D01*
X148393Y127568D01*
X148613Y127399D01*
X149335Y127100D01*
X150110Y126998D01*
X151776D01*
Y128131D01*
X152776D01*
Y126998D01*
X153385D01*
X153485Y126498D01*
X152962Y126281D01*
X152325Y125645D01*
X151980Y124812D01*
Y123912D01*
X152325Y123080D01*
X152962Y122443D01*
X153033Y122414D01*
X153131Y121923D01*
X152750Y121542D01*
X152574Y121279D01*
X152538Y121098D01*
X152099Y121010D01*
X151686Y120735D01*
X151551Y120533D01*
X151400Y120484D01*
X150985Y120439D01*
X150941Y120451D01*
X150809Y120539D01*
X150518Y120597D01*
X149041D01*
X148750Y120539D01*
X148503Y120375D01*
X148339Y120128D01*
X148334Y120105D01*
X147510D01*
X147329Y120541D01*
X146856Y121014D01*
X146238Y121270D01*
X145570D01*
X145429Y121212D01*
X145297Y121255D01*
X144868Y121521D01*
X144643Y122064D01*
X144564Y122143D01*
Y123357D01*
X144643Y123436D01*
X144929Y124126D01*
Y124874D01*
X144643Y125564D01*
X144115Y126092D01*
X143425Y126378D01*
X142678D01*
X141987Y126092D01*
X141459Y125564D01*
X141173Y124874D01*
Y124126D01*
X141459Y123436D01*
X141538Y123357D01*
Y122143D01*
X141459Y122064D01*
X141173Y121374D01*
Y120626D01*
X141459Y119936D01*
X141538Y119858D01*
Y114143D01*
X141459Y114064D01*
X141173Y113374D01*
Y112626D01*
X141459Y111936D01*
X141538Y111857D01*
Y106142D01*
X141459Y106064D01*
X141245Y105547D01*
X141211Y105513D01*
X140338D01*
X140338Y105513D01*
X140338Y105513D01*
X138411D01*
X138384Y105525D01*
X138027Y105535D01*
X137730Y105561D01*
X137481Y105602D01*
X137284Y105656D01*
X137139Y105715D01*
X137045Y105772D01*
X136994Y105820D01*
X136968Y105858D01*
X136953Y105902D01*
X136940Y106025D01*
X136913Y106073D01*
Y106862D01*
X131189D01*
Y104839D01*
X131096Y104836D01*
X131039Y104811D01*
X118887D01*
X106281Y117417D01*
X106564Y117841D01*
X106617Y117819D01*
X107485D01*
X107967Y118018D01*
X107980Y118005D01*
X108243Y117830D01*
X108553Y117768D01*
X111423D01*
X111505Y117354D01*
X111781Y116942D01*
X112193Y116667D01*
X112679Y116570D01*
X113016D01*
Y117702D01*
X114016D01*
Y116570D01*
X114352D01*
X114839Y116667D01*
X115251Y116942D01*
X115526Y117354D01*
X115623Y117841D01*
Y118079D01*
X114491D01*
Y119079D01*
X115623D01*
Y119317D01*
X115526Y119803D01*
X115251Y120215D01*
X115049Y120350D01*
X115000Y120502D01*
X114955Y120917D01*
X114967Y120961D01*
X115055Y121093D01*
X115113Y121384D01*
Y122860D01*
X115055Y123151D01*
X114890Y123398D01*
X114910Y123981D01*
X114976Y124048D01*
X115232Y124666D01*
Y125334D01*
X114976Y125952D01*
X114503Y126425D01*
X113886Y126681D01*
X113217D01*
X112599Y126425D01*
X112126Y125952D01*
X111870Y125334D01*
Y124666D01*
X112126Y124048D01*
X112181Y123993D01*
X112141Y123398D01*
X111976Y123151D01*
X111918Y122860D01*
Y121384D01*
X111976Y121093D01*
X112065Y120961D01*
X112077Y120917D01*
X112031Y120502D01*
X111983Y120350D01*
X111781Y120215D01*
X111505Y119803D01*
X111423Y119390D01*
X109350D01*
X109232Y119566D01*
Y120434D01*
X108928Y121169D01*
X108085Y120327D01*
X107378Y121034D01*
X108221Y121876D01*
X107485Y122181D01*
X107097D01*
X106717Y122569D01*
Y123320D01*
X116592Y133195D01*
X124293D01*
X124825Y132664D01*
X125620Y132335D01*
X126094D01*
X126301Y131835D01*
X125989Y131522D01*
X125657Y130720D01*
Y129853D01*
X125961Y129117D01*
X126804Y129959D01*
X127511Y129252D01*
X126669Y128410D01*
X127404Y128106D01*
X128272D01*
X129007Y128410D01*
X128165Y129252D01*
X128872Y129959D01*
X129714Y129117D01*
X130019Y129853D01*
Y130720D01*
X129714Y131456D01*
X128872Y130614D01*
X128165Y131321D01*
X129007Y132163D01*
X128272Y132468D01*
X127788D01*
X127581Y132968D01*
X127887Y133273D01*
X128217Y134069D01*
Y134931D01*
X127887Y135727D01*
X127278Y136336D01*
X126482Y136665D01*
X125620D01*
X124825Y136336D01*
X124293Y135805D01*
X118191D01*
X117984Y136305D01*
X118276Y137010D01*
Y137871D01*
X117946Y138667D01*
X117363Y139250D01*
X117887Y139773D01*
X118217Y140569D01*
Y141431D01*
X117887Y142227D01*
X117278Y142836D01*
X116482Y143165D01*
X115621D01*
X114825Y142836D01*
X114316Y142327D01*
X113859Y142354D01*
X113592Y142768D01*
X113716Y143069D01*
Y143931D01*
X113387Y144727D01*
X112778Y145336D01*
X111982Y145665D01*
X111120D01*
X110325Y145336D01*
X109793Y144805D01*
X109142D01*
Y144966D01*
X109047Y145447D01*
X108775Y145853D01*
X108570Y145991D01*
X108520Y146165D01*
X108481Y146550D01*
X108493Y146597D01*
X108591Y146742D01*
X108649Y147034D01*
Y148510D01*
X108591Y148801D01*
X108426Y149048D01*
X108179Y149213D01*
X107888Y149270D01*
X106215D01*
X106120Y149252D01*
X104115Y151256D01*
X103852Y151432D01*
X103542Y151493D01*
X98132D01*
X98074Y151635D01*
X97601Y152108D01*
X96983Y152363D01*
X96314D01*
X95696Y152108D01*
X95223Y151635D01*
X94968Y151017D01*
Y150348D01*
X95223Y149730D01*
X95540Y149413D01*
X95487Y148914D01*
X96375Y148027D01*
X95668Y147319D01*
X94826Y148162D01*
X94521Y147426D01*
Y146558D01*
X94826Y145823D01*
X95668Y146665D01*
X96375Y145958D01*
X95533Y145116D01*
X96268Y144811D01*
X97136D01*
X97872Y145116D01*
X97029Y145958D01*
X97736Y146665D01*
X98579Y145823D01*
X98883Y146558D01*
Y147426D01*
X98579Y148162D01*
X97736Y147319D01*
X97029Y148027D01*
X97872Y148869D01*
X97871Y148869D01*
X97788Y149444D01*
X98074Y149730D01*
X98132Y149872D01*
X103206D01*
X105454Y147624D01*
Y147034D01*
X105512Y146742D01*
X105609Y146597D01*
X105622Y146550D01*
X105582Y146165D01*
X105533Y145991D01*
X105328Y145853D01*
X105056Y145447D01*
X104960Y144966D01*
Y144729D01*
X104839Y144705D01*
X104416Y144422D01*
X96659Y136665D01*
X95908D01*
X95112Y136336D01*
X94503Y135727D01*
X94173Y134931D01*
Y134069D01*
X94503Y133273D01*
X95112Y132664D01*
X95908Y132335D01*
X96769D01*
X97565Y132664D01*
X98174Y133273D01*
X98504Y134069D01*
Y134820D01*
X105879Y142195D01*
X106753D01*
X107030Y141780D01*
X106886Y141431D01*
Y140569D01*
X107215Y139773D01*
X107825Y139164D01*
X108313Y138962D01*
X108615Y138786D01*
X108563Y138358D01*
X108386Y137931D01*
Y137069D01*
X108715Y136273D01*
X109325Y135664D01*
X110120Y135335D01*
X110982D01*
X111778Y135664D01*
X112279Y136166D01*
X114323D01*
X114884Y135605D01*
X114803Y135097D01*
X104872Y125165D01*
X104121D01*
X103325Y124836D01*
X102716Y124227D01*
X102386Y123431D01*
Y122569D01*
X102716Y121773D01*
X103325Y121164D01*
X104121Y120835D01*
X104495D01*
X104870Y120434D01*
Y119566D01*
X104892Y119513D01*
X104468Y119230D01*
X95625Y128073D01*
X95362Y128249D01*
X95051Y128311D01*
X79391D01*
X79124Y128811D01*
X79202Y129200D01*
Y129537D01*
X78070D01*
Y130537D01*
X79202D01*
Y130873D01*
X79105Y131360D01*
X78829Y131772D01*
X78417Y132047D01*
X78016Y132127D01*
Y138584D01*
X78351Y138919D01*
X78629Y138803D01*
X79497D01*
X80232Y139108D01*
X79390Y139950D01*
X80097Y140657D01*
X80939Y139815D01*
X81244Y140550D01*
Y141418D01*
X80939Y142154D01*
X80097Y141311D01*
X79390Y142018D01*
X80232Y142861D01*
X79497Y143165D01*
X78629D01*
X77828Y142833D01*
X77724Y142730D01*
X77224Y142937D01*
Y144687D01*
X77679Y145048D01*
X78104Y145021D01*
X78413Y144711D01*
X79215Y144379D01*
X80082D01*
X80818Y144684D01*
X79975Y145526D01*
X80683Y146233D01*
X81525Y145391D01*
X81829Y146127D01*
Y146994D01*
X81525Y147730D01*
X80683Y146888D01*
X79975Y147595D01*
X80818Y148437D01*
X80082Y148742D01*
X79215D01*
X78479Y148437D01*
X79321Y147595D01*
X78614Y146888D01*
X77642Y147860D01*
X77336Y147984D01*
X76897Y148165D01*
X76229D01*
X75611Y147909D01*
X75138Y147436D01*
X74882Y146819D01*
Y146150D01*
X75138Y145532D01*
X75402Y145268D01*
Y143030D01*
X75111Y142909D01*
X74638Y142437D01*
X74382Y141819D01*
Y141150D01*
X74638Y140532D01*
X75111Y140059D01*
X75729Y139803D01*
X76260D01*
X76269Y139795D01*
X76505Y139427D01*
X76530Y139341D01*
X76456Y139230D01*
X76394Y138919D01*
Y132132D01*
X75968Y132047D01*
X75556Y131772D01*
X75421Y131570D01*
X75270Y131521D01*
X74855Y131476D01*
X74811Y131488D01*
X74679Y131576D01*
X74388Y131634D01*
X72911D01*
X72620Y131576D01*
X72373Y131411D01*
X72209Y131164D01*
X72151Y130873D01*
Y129200D01*
X72209Y128909D01*
X72373Y128662D01*
X72461Y128065D01*
X72456Y128051D01*
X70027Y125622D01*
X69886Y125681D01*
X69217D01*
X68599Y125425D01*
X68126Y124952D01*
X67870Y124334D01*
Y123666D01*
X68126Y123048D01*
X68599Y122575D01*
X69217Y122319D01*
X69886D01*
X70240Y122466D01*
X70740Y122158D01*
Y113336D01*
X68526Y111122D01*
X68065Y111368D01*
X68077Y111425D01*
Y111762D01*
X66945D01*
Y112762D01*
X68077D01*
Y113098D01*
X67980Y113585D01*
X67705Y113997D01*
X67292Y114272D01*
X66870Y114356D01*
Y116479D01*
X67220Y116624D01*
X66378Y117466D01*
X67085Y118173D01*
X67928Y117331D01*
X68232Y118066D01*
Y118934D01*
X67928Y119669D01*
X67085Y118827D01*
X66378Y119534D01*
X67227Y120383D01*
X66887Y120717D01*
Y123973D01*
X65780D01*
Y124973D01*
X66887D01*
Y128229D01*
X64025D01*
Y127121D01*
X63025D01*
Y128229D01*
X60163D01*
Y124973D01*
X61271D01*
Y123973D01*
X60163D01*
Y122104D01*
X59663Y121883D01*
X58982Y122165D01*
X58121D01*
X57325Y121836D01*
X56716Y121227D01*
X56386Y120431D01*
Y119569D01*
X56716Y118773D01*
X56793Y118696D01*
X56807Y118675D01*
X56866Y118577D01*
X56970Y118381D01*
X56998Y118320D01*
X57018Y118269D01*
X52482Y113733D01*
X43059D01*
X42825Y114084D01*
X42418Y114356D01*
X42376Y114364D01*
Y117583D01*
X42738D01*
Y117605D01*
X42828Y118067D01*
X43238Y118067D01*
X46584D01*
Y124185D01*
X42828Y124185D01*
X42738Y124648D01*
Y124670D01*
X33683D01*
Y124648D01*
X33672Y124595D01*
X33606Y124590D01*
X33260Y125063D01*
X33335Y125243D01*
Y125912D01*
X33198Y126243D01*
X33519Y126743D01*
X51161D01*
X52111Y125794D01*
X52130Y125740D01*
X52176Y125688D01*
X52202Y125653D01*
X52226Y125610D01*
X52250Y125558D01*
X52272Y125495D01*
X52292Y125422D01*
X52306Y125346D01*
X52327Y125127D01*
X52329Y125004D01*
X52370Y124909D01*
Y124666D01*
X52626Y124048D01*
X53099Y123575D01*
X53717Y123319D01*
X54386D01*
X55003Y123575D01*
X55476Y124048D01*
X55732Y124666D01*
Y125334D01*
X55476Y125952D01*
X55003Y126425D01*
X54386Y126681D01*
X54142D01*
X54047Y126722D01*
X53916Y126724D01*
X53809Y126731D01*
X53714Y126743D01*
X53629Y126759D01*
X53556Y126779D01*
X53494Y126801D01*
X53442Y126825D01*
X53399Y126850D01*
X53363Y126875D01*
X53312Y126921D01*
X53257Y126941D01*
X52070Y128128D01*
X51807Y128303D01*
X51497Y128365D01*
X15307D01*
X14997Y128303D01*
X14734Y128128D01*
X11112Y124506D01*
X11054Y124483D01*
X10981Y124414D01*
X10921Y124364D01*
X10866Y124322D01*
X10814Y124288D01*
X10767Y124262D01*
X10725Y124243D01*
X10687Y124230D01*
X10652Y124222D01*
X10621Y124217D01*
X10564Y124214D01*
X10504Y124185D01*
X9092D01*
Y128229D01*
X6230D01*
Y127121D01*
X5230D01*
Y128229D01*
X2368D01*
Y124973D01*
X3475D01*
Y123973D01*
X2368D01*
Y120717D01*
X3530D01*
X3722Y120255D01*
X3702Y120236D01*
X3370Y119434D01*
Y118566D01*
X3675Y117831D01*
X4517Y118673D01*
X5224Y117966D01*
X4382Y117124D01*
X5117Y116819D01*
X5985D01*
X6720Y117124D01*
X5878Y117966D01*
X6585Y118673D01*
X7428Y117831D01*
X7683Y118446D01*
X8183Y118347D01*
Y118067D01*
X9137D01*
X9139Y117974D01*
X9165Y117917D01*
Y113958D01*
X9139D01*
X8848Y113900D01*
X8601Y113735D01*
X8436Y113488D01*
X8378Y113197D01*
Y111721D01*
X8436Y111429D01*
X8601Y111183D01*
X8848Y111018D01*
X9139Y110960D01*
X10812D01*
X11103Y111018D01*
X11350Y111183D01*
X11515Y111429D01*
X11573Y111721D01*
Y113197D01*
X11562Y113251D01*
X12008Y113571D01*
X12617Y113319D01*
X13485D01*
X14220Y113624D01*
X13378Y114466D01*
X14085Y115173D01*
X14928Y114331D01*
X15232Y115066D01*
Y115934D01*
X14928Y116669D01*
X14085Y115827D01*
X13378Y116534D01*
X14220Y117376D01*
X13760Y117567D01*
X13859Y118067D01*
X16269D01*
X16273Y118047D01*
X16360Y117583D01*
D01*
X16461Y117113D01*
X16386Y116931D01*
Y116069D01*
X16715Y115273D01*
X17325Y114664D01*
X18121Y114335D01*
X18982D01*
X19778Y114664D01*
X20387Y115273D01*
X20717Y116069D01*
Y116931D01*
X20657Y117075D01*
X20994Y117567D01*
X22553D01*
Y118675D01*
X23553D01*
Y117567D01*
X25108D01*
X25445Y117073D01*
X25386Y116931D01*
Y116069D01*
X25716Y115273D01*
X26325Y114664D01*
X27121Y114335D01*
X27982D01*
X28778Y114664D01*
X29387Y115273D01*
X29717Y116069D01*
Y116931D01*
X29640Y117115D01*
X29746Y117583D01*
D01*
X29832Y118047D01*
X29836Y118067D01*
X33592Y118067D01*
X33683Y117605D01*
Y117583D01*
X34770D01*
Y115972D01*
X34867Y115485D01*
X35144Y115071D01*
X35768Y114447D01*
X35776Y114423D01*
X35787Y114379D01*
X35795Y114331D01*
X35812Y114135D01*
X35813Y114019D01*
X35833Y113929D01*
Y113589D01*
X36162Y112793D01*
X36771Y112184D01*
X37567Y111854D01*
X38429D01*
X38578Y111916D01*
X39041Y111566D01*
X39106Y111240D01*
X39378Y110833D01*
X39583Y110696D01*
X39603Y110625D01*
X39477Y110304D01*
X38928Y110208D01*
X38787Y110349D01*
X37985Y110681D01*
X37117D01*
X36382Y110376D01*
X37224Y109534D01*
X36517Y108827D01*
X35675Y109669D01*
X35370Y108934D01*
Y108066D01*
X35675Y107331D01*
X36517Y108173D01*
X37224Y107466D01*
X36382Y106624D01*
X37117Y106319D01*
X37985D01*
X38721Y106624D01*
X37878Y107466D01*
X38585Y108173D01*
X39457Y107301D01*
X39974Y107474D01*
X40265Y107416D01*
X41938D01*
X42229Y107474D01*
X42476Y107639D01*
X42641Y107886D01*
X42684Y108105D01*
X49188D01*
X49498Y108166D01*
X49761Y108342D01*
X51522Y110102D01*
X57501D01*
X57750Y109772D01*
X57545Y109311D01*
X52551D01*
X52241Y109249D01*
X51978Y109073D01*
X51978Y109073D01*
X35034Y92130D01*
X34859Y91867D01*
X34797Y91557D01*
Y82771D01*
X34771D01*
X34480Y82713D01*
X34233Y82548D01*
X34069Y82301D01*
X34011Y82010D01*
Y80533D01*
X34069Y80242D01*
X34233Y79996D01*
X34480Y79831D01*
X34771Y79773D01*
X36445D01*
X36736Y79831D01*
X36982Y79996D01*
X37028Y80063D01*
X37320Y80054D01*
X37571Y80003D01*
X37816Y79635D01*
X38018Y79500D01*
X38067Y79349D01*
X38107Y78982D01*
X37815Y78539D01*
X37191D01*
X37147Y78758D01*
X36982Y79004D01*
X36736Y79169D01*
X36445Y79227D01*
X34771D01*
X34480Y79169D01*
X34233Y79004D01*
X34069Y78758D01*
X34011Y78466D01*
Y76990D01*
X34069Y76699D01*
X34233Y76452D01*
X34480Y76287D01*
X34771Y76230D01*
X36445D01*
X36736Y76287D01*
X36982Y76452D01*
X37147Y76699D01*
X37191Y76917D01*
X37968D01*
X38012Y76699D01*
X38177Y76452D01*
X38423Y76287D01*
X38715Y76230D01*
X40388D01*
X40679Y76287D01*
X40926Y76452D01*
X41058Y76651D01*
X41293Y76674D01*
X41588Y76639D01*
X41626Y76548D01*
X42099Y76075D01*
X42230Y76021D01*
Y75479D01*
X42099Y75425D01*
X41626Y74952D01*
X41370Y74334D01*
Y73666D01*
X41626Y73048D01*
X42077Y72597D01*
X42045Y72097D01*
X42041D01*
X41750Y72039D01*
X41504Y71874D01*
X41339Y71628D01*
X41281Y71337D01*
Y71335D01*
X40424D01*
X40376Y71578D01*
X40211Y71824D01*
X39964Y71989D01*
X39673Y72047D01*
X38000D01*
X37709Y71989D01*
X37462Y71824D01*
X37297Y71578D01*
X37239Y71286D01*
Y69810D01*
X37297Y69519D01*
X37462Y69272D01*
X37709Y69107D01*
X38000Y69049D01*
X39673D01*
X39964Y69107D01*
X40211Y69272D01*
X40376Y69519D01*
X40414Y69713D01*
X41281D01*
Y69663D01*
X41339Y69372D01*
X41504Y69125D01*
X41750Y68961D01*
X42041Y68903D01*
X43518D01*
X43809Y68961D01*
X43941Y69049D01*
X43985Y69061D01*
X44400Y69016D01*
X44551Y68967D01*
X44686Y68765D01*
X45099Y68490D01*
X45407Y68428D01*
X45458Y67908D01*
X45382Y67876D01*
X46224Y67034D01*
X45517Y66327D01*
X44551Y67293D01*
X43597Y66339D01*
X42890Y67046D01*
X43732Y67888D01*
X42997Y68193D01*
X42129D01*
X41328Y67861D01*
X40933Y67467D01*
X40433Y67674D01*
Y67743D01*
X40376Y68034D01*
X40211Y68281D01*
X39964Y68446D01*
X39673Y68504D01*
X38909D01*
X38836Y68518D01*
X38738D01*
X38665Y68504D01*
X38000D01*
X37709Y68446D01*
X37462Y68281D01*
X37297Y68034D01*
X37239Y67743D01*
Y67548D01*
X33053Y63362D01*
X31148D01*
X10064Y84445D01*
Y97586D01*
X10600Y98122D01*
X10925D01*
X11615Y98408D01*
X12143Y98936D01*
X12429Y99626D01*
Y100374D01*
X12143Y101064D01*
X11615Y101592D01*
X10925Y101878D01*
X10178D01*
X9487Y101592D01*
X9409Y101513D01*
X7694D01*
X7615Y101592D01*
X6925Y101878D01*
X6178D01*
X5487Y101592D01*
X4959Y101064D01*
X4673Y100374D01*
Y99626D01*
X4959Y98936D01*
X5487Y98408D01*
X6178Y98122D01*
X6502D01*
X7038Y97586D01*
Y83818D01*
X7038Y83818D01*
X7153Y83239D01*
X7481Y82748D01*
X28677Y61552D01*
Y57638D01*
X29538D01*
Y38713D01*
X29538Y38713D01*
X29538Y38713D01*
Y35142D01*
X29459Y35064D01*
X29173Y34374D01*
Y33626D01*
X29459Y32936D01*
X29538Y32857D01*
Y12500D01*
X29538Y12500D01*
X29653Y11921D01*
X29981Y11430D01*
X39891Y1520D01*
X39803Y1170D01*
X39700Y1020D01*
X15110D01*
X15071Y1520D01*
X16662Y1772D01*
X18505Y2371D01*
X20232Y3250D01*
X21800Y4389D01*
X23170Y5759D01*
X24309Y7327D01*
X25189Y9054D01*
X25787Y10897D01*
X26091Y12811D01*
Y14748D01*
X25787Y16662D01*
X25189Y18505D01*
X24309Y20232D01*
X23170Y21800D01*
X21800Y23170D01*
X20232Y24309D01*
X18505Y25189D01*
X16662Y25787D01*
X14748Y26091D01*
X12811D01*
X10897Y25787D01*
X9054Y25189D01*
X7327Y24309D01*
X5759Y23170D01*
X4389Y21800D01*
X3250Y20232D01*
X2371Y18505D01*
X1772Y16662D01*
X1520Y15071D01*
X1020Y15110D01*
Y157725D01*
X3576D01*
Y158832D01*
X4576D01*
Y157725D01*
X7439D01*
Y160245D01*
X7854Y160523D01*
X7955Y160481D01*
X8823D01*
X9559Y160785D01*
X8716Y161627D01*
X9424Y162335D01*
X10266Y161493D01*
X10571Y162228D01*
Y163096D01*
X10266Y163831D01*
X9424Y162989D01*
X8716Y163696D01*
X9559Y164538D01*
X8823Y164843D01*
X7955D01*
X7854Y164801D01*
X7439Y165079D01*
Y167599D01*
X4576D01*
Y166491D01*
X3576D01*
Y167599D01*
X1020D01*
Y188980D01*
X165441D01*
X165480Y188480D01*
X163889Y188228D01*
X162046Y187629D01*
X160319Y186750D01*
X158752Y185611D01*
X157381Y184241D01*
X156242Y182673D01*
X155363Y180946D01*
X154764Y179103D01*
X154461Y177189D01*
Y175252D01*
X154764Y173338D01*
X155363Y171495D01*
X156242Y169768D01*
X157381Y168200D01*
X158752Y166830D01*
X160319Y165691D01*
X162046Y164811D01*
X163889Y164213D01*
X165803Y163909D01*
X167741D01*
X169655Y164213D01*
X171497Y164811D01*
X173224Y165691D01*
X174792Y166830D01*
X176162Y168200D01*
X177301Y169768D01*
X178181Y171495D01*
X178779Y173338D01*
X179083Y175252D01*
Y177189D01*
X178779Y179103D01*
X178181Y180946D01*
X177301Y182673D01*
X176162Y184241D01*
X174792Y185611D01*
X173224Y186750D01*
X171497Y187629D01*
X169655Y188228D01*
X168063Y188480D01*
X168102Y188980D01*
X180083D01*
Y15181D01*
D02*
G37*
G36*
X53023Y126453D02*
X53104Y126395D01*
X53193Y126343D01*
X53290Y126299D01*
X53395Y126262D01*
X53508Y126232D01*
X53629Y126208D01*
X53758Y126192D01*
X53895Y126183D01*
X54039Y126181D01*
X52870Y125012D01*
X52868Y125157D01*
X52843Y125422D01*
X52820Y125543D01*
X52789Y125656D01*
X52752Y125761D01*
X52708Y125858D01*
X52657Y125947D01*
X52598Y126028D01*
X52533Y126101D01*
X52950Y126518D01*
X53023Y126453D01*
D02*
G37*
G36*
X11844Y123673D02*
X11765Y123590D01*
X11694Y123506D01*
X11631Y123423D01*
X11577Y123339D01*
X11531Y123256D01*
X11493Y123172D01*
X11464Y123089D01*
X11443Y123005D01*
X11431Y122922D01*
X11427Y122838D01*
X10591Y123673D01*
X10675Y123678D01*
X10758Y123690D01*
X10842Y123711D01*
X10926Y123740D01*
X11009Y123778D01*
X11092Y123824D01*
X11176Y123878D01*
X11260Y123941D01*
X11343Y124012D01*
X11427Y124091D01*
X11844Y123673D01*
D02*
G37*
G36*
X75845Y121447D02*
X75770Y121443D01*
X75695Y121432D01*
X75620Y121413D01*
X75545Y121387D01*
X75470Y121353D01*
X75394Y121311D01*
X75319Y121263D01*
X75244Y121206D01*
X75169Y121142D01*
X75094Y121071D01*
X74718Y121447D01*
X74789Y121522D01*
X74853Y121597D01*
X74910Y121672D01*
X74958Y121747D01*
X75000Y121823D01*
X75034Y121898D01*
X75060Y121973D01*
X75079Y122048D01*
X75090Y122123D01*
X75094Y122198D01*
X75845Y121447D01*
D02*
G37*
G36*
X59186Y119004D02*
X59069Y118925D01*
X58965Y118843D01*
X58873Y118759D01*
X58793Y118674D01*
X58726Y118585D01*
X58671Y118495D01*
X58628Y118402D01*
X58597Y118307D01*
X58579Y118210D01*
X58573Y118110D01*
X58041Y118226D01*
X58037Y118311D01*
X58022Y118401D01*
X57999Y118498D01*
X57966Y118601D01*
X57923Y118710D01*
X57871Y118825D01*
X57738Y119073D01*
X57658Y119206D01*
X57568Y119346D01*
X59186Y119004D01*
D02*
G37*
G36*
X41582Y118574D02*
X41537Y118558D01*
X41497Y118532D01*
X41463Y118494D01*
X41434Y118446D01*
X41410Y118388D01*
X41391Y118319D01*
X41378Y118239D01*
X41370Y118149D01*
X41367Y118048D01*
X40836D01*
X40833Y118149D01*
X40825Y118239D01*
X40812Y118319D01*
X40793Y118388D01*
X40769Y118446D01*
X40740Y118494D01*
X40705Y118532D01*
X40666Y118558D01*
X40620Y118574D01*
X40570Y118579D01*
X41633D01*
X41582Y118574D01*
D02*
G37*
G36*
X36526D02*
X36481Y118558D01*
X36441Y118532D01*
X36406Y118494D01*
X36377Y118446D01*
X36353Y118388D01*
X36335Y118319D01*
X36321Y118239D01*
X36313Y118149D01*
X36311Y118048D01*
X35779D01*
X35776Y118149D01*
X35768Y118239D01*
X35755Y118319D01*
X35737Y118388D01*
X35713Y118446D01*
X35684Y118494D01*
X35649Y118532D01*
X35609Y118558D01*
X35564Y118574D01*
X35513Y118579D01*
X36576D01*
X36526Y118574D01*
D02*
G37*
G36*
X10510Y118573D02*
X10460Y118556D01*
X10415Y118526D01*
X10377Y118485D01*
X10345Y118432D01*
X10318Y118367D01*
X10297Y118290D01*
X10283Y118201D01*
X10274Y118101D01*
X10271Y117989D01*
X9680D01*
X9677Y118101D01*
X9668Y118201D01*
X9654Y118290D01*
X9633Y118367D01*
X9606Y118432D01*
X9574Y118485D01*
X9535Y118526D01*
X9491Y118556D01*
X9441Y118573D01*
X9385Y118579D01*
X10566D01*
X10510Y118573D01*
D02*
G37*
G36*
X64025Y120717D02*
X64545D01*
X64684Y120217D01*
X64202Y119736D01*
X63870Y118934D01*
Y118066D01*
X63962Y117845D01*
X63576Y117470D01*
X63142Y117649D01*
X62473D01*
X61855Y117393D01*
X61383Y116920D01*
X61127Y116303D01*
Y115634D01*
X61383Y115016D01*
X61714Y114684D01*
Y113845D01*
X61496Y113801D01*
X61249Y113636D01*
X61084Y113390D01*
X61026Y113098D01*
Y111932D01*
X60526Y111832D01*
X60476Y111952D01*
X60003Y112425D01*
X59386Y112681D01*
X58717D01*
X58099Y112425D01*
X57626Y111952D01*
X57532Y111724D01*
X54731D01*
X54540Y112186D01*
X59208Y116855D01*
X59484Y117268D01*
X59582Y117756D01*
Y118047D01*
X59613Y118076D01*
X59661Y118114D01*
X59671Y118120D01*
X59778Y118164D01*
X60387Y118773D01*
X60716Y119569D01*
Y120431D01*
X60908Y120717D01*
X63025D01*
Y121825D01*
X64025D01*
Y120717D01*
D02*
G37*
G36*
X76650Y117898D02*
X76605Y117882D01*
X76565Y117856D01*
X76530Y117818D01*
X76501Y117771D01*
X76477Y117712D01*
X76459Y117643D01*
X76446Y117563D01*
X76437Y117473D01*
X76435Y117372D01*
X75903D01*
X75901Y117473D01*
X75893Y117563D01*
X75879Y117643D01*
X75861Y117712D01*
X75837Y117771D01*
X75808Y117818D01*
X75773Y117856D01*
X75733Y117882D01*
X75688Y117898D01*
X75638Y117903D01*
X76701D01*
X76650Y117898D01*
D02*
G37*
G36*
X28032Y118574D02*
X27987Y118558D01*
X27947Y118532D01*
X27913Y118494D01*
X27883Y118446D01*
X27859Y118388D01*
X27841Y118319D01*
X27828Y118239D01*
X27827Y118238D01*
X27839Y118170D01*
X27867Y118072D01*
X27907Y117973D01*
X27957Y117872D01*
X28019Y117770D01*
X28092Y117666D01*
X28176Y117560D01*
X28271Y117453D01*
X28378Y117343D01*
X26724D01*
X26831Y117453D01*
X27011Y117666D01*
X27084Y117770D01*
X27145Y117872D01*
X27196Y117973D01*
X27235Y118072D01*
X27263Y118170D01*
X27275Y118238D01*
X27275Y118239D01*
X27261Y118319D01*
X27243Y118388D01*
X27219Y118446D01*
X27190Y118494D01*
X27155Y118532D01*
X27115Y118558D01*
X27070Y118574D01*
X27020Y118579D01*
X28083D01*
X28032Y118574D01*
D02*
G37*
G36*
X19032D02*
X18987Y118558D01*
X18947Y118532D01*
X18913Y118494D01*
X18883Y118446D01*
X18859Y118388D01*
X18841Y118319D01*
X18828Y118239D01*
X18827Y118238D01*
X18839Y118170D01*
X18867Y118072D01*
X18907Y117973D01*
X18957Y117872D01*
X19019Y117770D01*
X19092Y117666D01*
X19176Y117560D01*
X19271Y117453D01*
X19378Y117343D01*
X17724D01*
X17831Y117453D01*
X18011Y117666D01*
X18083Y117770D01*
X18145Y117872D01*
X18196Y117973D01*
X18235Y118072D01*
X18263Y118170D01*
X18275Y118238D01*
X18275Y118239D01*
X18261Y118319D01*
X18243Y118388D01*
X18219Y118446D01*
X18190Y118494D01*
X18155Y118532D01*
X18115Y118558D01*
X18070Y118574D01*
X18020Y118579D01*
X19083D01*
X19032Y118574D01*
D02*
G37*
G36*
X159538Y129873D02*
Y113634D01*
X151911Y106006D01*
X151522Y106325D01*
X151591Y106427D01*
X151648Y106719D01*
Y108195D01*
X151591Y108486D01*
X151502Y108618D01*
X151490Y108662D01*
X151536Y109077D01*
X151584Y109228D01*
X151786Y109363D01*
X152062Y109776D01*
X152158Y110262D01*
Y110500D01*
X151026D01*
Y111500D01*
X152158D01*
Y111738D01*
X152062Y112224D01*
X151786Y112637D01*
X151374Y112912D01*
X150888Y113009D01*
X150862D01*
Y115294D01*
X152481Y116913D01*
X152585Y116893D01*
X152823D01*
Y118025D01*
X153823D01*
Y116893D01*
X154061D01*
X154547Y116990D01*
X154959Y117265D01*
X155235Y117677D01*
X155332Y118163D01*
Y118500D01*
X154200D01*
Y119500D01*
X155332D01*
Y119837D01*
X155235Y120323D01*
X155122Y120492D01*
X155234Y120800D01*
X155379Y121007D01*
X155614Y121054D01*
X155877Y121230D01*
X157377Y122729D01*
X157377Y122729D01*
X157552Y122992D01*
X157614Y123302D01*
X157614Y123302D01*
Y127630D01*
X157552Y127940D01*
X157377Y128203D01*
X157049Y128531D01*
X157333Y129217D01*
X157435Y129992D01*
X157333Y130767D01*
X157034Y131489D01*
X156865Y131709D01*
X156065Y130909D01*
X155358Y131616D01*
X156158Y132416D01*
X155938Y132585D01*
X155216Y132884D01*
X154633Y132961D01*
X154349Y133335D01*
X154309Y133486D01*
X154457Y133842D01*
Y134247D01*
X154957Y134454D01*
X159538Y129873D01*
D02*
G37*
G36*
X76437Y116340D02*
X76446Y116249D01*
X76459Y116170D01*
X76477Y116101D01*
X76501Y116042D01*
X76530Y115994D01*
X76565Y115957D01*
X76605Y115930D01*
X76650Y115915D01*
X76701Y115909D01*
X75638D01*
X75688Y115915D01*
X75733Y115930D01*
X75773Y115957D01*
X75808Y115994D01*
X75837Y116042D01*
X75861Y116101D01*
X75879Y116170D01*
X75893Y116249D01*
X75901Y116340D01*
X75903Y116441D01*
X76435D01*
X76437Y116340D01*
D02*
G37*
G36*
X36941Y115460D02*
X37021Y115404D01*
X37110Y115355D01*
X37208Y115312D01*
X37315Y115277D01*
X37431Y115248D01*
X37556Y115226D01*
X37690Y115211D01*
X37833Y115202D01*
X37986Y115200D01*
X36817Y114031D01*
X36815Y114184D01*
X36791Y114461D01*
X36769Y114587D01*
X36740Y114703D01*
X36705Y114810D01*
X36663Y114908D01*
X36614Y114996D01*
X36558Y115076D01*
X36495Y115146D01*
X36871Y115522D01*
X36941Y115460D01*
D02*
G37*
G36*
X136421Y105781D02*
X136480Y105614D01*
X136579Y105466D01*
X136716Y105339D01*
X136893Y105230D01*
X137110Y105142D01*
X137366Y105073D01*
X137661Y105024D01*
X137996Y104994D01*
X138370Y104984D01*
Y103016D01*
X137996Y103006D01*
X137661Y102976D01*
X137366Y102927D01*
X137110Y102858D01*
X136893Y102770D01*
X136716Y102661D01*
X136579Y102533D01*
X136480Y102386D01*
X136421Y102218D01*
X136401Y102032D01*
Y105968D01*
X136421Y105781D01*
D02*
G37*
G36*
X131701Y104434D02*
X134485Y101650D01*
X134206Y101636D01*
X133928Y101594D01*
X133650Y101524D01*
X133371Y101427D01*
X133093Y101302D01*
X132815Y101149D01*
X132536Y100968D01*
X132258Y100759D01*
X131979Y100522D01*
X131701Y100258D01*
X130309Y101650D01*
X130573Y101928D01*
X130810Y102207D01*
X131019Y102485D01*
X131200Y102763D01*
X131353Y103042D01*
X131478Y103320D01*
X131576Y103598D01*
X131580Y103615D01*
X131553Y103631D01*
X131488Y103657D01*
X131412Y103678D01*
X131323Y103693D01*
X131223Y103702D01*
X131110Y103705D01*
Y104295D01*
X131223Y104298D01*
X131323Y104307D01*
X131412Y104322D01*
X131488Y104342D01*
X131553Y104369D01*
X131606Y104402D01*
X131648Y104440D01*
X131677Y104484D01*
X131695Y104534D01*
X131701Y104591D01*
Y104434D01*
D02*
G37*
G36*
X60554Y95127D02*
X60491Y95056D01*
X60436Y94977D01*
X60387Y94888D01*
X60344Y94790D01*
X60309Y94683D01*
X60280Y94567D01*
X60258Y94442D01*
X60243Y94308D01*
X60234Y94164D01*
X60232Y94012D01*
X59063Y95181D01*
X59215Y95183D01*
X59493Y95207D01*
X59619Y95229D01*
X59734Y95258D01*
X59842Y95293D01*
X59939Y95335D01*
X60028Y95384D01*
X60108Y95440D01*
X60178Y95503D01*
X60554Y95127D01*
D02*
G37*
G36*
X111824Y94771D02*
X111841Y94720D01*
X111871Y94676D01*
X111912Y94638D01*
X111965Y94605D01*
X112030Y94579D01*
X112107Y94558D01*
X112196Y94543D01*
X112296Y94534D01*
X112408Y94531D01*
Y93941D01*
X112296Y93938D01*
X112196Y93929D01*
X112107Y93914D01*
X112030Y93894D01*
X111965Y93867D01*
X111912Y93835D01*
X111871Y93796D01*
X111841Y93752D01*
X111824Y93702D01*
X111818Y93646D01*
Y94827D01*
X111824Y94771D01*
D02*
G37*
G36*
X104631Y90905D02*
X104643Y90821D01*
X104664Y90738D01*
X104693Y90654D01*
X104731Y90571D01*
X104777Y90487D01*
X104831Y90404D01*
X104894Y90320D01*
X104965Y90237D01*
X105044Y90153D01*
X104706Y89656D01*
X104589Y89769D01*
X104365Y89960D01*
X104258Y90037D01*
X104155Y90102D01*
X104055Y90156D01*
X103959Y90198D01*
X103867Y90228D01*
X103778Y90246D01*
X103693Y90251D01*
X104626Y90988D01*
X104631Y90905D01*
D02*
G37*
G36*
X123037Y91197D02*
X123067Y90862D01*
X123116Y90567D01*
X123185Y90311D01*
X123274Y90094D01*
X123382Y89917D01*
X123510Y89779D01*
X123658Y89681D01*
X123825Y89622D01*
X124012Y89602D01*
X120075D01*
X120262Y89622D01*
X120429Y89681D01*
X120577Y89779D01*
X120705Y89917D01*
X120813Y90094D01*
X120902Y90311D01*
X120970Y90567D01*
X121020Y90862D01*
X121049Y91197D01*
X121059Y91571D01*
X123028D01*
X123037Y91197D01*
D02*
G37*
G36*
X60234Y90336D02*
X60258Y90058D01*
X60280Y89933D01*
X60309Y89817D01*
X60344Y89710D01*
X60387Y89612D01*
X60436Y89523D01*
X60491Y89443D01*
X60554Y89373D01*
X60178Y88997D01*
X60108Y89060D01*
X60028Y89116D01*
X59939Y89165D01*
X59842Y89207D01*
X59734Y89243D01*
X59619Y89271D01*
X59493Y89293D01*
X59359Y89309D01*
X59215Y89317D01*
X59063Y89319D01*
X60232Y90488D01*
X60234Y90336D01*
D02*
G37*
G36*
X117978Y103427D02*
X118241Y103251D01*
X118551Y103189D01*
X130235D01*
X130393Y103006D01*
X130496Y102689D01*
X130387Y102544D01*
X130171Y102290D01*
X129917Y102023D01*
X129906Y101995D01*
X120973Y93062D01*
X120645Y92571D01*
X120530Y91992D01*
X120530Y91992D01*
Y91612D01*
X120518Y91585D01*
X120509Y91228D01*
X120482Y90930D01*
X120441Y90682D01*
X120388Y90484D01*
X120328Y90339D01*
X120271Y90246D01*
X120224Y90194D01*
X120185Y90169D01*
X120142Y90153D01*
X120018Y90140D01*
X119970Y90114D01*
X118984D01*
Y89923D01*
X118484Y89724D01*
X113380Y94829D01*
X113117Y95004D01*
X112807Y95066D01*
X112292Y95314D01*
X112282Y95364D01*
X112117Y95611D01*
X111870Y95776D01*
X111579Y95833D01*
X110103D01*
X109812Y95776D01*
X109565Y95611D01*
X109400Y95364D01*
X109342Y95073D01*
Y93400D01*
X109400Y93108D01*
X109565Y92862D01*
X109812Y92697D01*
X110103Y92639D01*
X111579D01*
X111870Y92697D01*
X112117Y92862D01*
X112209Y92999D01*
X112631Y93117D01*
X112794Y93121D01*
X117240Y88675D01*
Y79212D01*
X117174Y79186D01*
X116740Y79128D01*
X116624Y79302D01*
X105459Y90467D01*
X105436Y90526D01*
X105367Y90598D01*
X105317Y90658D01*
X105275Y90714D01*
X105241Y90765D01*
X105216Y90812D01*
X105196Y90855D01*
X105183Y90893D01*
X105175Y90927D01*
X105170Y90958D01*
X105167Y91015D01*
X105148Y91054D01*
Y91966D01*
X105091Y92258D01*
X104926Y92504D01*
X104679Y92669D01*
X104388Y92727D01*
X102715D01*
X102424Y92669D01*
X102177Y92504D01*
X102012Y92258D01*
X101954Y91966D01*
Y90490D01*
X102012Y90199D01*
X102177Y89952D01*
X102424Y89787D01*
X102715Y89729D01*
X103602D01*
X103630Y89714D01*
X103643Y89718D01*
X103655Y89712D01*
X103706Y89708D01*
X103730Y89703D01*
X103768Y89691D01*
X103819Y89669D01*
X103881Y89635D01*
X103954Y89589D01*
X104030Y89534D01*
X104225Y89368D01*
X104331Y89266D01*
X104376Y89248D01*
X104402Y89208D01*
X104431Y89202D01*
X115240Y78392D01*
Y72433D01*
X115216Y72382D01*
X115212Y72312D01*
X115205Y72269D01*
X115192Y72221D01*
X115172Y72168D01*
X115144Y72108D01*
X115106Y72043D01*
X115062Y71978D01*
X114922Y71809D01*
X114836Y71721D01*
X114798Y71624D01*
X114626Y71452D01*
X114370Y70834D01*
Y70166D01*
X114626Y69548D01*
X115099Y69075D01*
X115717Y68819D01*
X116386D01*
X116740Y68966D01*
X117240Y68658D01*
Y53836D01*
X113845Y50441D01*
X113791Y50421D01*
X113739Y50375D01*
X113704Y50350D01*
X113661Y50325D01*
X113609Y50301D01*
X113547Y50279D01*
X113473Y50259D01*
X113397Y50245D01*
X113179Y50224D01*
X113055Y50222D01*
X112960Y50181D01*
X112717D01*
X112099Y49925D01*
X111626Y49452D01*
X111370Y48834D01*
Y48166D01*
X111626Y47548D01*
X112099Y47075D01*
X112717Y46819D01*
X113386D01*
X114003Y47075D01*
X114476Y47548D01*
X114732Y48166D01*
Y48409D01*
X114773Y48504D01*
X114775Y48635D01*
X114782Y48742D01*
X114794Y48838D01*
X114811Y48922D01*
X114830Y48996D01*
X114852Y49057D01*
X114876Y49110D01*
X114901Y49153D01*
X114926Y49188D01*
X114973Y49240D01*
X114992Y49294D01*
X118624Y52927D01*
X118800Y53190D01*
X118862Y53500D01*
X118862Y53500D01*
Y65437D01*
X118984Y65886D01*
X119362Y65886D01*
X120480D01*
X120528Y65860D01*
X120652Y65847D01*
X120695Y65831D01*
X120733Y65806D01*
X120781Y65754D01*
X120838Y65661D01*
X120898Y65516D01*
X120951Y65318D01*
X120992Y65070D01*
X121019Y64772D01*
X121028Y64415D01*
X121040Y64388D01*
Y63358D01*
X121028Y63331D01*
X121020Y62972D01*
X120996Y62670D01*
X120960Y62415D01*
X120912Y62212D01*
X120858Y62061D01*
X120807Y61965D01*
X120769Y61918D01*
X120750Y61903D01*
X120739Y61898D01*
X120648Y61888D01*
X120603Y61862D01*
X120201D01*
Y61421D01*
X120172Y61350D01*
X120185Y61318D01*
X120176Y61285D01*
X120201Y61240D01*
Y56138D01*
X120990D01*
X121038Y56112D01*
X121161Y56099D01*
X121205Y56083D01*
X121243Y56058D01*
X121291Y56006D01*
X121348Y55913D01*
X121407Y55768D01*
X121461Y55570D01*
X121502Y55322D01*
X121528Y55024D01*
X121538Y54667D01*
X121550Y54640D01*
Y49139D01*
X108575Y36164D01*
X105941D01*
X105425Y36378D01*
X104678D01*
X103987Y36092D01*
X103459Y35564D01*
X103173Y34874D01*
Y34126D01*
X103459Y33436D01*
X103538Y33358D01*
Y32849D01*
Y10127D01*
X97424Y4013D01*
X41678D01*
X32564Y13127D01*
Y32857D01*
X32643Y32936D01*
X32929Y33626D01*
Y34025D01*
X33598Y34694D01*
X34115Y34908D01*
X34643Y35436D01*
X34929Y36126D01*
Y36874D01*
X34643Y37564D01*
X34115Y38092D01*
X33598Y38306D01*
X32564Y39340D01*
Y40249D01*
X33064Y40548D01*
X33617Y40319D01*
X34485D01*
X35221Y40624D01*
X34378Y41466D01*
X35085Y42173D01*
X35928Y41331D01*
X36232Y42066D01*
Y42934D01*
X35928Y43669D01*
X35085Y42827D01*
X34378Y43534D01*
X35221Y44376D01*
X34485Y44681D01*
X33617D01*
X33064Y44452D01*
X32564Y44751D01*
Y52097D01*
X33064Y52196D01*
X33126Y52048D01*
X33599Y51575D01*
X34217Y51319D01*
X34886D01*
X35503Y51575D01*
X35976Y52048D01*
X36232Y52666D01*
Y53334D01*
X35976Y53952D01*
X35503Y54425D01*
X34886Y54681D01*
X34217D01*
X33599Y54425D01*
X33126Y53952D01*
X33064Y53804D01*
X32564Y53903D01*
Y57638D01*
X34402D01*
Y60430D01*
X39478Y65506D01*
X39673D01*
X39893Y65550D01*
X39983Y65555D01*
X40490Y65316D01*
X40714Y64776D01*
X41050Y64441D01*
Y63862D01*
X39201D01*
Y61000D01*
X40308D01*
Y60000D01*
X39201D01*
Y57138D01*
X42063D01*
Y58245D01*
X43063D01*
Y57138D01*
X45925D01*
Y60000D01*
X44818D01*
Y61000D01*
X45925D01*
Y61722D01*
X47546Y63343D01*
X47546Y63343D01*
X47874Y63834D01*
X47897Y63947D01*
X46878Y64966D01*
X47585Y65673D01*
X48428Y64831D01*
X48732Y65566D01*
Y66434D01*
X48428Y67169D01*
X47585Y66327D01*
X46878Y67034D01*
X47721Y67876D01*
X47496Y67970D01*
X47547Y68490D01*
X47547Y68490D01*
X47959Y68765D01*
X48235Y69177D01*
X48331Y69663D01*
Y70000D01*
X47199D01*
Y71000D01*
X48331D01*
Y71337D01*
X48235Y71823D01*
X47959Y72235D01*
X47547Y72510D01*
X47061Y72607D01*
X46823D01*
Y71475D01*
X45823D01*
Y72607D01*
X45585D01*
X45099Y72510D01*
X44686Y72235D01*
X44551Y72033D01*
X44400Y71984D01*
X44352Y71979D01*
X44153Y72096D01*
X44087Y72309D01*
X44045Y72617D01*
X44476Y73048D01*
X44732Y73666D01*
Y74334D01*
X44476Y74952D01*
X44003Y75425D01*
X43872Y75479D01*
Y76021D01*
X44003Y76075D01*
X44476Y76548D01*
X44732Y77166D01*
Y77834D01*
X44476Y78452D01*
X44032Y78896D01*
X44400Y79264D01*
X44732Y80066D01*
Y80934D01*
X44428Y81669D01*
X43585Y80827D01*
X42878Y81534D01*
X43720Y82376D01*
X42985Y82681D01*
X42117D01*
X41609Y82471D01*
X41561Y82496D01*
X41286Y82908D01*
X40874Y83184D01*
X40388Y83280D01*
X40051D01*
Y82148D01*
X39051D01*
Y83280D01*
X38715D01*
X38228Y83184D01*
X37816Y82908D01*
X37571Y82541D01*
X37320Y82489D01*
X37028Y82480D01*
X36982Y82548D01*
X36736Y82713D01*
X36445Y82771D01*
X36419D01*
Y91221D01*
X50944Y105746D01*
X51444Y105539D01*
Y104534D01*
X51541Y104047D01*
X51816Y103635D01*
X52018Y103500D01*
X52067Y103349D01*
X52112Y102934D01*
X52100Y102890D01*
X52012Y102758D01*
X51954Y102466D01*
Y100990D01*
X52012Y100699D01*
X52177Y100452D01*
X52424Y100287D01*
X52715Y100230D01*
X54388D01*
X54679Y100287D01*
X54926Y100452D01*
X55091Y100699D01*
X55149Y100990D01*
Y101053D01*
X57624D01*
X57626Y101048D01*
X58099Y100575D01*
X58717Y100319D01*
X59386D01*
X60003Y100575D01*
X60476Y101048D01*
X60732Y101666D01*
Y102334D01*
X60476Y102952D01*
X60309Y103119D01*
X60291Y103553D01*
X59378Y104466D01*
X60085Y105173D01*
X60928Y104331D01*
X61232Y105066D01*
Y105934D01*
X60900Y106736D01*
X60447Y107189D01*
X60654Y107689D01*
X67051D01*
X67361Y107751D01*
X67624Y107927D01*
X71770Y112073D01*
X72270Y111865D01*
Y108323D01*
X59873Y95926D01*
X59819Y95907D01*
X59772Y95866D01*
X59741Y95844D01*
X59700Y95822D01*
X59649Y95799D01*
X59584Y95778D01*
X59506Y95758D01*
X59423Y95744D01*
X59189Y95724D01*
X59057Y95722D01*
X58961Y95681D01*
X58717D01*
X58099Y95425D01*
X57626Y94952D01*
X57370Y94334D01*
Y93666D01*
X57626Y93048D01*
X58099Y92575D01*
X58230Y92521D01*
Y91979D01*
X58099Y91925D01*
X57626Y91452D01*
X57370Y90834D01*
Y90166D01*
X57626Y89548D01*
X58099Y89075D01*
X58180Y89041D01*
Y88500D01*
X57882Y88376D01*
X58724Y87534D01*
X58017Y86827D01*
X57175Y87669D01*
X57082Y87447D01*
X56158D01*
Y87510D01*
X56062Y87996D01*
X55786Y88408D01*
X55374Y88684D01*
X54888Y88780D01*
X54551D01*
Y87648D01*
X53551D01*
Y88780D01*
X53215D01*
X52728Y88684D01*
X52365Y88441D01*
X52193Y88386D01*
X51910D01*
X51737Y88441D01*
X51374Y88684D01*
X50888Y88780D01*
X50551D01*
Y87648D01*
X49551D01*
Y88780D01*
X49215D01*
X48867Y89066D01*
Y89511D01*
X48562Y90246D01*
X47720Y89404D01*
X47013Y90111D01*
X47855Y90953D01*
X47119Y91258D01*
X46252D01*
X45516Y90953D01*
X46358Y90111D01*
X45651Y89404D01*
X44809Y90246D01*
X44504Y89511D01*
Y88643D01*
X44809Y87908D01*
X45651Y88750D01*
X46358Y88043D01*
X45516Y87201D01*
X45640Y87149D01*
X45649Y87094D01*
X45590Y86629D01*
X45099Y86425D01*
X44626Y85952D01*
X44370Y85334D01*
Y84666D01*
X44626Y84048D01*
X45099Y83575D01*
X45717Y83319D01*
X46386D01*
X46527Y83377D01*
X47030Y82875D01*
X47293Y82699D01*
X47603Y82637D01*
X47603Y82637D01*
X48454D01*
Y82490D01*
X48512Y82199D01*
X48677Y81952D01*
X48924Y81787D01*
X49215Y81730D01*
X50888D01*
X51179Y81787D01*
X51426Y81952D01*
X51591Y82199D01*
X51634Y82418D01*
X52468D01*
X52512Y82199D01*
X52677Y81952D01*
X52924Y81787D01*
X53215Y81730D01*
X54888D01*
X55179Y81787D01*
X55426Y81952D01*
X55591Y82199D01*
X55611Y82303D01*
X57520D01*
X57626Y82048D01*
X58099Y81575D01*
X58717Y81319D01*
X59386D01*
X60003Y81575D01*
X60476Y82048D01*
X60732Y82666D01*
Y83334D01*
X60476Y83952D01*
X60309Y84119D01*
X60291Y84553D01*
X59378Y85466D01*
X60085Y86173D01*
X60928Y85331D01*
X61232Y86066D01*
Y86508D01*
X61732Y86715D01*
X74423Y74024D01*
X74676Y73855D01*
X74975Y73796D01*
X84390D01*
X84448Y73770D01*
X84486Y73769D01*
X84530Y73547D01*
X84695Y73300D01*
X84942Y73135D01*
X85233Y73077D01*
X86906D01*
X87197Y73135D01*
X87444Y73300D01*
X87609Y73547D01*
X87667Y73838D01*
Y75315D01*
X87609Y75606D01*
X87444Y75852D01*
X87197Y76017D01*
X86906Y76075D01*
X85233D01*
X84942Y76017D01*
X84695Y75852D01*
X84530Y75606D01*
X84486Y75384D01*
X84448Y75383D01*
X84390Y75357D01*
X75298D01*
X60978Y89678D01*
X60959Y89732D01*
X60917Y89780D01*
X60895Y89810D01*
X60873Y89851D01*
X60850Y89903D01*
X60829Y89968D01*
X60810Y90045D01*
X60795Y90128D01*
X60775Y90362D01*
X60773Y90495D01*
X60732Y90591D01*
Y90834D01*
X60476Y91452D01*
X60003Y91925D01*
X59873Y91979D01*
Y92521D01*
X60003Y92575D01*
X60476Y93048D01*
X60732Y93666D01*
Y93909D01*
X60773Y94005D01*
X60775Y94145D01*
X60782Y94261D01*
X60794Y94364D01*
X60810Y94455D01*
X60829Y94533D01*
X60850Y94597D01*
X60873Y94649D01*
X60895Y94690D01*
X60917Y94721D01*
X60959Y94768D01*
X60978Y94822D01*
X73603Y107448D01*
X73773Y107701D01*
X73832Y108000D01*
Y108780D01*
X74272Y108925D01*
Y108925D01*
X77831D01*
Y116421D01*
X76977D01*
X76976Y116455D01*
X76950Y116513D01*
Y117299D01*
X76976Y117358D01*
X76977Y117381D01*
X77006D01*
X77297Y117439D01*
X77544Y117604D01*
X77709Y117851D01*
X77766Y118142D01*
Y119618D01*
X77709Y119910D01*
X77544Y120156D01*
X77297Y120321D01*
X77006Y120379D01*
X76359D01*
X76116Y120814D01*
X76129Y120861D01*
X76170Y120925D01*
X77006D01*
X77297Y120983D01*
X77544Y121148D01*
X77709Y121394D01*
X77766Y121685D01*
Y123162D01*
X77709Y123453D01*
X77544Y123700D01*
X77297Y123865D01*
X77006Y123923D01*
X75332D01*
X75041Y123865D01*
X74795Y123700D01*
X74630Y123453D01*
X74572Y123162D01*
Y122265D01*
X74553Y122225D01*
X74551Y122177D01*
X74547Y122154D01*
X74541Y122128D01*
X74531Y122099D01*
X74515Y122064D01*
X74494Y122026D01*
X74466Y121982D01*
X74430Y121935D01*
X74387Y121884D01*
X74326Y121819D01*
X74303Y121760D01*
X72862Y120319D01*
X72362Y120526D01*
Y122664D01*
X76387Y126689D01*
X94715D01*
X117978Y103427D01*
D02*
G37*
G36*
X148626Y82447D02*
X148685Y82279D01*
X148783Y82132D01*
X148921Y82004D01*
X149098Y81896D01*
X149315Y81807D01*
X149571Y81738D01*
X149866Y81689D01*
X150201Y81659D01*
X150575Y81650D01*
Y79681D01*
X150201Y79671D01*
X149866Y79642D01*
X149571Y79593D01*
X149315Y79524D01*
X149098Y79435D01*
X148921Y79327D01*
X148783Y79199D01*
X148685Y79051D01*
X148626Y78884D01*
X148606Y78697D01*
Y82634D01*
X148626Y82447D01*
D02*
G37*
G36*
X84994Y74045D02*
X84989Y74095D01*
X84973Y74141D01*
X84946Y74180D01*
X84909Y74215D01*
X84861Y74244D01*
X84803Y74268D01*
X84734Y74287D01*
X84654Y74300D01*
X84564Y74308D01*
X84463Y74311D01*
Y74842D01*
X84564Y74845D01*
X84654Y74853D01*
X84734Y74866D01*
X84803Y74885D01*
X84861Y74909D01*
X84909Y74938D01*
X84946Y74972D01*
X84973Y75012D01*
X84989Y75057D01*
X84994Y75108D01*
Y74045D01*
D02*
G37*
G36*
X148626Y77116D02*
X148685Y76949D01*
X148783Y76801D01*
X148921Y76673D01*
X149098Y76565D01*
X149315Y76476D01*
X149571Y76407D01*
X149866Y76358D01*
X150201Y76329D01*
X150575Y76319D01*
Y74350D01*
X150201Y74341D01*
X149866Y74311D01*
X149571Y74262D01*
X149315Y74193D01*
X149098Y74104D01*
X148921Y73996D01*
X148783Y73868D01*
X148685Y73721D01*
X148626Y73553D01*
X148606Y73366D01*
Y77303D01*
X148626Y77116D01*
D02*
G37*
G36*
X116352Y72254D02*
X116368Y72156D01*
X116394Y72057D01*
X116431Y71957D01*
X116479Y71856D01*
X116538Y71755D01*
X116607Y71653D01*
X116687Y71551D01*
X116777Y71447D01*
X116878Y71343D01*
X115224D01*
X115325Y71447D01*
X115496Y71653D01*
X115565Y71755D01*
X115623Y71856D01*
X115671Y71957D01*
X115708Y72057D01*
X115735Y72156D01*
X115751Y72254D01*
X115756Y72352D01*
X116347D01*
X116352Y72254D01*
D02*
G37*
G36*
X124335Y66378D02*
X124167Y66319D01*
X124020Y66221D01*
X123892Y66083D01*
X123784Y65906D01*
X123695Y65689D01*
X123626Y65433D01*
X123577Y65138D01*
X123547Y64803D01*
X123537Y64429D01*
X121569D01*
X121559Y64803D01*
X121529Y65138D01*
X121480Y65433D01*
X121411Y65689D01*
X121323Y65906D01*
X121215Y66083D01*
X121087Y66221D01*
X120939Y66319D01*
X120772Y66378D01*
X120585Y66398D01*
X124522D01*
X124335Y66378D01*
D02*
G37*
G36*
X123547Y62945D02*
X123577Y62610D01*
X123626Y62315D01*
X123695Y62059D01*
X123784Y61842D01*
X123892Y61665D01*
X124020Y61527D01*
X124167Y61429D01*
X124335Y61370D01*
X124522Y61350D01*
X120713D01*
X120876Y61370D01*
X121021Y61429D01*
X121149Y61527D01*
X121261Y61665D01*
X121355Y61842D01*
X121432Y62059D01*
X121492Y62315D01*
X121535Y62610D01*
X121560Y62945D01*
X121569Y63319D01*
X123537D01*
X123547Y62945D01*
D02*
G37*
G36*
X124845Y56630D02*
X124677Y56571D01*
X124530Y56473D01*
X124402Y56335D01*
X124293Y56158D01*
X124205Y55941D01*
X124136Y55685D01*
X124087Y55390D01*
X124057Y55055D01*
X124047Y54681D01*
X122079D01*
X122069Y55055D01*
X122039Y55390D01*
X121990Y55685D01*
X121921Y55941D01*
X121833Y56158D01*
X121724Y56335D01*
X121597Y56473D01*
X121449Y56571D01*
X121282Y56630D01*
X121095Y56650D01*
X125031D01*
X124845Y56630D01*
D02*
G37*
G36*
X114570Y49601D02*
X114504Y49528D01*
X114446Y49447D01*
X114394Y49358D01*
X114350Y49261D01*
X114313Y49156D01*
X114283Y49043D01*
X114260Y48922D01*
X114243Y48794D01*
X114234Y48657D01*
X114232Y48512D01*
X113063Y49681D01*
X113208Y49683D01*
X113474Y49708D01*
X113594Y49731D01*
X113707Y49762D01*
X113812Y49799D01*
X113909Y49843D01*
X113998Y49895D01*
X114079Y49953D01*
X114152Y50019D01*
X114570Y49601D01*
D02*
G37*
%LPC*%
G36*
X136524Y180878D02*
X135578D01*
X134731Y180527D01*
X135573Y179686D01*
X134866Y178979D01*
X134024Y179820D01*
X133673Y178973D01*
Y178262D01*
X133424Y178013D01*
X132913D01*
Y179874D01*
X130051D01*
Y178766D01*
X129051D01*
Y179874D01*
X126189D01*
Y177012D01*
X127297D01*
Y176012D01*
X126189D01*
Y173150D01*
X129051D01*
Y174257D01*
X130051D01*
Y173150D01*
X132913D01*
Y174308D01*
X133404Y174528D01*
X133673Y174317D01*
Y173527D01*
X134024Y172680D01*
X134866Y173521D01*
X135573Y172814D01*
X134731Y171973D01*
X135578Y171622D01*
X136524D01*
X137371Y171973D01*
X136530Y172814D01*
X137237Y173521D01*
X138078Y172680D01*
X138429Y173527D01*
Y174473D01*
X138078Y175320D01*
X137237Y174478D01*
X136530Y175186D01*
X137565Y176220D01*
Y176280D01*
X136530Y177314D01*
X137237Y178022D01*
X138078Y177180D01*
X138429Y178027D01*
Y178973D01*
X138078Y179820D01*
X137237Y178979D01*
X136530Y179686D01*
X137371Y180527D01*
X136524Y180878D01*
D02*
G37*
G36*
X44485Y179181D02*
X43617D01*
X42882Y178876D01*
X43724Y178034D01*
X43017Y177327D01*
X42175Y178169D01*
X41870Y177434D01*
Y176566D01*
X42175Y175831D01*
X43017Y176673D01*
X43724Y175966D01*
X42882Y175124D01*
X43617Y174819D01*
X44485D01*
X45221Y175124D01*
X44378Y175966D01*
X45085Y176673D01*
X45928Y175831D01*
X46232Y176566D01*
Y177434D01*
X45928Y178169D01*
X45085Y177327D01*
X44378Y178034D01*
X45221Y178876D01*
X44485Y179181D01*
D02*
G37*
G36*
X63886Y181681D02*
X63217D01*
X62599Y181425D01*
X62126Y180952D01*
X61870Y180334D01*
Y179666D01*
X62126Y179048D01*
X62599Y178575D01*
X62486Y178082D01*
X59851Y175447D01*
X58687D01*
X58377Y175385D01*
X58114Y175209D01*
X55027Y172123D01*
X54886Y172181D01*
X54217D01*
X53599Y171925D01*
X53126Y171452D01*
X52870Y170834D01*
Y170166D01*
X53126Y169548D01*
X53599Y169075D01*
X54217Y168819D01*
X54886D01*
X55503Y169075D01*
X55976Y169548D01*
X56232Y170166D01*
Y170834D01*
X56174Y170976D01*
X59023Y173825D01*
X60187D01*
X60497Y173887D01*
X60761Y174063D01*
X64058Y177360D01*
X64233Y177623D01*
X64295Y177933D01*
Y178489D01*
X64503Y178575D01*
X64976Y179048D01*
X65232Y179666D01*
Y180334D01*
X64976Y180952D01*
X64503Y181425D01*
X63886Y181681D01*
D02*
G37*
G36*
X68541Y167599D02*
X65679D01*
Y166491D01*
X64679D01*
Y167599D01*
X61817D01*
Y163162D01*
X62924D01*
Y162162D01*
X61817D01*
Y157725D01*
X64679D01*
Y158832D01*
X65679D01*
Y157725D01*
X68541D01*
Y161851D01*
X69093D01*
X69371Y161435D01*
X69370Y161434D01*
Y160566D01*
X69675Y159831D01*
X70517Y160673D01*
X71224Y159966D01*
X70382Y159124D01*
X71117Y158819D01*
X71985D01*
X72720Y159124D01*
X71878Y159966D01*
X72585Y160673D01*
X73428Y159831D01*
X73732Y160566D01*
Y161434D01*
X73428Y162169D01*
X72585Y161327D01*
X71878Y162034D01*
X72720Y162876D01*
X71985Y163181D01*
X71117D01*
X70693Y163005D01*
X70463Y163235D01*
X70200Y163411D01*
X69889Y163473D01*
X68541D01*
Y167599D01*
D02*
G37*
G36*
X109985Y167681D02*
X109117D01*
X108382Y167376D01*
X109224Y166534D01*
X108517Y165827D01*
X107675Y166669D01*
X107370Y165934D01*
Y165066D01*
X107675Y164331D01*
X108517Y165173D01*
X109224Y164466D01*
X108382Y163624D01*
X109117Y163319D01*
X109985D01*
X110721Y163624D01*
X109878Y164466D01*
X110585Y165173D01*
X111428Y164331D01*
X111732Y165066D01*
Y165934D01*
X111428Y166669D01*
X110585Y165827D01*
X109878Y166534D01*
X110721Y167376D01*
X109985Y167681D01*
D02*
G37*
G36*
X86520Y188311D02*
X84582D01*
X82668Y188008D01*
X80825Y187409D01*
X79099Y186529D01*
X77531Y185390D01*
X76161Y184020D01*
X75022Y182452D01*
X74142Y180726D01*
X73543Y178883D01*
X73240Y176969D01*
Y175031D01*
X73543Y173117D01*
X74142Y171274D01*
X75022Y169548D01*
X76161Y167980D01*
X77531Y166610D01*
X79099Y165471D01*
X80825Y164591D01*
X82668Y163992D01*
X84582Y163689D01*
X86520D01*
X88434Y163992D01*
X90277Y164591D01*
X92004Y165471D01*
X93571Y166610D01*
X94942Y167980D01*
X96080Y169548D01*
X96960Y171274D01*
X97559Y173117D01*
X97862Y175031D01*
Y176969D01*
X97559Y178883D01*
X96960Y180726D01*
X96080Y182452D01*
X94942Y184020D01*
X93571Y185390D01*
X92004Y186529D01*
X90277Y187409D01*
X88434Y188008D01*
X86520Y188311D01*
D02*
G37*
G36*
X47024Y165615D02*
X46247D01*
X45496Y165413D01*
X44822Y165025D01*
X44273Y164475D01*
X43884Y163802D01*
X43683Y163050D01*
Y162273D01*
X43884Y161522D01*
X44273Y160849D01*
X44822Y160299D01*
X45496Y159910D01*
X46247Y159709D01*
X47024D01*
X47775Y159910D01*
X48449Y160299D01*
X48998Y160849D01*
X49387Y161522D01*
X49588Y162273D01*
Y163050D01*
X49387Y163802D01*
X48998Y164475D01*
X48449Y165025D01*
X47775Y165413D01*
X47024Y165615D01*
D02*
G37*
G36*
X112386Y160681D02*
X111717D01*
X111099Y160425D01*
X110626Y159952D01*
X110567Y159811D01*
X95551D01*
X95241Y159749D01*
X94978Y159573D01*
X93516Y158111D01*
X93054Y158303D01*
Y158496D01*
X92749Y159232D01*
X91907Y158390D01*
X91200Y159097D01*
X92042Y159939D01*
X91307Y160244D01*
X90439D01*
X89704Y159939D01*
X90546Y159097D01*
X89839Y158390D01*
X88996Y159232D01*
X88692Y158496D01*
Y157629D01*
X88996Y156893D01*
X89839Y157735D01*
X90546Y157028D01*
X89704Y156186D01*
X90439Y155882D01*
X90633D01*
X90824Y155420D01*
X87715Y152311D01*
X45551D01*
X45241Y152249D01*
X44978Y152073D01*
X44978Y152073D01*
X28715Y135811D01*
X16535D01*
X16476Y135952D01*
X16003Y136425D01*
X15386Y136681D01*
X14717D01*
X14099Y136425D01*
X13626Y135952D01*
X13370Y135334D01*
Y134666D01*
X13626Y134048D01*
X14099Y133575D01*
X14717Y133319D01*
X15386D01*
X16003Y133575D01*
X16476Y134048D01*
X16535Y134189D01*
X29051D01*
X29362Y134251D01*
X29625Y134427D01*
X45887Y150689D01*
X88051D01*
X88362Y150751D01*
X88625Y150927D01*
X95887Y158189D01*
X110567D01*
X110626Y158048D01*
X111099Y157575D01*
X111717Y157319D01*
X112386D01*
X113003Y157575D01*
X113476Y158048D01*
X113732Y158666D01*
Y159334D01*
X113476Y159952D01*
X113003Y160425D01*
X112386Y160681D01*
D02*
G37*
G36*
X157269Y159301D02*
X156402D01*
X155666Y158997D01*
X156508Y158154D01*
X155801Y157447D01*
X154959Y158290D01*
X154654Y157554D01*
Y156686D01*
X154959Y155951D01*
X155801Y156793D01*
X156508Y156086D01*
X155666Y155244D01*
X156402Y154939D01*
X157269D01*
X158005Y155244D01*
X157163Y156086D01*
X157870Y156793D01*
X158712Y155951D01*
X159017Y156686D01*
Y157554D01*
X158712Y158290D01*
X157870Y157447D01*
X157163Y158154D01*
X158005Y158997D01*
X157269Y159301D01*
D02*
G37*
G36*
X15528Y165615D02*
X14751D01*
X14000Y165413D01*
X13326Y165025D01*
X12777Y164475D01*
X12388Y163802D01*
X12187Y163050D01*
Y162273D01*
X12388Y161522D01*
X12777Y160849D01*
X13326Y160299D01*
X14000Y159910D01*
X14751Y159709D01*
X14978D01*
X15176Y159209D01*
X14702Y158736D01*
X14370Y157934D01*
Y157066D01*
X14675Y156331D01*
X15517Y157173D01*
X16224Y156466D01*
X15382Y155624D01*
X16117Y155319D01*
X16985D01*
X17720Y155624D01*
X16878Y156466D01*
X17585Y157173D01*
X18428Y156331D01*
X18732Y157066D01*
Y157934D01*
X18428Y158669D01*
X17585Y157827D01*
X16878Y158534D01*
X17720Y159376D01*
X16985Y159681D01*
X16882D01*
X16748Y160181D01*
X16952Y160299D01*
X17502Y160849D01*
X17891Y161522D01*
X18092Y162273D01*
Y163050D01*
X17891Y163802D01*
X17502Y164475D01*
X16952Y165025D01*
X16279Y165413D01*
X15528Y165615D01*
D02*
G37*
G36*
X162170Y158965D02*
X161501D01*
X160883Y158709D01*
X160410Y158237D01*
X160154Y157619D01*
Y156950D01*
X160410Y156332D01*
X160883Y155859D01*
X161501Y155603D01*
X162170D01*
X162788Y155859D01*
X163261Y156332D01*
X163516Y156950D01*
Y157619D01*
X163261Y158237D01*
X162788Y158709D01*
X162170Y158965D01*
D02*
G37*
G36*
X79897Y158665D02*
X79229D01*
X78611Y158409D01*
X78138Y157937D01*
X77882Y157319D01*
Y156650D01*
X78138Y156032D01*
X78611Y155559D01*
X79229Y155303D01*
X79897D01*
X80515Y155559D01*
X80988Y156032D01*
X81244Y156650D01*
Y157319D01*
X80988Y157937D01*
X80515Y158409D01*
X79897Y158665D01*
D02*
G37*
G36*
X131886Y157681D02*
X131217D01*
X130599Y157425D01*
X130126Y156952D01*
X130067Y156811D01*
X96551D01*
X96241Y156749D01*
X95978Y156573D01*
X88052Y148648D01*
X87877Y148385D01*
X87815Y148075D01*
Y142348D01*
X81559Y136091D01*
X81417Y136150D01*
X80748D01*
X80130Y135894D01*
X79658Y135421D01*
X79402Y134803D01*
Y134134D01*
X79658Y133516D01*
X80130Y133043D01*
X80748Y132787D01*
X81417D01*
X82035Y133043D01*
X82508Y133516D01*
X82764Y134134D01*
Y134803D01*
X82705Y134944D01*
X89199Y141438D01*
X89375Y141701D01*
X89437Y142012D01*
Y147739D01*
X96887Y155189D01*
X130067D01*
X130126Y155048D01*
X130599Y154575D01*
X131217Y154319D01*
X131886D01*
X132503Y154575D01*
X132976Y155048D01*
X133232Y155666D01*
Y156334D01*
X132976Y156952D01*
X132503Y157425D01*
X131886Y157681D01*
D02*
G37*
G36*
X147303Y158481D02*
X146368D01*
X145465Y158239D01*
X144655Y157771D01*
X143994Y157110D01*
X143526Y156300D01*
X143284Y155397D01*
Y154462D01*
X143526Y153559D01*
X143994Y152749D01*
X144655Y152088D01*
X145465Y151621D01*
X146368Y151379D01*
X147303D01*
X148206Y151621D01*
X149016Y152088D01*
X149677Y152749D01*
X150145Y153559D01*
X150387Y154462D01*
Y155397D01*
X150145Y156300D01*
X149677Y157110D01*
X149016Y157771D01*
X148206Y158239D01*
X147303Y158481D01*
D02*
G37*
G36*
X122886Y153681D02*
X122217D01*
X121599Y153425D01*
X121126Y152952D01*
X120870Y152334D01*
Y151666D01*
X121126Y151048D01*
X121599Y150575D01*
X122217Y150319D01*
X122886D01*
X123503Y150575D01*
X123976Y151048D01*
X124232Y151666D01*
Y152334D01*
X123976Y152952D01*
X123503Y153425D01*
X122886Y153681D01*
D02*
G37*
G36*
X131235Y150554D02*
X130367D01*
X129632Y150250D01*
X130474Y149407D01*
X129767Y148700D01*
X128925Y149542D01*
X128620Y148807D01*
Y147939D01*
X128925Y147204D01*
X129767Y148046D01*
X130474Y147339D01*
X129632Y146497D01*
X130367Y146192D01*
X131235D01*
X131970Y146497D01*
X131128Y147339D01*
X131835Y148046D01*
X132677Y147204D01*
X132982Y147939D01*
Y148807D01*
X132677Y149542D01*
X131835Y148700D01*
X131128Y149407D01*
X131970Y150250D01*
X131235Y150554D01*
D02*
G37*
G36*
X167303Y154481D02*
X166368D01*
X165465Y154239D01*
X164655Y153771D01*
X163994Y153110D01*
X163526Y152301D01*
X163284Y151397D01*
Y150462D01*
X163526Y149559D01*
X163994Y148749D01*
X164655Y148088D01*
X165465Y147621D01*
X166368Y147379D01*
X167303D01*
X168206Y147621D01*
X169016Y148088D01*
X169677Y148749D01*
X170145Y149559D01*
X170387Y150462D01*
Y151397D01*
X170145Y152301D01*
X169677Y153110D01*
X169016Y153771D01*
X168206Y154239D01*
X167303Y154481D01*
D02*
G37*
G36*
X147303Y150481D02*
X146368D01*
X145465Y150239D01*
X144655Y149771D01*
X143994Y149110D01*
X143526Y148301D01*
X143284Y147397D01*
Y146462D01*
X143526Y145559D01*
X143994Y144749D01*
X144655Y144088D01*
X145465Y143621D01*
X146368Y143379D01*
X147303D01*
X148206Y143621D01*
X149016Y144088D01*
X149677Y144749D01*
X150145Y145559D01*
X150387Y146462D01*
Y147397D01*
X150145Y148301D01*
X149677Y149110D01*
X149016Y149771D01*
X148206Y150239D01*
X147303Y150481D01*
D02*
G37*
G36*
X93397Y144665D02*
X92729D01*
X92111Y144409D01*
X91638Y143937D01*
X91382Y143319D01*
Y142650D01*
X91638Y142032D01*
X92111Y141559D01*
X92729Y141303D01*
X93397D01*
X94015Y141559D01*
X94488Y142032D01*
X94744Y142650D01*
Y143319D01*
X94488Y143937D01*
X94015Y144409D01*
X93397Y144665D01*
D02*
G37*
G36*
X54485Y137681D02*
X53617D01*
X52882Y137376D01*
X53724Y136534D01*
X53017Y135827D01*
X52175Y136669D01*
X51870Y135934D01*
Y135066D01*
X52175Y134331D01*
X53017Y135173D01*
X53724Y134466D01*
X52882Y133624D01*
X53617Y133319D01*
X54485D01*
X55221Y133624D01*
X54378Y134466D01*
X55085Y135173D01*
X55928Y134331D01*
X56232Y135066D01*
Y135934D01*
X55928Y136669D01*
X55085Y135827D01*
X54378Y136534D01*
X55221Y137376D01*
X54485Y137681D01*
D02*
G37*
G36*
X131386Y139181D02*
X130717D01*
X130099Y138925D01*
X129626Y138452D01*
X129370Y137834D01*
Y137166D01*
X129626Y136548D01*
X130099Y136075D01*
X130717Y135819D01*
X131386D01*
X132003Y136075D01*
X132476Y136548D01*
X132732Y137166D01*
Y137834D01*
X132476Y138452D01*
X132003Y138925D01*
X131386Y139181D01*
D02*
G37*
G36*
X169485Y136681D02*
X168617D01*
X167882Y136376D01*
X168724Y135534D01*
X168017Y134827D01*
X167175Y135669D01*
X166870Y134934D01*
Y134066D01*
X167114Y133476D01*
X166884Y132986D01*
X166835Y132944D01*
X166383Y132884D01*
X165660Y132585D01*
X165440Y132416D01*
X166241Y131616D01*
X165534Y130909D01*
X164733Y131709D01*
X164565Y131489D01*
X164265Y130767D01*
X164163Y129992D01*
X164265Y129217D01*
X164565Y128495D01*
X164733Y128275D01*
X165534Y129075D01*
X166241Y128368D01*
X165440Y127568D01*
X165660Y127399D01*
X166383Y127100D01*
X167157Y126998D01*
X168232D01*
Y128131D01*
X169232D01*
Y126998D01*
X170307D01*
X171082Y127100D01*
X171804Y127399D01*
X172024Y127568D01*
X171224Y128368D01*
X171931Y129075D01*
X172731Y128275D01*
X172900Y128495D01*
X173199Y129217D01*
X173301Y129992D01*
X173199Y130767D01*
X172900Y131489D01*
X172731Y131709D01*
X171931Y130909D01*
X171224Y131616D01*
X172024Y132416D01*
X171804Y132585D01*
X171185Y132842D01*
X171042Y133054D01*
X170958Y133405D01*
X171232Y134066D01*
Y134934D01*
X170928Y135669D01*
X170085Y134827D01*
X169378Y135534D01*
X170220Y136376D01*
X169485Y136681D01*
D02*
G37*
G36*
X66386Y137181D02*
X65717D01*
X65099Y136925D01*
X64626Y136452D01*
X64370Y135834D01*
Y135166D01*
X64626Y134548D01*
X65099Y134075D01*
X65717Y133819D01*
X66386D01*
X67003Y134075D01*
X67476Y134548D01*
X67732Y135166D01*
Y135834D01*
X67476Y136452D01*
X67003Y136925D01*
X66386Y137181D01*
D02*
G37*
G36*
X12485Y133181D02*
X11617D01*
X10882Y132876D01*
X11724Y132034D01*
X11017Y131327D01*
X10175Y132169D01*
X9870Y131434D01*
Y130566D01*
X10175Y129831D01*
X11017Y130673D01*
X11724Y129966D01*
X10882Y129124D01*
X11617Y128819D01*
X12485D01*
X13220Y129124D01*
X12378Y129966D01*
X13085Y130673D01*
X13928Y129831D01*
X14232Y130566D01*
Y131434D01*
X13928Y132169D01*
X13085Y131327D01*
X12378Y132034D01*
X13220Y132876D01*
X12485Y133181D01*
D02*
G37*
G36*
X136524Y124378D02*
X135578D01*
X134704Y124016D01*
X134202Y123513D01*
X133901D01*
X133398Y124016D01*
X132524Y124378D01*
X131578D01*
X130731Y124027D01*
X131573Y123186D01*
X130866Y122478D01*
X130024Y123320D01*
X129673Y122473D01*
Y121527D01*
X130024Y120680D01*
X130866Y121521D01*
X131573Y120814D01*
X130731Y119973D01*
X131578Y119622D01*
X132289D01*
X132538Y119373D01*
Y118386D01*
X130689D01*
Y115524D01*
X131797D01*
Y114524D01*
X130689D01*
Y111661D01*
X133551D01*
Y112769D01*
X134551D01*
Y111661D01*
X137413D01*
Y114524D01*
X136306D01*
Y115524D01*
X137413D01*
Y118386D01*
X135564D01*
Y119373D01*
X135813Y119622D01*
X136524D01*
X137371Y119973D01*
X136530Y120814D01*
X137237Y121521D01*
X138078Y120680D01*
X138429Y121527D01*
Y122473D01*
X138078Y123320D01*
X137237Y122478D01*
X136530Y123186D01*
X137371Y124027D01*
X136524Y124378D01*
D02*
G37*
G36*
X123524Y115378D02*
X122578D01*
X121731Y115027D01*
X122573Y114186D01*
X121866Y113479D01*
X121024Y114320D01*
X120673Y113473D01*
Y112527D01*
X121024Y111680D01*
X121866Y112522D01*
X122573Y111814D01*
X121731Y110973D01*
X122578Y110622D01*
X123524D01*
X124371Y110973D01*
X123530Y111814D01*
X124237Y112522D01*
X125078Y111680D01*
X125429Y112527D01*
Y113473D01*
X125078Y114320D01*
X124237Y113479D01*
X123530Y114186D01*
X124371Y115027D01*
X123524Y115378D01*
D02*
G37*
G36*
X20985Y112681D02*
X20117D01*
X19382Y112376D01*
X20224Y111534D01*
X19517Y110827D01*
X18675Y111669D01*
X18370Y110934D01*
Y110066D01*
X18675Y109331D01*
X19517Y110173D01*
X20224Y109466D01*
X19382Y108624D01*
X20117Y108319D01*
X20985D01*
X21721Y108624D01*
X20878Y109466D01*
X21585Y110173D01*
X22428Y109331D01*
X22732Y110066D01*
Y110934D01*
X22428Y111669D01*
X21585Y110827D01*
X20878Y111534D01*
X21721Y112376D01*
X20985Y112681D01*
D02*
G37*
G36*
X13386Y110681D02*
X12717D01*
X12099Y110425D01*
X11917Y110243D01*
X11350Y110191D01*
X11103Y110356D01*
X10812Y110414D01*
X9139D01*
X8848Y110356D01*
X8601Y110191D01*
X8436Y109945D01*
X8378Y109653D01*
Y108177D01*
X8436Y107886D01*
X8601Y107639D01*
X8848Y107474D01*
X9139Y107416D01*
X10812D01*
X11103Y107474D01*
X11350Y107639D01*
X11948Y107720D01*
X11957Y107717D01*
X12099Y107575D01*
X12717Y107319D01*
X13386D01*
X14003Y107575D01*
X14476Y108048D01*
X14732Y108666D01*
Y109334D01*
X14476Y109952D01*
X14003Y110425D01*
X13386Y110681D01*
D02*
G37*
G36*
X35985Y103181D02*
X35117D01*
X34382Y102876D01*
X35224Y102034D01*
X34517Y101327D01*
X33675Y102169D01*
X33370Y101434D01*
Y100566D01*
X33675Y99831D01*
X34517Y100673D01*
X35224Y99966D01*
X34382Y99124D01*
X35117Y98819D01*
X35985D01*
X36720Y99124D01*
X35878Y99966D01*
X36585Y100673D01*
X37428Y99831D01*
X37732Y100566D01*
Y101434D01*
X37428Y102169D01*
X36585Y101327D01*
X35878Y102034D01*
X36720Y102876D01*
X35985Y103181D01*
D02*
G37*
G36*
X167024Y75378D02*
X166078D01*
X165204Y75016D01*
X165188Y75000D01*
X167844D01*
X167871Y75027D01*
X167024Y75378D01*
D02*
G37*
G36*
X20485Y65181D02*
X19617D01*
X18882Y64876D01*
X19724Y64034D01*
X19017Y63327D01*
X18175Y64169D01*
X17870Y63434D01*
Y62566D01*
X18175Y61831D01*
X19017Y62673D01*
X19724Y61966D01*
X18882Y61124D01*
X19617Y60819D01*
X20485D01*
X21220Y61124D01*
X20378Y61966D01*
X21085Y62673D01*
X21928Y61831D01*
X22232Y62566D01*
Y63434D01*
X21928Y64169D01*
X21085Y63327D01*
X20378Y64034D01*
X21220Y64876D01*
X20485Y65181D01*
D02*
G37*
G36*
X12886Y60181D02*
X12217D01*
X11599Y59925D01*
X11126Y59452D01*
X10870Y58834D01*
Y58166D01*
X11126Y57548D01*
X11599Y57075D01*
X12217Y56819D01*
X12886D01*
X13503Y57075D01*
X13976Y57548D01*
X14232Y58166D01*
Y58834D01*
X13976Y59452D01*
X13503Y59925D01*
X12886Y60181D01*
D02*
G37*
G36*
X148886Y57181D02*
X148217D01*
X147599Y56925D01*
X147126Y56452D01*
X146870Y55834D01*
Y55166D01*
X147126Y54548D01*
X147599Y54075D01*
X148217Y53819D01*
X148886D01*
X149503Y54075D01*
X149976Y54548D01*
X150232Y55166D01*
Y55834D01*
X149976Y56452D01*
X149503Y56925D01*
X148886Y57181D01*
D02*
G37*
G36*
X162492Y51075D02*
X161823D01*
X161205Y50819D01*
X160732Y50346D01*
X160476Y49728D01*
Y49059D01*
X160493Y49018D01*
X159588Y48112D01*
X159203Y48100D01*
X158913D01*
X158899Y48097D01*
X157585D01*
X157293Y48039D01*
X157047Y47875D01*
X156882Y47628D01*
X156824Y47337D01*
Y45663D01*
X156882Y45372D01*
X157047Y45125D01*
X157293Y44961D01*
X157585Y44903D01*
X159061D01*
X159352Y44961D01*
X159599Y45125D01*
X159764Y45372D01*
X159822Y45663D01*
Y46248D01*
X159861Y46252D01*
X159964Y46254D01*
X160072Y46301D01*
X160301Y46347D01*
X160597Y46545D01*
X161782Y47730D01*
X161823Y47713D01*
X162492D01*
X163110Y47969D01*
X163583Y48441D01*
X163839Y49059D01*
Y49728D01*
X163583Y50346D01*
X163110Y50819D01*
X162492Y51075D01*
D02*
G37*
G36*
X148985Y47181D02*
X148117D01*
X147382Y46876D01*
X148224Y46034D01*
X147517Y45327D01*
X146675Y46169D01*
X146370Y45434D01*
Y44566D01*
X146675Y43831D01*
X147517Y44673D01*
X148224Y43966D01*
X147382Y43124D01*
X148117Y42819D01*
X148985D01*
X149721Y43124D01*
X148878Y43966D01*
X149585Y44673D01*
X150428Y43831D01*
X150732Y44566D01*
Y45434D01*
X150428Y46169D01*
X149585Y45327D01*
X148878Y46034D01*
X149721Y46876D01*
X148985Y47181D01*
D02*
G37*
G36*
X161779Y41287D02*
X161110D01*
X160493Y41032D01*
X160020Y40559D01*
X159603Y40488D01*
X159485Y40491D01*
X159402Y40499D01*
X159339Y40510D01*
X159298Y40522D01*
X159293Y40524D01*
X159282Y40538D01*
X159264Y40628D01*
X159099Y40874D01*
X158852Y41039D01*
X158561Y41097D01*
X157085D01*
X156793Y41039D01*
X156547Y40874D01*
X156382Y40628D01*
X156324Y40337D01*
Y38663D01*
X156382Y38372D01*
X156547Y38126D01*
X156793Y37961D01*
X157085Y37903D01*
X158561D01*
X158852Y37961D01*
X159099Y38126D01*
X159264Y38372D01*
X159308Y38596D01*
X159372Y38606D01*
X159468Y38615D01*
X159601Y38618D01*
X159654Y38642D01*
X160032D01*
X160493Y38181D01*
X161110Y37925D01*
X161779D01*
X162397Y38181D01*
X162870Y38654D01*
X163126Y39272D01*
Y39941D01*
X162870Y40559D01*
X162397Y41032D01*
X161779Y41287D01*
D02*
G37*
G36*
X155518Y48097D02*
X154041D01*
X153750Y48039D01*
X153504Y47875D01*
X153339Y47628D01*
X153281Y47337D01*
Y45663D01*
X153339Y45372D01*
X153504Y45125D01*
X153719Y44982D01*
Y41097D01*
X153541D01*
X153250Y41039D01*
X153004Y40874D01*
X152839Y40628D01*
X152781Y40337D01*
Y40311D01*
X149031D01*
X148720Y40249D01*
X148457Y40073D01*
X147978Y39594D01*
X147802Y39331D01*
X147740Y39021D01*
Y35484D01*
X147599Y35425D01*
X147126Y34952D01*
X146870Y34334D01*
Y33666D01*
X147126Y33048D01*
X147599Y32575D01*
X148217Y32319D01*
X148886D01*
X149503Y32575D01*
X149976Y33048D01*
X150232Y33666D01*
Y34334D01*
X149976Y34952D01*
X149503Y35425D01*
X149362Y35484D01*
Y38685D01*
X149366Y38689D01*
X152781D01*
Y38663D01*
X152839Y38372D01*
X153004Y38126D01*
X153250Y37961D01*
X153541Y37903D01*
X155018D01*
X155309Y37961D01*
X155556Y38126D01*
X155720Y38372D01*
X155778Y38663D01*
Y40337D01*
X155720Y40628D01*
X155556Y40874D01*
X155340Y41018D01*
Y44903D01*
X155518D01*
X155809Y44961D01*
X156056Y45125D01*
X156220Y45372D01*
X156278Y45663D01*
Y47337D01*
X156220Y47628D01*
X156056Y47875D01*
X155809Y48039D01*
X155518Y48097D01*
D02*
G37*
G36*
X8851Y37315D02*
X7983D01*
X7248Y37010D01*
X8090Y36168D01*
X7383Y35461D01*
X6541Y36303D01*
X6236Y35568D01*
Y34700D01*
X6541Y33964D01*
X7383Y34807D01*
X8090Y34100D01*
X7248Y33257D01*
X7983Y32953D01*
X8851D01*
X9587Y33257D01*
X8744Y34100D01*
X9452Y34807D01*
X10294Y33964D01*
X10598Y34700D01*
Y35568D01*
X10294Y36303D01*
X9452Y35461D01*
X8744Y36168D01*
X9587Y37010D01*
X8851Y37315D01*
D02*
G37*
G36*
X121985Y32681D02*
X121117D01*
X120382Y32376D01*
X121224Y31534D01*
X120517Y30827D01*
X119675Y31669D01*
X119370Y30934D01*
Y30066D01*
X119675Y29331D01*
X120517Y30173D01*
X121224Y29466D01*
X120382Y28624D01*
X121117Y28319D01*
X121985D01*
X122721Y28624D01*
X121878Y29466D01*
X122585Y30173D01*
X123428Y29331D01*
X123732Y30066D01*
Y30934D01*
X123428Y31669D01*
X122585Y30827D01*
X121878Y31534D01*
X122721Y32376D01*
X121985Y32681D01*
D02*
G37*
G36*
X111386Y32181D02*
X110717D01*
X110099Y31925D01*
X109626Y31452D01*
X109370Y30834D01*
Y30166D01*
X109626Y29548D01*
X110099Y29075D01*
X110717Y28819D01*
X111386D01*
X112003Y29075D01*
X112476Y29548D01*
X112732Y30166D01*
Y30834D01*
X112476Y31452D01*
X112003Y31925D01*
X111386Y32181D01*
D02*
G37*
%LPD*%
G36*
X159953Y46795D02*
X159829Y46793D01*
X159620Y46772D01*
X159535Y46754D01*
X159463Y46730D01*
X159404Y46702D01*
X159358Y46668D01*
X159326Y46629D01*
X159306Y46585D01*
X159300Y46536D01*
X159152Y47557D01*
X159953Y47583D01*
Y46795D01*
D02*
G37*
G36*
X158821Y40266D02*
X158855Y40199D01*
X158903Y40140D01*
X158963Y40089D01*
X159035Y40045D01*
X159120Y40010D01*
X159218Y39982D01*
X159328Y39963D01*
X159451Y39951D01*
X159587Y39947D01*
Y39159D01*
X159438Y39156D01*
X159304Y39144D01*
X159186Y39124D01*
X159083Y39097D01*
X158996Y39061D01*
X158926Y39018D01*
X158870Y38967D01*
X158831Y38908D01*
X158808Y38841D01*
X158800Y38766D01*
X158799Y40341D01*
X158821Y40266D01*
D02*
G37*
%LPC*%
G36*
X81812Y123923D02*
X80139D01*
X79848Y123865D01*
X79601Y123700D01*
X79436Y123453D01*
X79378Y123162D01*
Y121685D01*
X79436Y121394D01*
X79601Y121148D01*
X79848Y120983D01*
X80139Y120925D01*
X81812D01*
X82103Y120983D01*
X82350Y121148D01*
X82515Y121394D01*
X82559Y121616D01*
X82596Y121617D01*
X82655Y121643D01*
X91879D01*
X91929Y121143D01*
X91651Y121088D01*
X91238Y120812D01*
X91103Y120610D01*
X90952Y120562D01*
X90537Y120516D01*
X90493Y120528D01*
X90361Y120617D01*
X90070Y120675D01*
X88594D01*
X88302Y120617D01*
X88056Y120452D01*
X87891Y120205D01*
X87878Y120138D01*
X87359Y119957D01*
X87351Y119958D01*
X87131Y120178D01*
X86513Y120434D01*
X85844D01*
X85227Y120178D01*
X84754Y119705D01*
X84498Y119087D01*
Y118418D01*
X84754Y117800D01*
X85227Y117327D01*
X85240Y117322D01*
Y116421D01*
X84272D01*
Y108925D01*
X87831D01*
Y116421D01*
X86862D01*
Y117216D01*
X87131Y117327D01*
X87475Y117671D01*
X88003Y117700D01*
X88094Y117677D01*
X88302Y117538D01*
X88594Y117480D01*
X89684D01*
X90240Y116923D01*
Y116421D01*
X89272D01*
Y108925D01*
X92831D01*
Y116421D01*
X92256D01*
X92239Y116470D01*
X92591Y116970D01*
X93613D01*
X94099Y117067D01*
X94511Y117342D01*
X94614Y117352D01*
X94816Y117151D01*
X95617Y116819D01*
X96485D01*
X97220Y117124D01*
X96378Y117966D01*
X97085Y118673D01*
X97928Y117831D01*
X97944Y117871D01*
X98531Y118009D01*
X98770Y117808D01*
Y82000D01*
X98830Y81701D01*
X98999Y81448D01*
X101125Y79322D01*
X101144Y79268D01*
X101186Y79220D01*
X101207Y79190D01*
X101230Y79149D01*
X101252Y79097D01*
X101274Y79032D01*
X101293Y78955D01*
X101307Y78872D01*
X101327Y78638D01*
X101329Y78505D01*
X101370Y78409D01*
Y78166D01*
X101379Y78143D01*
X101057Y77615D01*
X100805Y77511D01*
X100703Y77499D01*
X100562Y77421D01*
X100311Y77293D01*
X100098Y77202D01*
X100017Y77173D01*
X99944Y77152D01*
X99886Y77138D01*
X99844Y77132D01*
X99789Y77129D01*
X99736Y77103D01*
X93331D01*
X92979Y77456D01*
X92956Y77516D01*
X92895Y77580D01*
X92851Y77631D01*
X92816Y77679D01*
X92788Y77722D01*
X92766Y77761D01*
X92751Y77795D01*
X92741Y77824D01*
X92734Y77850D01*
X92731Y77873D01*
X92728Y77921D01*
X92710Y77960D01*
Y78858D01*
X92652Y79149D01*
X92487Y79396D01*
X92240Y79561D01*
X91949Y79619D01*
X91920D01*
X91919Y79642D01*
X91893Y79701D01*
Y80487D01*
X91919Y80545D01*
X91920Y80579D01*
X92831D01*
Y88075D01*
X89272D01*
Y80579D01*
X90305D01*
X90306Y80545D01*
X90332Y80487D01*
Y79701D01*
X90306Y79642D01*
X90305Y79619D01*
X90276D01*
X89985Y79561D01*
X89738Y79396D01*
X89573Y79149D01*
X89515Y78858D01*
Y77381D01*
X89573Y77090D01*
X89738Y76844D01*
X89985Y76679D01*
X90276Y76621D01*
X91111D01*
X91152Y76558D01*
X91165Y76510D01*
X90923Y76075D01*
X90276D01*
X89985Y76017D01*
X89738Y75852D01*
X89573Y75606D01*
X89515Y75315D01*
Y73838D01*
X89573Y73547D01*
X89738Y73300D01*
X89985Y73135D01*
X90276Y73077D01*
X91949D01*
X92240Y73135D01*
X92487Y73300D01*
X92652Y73547D01*
X92695Y73765D01*
X93243D01*
X93385Y73424D01*
X93858Y72951D01*
X93999Y72892D01*
Y70857D01*
X90164Y67022D01*
X89073D01*
X88782Y66964D01*
X88650Y66875D01*
X88607Y66863D01*
X88191Y66909D01*
X88040Y66957D01*
X87905Y67159D01*
X87493Y67435D01*
X87007Y67531D01*
X86768D01*
Y66399D01*
X85768D01*
Y67531D01*
X85530D01*
X85044Y67435D01*
X84632Y67159D01*
X84356Y66747D01*
X84260Y66261D01*
Y65924D01*
X85392D01*
Y64924D01*
X84260D01*
Y64588D01*
X84356Y64101D01*
X84632Y63689D01*
X84624Y63523D01*
X84524Y63436D01*
X83976Y63452D01*
X83503Y63925D01*
X82886Y64181D01*
X82217D01*
X81599Y63925D01*
X81126Y63452D01*
X81072Y63321D01*
X80531D01*
X80476Y63452D01*
X80003Y63925D01*
X79386Y64181D01*
X78717D01*
X78099Y63925D01*
X77626Y63452D01*
X77370Y62834D01*
Y62166D01*
X77626Y61548D01*
X77798Y61376D01*
X77836Y61279D01*
X77928Y61186D01*
X77998Y61105D01*
X78057Y61029D01*
X78106Y60957D01*
X78144Y60892D01*
X78172Y60832D01*
X78192Y60779D01*
X78205Y60731D01*
X78212Y60688D01*
X78214Y60642D01*
X77870Y60271D01*
X76715D01*
X76424Y60213D01*
X76177Y60048D01*
X76012Y59801D01*
X75954Y59510D01*
Y58034D01*
X76012Y57742D01*
X76177Y57496D01*
X76424Y57331D01*
X76715Y57273D01*
X78388D01*
X78679Y57331D01*
X78926Y57496D01*
X79091Y57742D01*
X79149Y58034D01*
Y59222D01*
X79624Y59698D01*
X79800Y59961D01*
X79862Y60272D01*
Y60567D01*
X79887Y60618D01*
X79891Y60688D01*
X79898Y60731D01*
X79910Y60779D01*
X79930Y60832D01*
X79959Y60892D01*
X79997Y60957D01*
X80040Y61022D01*
X80180Y61191D01*
X80266Y61279D01*
X80304Y61376D01*
X80476Y61548D01*
X80531Y61679D01*
X81072D01*
X81099Y61614D01*
X81108Y61560D01*
X81187Y61436D01*
X81249Y61330D01*
X81357Y61121D01*
X81393Y61039D01*
X81421Y60960D01*
X81442Y60890D01*
X81455Y60831D01*
X81462Y60782D01*
X81463Y60770D01*
X81436Y60660D01*
X81237Y60271D01*
X81215D01*
X80923Y60213D01*
X80677Y60048D01*
X80512Y59801D01*
X80454Y59510D01*
Y58034D01*
X80512Y57742D01*
X80677Y57496D01*
X80923Y57331D01*
X81215Y57273D01*
X82888D01*
X83179Y57331D01*
X83426Y57496D01*
X83591Y57742D01*
X83649Y58034D01*
Y59510D01*
X83591Y59801D01*
X83426Y60048D01*
X83365Y60088D01*
X83152Y60446D01*
X83144Y60517D01*
X83152Y60705D01*
X83158Y60723D01*
X83173Y60759D01*
X83196Y60797D01*
X83227Y60839D01*
X83269Y60886D01*
X83322Y60936D01*
X83389Y60988D01*
X83484Y61053D01*
X83497Y61072D01*
X83503Y61075D01*
X83807Y61379D01*
X84307Y61171D01*
Y60644D01*
X84404Y60158D01*
X84679Y59746D01*
X84701Y59731D01*
X84750Y59234D01*
X84501Y58985D01*
X84326Y58722D01*
X84264Y58411D01*
Y55976D01*
X84326Y55666D01*
X84501Y55403D01*
X85046Y54858D01*
X84870Y54434D01*
Y53566D01*
X85175Y52831D01*
X86017Y53673D01*
X86724Y52966D01*
X85882Y52124D01*
X86617Y51819D01*
X87485D01*
X88287Y52151D01*
X88409Y52273D01*
X88695Y52082D01*
X89181Y51986D01*
X89517D01*
Y53118D01*
X90517D01*
Y51986D01*
X90854D01*
X91340Y52082D01*
X91752Y52358D01*
X91843Y52493D01*
X92084Y52492D01*
X92397Y52423D01*
X92588Y52139D01*
X92939Y51904D01*
X93353Y51822D01*
X93539D01*
Y52950D01*
X94539D01*
Y51822D01*
X94725D01*
X94784Y51833D01*
X94951Y51431D01*
X95381Y51253D01*
X96753D01*
X97051Y51376D01*
X97349Y51253D01*
X97648D01*
Y49732D01*
X97710Y49422D01*
X97885Y49158D01*
X97969Y49074D01*
X97870Y48834D01*
Y48166D01*
X98126Y47548D01*
X98599Y47075D01*
X99217Y46819D01*
X99886D01*
X100503Y47075D01*
X100976Y47548D01*
X101188Y48059D01*
X101546Y48201D01*
X101732Y48221D01*
X102074Y47879D01*
X102876Y47547D01*
X103744D01*
X104479Y47852D01*
X103637Y48694D01*
X104344Y49401D01*
X105186Y48559D01*
X105491Y49295D01*
Y50162D01*
X105420Y50333D01*
X106003Y50575D01*
X106476Y51048D01*
X106732Y51666D01*
Y52334D01*
X106497Y52903D01*
X106583Y53140D01*
X106733Y53403D01*
X107561D01*
X107852Y53461D01*
X108099Y53626D01*
X108264Y53872D01*
X108322Y54163D01*
Y55289D01*
X108677Y55638D01*
X108822Y55638D01*
X111539D01*
Y56745D01*
X112539D01*
Y55638D01*
X115402D01*
Y58500D01*
X114294D01*
Y59500D01*
X115402D01*
Y62362D01*
X115540Y62625D01*
X115567Y62653D01*
X115929Y63527D01*
Y64473D01*
X115578Y65320D01*
X114737Y64478D01*
X114030Y65186D01*
X114871Y66027D01*
X114024Y66378D01*
X113078D01*
X112204Y66016D01*
X112051Y65863D01*
X111898Y66016D01*
X111024Y66378D01*
X111014D01*
X110807Y66878D01*
X110976Y67048D01*
X111232Y67666D01*
Y68334D01*
X110976Y68952D01*
X110503Y69425D01*
X109886Y69681D01*
X109217D01*
X108599Y69425D01*
X108099Y69375D01*
X107852Y69539D01*
X107561Y69597D01*
X106085D01*
X105793Y69539D01*
X105661Y69451D01*
X105618Y69439D01*
X105202Y69485D01*
X105051Y69533D01*
X104916Y69735D01*
X104504Y70010D01*
X104090Y70093D01*
Y72301D01*
X104117Y72319D01*
X104985D01*
X105720Y72624D01*
X104878Y73466D01*
X105585Y74173D01*
X106428Y73331D01*
X106732Y74066D01*
Y74934D01*
X106428Y75669D01*
X105585Y74827D01*
X104878Y75534D01*
X105720Y76376D01*
X104985Y76681D01*
X104263D01*
X104257Y76690D01*
X104104Y77176D01*
X104476Y77548D01*
X104732Y78166D01*
Y78834D01*
X104476Y79452D01*
X104003Y79925D01*
X103386Y80181D01*
X103142D01*
X103046Y80222D01*
X102906Y80224D01*
X102790Y80231D01*
X102687Y80243D01*
X102596Y80259D01*
X102519Y80278D01*
X102454Y80299D01*
X102402Y80322D01*
X102361Y80344D01*
X102331Y80366D01*
X102284Y80408D01*
X102229Y80426D01*
X100332Y82323D01*
Y118500D01*
X100273Y118799D01*
X100103Y119052D01*
X96180Y122976D01*
X95926Y123145D01*
X95628Y123204D01*
X82655D01*
X82596Y123230D01*
X82559Y123231D01*
X82515Y123453D01*
X82350Y123700D01*
X82103Y123865D01*
X81812Y123923D01*
D02*
G37*
G36*
Y120379D02*
X80139D01*
X79848Y120321D01*
X79601Y120156D01*
X79436Y119910D01*
X79378Y119618D01*
Y118142D01*
X79436Y117851D01*
X79601Y117604D01*
X79848Y117439D01*
X80139Y117381D01*
X80168D01*
X80168Y117358D01*
X80194Y117299D01*
Y116513D01*
X80168Y116455D01*
X80168Y116421D01*
X79272D01*
Y108925D01*
X82831D01*
Y116421D01*
X81783D01*
X81782Y116455D01*
X81756Y116513D01*
Y117299D01*
X81782Y117358D01*
X81783Y117381D01*
X81812D01*
X82103Y117439D01*
X82350Y117604D01*
X82515Y117851D01*
X82573Y118142D01*
Y119618D01*
X82515Y119910D01*
X82350Y120156D01*
X82103Y120321D01*
X81812Y120379D01*
D02*
G37*
G36*
X107386Y103181D02*
X106717D01*
X106099Y102925D01*
X105626Y102452D01*
X105370Y101834D01*
Y101591D01*
X105329Y101496D01*
X105327Y101365D01*
X105320Y101258D01*
X105308Y101162D01*
X105292Y101078D01*
X105272Y101005D01*
X105250Y100942D01*
X105226Y100890D01*
X105202Y100847D01*
X105176Y100812D01*
X105130Y100760D01*
X105111Y100706D01*
X102978Y98573D01*
X102802Y98310D01*
X102740Y98000D01*
Y96410D01*
X102715Y96353D01*
X102713Y96270D01*
X102424Y96213D01*
X102177Y96048D01*
X102012Y95801D01*
X101954Y95510D01*
Y94033D01*
X102012Y93742D01*
X102177Y93496D01*
X102424Y93331D01*
X102715Y93273D01*
X104388D01*
X104679Y93331D01*
X104926Y93496D01*
X105091Y93742D01*
X105148Y94033D01*
Y95510D01*
X105091Y95801D01*
X104926Y96048D01*
X104679Y96213D01*
X104390Y96270D01*
X104387Y96353D01*
X104362Y96410D01*
Y97664D01*
X104908Y98210D01*
X105429Y98024D01*
X105626Y97548D01*
X106059Y97115D01*
X106084Y97075D01*
X106178Y97008D01*
X106246Y96952D01*
X106301Y96899D01*
X106344Y96850D01*
X106376Y96805D01*
X106400Y96764D01*
X106416Y96726D01*
X106427Y96690D01*
X106433Y96653D01*
X106437Y96582D01*
X106454Y96546D01*
X106447Y96508D01*
X106462Y96485D01*
Y95973D01*
X106437Y95916D01*
X106434Y95821D01*
X106433Y95808D01*
X106268Y95776D01*
X106022Y95611D01*
X105857Y95364D01*
X105799Y95073D01*
Y93400D01*
X105857Y93108D01*
X106022Y92862D01*
X106268Y92697D01*
X106559Y92639D01*
X108036D01*
X108327Y92697D01*
X108574Y92862D01*
X108739Y93108D01*
X108797Y93400D01*
Y95073D01*
X108739Y95364D01*
X108574Y95611D01*
X108327Y95776D01*
X108112Y95818D01*
X108112Y95821D01*
X108109Y95916D01*
X108084Y95973D01*
Y96650D01*
X108109Y96702D01*
X108112Y96768D01*
X108119Y96816D01*
X108132Y96875D01*
X108151Y96935D01*
X108223Y97111D01*
X108265Y97193D01*
X108393Y97409D01*
X108471Y97526D01*
X108475Y97547D01*
X108476Y97548D01*
X108732Y98166D01*
Y98834D01*
X108476Y99452D01*
X108255Y99673D01*
X108050Y100000D01*
X108255Y100327D01*
X108476Y100548D01*
X108732Y101166D01*
Y101834D01*
X108476Y102452D01*
X108003Y102925D01*
X107386Y103181D01*
D02*
G37*
G36*
X78331Y88575D02*
X76551D01*
Y87467D01*
X75551D01*
Y88575D01*
X73772D01*
Y84827D01*
X74879D01*
Y83827D01*
X73772D01*
Y80079D01*
X73772D01*
X73997Y79741D01*
X73870Y79434D01*
Y78566D01*
X74175Y77831D01*
X75017Y78673D01*
X75724Y77966D01*
X74882Y77124D01*
X75617Y76819D01*
X76485D01*
X77220Y77124D01*
X76378Y77966D01*
X77085Y78673D01*
X77928Y77831D01*
X78232Y78566D01*
Y79434D01*
X78105Y79741D01*
X78331Y80079D01*
X78331D01*
Y83827D01*
X77223D01*
Y84827D01*
X78331D01*
Y88575D01*
D02*
G37*
G36*
X82831Y88075D02*
X79272D01*
Y80579D01*
X79545D01*
X79752Y80079D01*
X79626Y79952D01*
X79370Y79334D01*
Y78666D01*
X79626Y78048D01*
X80099Y77575D01*
X80717Y77319D01*
X81386D01*
X82003Y77575D01*
X82476Y78048D01*
X82732Y78666D01*
Y79334D01*
X82476Y79952D01*
X82350Y80079D01*
X82557Y80579D01*
X82831D01*
Y88075D01*
D02*
G37*
G36*
X87831D02*
X84272D01*
Y80579D01*
X85262D01*
X85263Y80545D01*
X85289Y80487D01*
Y79701D01*
X85263Y79642D01*
X85262Y79619D01*
X85233D01*
X84942Y79561D01*
X84695Y79396D01*
X84530Y79149D01*
X84472Y78858D01*
Y77381D01*
X84530Y77090D01*
X84695Y76844D01*
X84942Y76679D01*
X85233Y76621D01*
X86906D01*
X87197Y76679D01*
X87444Y76844D01*
X87609Y77090D01*
X87667Y77381D01*
Y78858D01*
X87609Y79149D01*
X87444Y79396D01*
X87197Y79561D01*
X86906Y79619D01*
X86877D01*
X86876Y79642D01*
X86850Y79701D01*
Y80487D01*
X86876Y80545D01*
X86877Y80579D01*
X87831D01*
Y88075D01*
D02*
G37*
G36*
X62985Y76681D02*
X62117D01*
X61382Y76376D01*
X62224Y75534D01*
X61517Y74827D01*
X60604Y75740D01*
X60170Y75758D01*
X60003Y75925D01*
X59386Y76181D01*
X58717D01*
X58099Y75925D01*
X57626Y75452D01*
X57370Y74834D01*
Y74166D01*
X57626Y73548D01*
X58099Y73075D01*
X58104Y73072D01*
Y71597D01*
X58041D01*
X57750Y71539D01*
X57503Y71374D01*
X57339Y71128D01*
X57281Y70837D01*
Y69163D01*
X57339Y68872D01*
X57503Y68625D01*
X57750Y68461D01*
X57969Y68417D01*
Y67639D01*
X57750Y67596D01*
X57503Y67431D01*
X57339Y67184D01*
X57281Y66893D01*
Y65220D01*
X57339Y64929D01*
X57503Y64682D01*
X57750Y64517D01*
X58041Y64459D01*
X59518D01*
X59809Y64517D01*
X59941Y64606D01*
X59985Y64618D01*
X60400Y64572D01*
X60551Y64524D01*
X60686Y64322D01*
X61098Y64046D01*
X61585Y63950D01*
X61823D01*
Y65082D01*
X62823D01*
Y63950D01*
X63061D01*
X63547Y64046D01*
X63959Y64322D01*
X64235Y64734D01*
X64332Y65220D01*
Y65557D01*
X63200D01*
Y66557D01*
X64332D01*
Y66893D01*
X64235Y67379D01*
X64018Y67703D01*
X63981Y68028D01*
X64018Y68353D01*
X64235Y68677D01*
X64332Y69163D01*
Y69500D01*
X63200D01*
Y70500D01*
X64332D01*
Y70837D01*
X64235Y71323D01*
X63959Y71735D01*
X63547Y72010D01*
X63547Y72010D01*
X63496Y72530D01*
X63721Y72624D01*
X62878Y73466D01*
X63585Y74173D01*
X64428Y73331D01*
X64732Y74066D01*
Y74934D01*
X64428Y75669D01*
X63585Y74827D01*
X62878Y75534D01*
X63721Y76376D01*
X62985Y76681D01*
D02*
G37*
G36*
X66482Y63665D02*
X65620D01*
X64825Y63336D01*
X64215Y62727D01*
X63886Y61931D01*
Y61592D01*
X63867Y61502D01*
X63865Y61384D01*
X63860Y61302D01*
X63851Y61235D01*
X63841Y61181D01*
X63830Y61142D01*
X63821Y61116D01*
X63820Y61114D01*
X62511Y59805D01*
X55901D01*
X55899Y59805D01*
X55875Y59817D01*
X55840Y59837D01*
X55807Y59860D01*
X55669Y59974D01*
X55594Y60046D01*
X55517Y60096D01*
X55278Y60336D01*
X54482Y60665D01*
X53620D01*
X52825Y60336D01*
X52215Y59727D01*
X51886Y58931D01*
Y58069D01*
X52215Y57273D01*
X52825Y56664D01*
X53620Y56335D01*
X54482D01*
X55278Y56664D01*
X55517Y56904D01*
X55594Y56954D01*
X55679Y57036D01*
X55741Y57090D01*
X55795Y57132D01*
X55840Y57163D01*
X55875Y57183D01*
X55899Y57195D01*
X55901Y57195D01*
X63051D01*
X63550Y57295D01*
X63974Y57578D01*
X65665Y59269D01*
X65667Y59270D01*
X65693Y59279D01*
X65732Y59290D01*
X65771Y59297D01*
X65949Y59314D01*
X66053Y59316D01*
X66143Y59335D01*
X66482D01*
X67278Y59664D01*
X67887Y60273D01*
X68217Y61069D01*
Y61931D01*
X67887Y62727D01*
X67278Y63336D01*
X66482Y63665D01*
D02*
G37*
G36*
X78388Y56727D02*
X76715D01*
X76424Y56669D01*
X76177Y56504D01*
X76012Y56258D01*
X75968Y56039D01*
X72780D01*
X72469Y55977D01*
X72206Y55802D01*
X48527Y32122D01*
X48386Y32181D01*
X47717D01*
X47099Y31925D01*
X46626Y31452D01*
X46370Y30834D01*
Y30166D01*
X46626Y29548D01*
X47099Y29075D01*
X47717Y28819D01*
X48386D01*
X49003Y29075D01*
X49476Y29548D01*
X49732Y30166D01*
Y30834D01*
X49674Y30976D01*
X73115Y54418D01*
X75968D01*
X76012Y54199D01*
X76177Y53952D01*
X76424Y53787D01*
X76715Y53729D01*
X78388D01*
X78679Y53787D01*
X78926Y53952D01*
X79091Y54199D01*
X79149Y54490D01*
Y55967D01*
X79091Y56258D01*
X78926Y56504D01*
X78679Y56669D01*
X78388Y56727D01*
D02*
G37*
G36*
X50982Y52665D02*
X50121D01*
X49325Y52336D01*
X48715Y51727D01*
X48386Y50931D01*
Y50069D01*
X48715Y49273D01*
X49325Y48664D01*
X50121Y48335D01*
X50982D01*
X51778Y48664D01*
X51939Y48825D01*
X51978Y48846D01*
X52171Y49005D01*
X52225Y49043D01*
X52279Y49077D01*
X52324Y49100D01*
X52357Y49115D01*
X52373Y49121D01*
X57276D01*
X57283Y49111D01*
X57327Y49041D01*
X57515Y48696D01*
X57572Y48575D01*
X57575Y48572D01*
X57576Y48567D01*
X57615Y48515D01*
X57715Y48273D01*
X58325Y47664D01*
X59121Y47335D01*
X59982D01*
X60778Y47664D01*
X61387Y48273D01*
X61717Y49069D01*
Y49931D01*
X61387Y50727D01*
X60778Y51336D01*
X59982Y51665D01*
X59121D01*
X58682Y51484D01*
X58620Y51469D01*
X58378Y51631D01*
X57878Y51730D01*
X52427D01*
X52421Y51733D01*
X52394Y51749D01*
X52359Y51775D01*
X52315Y51814D01*
X52263Y51864D01*
X52187Y51947D01*
X52106Y52007D01*
X51778Y52336D01*
X50982Y52665D01*
D02*
G37*
G36*
X44077Y45020D02*
X43839D01*
Y43889D01*
X42839D01*
Y45020D01*
X42600D01*
X42114Y44924D01*
X41702Y44648D01*
X41567Y44446D01*
X41416Y44398D01*
X41001Y44352D01*
X40957Y44364D01*
X40825Y44453D01*
X40534Y44511D01*
X39057D01*
X38766Y44453D01*
X38519Y44288D01*
X38354Y44041D01*
X38296Y43750D01*
Y42077D01*
X38354Y41786D01*
X38519Y41539D01*
X38766Y41374D01*
X38886Y41350D01*
Y40572D01*
X38646Y40472D01*
X38173Y39999D01*
X37917Y39382D01*
Y38713D01*
X38173Y38095D01*
X38646Y37622D01*
X39264Y37366D01*
X39933D01*
X40551Y37622D01*
X40880Y37951D01*
X41442Y37899D01*
X41462Y37851D01*
X42304Y38693D01*
X43011Y37986D01*
X42169Y37144D01*
X42905Y36840D01*
X43772D01*
X44508Y37144D01*
X43666Y37986D01*
X44373Y38693D01*
X45215Y37851D01*
X45520Y38587D01*
Y39454D01*
X45188Y40256D01*
X44910Y40534D01*
X44973Y41177D01*
X44975Y41178D01*
X45250Y41591D01*
X45347Y42077D01*
Y42413D01*
X44215D01*
Y43413D01*
X45347D01*
Y43750D01*
X45250Y44236D01*
X44975Y44648D01*
X44563Y44924D01*
X44077Y45020D01*
D02*
G37*
G36*
X111985Y45681D02*
X111117D01*
X110382Y45376D01*
X111224Y44534D01*
X110517Y43827D01*
X109675Y44669D01*
X109370Y43934D01*
Y43066D01*
X109675Y42331D01*
X110517Y43173D01*
X111224Y42466D01*
X110382Y41624D01*
X111117Y41319D01*
X111985D01*
X112721Y41624D01*
X111878Y42466D01*
X112585Y43173D01*
X113428Y42331D01*
X113732Y43066D01*
Y43934D01*
X113428Y44669D01*
X112585Y43827D01*
X111878Y44534D01*
X112721Y45376D01*
X111985Y45681D01*
D02*
G37*
G36*
X76934Y44181D02*
X76066D01*
X75331Y43876D01*
X76173Y43034D01*
X75466Y42327D01*
X74624Y43169D01*
X74319Y42434D01*
Y41566D01*
X74624Y40831D01*
X75466Y41673D01*
X76173Y40966D01*
X75331Y40124D01*
X76066Y39819D01*
X76934D01*
X77669Y40124D01*
X76827Y40966D01*
X77534Y41673D01*
X78376Y40831D01*
X78681Y41566D01*
Y42434D01*
X78376Y43169D01*
X77534Y42327D01*
X76827Y43034D01*
X77669Y43876D01*
X76934Y44181D01*
D02*
G37*
G36*
X107985Y41181D02*
X107117D01*
X106382Y40876D01*
X107224Y40034D01*
X106517Y39327D01*
X105675Y40169D01*
X105370Y39434D01*
Y38566D01*
X105675Y37831D01*
X106517Y38673D01*
X107224Y37966D01*
X106382Y37124D01*
X107117Y36819D01*
X107985D01*
X108721Y37124D01*
X107878Y37966D01*
X108585Y38673D01*
X109428Y37831D01*
X109732Y38566D01*
Y39434D01*
X109428Y40169D01*
X108585Y39327D01*
X107878Y40034D01*
X108721Y40876D01*
X107985Y41181D01*
D02*
G37*
G36*
X52114Y42409D02*
X51445D01*
X50827Y42153D01*
X50354Y41681D01*
X50098Y41063D01*
Y40394D01*
X50354Y39776D01*
X50827Y39303D01*
X51445Y39047D01*
X52114D01*
X52732Y39303D01*
X53205Y39776D01*
X53461Y40394D01*
Y41063D01*
X53205Y41681D01*
X52732Y42153D01*
X52114Y42409D01*
D02*
G37*
G36*
X88985Y36181D02*
X88117D01*
X87382Y35876D01*
X88224Y35034D01*
X87517Y34327D01*
X86675Y35169D01*
X86370Y34434D01*
Y33566D01*
X86675Y32831D01*
X87517Y33673D01*
X88224Y32966D01*
X87382Y32124D01*
X88117Y31819D01*
X88985D01*
X89720Y32124D01*
X88878Y32966D01*
X89585Y33673D01*
X90428Y32831D01*
X90732Y33566D01*
Y34434D01*
X90428Y35169D01*
X89585Y34327D01*
X88878Y35034D01*
X89720Y35876D01*
X88985Y36181D01*
D02*
G37*
G36*
X101024Y17878D02*
X100078D01*
X99231Y17527D01*
X100073Y16686D01*
X99366Y15979D01*
X98524Y16820D01*
X98173Y15973D01*
Y15027D01*
X98524Y14180D01*
X99366Y15021D01*
X100073Y14314D01*
X99231Y13473D01*
X100078Y13122D01*
X101024D01*
X101871Y13473D01*
X101030Y14314D01*
X101737Y15021D01*
X102578Y14180D01*
X102929Y15027D01*
Y15973D01*
X102578Y16820D01*
X101737Y15979D01*
X101030Y16686D01*
X101871Y17527D01*
X101024Y17878D01*
D02*
G37*
G36*
X59024D02*
X58078D01*
X57231Y17527D01*
X58073Y16686D01*
X57366Y15979D01*
X56524Y16820D01*
X56173Y15973D01*
Y15027D01*
X56524Y14180D01*
X57366Y15021D01*
X58073Y14314D01*
X57231Y13473D01*
X58078Y13122D01*
X59024D01*
X59871Y13473D01*
X59030Y14314D01*
X59737Y15021D01*
X60578Y14180D01*
X60929Y15027D01*
Y15973D01*
X60578Y16820D01*
X59737Y15979D01*
X59030Y16686D01*
X59871Y17527D01*
X59024Y17878D01*
D02*
G37*
G36*
X82888Y56727D02*
X81215D01*
X80923Y56669D01*
X80677Y56504D01*
X80512Y56258D01*
X80454Y55967D01*
Y54544D01*
X80453Y54539D01*
Y52600D01*
X47478Y19624D01*
X47302Y19362D01*
X47240Y19051D01*
Y17484D01*
X47099Y17425D01*
X46626Y16952D01*
X46370Y16334D01*
Y15666D01*
X46626Y15048D01*
X47099Y14575D01*
X47717Y14319D01*
X48386D01*
X49003Y14575D01*
X49476Y15048D01*
X49732Y15666D01*
Y16334D01*
X49476Y16952D01*
X49003Y17425D01*
X48862Y17484D01*
Y18715D01*
X81837Y51690D01*
X82013Y51954D01*
X82075Y52264D01*
Y53729D01*
X82888D01*
X83179Y53787D01*
X83426Y53952D01*
X83591Y54199D01*
X83649Y54490D01*
Y55967D01*
X83591Y56258D01*
X83426Y56504D01*
X83179Y56669D01*
X82888Y56727D01*
D02*
G37*
%LPD*%
G36*
X82056Y122905D02*
X82072Y122859D01*
X82098Y122820D01*
X82135Y122785D01*
X82183Y122756D01*
X82242Y122732D01*
X82311Y122713D01*
X82391Y122700D01*
X82481Y122692D01*
X82582Y122689D01*
Y122158D01*
X82481Y122155D01*
X82391Y122147D01*
X82311Y122134D01*
X82242Y122115D01*
X82183Y122091D01*
X82135Y122062D01*
X82098Y122028D01*
X82072Y121988D01*
X82056Y121943D01*
X82050Y121892D01*
Y122955D01*
X82056Y122905D01*
D02*
G37*
G36*
X91593Y81085D02*
X91548Y81069D01*
X91509Y81043D01*
X91474Y81006D01*
X91445Y80958D01*
X91421Y80899D01*
X91402Y80830D01*
X91389Y80751D01*
X91381Y80660D01*
X91378Y80559D01*
X90847D01*
X90844Y80660D01*
X90836Y80751D01*
X90823Y80830D01*
X90804Y80899D01*
X90780Y80958D01*
X90751Y81006D01*
X90716Y81043D01*
X90677Y81069D01*
X90632Y81085D01*
X90581Y81091D01*
X91644D01*
X91593Y81085D01*
D02*
G37*
G36*
X91381Y79527D02*
X91389Y79437D01*
X91402Y79357D01*
X91421Y79288D01*
X91445Y79229D01*
X91474Y79182D01*
X91509Y79144D01*
X91548Y79118D01*
X91593Y79102D01*
X91644Y79097D01*
X90581D01*
X90632Y79102D01*
X90677Y79118D01*
X90716Y79144D01*
X90751Y79182D01*
X90780Y79229D01*
X90804Y79288D01*
X90823Y79357D01*
X90836Y79437D01*
X90844Y79527D01*
X90847Y79628D01*
X91378D01*
X91381Y79527D01*
D02*
G37*
G36*
X101995Y79940D02*
X102074Y79884D01*
X102163Y79835D01*
X102261Y79793D01*
X102368Y79757D01*
X102484Y79729D01*
X102609Y79707D01*
X102743Y79691D01*
X102887Y79683D01*
X103039Y79681D01*
X101870Y78512D01*
X101868Y78664D01*
X101845Y78942D01*
X101822Y79067D01*
X101794Y79183D01*
X101758Y79290D01*
X101716Y79388D01*
X101667Y79477D01*
X101611Y79557D01*
X101548Y79627D01*
X101924Y80003D01*
X101995Y79940D01*
D02*
G37*
G36*
X92191Y77819D02*
X92203Y77744D01*
X92222Y77669D01*
X92248Y77594D01*
X92282Y77519D01*
X92323Y77443D01*
X92372Y77368D01*
X92428Y77293D01*
X92492Y77218D01*
X92564Y77143D01*
X92188Y76767D01*
X92113Y76838D01*
X92037Y76902D01*
X91962Y76959D01*
X91887Y77008D01*
X91812Y77049D01*
X91737Y77083D01*
X91662Y77109D01*
X91586Y77128D01*
X91511Y77139D01*
X91436Y77143D01*
X92188Y77895D01*
X92191Y77819D01*
D02*
G37*
G36*
X99629Y75517D02*
X99696Y75513D01*
X99724Y75507D01*
X99751Y75498D01*
X99780Y75484D01*
X99813Y75463D01*
X99850Y75433D01*
X99892Y75390D01*
X99939Y75333D01*
X99988Y75262D01*
X100047Y75161D01*
X100094Y75126D01*
X100126Y75048D01*
X100599Y74575D01*
X101217Y74319D01*
X101886D01*
X101954Y74347D01*
X102246Y74152D01*
X102401Y73991D01*
X102663Y73358D01*
X102530Y73159D01*
X102469Y72849D01*
Y70093D01*
X102055Y70010D01*
X101643Y69735D01*
X101368Y69323D01*
X101271Y68837D01*
Y68500D01*
X102403D01*
Y67500D01*
X101271D01*
Y67163D01*
X101291Y67060D01*
X99490Y65258D01*
X99314Y64995D01*
X99252Y64685D01*
Y64330D01*
X98752Y64029D01*
X98386Y64181D01*
X97717D01*
X97099Y63925D01*
X96626Y63452D01*
X96370Y62834D01*
Y62166D01*
X96626Y61548D01*
X96789Y61384D01*
X96825Y61291D01*
X96894Y61218D01*
X96943Y61158D01*
X96984Y61100D01*
X97018Y61042D01*
X97046Y60985D01*
X97068Y60928D01*
X97085Y60870D01*
X97098Y60810D01*
X97105Y60747D01*
X97109Y60659D01*
X97132Y60609D01*
Y60131D01*
X96771Y59760D01*
X96753Y59747D01*
X95919D01*
X93612Y62054D01*
X93349Y62230D01*
X93039Y62292D01*
X91358D01*
Y62318D01*
X91300Y62609D01*
X91135Y62855D01*
X90888Y63020D01*
X90646Y63068D01*
Y63846D01*
X90841Y63885D01*
X91088Y64050D01*
X91253Y64297D01*
X91311Y64588D01*
Y65875D01*
X95383Y69947D01*
X95559Y70210D01*
X95621Y70521D01*
Y72892D01*
X95762Y72951D01*
X96235Y73424D01*
X96491Y74041D01*
Y74710D01*
X96354Y75042D01*
X96675Y75542D01*
X99505D01*
X99511Y75538D01*
X99551Y75542D01*
X99578D01*
X99629Y75517D01*
D02*
G37*
G36*
X100514Y75435D02*
X100444Y75553D01*
X100372Y75659D01*
X100295Y75752D01*
X100215Y75833D01*
X100132Y75902D01*
X100045Y75957D01*
X99955Y76001D01*
X99861Y76032D01*
X99764Y76051D01*
X99663Y76057D01*
X99818Y76588D01*
X99898Y76593D01*
X99986Y76606D01*
X100082Y76628D01*
X100185Y76658D01*
X100296Y76698D01*
X100541Y76803D01*
X100816Y76943D01*
X100966Y77026D01*
X100514Y75435D01*
D02*
G37*
G36*
X103779Y65893D02*
X104018D01*
X104504Y65990D01*
X104916Y66265D01*
X105051Y66467D01*
X105202Y66515D01*
X105569Y66556D01*
X106012Y66263D01*
Y56583D01*
X105793Y56539D01*
X105547Y56375D01*
X105382Y56128D01*
X105324Y55837D01*
Y55026D01*
X105278Y54996D01*
X104778Y55263D01*
Y55837D01*
X104720Y56128D01*
X104556Y56375D01*
X104309Y56539D01*
X104163Y57054D01*
X104191Y57119D01*
X104225Y57185D01*
X104267Y57253D01*
X104315Y57322D01*
X104380Y57404D01*
X104399Y57470D01*
X104476Y57548D01*
X104732Y58166D01*
Y58834D01*
X104476Y59452D01*
X104003Y59925D01*
X103386Y60181D01*
X102717D01*
X102099Y59925D01*
X101626Y59452D01*
X101062Y59345D01*
X100874Y59456D01*
Y64349D01*
X102438Y65913D01*
X102541Y65893D01*
X102779D01*
Y67025D01*
X103779D01*
Y65893D01*
D02*
G37*
G36*
X98872Y61651D02*
X98790Y61566D01*
X98716Y61477D01*
X98650Y61386D01*
X98594Y61293D01*
X98546Y61197D01*
X98507Y61098D01*
X98476Y60996D01*
X98454Y60892D01*
X98441Y60785D01*
X98437Y60675D01*
X97650Y60681D01*
X97645Y60790D01*
X97632Y60897D01*
X97611Y61001D01*
X97581Y61103D01*
X97542Y61203D01*
X97495Y61300D01*
X97439Y61394D01*
X97374Y61486D01*
X97301Y61575D01*
X97219Y61662D01*
X98872Y61651D01*
D02*
G37*
G36*
X79777Y61553D02*
X79607Y61347D01*
X79538Y61245D01*
X79479Y61144D01*
X79431Y61043D01*
X79394Y60943D01*
X79368Y60844D01*
X79352Y60746D01*
X79347Y60648D01*
X78756D01*
X78751Y60746D01*
X78735Y60844D01*
X78708Y60943D01*
X78671Y61043D01*
X78623Y61144D01*
X78565Y61245D01*
X78496Y61347D01*
X78416Y61449D01*
X78325Y61553D01*
X78224Y61656D01*
X79878D01*
X79777Y61553D01*
D02*
G37*
G36*
X83181Y61501D02*
X83070Y61426D01*
X82970Y61347D01*
X82883Y61266D01*
X82807Y61182D01*
X82743Y61094D01*
X82690Y61004D01*
X82649Y60910D01*
X82620Y60814D01*
X82602Y60714D01*
X82596Y60611D01*
X82006Y60744D01*
X82002Y60833D01*
X81988Y60928D01*
X81966Y61027D01*
X81935Y61130D01*
X81896Y61239D01*
X81847Y61352D01*
X81723Y61592D01*
X81648Y61719D01*
X81565Y61851D01*
X83181Y61501D01*
D02*
G37*
G36*
X103880Y57645D02*
X103813Y57549D01*
X103753Y57451D01*
X103702Y57351D01*
X103658Y57250D01*
X103622Y57148D01*
X103595Y57045D01*
X103575Y56939D01*
X103563Y56833D01*
X103561Y56782D01*
X103563Y56713D01*
X103575Y56579D01*
X103595Y56461D01*
X103622Y56359D01*
X103657Y56272D01*
X103701Y56201D01*
X103752Y56146D01*
X103811Y56107D01*
X103878Y56083D01*
X103953Y56075D01*
X102378Y56009D01*
X102453Y56065D01*
X102520Y56127D01*
X102579Y56196D01*
X102630Y56272D01*
X102673Y56354D01*
X102709Y56443D01*
X102736Y56538D01*
X102756Y56639D01*
X102767Y56745D01*
X102767Y56755D01*
X102753Y56862D01*
X102730Y56965D01*
X102698Y57065D01*
X102656Y57160D01*
X102605Y57252D01*
X102545Y57340D01*
X102476Y57424D01*
X102398Y57504D01*
X102310Y57581D01*
X103956Y57740D01*
X103880Y57645D01*
D02*
G37*
G36*
X100811Y55963D02*
X100835Y55896D01*
X100874Y55837D01*
X100929Y55785D01*
X101000Y55742D01*
X101087Y55707D01*
X101189Y55679D01*
X101307Y55660D01*
X101441Y55648D01*
X101550Y55645D01*
X101635Y55647D01*
X101747Y55658D01*
X101851Y55676D01*
X101948Y55702D01*
X102037Y55734D01*
X102119Y55774D01*
X102194Y55821D01*
X102261Y55875D01*
X102321Y55937D01*
X102373Y56005D01*
X102303Y54463D01*
X102295Y54537D01*
X102271Y54604D01*
X102232Y54663D01*
X102177Y54715D01*
X102106Y54758D01*
X102019Y54793D01*
X101917Y54821D01*
X101799Y54840D01*
X101665Y54852D01*
X101550Y54855D01*
X100787Y54835D01*
X100803Y56037D01*
X100811Y55963D01*
D02*
G37*
G36*
X81456Y117898D02*
X81411Y117882D01*
X81371Y117856D01*
X81337Y117818D01*
X81307Y117771D01*
X81283Y117712D01*
X81265Y117643D01*
X81252Y117563D01*
X81244Y117473D01*
X81241Y117372D01*
X80709D01*
X80707Y117473D01*
X80699Y117563D01*
X80686Y117643D01*
X80667Y117712D01*
X80643Y117771D01*
X80614Y117818D01*
X80579Y117856D01*
X80539Y117882D01*
X80494Y117898D01*
X80444Y117903D01*
X81507D01*
X81456Y117898D01*
D02*
G37*
G36*
X81244Y116340D02*
X81252Y116249D01*
X81265Y116170D01*
X81283Y116101D01*
X81307Y116042D01*
X81337Y115994D01*
X81371Y115957D01*
X81411Y115930D01*
X81456Y115915D01*
X81507Y115909D01*
X80444D01*
X80494Y115915D01*
X80539Y115930D01*
X80579Y115957D01*
X80614Y115994D01*
X80643Y116042D01*
X80667Y116101D01*
X80686Y116170D01*
X80699Y116249D01*
X80707Y116340D01*
X80709Y116441D01*
X81241D01*
X81244Y116340D01*
D02*
G37*
G36*
X107039Y100319D02*
X106895Y100317D01*
X106629Y100292D01*
X106508Y100268D01*
X106395Y100238D01*
X106290Y100201D01*
X106193Y100157D01*
X106104Y100105D01*
X106023Y100047D01*
X105950Y99981D01*
X105533Y100399D01*
X105598Y100472D01*
X105657Y100553D01*
X105708Y100642D01*
X105752Y100739D01*
X105789Y100844D01*
X105820Y100957D01*
X105843Y101078D01*
X105859Y101207D01*
X105868Y101343D01*
X105870Y101488D01*
X107039Y100319D01*
D02*
G37*
G36*
X107935Y97698D02*
X107790Y97453D01*
X107731Y97337D01*
X107641Y97118D01*
X107609Y97014D01*
X107586Y96915D01*
X107573Y96820D01*
X107568Y96729D01*
X106978Y96613D01*
X106972Y96715D01*
X106954Y96815D01*
X106925Y96912D01*
X106885Y97006D01*
X106833Y97098D01*
X106769Y97187D01*
X106693Y97273D01*
X106606Y97357D01*
X106508Y97438D01*
X106397Y97516D01*
X108022Y97827D01*
X107935Y97698D01*
D02*
G37*
G36*
X103849Y96227D02*
X103858Y96126D01*
X103873Y96038D01*
X103894Y95961D01*
X103920Y95896D01*
X103953Y95843D01*
X103991Y95802D01*
X104035Y95772D01*
X104086Y95754D01*
X104142Y95749D01*
X102961D01*
X103017Y95754D01*
X103067Y95772D01*
X103111Y95802D01*
X103150Y95843D01*
X103182Y95896D01*
X103209Y95961D01*
X103229Y96038D01*
X103244Y96126D01*
X103253Y96227D01*
X103256Y96339D01*
X103847D01*
X103849Y96227D01*
D02*
G37*
G36*
X107571Y95790D02*
X107580Y95689D01*
X107595Y95601D01*
X107615Y95524D01*
X107642Y95459D01*
X107674Y95406D01*
X107713Y95364D01*
X107757Y95335D01*
X107807Y95317D01*
X107863Y95311D01*
X106682D01*
X106738Y95317D01*
X106789Y95335D01*
X106833Y95364D01*
X106871Y95406D01*
X106904Y95459D01*
X106930Y95524D01*
X106951Y95601D01*
X106966Y95689D01*
X106975Y95790D01*
X106978Y95902D01*
X107568D01*
X107571Y95790D01*
D02*
G37*
G36*
X86550Y81085D02*
X86505Y81069D01*
X86465Y81043D01*
X86431Y81006D01*
X86402Y80958D01*
X86378Y80899D01*
X86359Y80830D01*
X86346Y80751D01*
X86338Y80660D01*
X86335Y80559D01*
X85804D01*
X85801Y80660D01*
X85793Y80751D01*
X85780Y80830D01*
X85761Y80899D01*
X85737Y80958D01*
X85708Y81006D01*
X85673Y81043D01*
X85634Y81069D01*
X85589Y81085D01*
X85538Y81091D01*
X86601D01*
X86550Y81085D01*
D02*
G37*
G36*
X86338Y79527D02*
X86346Y79437D01*
X86359Y79357D01*
X86378Y79288D01*
X86402Y79229D01*
X86431Y79182D01*
X86465Y79144D01*
X86505Y79118D01*
X86550Y79102D01*
X86601Y79097D01*
X85538D01*
X85589Y79102D01*
X85634Y79118D01*
X85673Y79144D01*
X85708Y79182D01*
X85737Y79229D01*
X85761Y79288D01*
X85780Y79357D01*
X85793Y79437D01*
X85801Y79527D01*
X85804Y79628D01*
X86335D01*
X86338Y79527D01*
D02*
G37*
G36*
X66039Y60319D02*
X65895Y60317D01*
X65629Y60292D01*
X65508Y60268D01*
X65395Y60238D01*
X65290Y60201D01*
X65193Y60157D01*
X65104Y60105D01*
X65023Y60047D01*
X64950Y59982D01*
X64533Y60399D01*
X64598Y60472D01*
X64657Y60553D01*
X64708Y60642D01*
X64752Y60739D01*
X64789Y60844D01*
X64820Y60957D01*
X64843Y61078D01*
X64859Y61207D01*
X64868Y61343D01*
X64870Y61488D01*
X66039Y60319D01*
D02*
G37*
G36*
X54998Y59226D02*
X55204Y59056D01*
X55306Y58987D01*
X55407Y58928D01*
X55508Y58880D01*
X55608Y58843D01*
X55707Y58816D01*
X55805Y58801D01*
X55903Y58795D01*
Y58205D01*
X55805Y58199D01*
X55707Y58183D01*
X55608Y58157D01*
X55508Y58120D01*
X55407Y58072D01*
X55306Y58013D01*
X55204Y57944D01*
X55102Y57865D01*
X54998Y57774D01*
X54895Y57673D01*
Y59327D01*
X54998Y59226D01*
D02*
G37*
G36*
X51541Y51167D02*
X51636Y51073D01*
X51733Y50991D01*
X51830Y50919D01*
X51927Y50858D01*
X52025Y50809D01*
X52123Y50770D01*
X52222Y50743D01*
X52321Y50726D01*
X52420Y50721D01*
X52381Y50130D01*
X52286Y50125D01*
X52188Y50110D01*
X52088Y50084D01*
X51987Y50049D01*
X51884Y50003D01*
X51779Y49947D01*
X51672Y49881D01*
X51563Y49804D01*
X51341Y49621D01*
X51445Y51272D01*
X51541Y51167D01*
D02*
G37*
G36*
X58163Y50567D02*
X58242Y50513D01*
X58325Y50472D01*
X58412Y50444D01*
X58503Y50429D01*
X58597Y50427D01*
X58695Y50438D01*
X58797Y50463D01*
X58903Y50500D01*
X59012Y50551D01*
X58478Y49006D01*
X58409Y49152D01*
X58193Y49549D01*
X58118Y49668D01*
X57963Y49887D01*
X57884Y49986D01*
X57721Y50165D01*
X58087Y50634D01*
X58163Y50567D01*
D02*
G37*
D10*
X155375Y86431D02*
Y89465D01*
X157236Y91539D02*
X158590D01*
X160051Y93000D01*
X159953Y47189D02*
X162157Y49394D01*
X157823Y39500D02*
X157876Y39553D01*
X158323Y46598D02*
X158913Y47189D01*
X159953D01*
X161445Y39606D02*
X161634Y39417D01*
X158323Y46500D02*
Y46598D01*
X161392Y39553D02*
X161445Y39606D01*
X157876Y39553D02*
X161392D01*
X76313Y146234D02*
X76563Y146484D01*
X76063Y141484D02*
X76313Y141734D01*
Y146234D01*
X103165Y55114D02*
X103279Y55000D01*
X103030Y55250D02*
X103165Y55114D01*
X100063Y55500D02*
X100313Y55250D01*
X103030D01*
X103165Y55114D02*
Y58386D01*
X103051Y58500D02*
X103165Y58386D01*
X98043Y62492D02*
X98051Y62500D01*
X98035Y58512D02*
X98043Y58520D01*
Y62492D01*
D12*
X50551Y50500D02*
X50626Y50425D01*
X57878D02*
X58465Y49839D01*
X50626Y50425D02*
X57878D01*
X59212Y49839D02*
X59551Y49500D01*
X58465Y49839D02*
X59212D01*
X39697Y39146D02*
Y42815D01*
X39598Y39047D02*
X39697Y39146D01*
Y42815D02*
X39795Y42913D01*
X49832Y83448D02*
X50051Y83228D01*
X47603Y83448D02*
X49832D01*
X46051Y85000D02*
X47603Y83448D01*
X58780Y66057D02*
Y70000D01*
X58915Y70136D01*
Y74364D02*
X59051Y74500D01*
X58915Y70136D02*
Y74364D01*
X50051Y83228D02*
X54051D01*
X53551Y101728D02*
X53687Y101864D01*
X58937Y83114D02*
X59051Y83000D01*
X54165Y83114D02*
X58937D01*
X81051Y79000D02*
Y84327D01*
X54051Y83228D02*
X54165Y83114D01*
X53687Y101864D02*
X58915D01*
X59051Y102000D01*
X10018Y108958D02*
X13009D01*
X9975Y108915D02*
X10018Y108958D01*
X41101Y108915D02*
X49188D01*
X13009Y108958D02*
X13051Y109000D01*
X49188Y108915D02*
X51186Y110913D01*
X58965D01*
X59051Y111000D01*
X31654Y121186D02*
X31714Y121126D01*
X31654Y121186D02*
Y125578D01*
X62525Y112262D02*
Y115685D01*
X62808Y115968D01*
X86051Y112673D02*
Y118625D01*
X94005Y57503D02*
X94039Y57468D01*
X87051Y57500D02*
X87070Y57519D01*
X89999D01*
X89938Y57617D02*
X90017Y57538D01*
X90052Y57503D02*
X94005D01*
X89999Y57519D02*
X90017Y57538D01*
X90052Y57503D01*
X98459Y49732D02*
X99551Y48639D01*
X98459Y49732D02*
Y52095D01*
X99551Y48500D02*
Y48639D01*
X98035Y52488D02*
X98065D01*
X98459Y52095D01*
X98035Y52488D02*
X98429Y52095D01*
X89859Y61481D02*
X89938Y61402D01*
X89835Y61505D02*
X89859Y61481D01*
X89812Y65424D02*
X89835Y65400D01*
X89812Y65424D02*
Y65523D01*
X89835Y61505D02*
Y65400D01*
X89812Y65523D02*
X94810Y70521D01*
X89938Y57617D02*
Y61402D01*
X89859Y61481D02*
X93039D01*
X96008Y58512D02*
X96067D01*
X93039Y61481D02*
X96008Y58512D01*
X91113Y74576D02*
X94609D01*
X94810Y70521D02*
Y74376D01*
X94609Y74576D02*
X94810Y74376D01*
X154279Y39500D02*
X154530Y39750D01*
X149031Y39500D02*
X154279D01*
X154530Y39750D02*
Y46250D01*
X154780Y46500D01*
X105309Y52258D02*
Y53388D01*
X105051Y52000D02*
X105309Y52258D01*
Y53388D02*
X106823Y54902D01*
Y68000D01*
X109551D01*
X162319Y78059D02*
Y80618D01*
X89396Y118915D02*
X91051Y117259D01*
Y112673D02*
Y117259D01*
X86051Y118625D02*
X86179Y118753D01*
X86341Y118915D01*
X89169D02*
X89396D01*
X86341D02*
X89169D01*
X89332Y119077D01*
X113516Y122122D02*
X113533Y122140D01*
Y124982D01*
X113551Y125000D01*
X103542Y150682D02*
X106953Y147272D01*
X107051D01*
X96649Y150682D02*
X103542D01*
X165892Y82000D02*
X166051D01*
X148551Y34000D02*
Y39021D01*
X149031Y39500D01*
X43339Y39021D02*
Y42913D01*
X46437Y66114D02*
X46551Y66000D01*
X40685Y80500D02*
X42551D01*
X40602Y80583D02*
X40685Y80500D01*
X39551Y81272D02*
X40240Y80583D01*
X40602D01*
X46437Y66114D02*
Y70386D01*
X46323Y70500D02*
X46437Y70386D01*
X85075Y55976D02*
X87051Y54000D01*
X85075Y58411D02*
X86176Y59512D01*
X85075Y55976D02*
Y58411D01*
X62323Y66057D02*
Y70000D01*
X62437Y70114D01*
X87054Y53997D02*
X90014D01*
X87051Y54000D02*
X87054Y53997D01*
X90017Y53994D02*
X92475D01*
X90014Y53997D02*
X90017Y53994D01*
X86176Y59512D02*
Y61341D01*
X86268Y65424D02*
X86292Y65400D01*
Y61457D02*
Y65400D01*
X86176Y61341D02*
X86292Y61457D01*
X86316Y61481D01*
X46686Y89077D02*
X48302Y87461D01*
X50051Y86772D02*
X54051D01*
X48302Y87461D02*
X49362D01*
X50051Y86772D01*
X62437Y70114D02*
Y74386D01*
X62551Y74500D01*
X76051Y79000D02*
Y84327D01*
X54187Y86636D02*
X58915D01*
X54051Y86772D02*
X54187Y86636D01*
X58915D02*
X59051Y86500D01*
X23053Y121126D02*
X23551Y121625D01*
X53551Y105272D02*
X53665Y105386D01*
X5551Y119000D02*
Y124294D01*
X5730Y124473D01*
X4076Y162662D02*
X8389D01*
X4051Y162637D02*
X4076Y162662D01*
X23551Y121625D02*
Y125500D01*
X53665Y105386D02*
X58937D01*
X59051Y105500D01*
X63525Y124473D02*
X65592Y122406D01*
X66060Y112270D02*
Y118491D01*
X66051Y118500D02*
Y118979D01*
Y118500D02*
X66060Y118491D01*
Y112270D02*
X66068Y112262D01*
X65592Y119439D02*
X66051Y118979D01*
X65592Y119439D02*
Y122406D01*
X77193Y130037D02*
X77205Y130049D01*
Y138919D01*
X79063Y140778D02*
Y140984D01*
X77205Y138919D02*
X79063Y140778D01*
X69889Y162662D02*
X71551Y161000D01*
X65179Y162662D02*
X69889D01*
X100063Y53531D02*
X100122D01*
X102971Y50683D01*
X92544Y53925D02*
X93646D01*
X92475Y53994D02*
X93980Y55500D01*
X92475Y53994D02*
X92544Y53925D01*
X93646D02*
X94039Y53531D01*
X93980Y55500D02*
X94039D01*
X102971Y50067D02*
Y50683D01*
Y50067D02*
X103310Y49729D01*
X99669Y57075D02*
X100063Y57468D01*
Y64685D01*
X103279Y67902D01*
Y68000D01*
Y72849D01*
X104551Y74120D02*
Y74500D01*
X103279Y72849D02*
X104551Y74120D01*
X110551Y63899D02*
Y64000D01*
X113528D02*
X113551D01*
X151051Y78000D02*
X151081Y78030D01*
X154022D02*
X154051Y78059D01*
X155375Y89465D02*
X156695Y90786D01*
Y90998D01*
X157236Y91539D01*
X160051Y93000D02*
X160051D01*
X108553Y118579D02*
X113516D01*
X107132Y120000D02*
X108553Y118579D01*
X96013Y119039D02*
X96051Y119000D01*
X92875Y119077D02*
X92914Y119039D01*
X96013D01*
X107051Y120000D02*
X107132D01*
X129551Y176512D02*
X129563Y176500D01*
X150051Y111000D02*
Y115630D01*
X153323Y118902D01*
X168732Y95976D02*
X169551Y95157D01*
X152276Y95976D02*
X154441D01*
X153323Y118902D02*
Y119000D01*
Y120968D02*
X154157Y121803D01*
X153323Y119000D02*
Y120968D01*
X154157Y121803D02*
X155304D01*
X156803Y123302D01*
Y127630D01*
X152276Y129992D02*
X154441D01*
X156803Y127630D01*
X10061Y121126D02*
Y122308D01*
X15307Y127554D01*
X51497D01*
X54051Y125000D01*
X9975Y121041D02*
X10061Y121126D01*
X9975Y112459D02*
Y121041D01*
X48051Y16000D02*
Y19051D01*
X81264Y52264D02*
Y54539D01*
X48051Y19051D02*
X81264Y52264D01*
X48051Y30500D02*
X72780Y55228D01*
X77551D01*
X113051Y48500D02*
X118051Y53500D01*
Y89011D01*
X81264Y54539D02*
X81953Y55228D01*
X82051D01*
X77650Y58772D02*
X78339Y59461D01*
Y59559D01*
X79051Y60272D02*
Y62500D01*
X77551Y58772D02*
X77650D01*
X78339Y59559D02*
X79051Y60272D01*
X88626Y142012D02*
Y148075D01*
X96551Y156000D02*
X131551D01*
X88626Y148075D02*
X96551Y156000D01*
X95551Y159000D02*
X112051D01*
X88051Y151500D02*
X95551Y159000D01*
X45551Y151500D02*
X88051D01*
X81083Y134468D02*
X88626Y142012D01*
X54551Y170500D02*
X58687Y174636D01*
X60187D02*
X63484Y177933D01*
X58687Y174636D02*
X60187D01*
X63484Y177933D02*
Y179933D01*
X63551Y180000D01*
X29051Y135000D02*
X45551Y151500D01*
X15051Y135000D02*
X29051D01*
X105339Y143500D02*
X111551D01*
X96339Y134500D02*
X105339Y143500D01*
X104551Y123000D02*
X116051Y134500D01*
X126051D01*
X109051Y141000D02*
X116051D01*
X110551Y137500D02*
X110581Y137470D01*
X116081D01*
X116111Y137440D01*
X54051Y58500D02*
X63051D01*
X66051Y61500D01*
X146198Y119295D02*
X149485D01*
X145904Y119589D02*
X146198Y119295D01*
X149485D02*
X149779Y119000D01*
X71551Y113000D02*
Y123000D01*
X76051Y127500D02*
X95051D01*
X71551Y123000D02*
X76051Y127500D01*
X67051Y108500D02*
X71551Y113000D01*
X52551Y108500D02*
X67051D01*
X35608Y91557D02*
X52551Y108500D01*
X35608Y81272D02*
Y91557D01*
X95051Y127500D02*
X118551Y104000D01*
X134051D01*
X69551Y124000D02*
X73650Y128098D01*
Y130037D01*
X39665Y77614D02*
X42937D01*
X39551Y77728D02*
X39665Y77614D01*
X42937D02*
X43051Y77500D01*
X35608Y77728D02*
X39551D01*
X38860Y70524D02*
X42755D01*
X42779Y70500D01*
X38836Y70548D02*
X38860Y70524D01*
X42915Y73864D02*
X43051Y74000D01*
X42779Y70500D02*
X42915Y70636D01*
Y73864D01*
X82301Y59022D02*
Y62250D01*
X82551Y62500D01*
X82051Y58772D02*
X82301Y59022D01*
X116051Y70500D02*
Y78728D01*
X103650Y91228D02*
X104339Y90539D01*
Y90441D02*
Y90539D01*
Y90441D02*
X116051Y78728D01*
X103551Y91228D02*
X103650D01*
X112787Y94236D02*
X112807Y94255D01*
X118051Y89011D01*
X110841Y94236D02*
X112787D01*
X103551Y98000D02*
X107051Y101500D01*
X103551Y94772D02*
Y98000D01*
X107051Y98500D02*
X107273Y98278D01*
Y94993D02*
X107494Y94772D01*
X107273Y94993D02*
Y98278D01*
X145717Y107060D02*
X145810Y107153D01*
X149593D02*
X149687Y107246D01*
X145810Y107153D02*
X149593D01*
D17*
X151831Y86431D02*
D03*
X39795Y42913D02*
D03*
X58780Y66057D02*
D03*
Y70000D02*
D03*
X62525Y112262D02*
D03*
X89859Y61481D02*
D03*
X89812Y65424D02*
D03*
X154279Y39500D02*
D03*
X154780Y46500D02*
D03*
X106823Y55000D02*
D03*
Y68000D02*
D03*
X89332Y119077D02*
D03*
X43339Y42913D02*
D03*
X46323Y70500D02*
D03*
X62323Y66057D02*
D03*
Y70000D02*
D03*
X86268Y65424D02*
D03*
X86316Y61481D02*
D03*
X66068Y112262D02*
D03*
X77193Y130037D02*
D03*
X103279Y68000D02*
D03*
X155375Y86431D02*
D03*
X92875Y119077D02*
D03*
X153323Y119000D02*
D03*
X158323Y46500D02*
D03*
X157823Y39500D02*
D03*
X149779Y119000D02*
D03*
X73650Y130037D02*
D03*
X42779Y70500D02*
D03*
X107298Y94236D02*
D03*
X110841D02*
D03*
X103279Y55000D02*
D03*
D18*
X50051Y83228D02*
D03*
X54051D02*
D03*
X53551Y101728D02*
D03*
X9975Y108915D02*
D03*
X41101D02*
D03*
X90017Y57538D02*
D03*
X91113Y74576D02*
D03*
X113516Y122122D02*
D03*
X107051Y147772D02*
D03*
X169551Y82000D02*
D03*
X39551Y81272D02*
D03*
X90017Y53994D02*
D03*
X50051Y86772D02*
D03*
X54051D02*
D03*
X53551Y105272D02*
D03*
X169551Y85543D02*
D03*
X113516Y118579D02*
D03*
X150051Y111000D02*
D03*
X41101Y112459D02*
D03*
X9975D02*
D03*
X107051Y144228D02*
D03*
X35608Y81272D02*
D03*
X38836Y70548D02*
D03*
Y67005D02*
D03*
X35608Y77728D02*
D03*
X39551D02*
D03*
X82051Y58772D02*
D03*
Y55228D02*
D03*
X77551Y58772D02*
D03*
Y55228D02*
D03*
X103551Y94772D02*
D03*
Y91228D02*
D03*
X91113Y78120D02*
D03*
X86070Y74576D02*
D03*
X76169Y118880D02*
D03*
Y122424D02*
D03*
X86070Y78120D02*
D03*
X80975Y118880D02*
D03*
Y122424D02*
D03*
X150051Y107457D02*
D03*
D31*
X129551Y165488D02*
D03*
Y176512D02*
D03*
X134051Y115024D02*
D03*
Y104000D02*
D03*
D36*
X42563Y60500D02*
D03*
X112039Y59000D02*
D03*
X31539Y60500D02*
D03*
X123063Y59000D02*
D03*
D54*
X122043Y87055D02*
D03*
Y68945D02*
D03*
Y78000D02*
D03*
D63*
X161445Y39606D02*
D03*
X50551Y50500D02*
D03*
X59551Y49500D02*
D03*
X39598Y39047D02*
D03*
X34551Y53000D02*
D03*
X46051Y85000D02*
D03*
X51780Y40728D02*
D03*
X59051Y74500D02*
D03*
X87051Y57500D02*
D03*
X81051Y79000D02*
D03*
X59051Y83000D02*
D03*
Y102000D02*
D03*
X13051Y109000D02*
D03*
X59051Y111000D02*
D03*
X31654Y125578D02*
D03*
X62808Y115968D02*
D03*
X66051Y135500D02*
D03*
X86179Y118753D02*
D03*
X79563Y156984D02*
D03*
X94810Y74376D02*
D03*
X99551Y48500D02*
D03*
X105051Y52000D02*
D03*
X109551Y68000D02*
D03*
X166051Y79000D02*
D03*
X113551Y125000D02*
D03*
X93063Y142984D02*
D03*
X96649Y150682D02*
D03*
X122551Y152000D02*
D03*
X166051Y82000D02*
D03*
X131051Y137500D02*
D03*
X161835Y157284D02*
D03*
X12551Y58500D02*
D03*
X111051Y30500D02*
D03*
X148551Y34000D02*
D03*
Y55500D02*
D03*
X34051Y42500D02*
D03*
X20051Y63000D02*
D03*
X43339Y39021D02*
D03*
X42551Y80500D02*
D03*
X35551Y101000D02*
D03*
X42563Y66012D02*
D03*
X46551Y66000D02*
D03*
X87051Y54000D02*
D03*
X46686Y89077D02*
D03*
X62551Y74500D02*
D03*
X76051Y79000D02*
D03*
X59051Y86500D02*
D03*
X37551Y108500D02*
D03*
X20551Y110500D02*
D03*
X5551Y119000D02*
D03*
X16551Y157500D02*
D03*
X8389Y162662D02*
D03*
X23551Y125500D02*
D03*
X54051Y135500D02*
D03*
X44051Y177000D02*
D03*
X59051Y105500D02*
D03*
X66051Y118500D02*
D03*
X79063Y140984D02*
D03*
X79648Y146561D02*
D03*
X71551Y161000D02*
D03*
X90873Y158063D02*
D03*
X103310Y49729D02*
D03*
X104551Y74500D02*
D03*
X145551Y68500D02*
D03*
X151051Y78000D02*
D03*
X160051Y93000D02*
D03*
X173551D02*
D03*
X96051Y119000D02*
D03*
X107051Y120000D02*
D03*
X127838Y130287D02*
D03*
X96702Y146992D02*
D03*
X109551Y165500D02*
D03*
X130801Y148373D02*
D03*
X152276Y134276D02*
D03*
X169051Y134500D02*
D03*
X156835Y157120D02*
D03*
X121551Y30500D02*
D03*
X148551Y45000D02*
D03*
X8417Y35134D02*
D03*
X88551Y34000D02*
D03*
X107551Y39000D02*
D03*
X111551Y43500D02*
D03*
X12051Y131000D02*
D03*
X13051Y115500D02*
D03*
X76500Y42000D02*
D03*
X112551Y151000D02*
D03*
X58551Y120000D02*
D03*
X37998Y114019D02*
D03*
X54051Y125000D02*
D03*
X18551Y116500D02*
D03*
X27551D02*
D03*
X48051Y16000D02*
D03*
Y30500D02*
D03*
X113051Y48500D02*
D03*
X162157Y49394D02*
D03*
X131551Y156000D02*
D03*
X81083Y134468D02*
D03*
X54551Y170500D02*
D03*
X63551Y180000D02*
D03*
X15051Y135000D02*
D03*
X112051Y159000D02*
D03*
X111551Y143500D02*
D03*
X96339Y134500D02*
D03*
X126051D02*
D03*
X104551Y123000D02*
D03*
X116051Y141000D02*
D03*
X109051D02*
D03*
X116111Y137440D02*
D03*
X110551Y137500D02*
D03*
X54051Y58500D02*
D03*
X66051Y61500D02*
D03*
X145904Y119589D02*
D03*
X146051Y116500D02*
D03*
X145947Y110189D02*
D03*
X76563Y146484D02*
D03*
X76063Y141484D02*
D03*
X69551Y124000D02*
D03*
X43051Y74000D02*
D03*
Y77500D02*
D03*
X79051Y62500D02*
D03*
X82551D02*
D03*
X116051Y70500D02*
D03*
X107051Y101500D02*
D03*
Y98500D02*
D03*
X101551Y76000D02*
D03*
X103051Y78500D02*
D03*
Y58500D02*
D03*
X59051Y90500D02*
D03*
X98051Y62500D02*
D03*
X59051Y94000D02*
D03*
X145717Y107060D02*
D03*
D65*
X154244Y124362D02*
D03*
Y101606D02*
D03*
D68*
X146059Y76910D02*
X147634Y75335D01*
X146059Y78000D02*
Y79090D01*
Y76910D02*
Y78000D01*
X147634Y75335D02*
X153886D01*
X146059Y79090D02*
X147634Y80665D01*
X151551D01*
X151183Y90802D02*
X151831Y90154D01*
X154004Y80665D02*
X154051Y80618D01*
X151831Y80946D02*
Y86431D01*
Y90154D01*
X151551Y80665D02*
X154004D01*
X151551D02*
X151831Y80946D01*
X153886Y75335D02*
X154051Y75500D01*
X150868Y91510D02*
X151183Y91194D01*
X148541Y91510D02*
X150868D01*
X146051Y98007D02*
X161051Y113007D01*
X146051Y94000D02*
X148541Y91510D01*
X146051Y94000D02*
Y98007D01*
X129551Y165488D02*
X137051Y157988D01*
X161051Y113007D02*
Y130500D01*
X137051Y148000D02*
Y157988D01*
X147051Y138000D02*
X153551D01*
X137051Y148000D02*
X147051Y138000D01*
X153551D02*
X161051Y130500D01*
X151183Y90802D02*
Y90998D01*
Y91194D01*
X124307Y165372D02*
X129179D01*
X162319Y80618D02*
X164510D01*
X164551Y80500D02*
X166051Y79000D01*
X164510Y80618D02*
X165892Y82000D01*
X166051Y79000D02*
Y82000D01*
X169551D01*
X42563Y60500D02*
X46476Y64413D01*
Y65925D01*
X42563Y60500D02*
Y66012D01*
X46476Y65925D02*
X46551Y66000D01*
X112039Y59000D02*
Y62411D01*
X110551Y63899D02*
X112039Y62411D01*
Y62512D02*
X113528Y64000D01*
X110551D02*
X113528D01*
X169551Y85543D02*
Y95157D01*
X134051Y115024D02*
Y120000D01*
X132051Y122000D02*
X136051D01*
X132051D02*
X134051Y120000D01*
X136051Y122000D01*
Y174000D02*
Y174213D01*
X129563Y176500D02*
X134051D01*
X134125Y176139D02*
Y176500D01*
Y176139D02*
X136051Y174213D01*
Y174574D02*
Y178500D01*
X134051Y176500D02*
X136051Y178500D01*
X31051Y34000D02*
Y36500D01*
Y38713D01*
Y61318D01*
Y12500D02*
X41051Y2500D01*
X98051D01*
X105051Y9500D01*
Y32849D01*
Y34500D01*
X105202Y34651D01*
X105051Y32849D02*
X107401D01*
X109202Y34651D02*
X123063Y48512D01*
X105202Y34651D02*
X109202D01*
X107401Y32849D02*
X107551Y33000D01*
X109202Y34651D01*
X123063Y48512D02*
Y59000D01*
X105264Y34500D02*
X106614Y33151D01*
X107401D02*
X107551Y33000D01*
X105051Y34500D02*
X105264D01*
X106614Y33151D02*
X107401D01*
X31051Y12500D02*
Y34000D01*
X33051Y36500D02*
Y36713D01*
X31051Y38713D02*
X33051Y36713D01*
X31051Y36500D02*
X33051D01*
X31202Y34151D02*
Y34438D01*
X33051Y36287D02*
Y36500D01*
X31202Y34438D02*
X33051Y36287D01*
X31051Y34000D02*
X31202Y34151D01*
X10338Y100000D02*
X10551D01*
X6764D02*
X10338D01*
X8767Y98429D02*
X10338Y100000D01*
X8551Y98429D02*
X8767D01*
X8335D02*
X8551D01*
X6551Y100000D02*
X6764D01*
X8335Y98429D01*
X8551Y83818D02*
X31051Y61318D01*
X8551Y83818D02*
Y98429D01*
X31051Y61318D02*
X31285Y61085D01*
X38738Y66906D02*
Y67005D01*
X32916Y61085D02*
X38738Y66906D01*
Y67005D02*
X38836D01*
X31285Y61085D02*
X32916D01*
X10551Y99787D02*
Y100000D01*
X143051Y113000D02*
Y121000D01*
Y124500D01*
Y105000D02*
Y113000D01*
X142838Y105000D02*
X143051D01*
Y101500D02*
Y105000D01*
X142838Y101500D02*
X143051D01*
X140338Y104000D02*
X141838D01*
X142838Y105000D01*
X134051Y104000D02*
X140338D01*
X142838Y101500D01*
X122043Y91992D02*
X134051Y104000D01*
X122043Y87055D02*
Y91992D01*
X122553Y59510D02*
X123063Y59000D01*
X122553Y59510D02*
Y68435D01*
X122043Y68945D02*
X122553Y68435D01*
D69*
X151081Y78030D02*
X154022D01*
X134051Y176500D02*
X134125D01*
D70*
X41101Y112459D02*
Y120401D01*
X40376Y121126D02*
X41101Y120401D01*
Y112459D02*
X53010D01*
X58307Y117756D01*
Y119756D01*
X58551Y120000D01*
X36045Y115972D02*
X37998Y114019D01*
X36045Y115972D02*
Y121126D01*
X18551Y116500D02*
Y120956D01*
X18722Y121126D01*
X27551Y116500D02*
Y120959D01*
X27384Y121126D02*
X27551Y120959D01*
X59051Y94000D02*
X73051Y108000D01*
Y119404D02*
X76071Y122424D01*
X73051Y108000D02*
Y119404D01*
X95628Y122424D02*
X99551Y118500D01*
Y82000D02*
X103051Y78500D01*
X99551Y82000D02*
Y118500D01*
X101228Y76323D02*
X101551Y76000D01*
X93008Y76323D02*
X101228D01*
X91211Y78120D02*
X93008Y76323D01*
X91051Y84327D02*
X91113Y84266D01*
Y78120D02*
Y84266D01*
Y78120D02*
X91211D01*
X59051Y90500D02*
X74975Y74576D01*
X86070D01*
X80975Y122424D02*
X95628D01*
X80975Y112749D02*
Y118880D01*
Y112749D02*
X81051Y112673D01*
X76169Y112791D02*
Y118880D01*
X76051Y112673D02*
X76169Y112791D01*
X76071Y122424D02*
X76169D01*
X86070Y78120D02*
Y84308D01*
X86051Y84327D02*
X86070Y84308D01*
D71*
X145999Y116448D02*
X146051Y116500D01*
X145999Y110242D02*
Y116448D01*
X145947Y110189D02*
X145999Y110242D01*
D72*
X166835Y150930D02*
D03*
X146835Y154930D02*
D03*
Y146930D02*
D03*
D73*
X152276Y95976D02*
D03*
Y129992D02*
D03*
D74*
X168732Y95976D02*
D03*
Y129992D02*
D03*
D75*
X46635Y162662D02*
D03*
X15139D02*
D03*
D76*
X167323Y13850D02*
D03*
X85551Y176000D02*
D03*
X13780Y13780D02*
D03*
X166772Y176221D02*
D03*
D77*
X124307Y165372D02*
D03*
X110551Y64000D02*
D03*
X113551D02*
D03*
X172051Y72500D02*
D03*
X158551Y73000D02*
D03*
X166551D02*
D03*
X123051Y113000D02*
D03*
X132051Y122000D02*
D03*
X136051D02*
D03*
Y174000D02*
D03*
Y178500D02*
D03*
X58551Y15500D02*
D03*
X100551D02*
D03*
X105051Y34500D02*
D03*
X107551Y33000D02*
D03*
X33051Y36500D02*
D03*
X31051Y34000D02*
D03*
X6551Y100000D02*
D03*
X10551D02*
D03*
X143051Y113000D02*
D03*
Y101500D02*
D03*
Y121000D02*
D03*
Y105000D02*
D03*
Y124500D02*
D03*
D78*
X0Y0D02*
X181102D01*
X0Y190000D02*
X181102D01*
Y0D02*
Y190000D01*
X0Y0D02*
Y190000D01*
D90*
X146059Y78000D02*
D03*
D91*
X151183Y90998D02*
D03*
X156695D02*
D03*
D92*
X154051Y80618D02*
D03*
Y75500D02*
D03*
X162319Y78059D02*
D03*
Y80618D02*
D03*
X154051Y78059D02*
D03*
X162319Y75500D02*
D03*
D93*
X81051Y84327D02*
D03*
X86051Y112673D02*
D03*
X91051D02*
D03*
X76051Y84327D02*
D03*
X91051D02*
D03*
X86051D02*
D03*
X76051Y112673D02*
D03*
X81051D02*
D03*
D94*
X31714Y121126D02*
D03*
X23053D02*
D03*
X10061D02*
D03*
X14391D02*
D03*
X18722D02*
D03*
X27384D02*
D03*
X36045D02*
D03*
X40376D02*
D03*
X44706D02*
D03*
D95*
X94039Y57468D02*
D03*
X98035Y52488D02*
D03*
X96067Y58512D02*
D03*
X94039Y53531D02*
D03*
X100063D02*
D03*
X94039Y55500D02*
D03*
X100063Y57468D02*
D03*
Y55500D02*
D03*
X98035Y58512D02*
D03*
X96067Y52488D02*
D03*
D96*
X5730Y124473D02*
D03*
X63525D02*
D03*
D97*
X4076Y162662D02*
D03*
X65179D02*
D03*
D98*
X158185Y78059D02*
D03*
M02*
