G04*
G04 #@! TF.GenerationSoftware,Altium Limited,Altium Designer,26.2.0 (7)*
G04*
G04 Layer_Color=128*
%FSLAX25Y25*%
%MOIN*%
G70*
G04*
G04 #@! TF.SameCoordinates,17A3E6CB-15BD-4058-B425-0E0A4CEE79B2*
G04*
G04*
G04 #@! TF.FilePolarity,Positive*
G04*
G01*
G75*
G04:AMPARAMS|DCode=17|XSize=21.65mil|YSize=19.68mil|CornerRadius=2.46mil|HoleSize=0mil|Usage=FLASHONLY|Rotation=90.000|XOffset=0mil|YOffset=0mil|HoleType=Round|Shape=RoundedRectangle|*
%AMROUNDEDRECTD17*
21,1,0.02165,0.01476,0,0,90.0*
21,1,0.01673,0.01968,0,0,90.0*
1,1,0.00492,0.00738,0.00837*
1,1,0.00492,0.00738,-0.00837*
1,1,0.00492,-0.00738,-0.00837*
1,1,0.00492,-0.00738,0.00837*
%
%ADD17ROUNDEDRECTD17*%
G04:AMPARAMS|DCode=18|XSize=21.65mil|YSize=19.68mil|CornerRadius=2.46mil|HoleSize=0mil|Usage=FLASHONLY|Rotation=180.000|XOffset=0mil|YOffset=0mil|HoleType=Round|Shape=RoundedRectangle|*
%AMROUNDEDRECTD18*
21,1,0.02165,0.01476,0,0,180.0*
21,1,0.01673,0.01968,0,0,180.0*
1,1,0.00492,-0.00837,0.00738*
1,1,0.00492,0.00837,0.00738*
1,1,0.00492,0.00837,-0.00738*
1,1,0.00492,-0.00837,-0.00738*
%
%ADD18ROUNDEDRECTD18*%
%ADD54R,0.05118X0.05118*%
G04:AMPARAMS|DCode=91|XSize=29.92mil|YSize=26mil|CornerRadius=3.25mil|HoleSize=0mil|Usage=FLASHONLY|Rotation=90.000|XOffset=0mil|YOffset=0mil|HoleType=Round|Shape=RoundedRectangle|*
%AMROUNDEDRECTD91*
21,1,0.02992,0.01950,0,0,90.0*
21,1,0.02342,0.02600,0,0,90.0*
1,1,0.00650,0.00975,0.01171*
1,1,0.00650,0.00975,-0.01171*
1,1,0.00650,-0.00975,-0.01171*
1,1,0.00650,-0.00975,0.01171*
%
%ADD91ROUNDEDRECTD91*%
%ADD92R,0.02362X0.01378*%
%ADD93R,0.02559X0.06496*%
%ADD94R,0.02756X0.05118*%
G04:AMPARAMS|DCode=95|XSize=14.96mil|YSize=13.78mil|CornerRadius=0.62mil|HoleSize=0mil|Usage=FLASHONLY|Rotation=180.000|XOffset=0mil|YOffset=0mil|HoleType=Round|Shape=RoundedRectangle|*
%AMROUNDEDRECTD95*
21,1,0.01496,0.01254,0,0,180.0*
21,1,0.01372,0.01378,0,0,180.0*
1,1,0.00124,-0.00686,0.00627*
1,1,0.00124,0.00686,0.00627*
1,1,0.00124,0.00686,-0.00627*
1,1,0.00124,-0.00686,-0.00627*
%
%ADD95ROUNDEDRECTD95*%
%ADD96R,0.04724X0.05512*%
%ADD97R,0.04724X0.07874*%
%ADD98R,0.04331X0.06693*%
%ADD109R,0.04331X0.04331*%
%ADD110R,0.04331X0.04331*%
G36*
X143706Y77409D02*
Y71104D01*
X148421D01*
Y77409D01*
X143706D01*
D02*
G37*
G36*
X143708Y84890D02*
Y78591D01*
X148421D01*
Y84890D01*
X143708D01*
D02*
G37*
D17*
X151831Y86431D02*
D03*
X39795Y42913D02*
D03*
X58780Y66057D02*
D03*
Y70000D02*
D03*
X62525Y112262D02*
D03*
X89859Y61481D02*
D03*
X89812Y65424D02*
D03*
X154279Y39500D02*
D03*
X154780Y46500D02*
D03*
X106823Y55000D02*
D03*
Y68000D02*
D03*
X89332Y119077D02*
D03*
X43339Y42913D02*
D03*
X46323Y70500D02*
D03*
X62323Y66057D02*
D03*
Y70000D02*
D03*
X86268Y65424D02*
D03*
X86316Y61481D02*
D03*
X66068Y112262D02*
D03*
X77193Y130037D02*
D03*
X103279Y68000D02*
D03*
X155375Y86431D02*
D03*
X92875Y119077D02*
D03*
X153323Y119000D02*
D03*
X158323Y46500D02*
D03*
X157823Y39500D02*
D03*
X149779Y119000D02*
D03*
X73650Y130037D02*
D03*
X42779Y70500D02*
D03*
X107298Y94236D02*
D03*
X110841D02*
D03*
X103279Y55000D02*
D03*
D18*
X50051Y83228D02*
D03*
X54051D02*
D03*
X53551Y101728D02*
D03*
X9975Y108915D02*
D03*
X41101D02*
D03*
X90017Y57538D02*
D03*
X91113Y74576D02*
D03*
X113516Y122122D02*
D03*
X107051Y147772D02*
D03*
X169551Y82000D02*
D03*
X39551Y81272D02*
D03*
X90017Y53994D02*
D03*
X50051Y86772D02*
D03*
X54051D02*
D03*
X53551Y105272D02*
D03*
X169551Y85543D02*
D03*
X113516Y118579D02*
D03*
X150051Y111000D02*
D03*
X41101Y112459D02*
D03*
X9975D02*
D03*
X107051Y144228D02*
D03*
X35608Y81272D02*
D03*
X38836Y70548D02*
D03*
Y67005D02*
D03*
X35608Y77728D02*
D03*
X39551D02*
D03*
X82051Y58772D02*
D03*
Y55228D02*
D03*
X77551Y58772D02*
D03*
Y55228D02*
D03*
X103551Y94772D02*
D03*
Y91228D02*
D03*
X91113Y78120D02*
D03*
X86070Y74576D02*
D03*
X76169Y118880D02*
D03*
Y122424D02*
D03*
X86070Y78120D02*
D03*
X80975Y118880D02*
D03*
Y122424D02*
D03*
X150051Y107457D02*
D03*
D54*
X122043Y87055D02*
D03*
Y68945D02*
D03*
Y78000D02*
D03*
D91*
X151183Y90998D02*
D03*
X156695D02*
D03*
D92*
X154051Y80618D02*
D03*
Y75500D02*
D03*
X162319Y78059D02*
D03*
Y80618D02*
D03*
X154051Y78059D02*
D03*
X162319Y75500D02*
D03*
D93*
X81051Y84327D02*
D03*
X86051Y112673D02*
D03*
X91051D02*
D03*
X76051Y84327D02*
D03*
X91051D02*
D03*
X86051D02*
D03*
X76051Y112673D02*
D03*
X81051D02*
D03*
D94*
X31714Y121126D02*
D03*
X23053D02*
D03*
X10061D02*
D03*
X14391D02*
D03*
X18722D02*
D03*
X27384D02*
D03*
X36045D02*
D03*
X40376D02*
D03*
X44706D02*
D03*
D95*
X94039Y57468D02*
D03*
X98035Y52488D02*
D03*
X96067Y58512D02*
D03*
X94039Y53531D02*
D03*
X100063D02*
D03*
X94039Y55500D02*
D03*
X100063Y57468D02*
D03*
Y55500D02*
D03*
X98035Y58512D02*
D03*
X96067Y52488D02*
D03*
D96*
X5730Y124473D02*
D03*
X63525D02*
D03*
D97*
X4076Y162662D02*
D03*
X65179D02*
D03*
D98*
X158185Y78059D02*
D03*
D109*
X129551Y165488D02*
D03*
Y176512D02*
D03*
X134051Y115024D02*
D03*
Y104000D02*
D03*
D110*
X42563Y60500D02*
D03*
X112039Y59000D02*
D03*
X31539Y60500D02*
D03*
X123063Y59000D02*
D03*
M02*
