G04*
G04 #@! TF.GenerationSoftware,Altium Limited,Altium Designer,26.2.0 (7)*
G04*
G04 Layer_Physical_Order=1*
G04 Layer_Color=255*
%FSLAX25Y25*%
%MOIN*%
G70*
G04*
G04 #@! TF.SameCoordinates,17A3E6CB-15BD-4058-B425-0E0A4CEE79B2*
G04*
G04*
G04 #@! TF.FilePolarity,Positive*
G04*
G01*
G75*
%ADD10C,0.00787*%
%ADD12C,0.00591*%
G04:AMPARAMS|DCode=16|XSize=120mil|YSize=80mil|CornerRadius=20mil|HoleSize=0mil|Usage=FLASHONLY|Rotation=0.000|XOffset=0mil|YOffset=0mil|HoleType=Round|Shape=RoundedRectangle|*
%AMROUNDEDRECTD16*
21,1,0.12000,0.04000,0,0,0.0*
21,1,0.08000,0.08000,0,0,0.0*
1,1,0.04000,0.04000,-0.02000*
1,1,0.04000,-0.04000,-0.02000*
1,1,0.04000,-0.04000,0.02000*
1,1,0.04000,0.04000,0.02000*
%
%ADD16ROUNDEDRECTD16*%
G04:AMPARAMS|DCode=17|XSize=21.65mil|YSize=19.68mil|CornerRadius=2.46mil|HoleSize=0mil|Usage=FLASHONLY|Rotation=90.000|XOffset=0mil|YOffset=0mil|HoleType=Round|Shape=RoundedRectangle|*
%AMROUNDEDRECTD17*
21,1,0.02165,0.01476,0,0,90.0*
21,1,0.01673,0.01968,0,0,90.0*
1,1,0.00492,0.00738,0.00837*
1,1,0.00492,0.00738,-0.00837*
1,1,0.00492,-0.00738,-0.00837*
1,1,0.00492,-0.00738,0.00837*
%
%ADD17ROUNDEDRECTD17*%
G04:AMPARAMS|DCode=18|XSize=21.65mil|YSize=19.68mil|CornerRadius=2.46mil|HoleSize=0mil|Usage=FLASHONLY|Rotation=180.000|XOffset=0mil|YOffset=0mil|HoleType=Round|Shape=RoundedRectangle|*
%AMROUNDEDRECTD18*
21,1,0.02165,0.01476,0,0,180.0*
21,1,0.01673,0.01968,0,0,180.0*
1,1,0.00492,-0.00837,0.00738*
1,1,0.00492,0.00837,0.00738*
1,1,0.00492,0.00837,-0.00738*
1,1,0.00492,-0.00837,-0.00738*
%
%ADD18ROUNDEDRECTD18*%
%ADD19C,0.03398*%
G04:AMPARAMS|DCode=20|XSize=23.23mil|YSize=13.78mil|CornerRadius=3.45mil|HoleSize=0mil|Usage=FLASHONLY|Rotation=180.000|XOffset=0mil|YOffset=0mil|HoleType=Round|Shape=RoundedRectangle|*
%AMROUNDEDRECTD20*
21,1,0.02323,0.00689,0,0,180.0*
21,1,0.01634,0.01378,0,0,180.0*
1,1,0.00689,-0.00817,0.00345*
1,1,0.00689,0.00817,0.00345*
1,1,0.00689,0.00817,-0.00345*
1,1,0.00689,-0.00817,-0.00345*
%
%ADD20ROUNDEDRECTD20*%
G04:AMPARAMS|DCode=21|XSize=23.23mil|YSize=13.78mil|CornerRadius=3.45mil|HoleSize=0mil|Usage=FLASHONLY|Rotation=270.000|XOffset=0mil|YOffset=0mil|HoleType=Round|Shape=RoundedRectangle|*
%AMROUNDEDRECTD21*
21,1,0.02323,0.00689,0,0,270.0*
21,1,0.01634,0.01378,0,0,270.0*
1,1,0.00689,-0.00345,-0.00817*
1,1,0.00689,-0.00345,0.00817*
1,1,0.00689,0.00345,0.00817*
1,1,0.00689,0.00345,-0.00817*
%
%ADD21ROUNDEDRECTD21*%
%ADD22R,0.01181X0.05807*%
%ADD23R,0.05807X0.01181*%
G04:AMPARAMS|DCode=24|XSize=51.18mil|YSize=29.92mil|CornerRadius=3.74mil|HoleSize=0mil|Usage=FLASHONLY|Rotation=270.000|XOffset=0mil|YOffset=0mil|HoleType=Round|Shape=RoundedRectangle|*
%AMROUNDEDRECTD24*
21,1,0.05118,0.02244,0,0,270.0*
21,1,0.04370,0.02992,0,0,270.0*
1,1,0.00748,-0.01122,-0.02185*
1,1,0.00748,-0.01122,0.02185*
1,1,0.00748,0.01122,0.02185*
1,1,0.00748,0.01122,-0.02185*
%
%ADD24ROUNDEDRECTD24*%
%ADD25R,0.02559X0.06004*%
G04:AMPARAMS|DCode=26|XSize=14.96mil|YSize=13.78mil|CornerRadius=0.62mil|HoleSize=0mil|Usage=FLASHONLY|Rotation=90.000|XOffset=0mil|YOffset=0mil|HoleType=Round|Shape=RoundedRectangle|*
%AMROUNDEDRECTD26*
21,1,0.01496,0.01254,0,0,90.0*
21,1,0.01372,0.01378,0,0,90.0*
1,1,0.00124,0.00627,0.00686*
1,1,0.00124,0.00627,-0.00686*
1,1,0.00124,-0.00627,-0.00686*
1,1,0.00124,-0.00627,0.00686*
%
%ADD26ROUNDEDRECTD26*%
G04:AMPARAMS|DCode=27|XSize=120mil|YSize=80mil|CornerRadius=20mil|HoleSize=0mil|Usage=FLASHONLY|Rotation=90.000|XOffset=0mil|YOffset=0mil|HoleType=Round|Shape=RoundedRectangle|*
%AMROUNDEDRECTD27*
21,1,0.12000,0.04000,0,0,90.0*
21,1,0.08000,0.08000,0,0,90.0*
1,1,0.04000,0.02000,0.04000*
1,1,0.04000,0.02000,-0.04000*
1,1,0.04000,-0.02000,-0.04000*
1,1,0.04000,-0.02000,0.04000*
%
%ADD27ROUNDEDRECTD27*%
G04:AMPARAMS|DCode=28|XSize=51.18mil|YSize=29.92mil|CornerRadius=3.74mil|HoleSize=0mil|Usage=FLASHONLY|Rotation=0.000|XOffset=0mil|YOffset=0mil|HoleType=Round|Shape=RoundedRectangle|*
%AMROUNDEDRECTD28*
21,1,0.05118,0.02244,0,0,0.0*
21,1,0.04370,0.02992,0,0,0.0*
1,1,0.00748,0.02185,-0.01122*
1,1,0.00748,-0.02185,-0.01122*
1,1,0.00748,-0.02185,0.01122*
1,1,0.00748,0.02185,0.01122*
%
%ADD28ROUNDEDRECTD28*%
%ADD29R,0.00984X0.01870*%
%ADD30R,0.01870X0.00984*%
%ADD31R,0.04724X0.04724*%
%ADD32R,0.07087X0.05315*%
%ADD33R,0.05512X0.04724*%
%ADD34R,0.21654X0.03937*%
%ADD35R,0.04724X0.01575*%
%ADD36R,0.04724X0.04724*%
%ADD37R,0.04724X0.02362*%
%ADD38R,0.04528X0.02362*%
%ADD39R,0.11811X0.06299*%
%ADD40R,0.04528X0.01181*%
%ADD63C,0.02362*%
%ADD65C,0.02559*%
%ADD68C,0.01968*%
%ADD69C,0.01181*%
%ADD70C,0.00532*%
%ADD71C,0.00472*%
%ADD72C,0.06102*%
%ADD73O,0.08268X0.03937*%
%ADD74O,0.07087X0.03937*%
%ADD75C,0.01968*%
%ADD76C,0.23622*%
%ADD77C,0.02756*%
%ADD78C,0.01000*%
G36*
X161614Y187971D02*
X160057Y187177D01*
X158426Y185992D01*
X157000Y184566D01*
X155815Y182935D01*
X154899Y181138D01*
X154276Y179220D01*
X153961Y177229D01*
Y175212D01*
X154276Y173221D01*
X154899Y171303D01*
X155815Y169506D01*
X157000Y167875D01*
X158426Y166449D01*
X160057Y165263D01*
X161854Y164348D01*
X163772Y163725D01*
X165763Y163409D01*
X167780D01*
X169772Y163725D01*
X171689Y164348D01*
X173486Y165263D01*
X175118Y166449D01*
X176543Y167875D01*
X177729Y169506D01*
X178644Y171303D01*
X179073Y172623D01*
X179573Y172544D01*
Y19128D01*
X179073Y19008D01*
X178280Y20565D01*
X177094Y22196D01*
X175669Y23622D01*
X174037Y24807D01*
X172241Y25723D01*
X170323Y26346D01*
X168331Y26661D01*
X166315D01*
X164323Y26346D01*
X162405Y25723D01*
X160608Y24807D01*
X158977Y23622D01*
X157551Y22196D01*
X156366Y20565D01*
X155450Y18768D01*
X154827Y16850D01*
X154512Y14859D01*
Y12842D01*
X154827Y10851D01*
X155450Y8933D01*
X156366Y7136D01*
X157551Y5505D01*
X158977Y4079D01*
X160608Y2893D01*
X162304Y2029D01*
X162217Y1529D01*
X19057D01*
X18937Y2029D01*
X20494Y2823D01*
X22125Y4008D01*
X23551Y5434D01*
X24736Y7065D01*
X25652Y8862D01*
X26275Y10780D01*
X26591Y12771D01*
Y14788D01*
X26275Y16779D01*
X25652Y18697D01*
X24736Y20494D01*
X23551Y22125D01*
X22125Y23551D01*
X20494Y24736D01*
X18697Y25652D01*
X16779Y26275D01*
X14788Y26591D01*
X12771D01*
X10780Y26275D01*
X8862Y25652D01*
X7065Y24736D01*
X5434Y23551D01*
X4008Y22125D01*
X2823Y20494D01*
X2029Y18937D01*
X1529Y19057D01*
Y188471D01*
X80876D01*
X80955Y187977D01*
X80633Y187872D01*
X78837Y186957D01*
X77205Y185772D01*
X75779Y184346D01*
X74594Y182714D01*
X73679Y180918D01*
X73056Y179000D01*
X72740Y177008D01*
Y174992D01*
X73056Y173000D01*
X73679Y171082D01*
X74594Y169286D01*
X75779Y167654D01*
X77205Y166228D01*
X78837Y165043D01*
X80633Y164128D01*
X82551Y163504D01*
X84543Y163189D01*
X86559D01*
X88551Y163504D01*
X90469Y164128D01*
X92266Y165043D01*
X93897Y166228D01*
X95323Y167654D01*
X96508Y169286D01*
X97424Y171082D01*
X98047Y173000D01*
X98362Y174992D01*
Y177008D01*
X98047Y179000D01*
X97424Y180918D01*
X96508Y182714D01*
X95323Y184346D01*
X93897Y185772D01*
X92266Y186957D01*
X90469Y187872D01*
X90148Y187977D01*
X90226Y188471D01*
X161494D01*
X161614Y187971D01*
D02*
G37*
%LPC*%
G36*
X128051Y187526D02*
X120051D01*
X119268Y187423D01*
X118538Y187120D01*
X117912Y186640D01*
X117431Y186013D01*
X117128Y185283D01*
X117053Y184713D01*
X116549D01*
X116474Y185283D01*
X116172Y186013D01*
X115691Y186640D01*
X115064Y187120D01*
X114334Y187423D01*
X113551Y187526D01*
X105551D01*
X104768Y187423D01*
X104038Y187120D01*
X103412Y186640D01*
X102931Y186013D01*
X102628Y185283D01*
X102525Y184500D01*
Y180500D01*
X102628Y179717D01*
X102666Y179625D01*
X100546Y177505D01*
X100238Y177044D01*
X100130Y176500D01*
Y147589D01*
X99383Y146842D01*
X98883Y147049D01*
Y147426D01*
X98551Y148228D01*
X97938Y148841D01*
X97930Y148879D01*
X98498Y149447D01*
X98830Y150249D01*
Y151116D01*
X98498Y151918D01*
X97884Y152531D01*
X97083Y152863D01*
X96215D01*
X95413Y152531D01*
X95015Y152133D01*
X94887Y152145D01*
X94475Y152421D01*
X93989Y152517D01*
X92316D01*
X91830Y152421D01*
X91417Y152145D01*
X91206Y151829D01*
X90709D01*
X90671Y151822D01*
X90285Y152139D01*
Y152655D01*
X90202Y153069D01*
X89967Y153420D01*
X89616Y153655D01*
X89241Y153729D01*
Y154682D01*
X89159Y155096D01*
X88924Y155448D01*
X88754Y155562D01*
Y156390D01*
X89217Y156582D01*
X89382Y156468D01*
X89637Y156213D01*
X90439Y155882D01*
X91307D01*
X92042Y156186D01*
X91200Y157028D01*
X91907Y157735D01*
X92749Y156893D01*
X93054Y157629D01*
Y158496D01*
X92749Y159232D01*
X91907Y158390D01*
X91200Y159097D01*
X92042Y159939D01*
X91307Y160244D01*
X90439D01*
X89712Y159942D01*
X89618Y159915D01*
X89114Y160006D01*
X88971Y160219D01*
X88559Y160495D01*
X88073Y160591D01*
X87835D01*
Y159459D01*
X86835D01*
Y160591D01*
X86597D01*
X86110Y160495D01*
X85927Y160372D01*
X85563Y160261D01*
X85199Y160372D01*
X85016Y160495D01*
X84530Y160591D01*
X83053D01*
X82567Y160495D01*
X82155Y160219D01*
X81879Y159807D01*
X81879Y159805D01*
X81063D01*
X80558Y159704D01*
X80129Y159418D01*
X79876Y159165D01*
X79129D01*
X78328Y158833D01*
X77714Y158220D01*
X77382Y157418D01*
Y156550D01*
X77565Y156108D01*
X76938Y155480D01*
X75862D01*
X75376Y155383D01*
X74998Y155131D01*
X74946Y155110D01*
X74417Y155169D01*
X74286Y155365D01*
Y155635D01*
X74562Y156047D01*
X74658Y156534D01*
Y156772D01*
X73526D01*
Y157772D01*
X74658D01*
Y158010D01*
X74562Y158496D01*
X74286Y158908D01*
X73874Y159184D01*
X73872Y159184D01*
Y159521D01*
X73771Y160026D01*
X73609Y160269D01*
X73732Y160566D01*
Y161434D01*
X73428Y162169D01*
X72585Y161327D01*
X71878Y162034D01*
X72720Y162876D01*
X71985Y163181D01*
X71117D01*
X70382Y162876D01*
X71224Y162034D01*
X70517Y161327D01*
X69675Y162169D01*
X69370Y161434D01*
Y160566D01*
X69675Y159831D01*
X70517Y160673D01*
X71224Y159966D01*
X70370Y159111D01*
X70552Y158512D01*
X70541Y158496D01*
X70444Y158010D01*
Y157772D01*
X71576D01*
Y156772D01*
X70444D01*
Y156534D01*
X70541Y156047D01*
X70816Y155635D01*
Y155365D01*
X70541Y154953D01*
X70444Y154466D01*
Y152990D01*
X70541Y152504D01*
X70816Y152092D01*
X71228Y151816D01*
X71715Y151720D01*
X73388D01*
X73874Y151816D01*
X74252Y152069D01*
X74303Y152090D01*
X74833Y152030D01*
X74963Y151835D01*
Y151565D01*
X74688Y151153D01*
X74591Y150666D01*
Y149190D01*
X74688Y148704D01*
X74963Y148292D01*
X74992Y147998D01*
X74714Y147720D01*
X74382Y146918D01*
Y146050D01*
X74640Y145426D01*
X74553Y145263D01*
X74092Y144955D01*
X72204Y143067D01*
X71896Y142606D01*
X71788Y142062D01*
Y132868D01*
X70592D01*
Y135691D01*
X70492Y136196D01*
X70205Y136625D01*
X68341Y138489D01*
Y145662D01*
X63841D01*
X63782Y145662D01*
Y145662D01*
X63341D01*
Y145662D01*
X58782D01*
X58782Y145662D01*
X58341D01*
Y145662D01*
X58282Y145662D01*
X56561D01*
Y144554D01*
X55561D01*
Y145662D01*
X53841D01*
X53782Y145662D01*
Y145662D01*
X53341D01*
Y145662D01*
X48782D01*
Y142757D01*
X48730Y142500D01*
Y135500D01*
X48831Y134995D01*
X49117Y134566D01*
X51617Y132066D01*
X52046Y131780D01*
X52551Y131679D01*
X57839D01*
Y126557D01*
X57551Y126321D01*
X55905D01*
X55882Y126331D01*
X55848Y126351D01*
X55817Y126372D01*
X55680Y126485D01*
X55605Y126558D01*
X55527Y126608D01*
X55287Y126849D01*
X54485Y127181D01*
X53617D01*
X52816Y126849D01*
X52202Y126235D01*
X51870Y125434D01*
Y124566D01*
X52017Y124213D01*
X51682Y123713D01*
X48683D01*
Y123413D01*
X46816D01*
X46735Y123823D01*
X46459Y124235D01*
X46047Y124510D01*
X45561Y124607D01*
X44085D01*
X43598Y124510D01*
X43415Y124388D01*
X43051Y124276D01*
X42687Y124388D01*
X42504Y124510D01*
X42018Y124607D01*
X40541D01*
X40055Y124510D01*
X39643Y124235D01*
X39368Y123823D01*
X39271Y123337D01*
Y122974D01*
X36734D01*
X36734Y122974D01*
X36240Y122875D01*
X35822Y122596D01*
X31017Y117791D01*
X29434D01*
X29416Y117800D01*
X29377Y117823D01*
X29339Y117850D01*
X29189Y117976D01*
X29107Y118056D01*
X29028Y118108D01*
X28787Y118349D01*
X27985Y118681D01*
X27117D01*
X26316Y118349D01*
X25702Y117736D01*
X25370Y116934D01*
Y116066D01*
X25702Y115264D01*
X25714Y115252D01*
X25523Y114791D01*
X22086D01*
X20795Y116081D01*
X20789Y116101D01*
X20778Y116144D01*
X20770Y116190D01*
X20753Y116385D01*
X20752Y116500D01*
X20732Y116592D01*
Y116934D01*
X20400Y117736D01*
X19787Y118349D01*
X18985Y118681D01*
X18117D01*
X17316Y118349D01*
X16872Y117905D01*
X16372Y118112D01*
Y133236D01*
X16900Y133765D01*
X17232Y134566D01*
Y135434D01*
X16900Y136235D01*
X16734Y136402D01*
X16941Y136902D01*
X27598D01*
Y145201D01*
X17203D01*
X17011Y145663D01*
X18841Y147493D01*
X28567D01*
X28762Y147531D01*
X41378D01*
Y151289D01*
X41417Y151484D01*
X41378Y151680D01*
Y153469D01*
X39589D01*
X39394Y153507D01*
X37179D01*
X36984Y153469D01*
X32945D01*
X32750Y153507D01*
X30535D01*
X30340Y153469D01*
X17724D01*
Y151483D01*
X17229Y151385D01*
X16573Y150946D01*
X7723Y142096D01*
X7284Y141440D01*
X7130Y140666D01*
Y121159D01*
X6630Y120914D01*
X5985Y121181D01*
X5117D01*
X4382Y120876D01*
X5224Y120034D01*
X4517Y119327D01*
X3675Y120169D01*
X3370Y119434D01*
Y118566D01*
X3675Y117831D01*
X4517Y118673D01*
X5224Y117966D01*
X4382Y117124D01*
X5117Y116819D01*
X5985D01*
X6630Y117086D01*
X7130Y116841D01*
Y103087D01*
X6962Y103054D01*
X6305Y102615D01*
X6061Y102371D01*
X5204Y102016D01*
X4535Y101347D01*
X4173Y100473D01*
Y99527D01*
X4535Y98653D01*
X5204Y97984D01*
X6078Y97622D01*
X7024D01*
X7881Y97977D01*
X9222D01*
X10078Y97622D01*
X11024D01*
X11898Y97984D01*
X12567Y98653D01*
X12929Y99527D01*
Y100473D01*
X12567Y101347D01*
X11898Y102016D01*
X11177Y102315D01*
Y107083D01*
X11677Y107290D01*
X11816Y107151D01*
X12617Y106819D01*
X13485D01*
X13731Y106655D01*
Y88283D01*
X13831Y87778D01*
X14117Y87350D01*
X15508Y85959D01*
Y80512D01*
X24595D01*
Y85959D01*
X29685Y91049D01*
X39540D01*
X39541Y91047D01*
X39816Y90635D01*
Y90365D01*
X39541Y89953D01*
X39444Y89467D01*
Y87990D01*
X39541Y87504D01*
X39816Y87092D01*
X40228Y86816D01*
X40715Y86720D01*
X41791D01*
X43870Y84640D01*
Y84566D01*
X44202Y83764D01*
X44816Y83151D01*
X44861Y83132D01*
X44916Y82568D01*
X44816Y82501D01*
X44576Y82141D01*
X44256Y82096D01*
X44034Y82102D01*
X43787Y82349D01*
X42985Y82681D01*
X42117D01*
X41382Y82376D01*
X42224Y81534D01*
X41517Y80827D01*
X40675Y81669D01*
X40370Y80934D01*
Y80066D01*
X40702Y79264D01*
X41217Y78750D01*
X41202Y78736D01*
X40870Y77934D01*
Y77066D01*
X41202Y76265D01*
X41717Y75750D01*
X41202Y75235D01*
X40870Y74434D01*
Y73566D01*
X41202Y72764D01*
X41816Y72151D01*
X42617Y71819D01*
X43485D01*
X44287Y72151D01*
X44611Y71785D01*
X44671Y71647D01*
X44541Y71453D01*
X44444Y70967D01*
Y70728D01*
X45576D01*
Y69728D01*
X44444D01*
Y69490D01*
X44541Y69004D01*
X44816Y68592D01*
X45228Y68316D01*
X45230Y68316D01*
Y68028D01*
X46224Y67034D01*
X45517Y66327D01*
X44551Y67293D01*
X43597Y66339D01*
X42890Y67046D01*
X43732Y67888D01*
X42997Y68193D01*
X42129D01*
X41394Y67888D01*
X42236Y67046D01*
X41529Y66339D01*
X40687Y67181D01*
X40382Y66446D01*
Y65578D01*
X40687Y64842D01*
X41529Y65685D01*
X42236Y64978D01*
X41394Y64135D01*
X42129Y63831D01*
X42997D01*
X43732Y64135D01*
X42890Y64978D01*
X43597Y65685D01*
X44563Y64719D01*
X45517Y65673D01*
X46224Y64966D01*
X45382Y64124D01*
X46117Y63819D01*
X46985D01*
X47465Y64018D01*
X47748Y63594D01*
X38665Y54510D01*
X38378Y54082D01*
X38345Y53913D01*
X38285Y53873D01*
X37988Y53428D01*
X37883Y52903D01*
Y51270D01*
X37909Y51139D01*
X37607Y51079D01*
X37163Y50782D01*
X37076Y50653D01*
X36230D01*
X36111Y50832D01*
X36086Y51450D01*
X36400Y51765D01*
X36732Y52566D01*
Y53434D01*
X36400Y54236D01*
X35787Y54849D01*
X34985Y55181D01*
X34117D01*
X33316Y54849D01*
X32702Y54236D01*
X32370Y53434D01*
Y52566D01*
X32702Y51765D01*
X32903Y51563D01*
X32913Y51535D01*
X32825Y50955D01*
X32641Y50832D01*
X32485Y50599D01*
X31993D01*
X31786Y50908D01*
X31374Y51184D01*
X30888Y51280D01*
X29215D01*
X28728Y51184D01*
X28316Y50908D01*
X28041Y50496D01*
X27944Y50010D01*
Y48533D01*
X28041Y48047D01*
X28316Y47635D01*
Y47365D01*
X28041Y46953D01*
X27944Y46466D01*
Y46228D01*
X29076D01*
Y45228D01*
X27944D01*
Y44990D01*
X28041Y44504D01*
X28316Y44092D01*
X28728Y43816D01*
X29215Y43720D01*
X29551D01*
Y44852D01*
X30551D01*
Y43720D01*
X30888D01*
X31374Y43816D01*
X31721Y44048D01*
X31830Y44045D01*
X31892Y43994D01*
X32042Y43771D01*
X32102Y43494D01*
X31946Y43117D01*
X31481Y42908D01*
X31370Y42901D01*
X31253Y42979D01*
X30716Y43086D01*
X28472D01*
X27936Y42979D01*
X27482Y42676D01*
X27178Y42221D01*
X27071Y41685D01*
Y37315D01*
X27178Y36779D01*
X27482Y36324D01*
X27936Y36021D01*
X28472Y35914D01*
X28949D01*
X29140Y35452D01*
X29035Y35347D01*
X28673Y34473D01*
Y33527D01*
X29035Y32653D01*
X29704Y31984D01*
X30578Y31622D01*
X31524D01*
X32381Y31977D01*
X45646D01*
X45679Y31477D01*
X45268Y31423D01*
X44538Y31120D01*
X43911Y30640D01*
X43431Y30013D01*
X43128Y29283D01*
X43025Y28500D01*
Y20500D01*
X43128Y19717D01*
X43431Y18987D01*
X43911Y18360D01*
X44538Y17879D01*
X45268Y17577D01*
X45814Y17505D01*
X45821Y17501D01*
X45838Y17473D01*
Y16998D01*
X45268Y16923D01*
X44538Y16621D01*
X43911Y16140D01*
X43431Y15513D01*
X43128Y14783D01*
X43025Y14000D01*
Y6000D01*
X43128Y5217D01*
X43431Y4487D01*
X43911Y3860D01*
X44538Y3379D01*
X45268Y3077D01*
X46051Y2974D01*
X50051D01*
X50834Y3077D01*
X51564Y3379D01*
X52191Y3860D01*
X52672Y4487D01*
X52974Y5217D01*
X53049Y5787D01*
X53553D01*
X53628Y5217D01*
X53931Y4487D01*
X54105Y4261D01*
X54904Y5060D01*
X55611Y4353D01*
X54812Y3553D01*
X55038Y3379D01*
X55768Y3077D01*
X56551Y2974D01*
X58051D01*
Y4108D01*
X59051D01*
Y2974D01*
X60551D01*
X61334Y3077D01*
X62064Y3379D01*
X62291Y3553D01*
X61491Y4353D01*
X62198Y5060D01*
X62998Y4261D01*
X63172Y4487D01*
X63474Y5217D01*
X63549Y5787D01*
X64053D01*
X64128Y5217D01*
X64431Y4487D01*
X64912Y3860D01*
X65538Y3379D01*
X66268Y3077D01*
X67051Y2974D01*
X71051D01*
X71834Y3077D01*
X72564Y3379D01*
X73191Y3860D01*
X73672Y4487D01*
X73974Y5217D01*
X74049Y5787D01*
X74553D01*
X74628Y5217D01*
X74931Y4487D01*
X75411Y3860D01*
X76038Y3379D01*
X76768Y3077D01*
X77551Y2974D01*
X81551D01*
X82334Y3077D01*
X83064Y3379D01*
X83691Y3860D01*
X84172Y4487D01*
X84474Y5217D01*
X84549Y5787D01*
X85053D01*
X85128Y5217D01*
X85431Y4487D01*
X85912Y3860D01*
X86538Y3379D01*
X87268Y3077D01*
X88051Y2974D01*
X92051D01*
X92834Y3077D01*
X93564Y3379D01*
X94191Y3860D01*
X94672Y4487D01*
X94974Y5217D01*
X95049Y5787D01*
X95553D01*
X95628Y5217D01*
X95931Y4487D01*
X96105Y4261D01*
X96904Y5060D01*
X97611Y4353D01*
X96812Y3553D01*
X97038Y3379D01*
X97768Y3077D01*
X98551Y2974D01*
X100051D01*
Y4108D01*
X101051D01*
Y2974D01*
X102551D01*
X103334Y3077D01*
X104064Y3379D01*
X104291Y3553D01*
X103491Y4353D01*
X104198Y5060D01*
X104998Y4261D01*
X105172Y4487D01*
X105474Y5217D01*
X105549Y5787D01*
X106053D01*
X106128Y5217D01*
X106431Y4487D01*
X106912Y3860D01*
X107538Y3379D01*
X108268Y3077D01*
X109051Y2974D01*
X113051D01*
X113834Y3077D01*
X114564Y3379D01*
X115191Y3860D01*
X115672Y4487D01*
X115974Y5217D01*
X116049Y5787D01*
X116553D01*
X116628Y5217D01*
X116931Y4487D01*
X117412Y3860D01*
X118038Y3379D01*
X118768Y3077D01*
X119551Y2974D01*
X123551D01*
X124334Y3077D01*
X125064Y3379D01*
X125691Y3860D01*
X126172Y4487D01*
X126474Y5217D01*
X126577Y6000D01*
Y14000D01*
X126560Y14130D01*
X127737Y15307D01*
X128045Y15768D01*
X128153Y16312D01*
Y56319D01*
X128045Y56863D01*
X127737Y57324D01*
X124416Y60645D01*
Y70318D01*
X124729Y70528D01*
X125005Y70940D01*
X125102Y71426D01*
Y72902D01*
X125005Y73389D01*
X124729Y73801D01*
Y74071D01*
X125005Y74483D01*
X125102Y74969D01*
Y76446D01*
X125005Y76932D01*
X124729Y77344D01*
X124416Y77554D01*
Y78473D01*
X124877Y78664D01*
X127630Y75911D01*
Y67500D01*
X127738Y66956D01*
X128046Y66495D01*
X137130Y57411D01*
Y50408D01*
X137238Y49864D01*
X137546Y49403D01*
X148280Y38669D01*
X148339Y38431D01*
X148319Y38019D01*
X147931Y37513D01*
X147628Y36783D01*
X147525Y36000D01*
Y35936D01*
X147316Y35849D01*
X146702Y35236D01*
X146370Y34434D01*
Y33566D01*
X146702Y32765D01*
X147316Y32151D01*
X147525Y32064D01*
Y32000D01*
X147628Y31217D01*
X147931Y30487D01*
X148412Y29860D01*
X149038Y29379D01*
X149768Y29077D01*
X150551Y28974D01*
X158551D01*
X159334Y29077D01*
X160064Y29379D01*
X160691Y29860D01*
X161172Y30487D01*
X161474Y31217D01*
X161549Y31787D01*
X162053D01*
X162128Y31217D01*
X162431Y30487D01*
X162912Y29860D01*
X163538Y29379D01*
X164268Y29077D01*
X165051Y28974D01*
X173051D01*
X173834Y29077D01*
X174564Y29379D01*
X175191Y29860D01*
X175672Y30487D01*
X175974Y31217D01*
X176077Y32000D01*
Y36000D01*
X175974Y36783D01*
X175672Y37513D01*
X175191Y38140D01*
X174564Y38620D01*
X173834Y38923D01*
X173264Y38998D01*
Y39502D01*
X173834Y39577D01*
X174564Y39880D01*
X175191Y40360D01*
X175672Y40987D01*
X175974Y41717D01*
X176077Y42500D01*
Y46500D01*
X175974Y47283D01*
X175672Y48013D01*
X175191Y48640D01*
X174564Y49121D01*
X173834Y49423D01*
X173264Y49498D01*
Y50002D01*
X173834Y50077D01*
X174564Y50380D01*
X175191Y50860D01*
X175672Y51487D01*
X175974Y52217D01*
X176077Y53000D01*
Y57000D01*
X175974Y57783D01*
X175672Y58513D01*
X175191Y59140D01*
X174564Y59620D01*
X173834Y59923D01*
X173264Y59998D01*
Y60502D01*
X173834Y60577D01*
X174564Y60879D01*
X175191Y61360D01*
X175672Y61987D01*
X175974Y62717D01*
X176077Y63500D01*
Y67500D01*
X175974Y68283D01*
X175672Y69013D01*
X175191Y69640D01*
X174564Y70121D01*
X173983Y70361D01*
X173839Y70772D01*
X173840Y70926D01*
X174067Y71153D01*
X174429Y72027D01*
Y72973D01*
X174078Y73820D01*
X173237Y72979D01*
X172530Y73686D01*
X173371Y74527D01*
X172524Y74878D01*
X171578D01*
X170731Y74527D01*
X171573Y73686D01*
X170866Y72979D01*
X170024Y73820D01*
X169673Y72973D01*
Y72027D01*
X170035Y71153D01*
X170200Y70988D01*
X170009Y70526D01*
X168093D01*
X167963Y70832D01*
X167956Y70888D01*
X167030Y71814D01*
X167737Y72522D01*
X168578Y71680D01*
X168929Y72527D01*
Y73473D01*
X168578Y74320D01*
X167737Y73479D01*
X167030Y74186D01*
X167871Y75027D01*
X167024Y75378D01*
X166078D01*
X165231Y75027D01*
X166073Y74186D01*
X165366Y73479D01*
X164524Y74320D01*
X164244Y73643D01*
X163711Y73469D01*
X162115Y75065D01*
X162115Y75065D01*
X160616Y76564D01*
X160155Y76872D01*
X159611Y76980D01*
X153439D01*
X153162Y77396D01*
X153232Y77566D01*
Y78434D01*
X152928Y79169D01*
X152085Y78327D01*
X151378Y79034D01*
X152220Y79876D01*
X151485Y80181D01*
X150617D01*
X149882Y79876D01*
X150724Y79034D01*
X150017Y78327D01*
X149175Y79169D01*
X148870Y78434D01*
Y77566D01*
X148941Y77396D01*
X148663Y76980D01*
X140581D01*
X128503Y89058D01*
X128710Y89558D01*
X133864D01*
Y96282D01*
X133468D01*
Y97474D01*
X133705Y97521D01*
X134160Y97824D01*
X134464Y98279D01*
X134570Y98815D01*
Y103185D01*
X134464Y103721D01*
X134160Y104176D01*
X133705Y104479D01*
X133169Y104586D01*
X130925D01*
X130389Y104479D01*
X129935Y104176D01*
X129631Y103721D01*
X129524Y103185D01*
Y98815D01*
X129631Y98279D01*
X129935Y97824D01*
X130389Y97521D01*
X130626Y97474D01*
Y96282D01*
X128202D01*
Y98647D01*
X128516Y98857D01*
X128792Y99269D01*
X128888Y99756D01*
Y101232D01*
X128792Y101718D01*
X128516Y102130D01*
Y102401D01*
X128792Y102813D01*
X128888Y103299D01*
Y104775D01*
X128792Y105261D01*
X128516Y105674D01*
X128104Y105949D01*
X127618Y106046D01*
X126767D01*
X126752Y106051D01*
X126718Y106066D01*
X126676Y106090D01*
X126625Y106123D01*
X126566Y106167D01*
X126545Y106185D01*
X126113Y106617D01*
X126304Y107079D01*
X131492D01*
Y110819D01*
Y112500D01*
X130385D01*
Y113500D01*
X131492D01*
Y114559D01*
Y118921D01*
X127045D01*
X126853Y119383D01*
X129211Y121741D01*
X129673Y121550D01*
Y121527D01*
X130024Y120680D01*
X130866Y121521D01*
X131573Y120814D01*
X130731Y119973D01*
X131578Y119622D01*
X132524D01*
X133398Y119984D01*
X134051Y120637D01*
X134704Y119984D01*
X135578Y119622D01*
X136524D01*
X137371Y119973D01*
X136530Y120814D01*
X137237Y121521D01*
X138078Y120680D01*
X138429Y121527D01*
Y122473D01*
X138199Y123029D01*
X138513Y123239D01*
X140173Y124900D01*
X140673Y124693D01*
Y124027D01*
X141028Y123170D01*
Y122330D01*
X140673Y121473D01*
Y120527D01*
X141035Y119653D01*
X141267Y119421D01*
X141060Y118921D01*
X140953Y118921D01*
X140953Y118921D01*
X140948Y118921D01*
X134610D01*
Y114559D01*
Y110819D01*
Y107079D01*
X140948Y107079D01*
X140953D01*
X140953D01*
X141060Y107079D01*
X141267Y106579D01*
X141035Y106347D01*
X140673Y105473D01*
Y105005D01*
X140217Y104586D01*
X137972D01*
X137436Y104479D01*
X136982Y104176D01*
X136678Y103721D01*
X136572Y103185D01*
Y98815D01*
X136678Y98279D01*
X136982Y97824D01*
X137436Y97521D01*
X137972Y97414D01*
X140217D01*
X140753Y97521D01*
X141207Y97824D01*
X141511Y98279D01*
X141618Y98815D01*
Y98979D01*
X142118Y99313D01*
X142578Y99122D01*
X143524D01*
X144398Y99484D01*
X145067Y100153D01*
X145429Y101027D01*
Y101230D01*
X145712Y101512D01*
X146749D01*
X146787Y101510D01*
Y100886D01*
X147895D01*
Y99886D01*
X146787D01*
Y98205D01*
X147448D01*
X147695Y97705D01*
X147517Y97473D01*
X147218Y96751D01*
X147116Y95976D01*
X147218Y95201D01*
X147250Y95125D01*
X146465Y94341D01*
X142131D01*
Y96282D01*
X139269D01*
Y95175D01*
X138269D01*
Y96282D01*
X135407D01*
Y93420D01*
X136515D01*
Y92420D01*
X135407D01*
Y89558D01*
X138269D01*
Y90665D01*
X139269D01*
Y89558D01*
X142131D01*
Y91499D01*
X147054D01*
X147598Y91607D01*
X148059Y91915D01*
X149259Y93116D01*
X149335Y93084D01*
X150110Y92982D01*
X151776D01*
Y94116D01*
X152776D01*
Y92982D01*
X154441D01*
X155216Y93084D01*
X155938Y93383D01*
X156558Y93859D01*
X156878Y93880D01*
X157870Y92888D01*
Y92566D01*
X158202Y91764D01*
X158564Y91403D01*
X158288Y90989D01*
X158207Y90586D01*
X157425D01*
X156889Y90479D01*
X156435Y90176D01*
X156131Y89721D01*
X156024Y89185D01*
Y87500D01*
X157159D01*
Y86500D01*
X156024D01*
Y84815D01*
X156131Y84279D01*
X156435Y83824D01*
X156889Y83521D01*
X157425Y83414D01*
X158047D01*
Y84548D01*
X159047D01*
Y83414D01*
X159669D01*
X160205Y83521D01*
X160660Y83824D01*
X160964Y84279D01*
X161070Y84815D01*
Y86500D01*
X159936D01*
Y87500D01*
X161070D01*
Y89185D01*
X161021Y89430D01*
Y89856D01*
X161056Y89891D01*
X161364Y90352D01*
X161468Y90876D01*
X160378Y91966D01*
X161085Y92673D01*
X161928Y91831D01*
X162232Y92566D01*
Y93434D01*
X161928Y94169D01*
X161085Y93327D01*
X160378Y94034D01*
X161221Y94876D01*
X160485Y95181D01*
X160163D01*
X158221Y97123D01*
X157695Y97475D01*
X157075Y97598D01*
X156938D01*
X156865Y97693D01*
X156065Y96893D01*
X155358Y97600D01*
X156158Y98400D01*
X155938Y98569D01*
X155216Y98869D01*
X154974Y98900D01*
X154907Y99414D01*
X155535Y99674D01*
X156177Y100315D01*
X156524Y101153D01*
Y102060D01*
X156177Y102898D01*
X155535Y103539D01*
X154698Y103886D01*
X153791D01*
X153731Y103861D01*
X153315Y104139D01*
Y108441D01*
Y111619D01*
X153511Y111750D01*
X153942Y112182D01*
X153943Y112182D01*
X154216Y112591D01*
X154312Y113073D01*
X154312Y113073D01*
Y114864D01*
X154312Y114864D01*
X154216Y115346D01*
X153943Y115755D01*
X153942Y115755D01*
X153315Y116383D01*
Y118283D01*
Y121830D01*
X153731Y122108D01*
X153791Y122083D01*
X154698D01*
X155535Y122430D01*
X156177Y123071D01*
X156524Y123909D01*
Y124816D01*
X156177Y125653D01*
X155535Y126295D01*
X154907Y126555D01*
X154974Y127068D01*
X155216Y127100D01*
X155938Y127399D01*
X156158Y127568D01*
X155358Y128368D01*
X156065Y129075D01*
X156865Y128275D01*
X157034Y128495D01*
X157333Y129217D01*
X157435Y129992D01*
X157333Y130767D01*
X157034Y131489D01*
X156865Y131709D01*
X156065Y130909D01*
X155358Y131616D01*
X156158Y132416D01*
X155938Y132585D01*
X155216Y132884D01*
X154633Y132961D01*
X154349Y133335D01*
X154309Y133486D01*
X154457Y133842D01*
Y134709D01*
X154152Y135445D01*
X153310Y134603D01*
X152603Y135310D01*
X153445Y136152D01*
X152709Y136457D01*
X152437D01*
X152230Y136957D01*
X161105Y145832D01*
X161480Y145731D01*
X162191D01*
X162877Y145915D01*
X163493Y146270D01*
X163995Y146773D01*
X164230Y147179D01*
X164820Y147416D01*
X165272Y147155D01*
X166302Y146879D01*
X167369D01*
X168399Y147155D01*
X169323Y147688D01*
X170077Y148442D01*
X170610Y149366D01*
X170887Y150396D01*
Y151463D01*
X170610Y152494D01*
X170077Y153417D01*
X169323Y154172D01*
X168399Y154705D01*
X167369Y154981D01*
X166302D01*
X165272Y154705D01*
X164820Y154444D01*
X164230Y154681D01*
X163995Y155087D01*
X163493Y155589D01*
X163461Y155826D01*
X163684Y156049D01*
X164016Y156850D01*
Y157718D01*
X163684Y158520D01*
X163071Y159133D01*
X162269Y159465D01*
X161402D01*
X160600Y159133D01*
X159986Y158520D01*
X159654Y157718D01*
Y156850D01*
X159986Y156049D01*
X160209Y155826D01*
X160178Y155589D01*
X159676Y155087D01*
X159585Y154930D01*
X159085D01*
X158995Y155087D01*
X158493Y155589D01*
X158481Y155681D01*
X158685Y155885D01*
X159017Y156686D01*
Y157554D01*
X158712Y158290D01*
X157870Y157447D01*
X157163Y158154D01*
X158005Y158997D01*
X157269Y159301D01*
X156402D01*
X155666Y158997D01*
X156508Y158154D01*
X155801Y157447D01*
X154959Y158290D01*
X154654Y157554D01*
Y156686D01*
X154986Y155885D01*
X155190Y155681D01*
X155178Y155589D01*
X154676Y155087D01*
X154585Y154930D01*
X154085D01*
X153995Y155087D01*
X153492Y155589D01*
X152877Y155945D01*
X152596Y156020D01*
X152518Y156412D01*
X152232Y156841D01*
X149139Y159934D01*
X148710Y160220D01*
X148205Y160321D01*
X113815D01*
X113287Y160849D01*
X112485Y161181D01*
X111948D01*
X111741Y161681D01*
X117737Y167677D01*
X118274Y167582D01*
X118538Y167379D01*
X119268Y167077D01*
X120051Y166974D01*
X121903D01*
X122189Y166474D01*
X121929Y165845D01*
Y164899D01*
X122291Y164025D01*
X122960Y163356D01*
X123834Y162994D01*
X124780D01*
X125654Y163356D01*
X126323Y164025D01*
X126685Y164899D01*
Y165845D01*
X126424Y166474D01*
X126711Y166974D01*
X128051D01*
X128834Y167077D01*
X129564Y167379D01*
X130191Y167860D01*
X130672Y168487D01*
X130974Y169217D01*
X131077Y170000D01*
Y174000D01*
X130974Y174783D01*
X130672Y175513D01*
X130191Y176140D01*
X129564Y176620D01*
X128834Y176923D01*
X128264Y176998D01*
Y177502D01*
X128834Y177577D01*
X129564Y177880D01*
X130191Y178360D01*
X130672Y178987D01*
X130974Y179717D01*
X131077Y180500D01*
Y184500D01*
X130974Y185283D01*
X130672Y186013D01*
X130191Y186640D01*
X129564Y187120D01*
X128834Y187423D01*
X128051Y187526D01*
D02*
G37*
G36*
X63985Y182181D02*
X63117D01*
X62316Y181849D01*
X61787Y181321D01*
X60413D01*
Y181787D01*
X53689D01*
Y181321D01*
X43051D01*
X42546Y181220D01*
X42117Y180934D01*
X38748Y177564D01*
X38462Y177136D01*
X38453Y177091D01*
X17724D01*
Y171153D01*
X40740D01*
X40947Y170653D01*
X39564Y169270D01*
X39562Y169269D01*
X39531Y169245D01*
X39508Y169230D01*
X39496Y169224D01*
X39480Y169223D01*
X39455Y169217D01*
X17724D01*
Y164982D01*
X17224Y164775D01*
X16962Y165037D01*
X16285Y165428D01*
X15530Y165630D01*
X14749D01*
X13994Y165428D01*
X13317Y165037D01*
X12764Y164485D01*
X12373Y163808D01*
X12171Y163053D01*
Y162271D01*
X12373Y161516D01*
X12764Y160839D01*
X13317Y160286D01*
X13994Y159896D01*
X14749Y159693D01*
X14953D01*
X15160Y159193D01*
X14702Y158736D01*
X14370Y157934D01*
Y157066D01*
X14675Y156331D01*
X15517Y157173D01*
X16224Y156466D01*
X15382Y155624D01*
X16117Y155319D01*
X16985D01*
X17522Y155541D01*
X17724Y155405D01*
Y155405D01*
X29051D01*
Y156513D01*
X30051D01*
Y155405D01*
X41378D01*
Y157874D01*
X40270D01*
Y158874D01*
X41378D01*
Y161343D01*
X30051D01*
Y160235D01*
X29051D01*
Y161343D01*
X18355D01*
X17993Y161843D01*
X18108Y162271D01*
Y163053D01*
X18282Y163279D01*
X41378D01*
Y167293D01*
X41384Y167318D01*
X41385Y167334D01*
X41392Y167346D01*
X41407Y167370D01*
X41430Y167401D01*
X41432Y167403D01*
X47590Y173561D01*
X53689D01*
Y173094D01*
X53809D01*
X53908Y172594D01*
X53316Y172349D01*
X52702Y171736D01*
X52370Y170934D01*
Y170066D01*
X52702Y169264D01*
X53316Y168651D01*
X54117Y168319D01*
X54416D01*
X54452Y168299D01*
X54787Y167819D01*
X54740Y167584D01*
Y167016D01*
X53841D01*
X53782Y167016D01*
X53341D01*
X53282Y167016D01*
X48782D01*
Y165375D01*
X48282Y165139D01*
X47781Y165428D01*
X47026Y165630D01*
X46245D01*
X45490Y165428D01*
X44813Y165037D01*
X44260Y164485D01*
X43869Y163808D01*
X43667Y163053D01*
Y162271D01*
X43869Y161516D01*
X44260Y160839D01*
X44813Y160286D01*
X45490Y159896D01*
X46245Y159693D01*
X47026D01*
X47781Y159896D01*
X48282Y160185D01*
X48782Y159949D01*
Y159012D01*
X53282D01*
X53341Y159012D01*
X53782D01*
X53841Y159012D01*
X58341D01*
Y159012D01*
X58782D01*
Y159012D01*
X63282D01*
X63341Y159012D01*
X63782D01*
X63841Y159012D01*
X68341D01*
Y167016D01*
X63841D01*
X63782Y167016D01*
X63341D01*
X63282Y167016D01*
X62999D01*
X62871Y167219D01*
X62784Y167516D01*
X63007Y167851D01*
X63104Y168337D01*
Y170011D01*
X63007Y170497D01*
X62732Y170909D01*
X62416Y171120D01*
Y172412D01*
X62316Y172918D01*
X62029Y173346D01*
X60467Y174908D01*
X60466Y174910D01*
X60442Y174941D01*
X60427Y174965D01*
X60421Y174977D01*
X60420Y174993D01*
X60413Y175018D01*
Y176669D01*
X53689D01*
Y176202D01*
X52933D01*
Y176941D01*
X51825D01*
Y177941D01*
X52933D01*
Y178679D01*
X53689D01*
Y178213D01*
X60413D01*
Y178679D01*
X61787D01*
X62316Y178151D01*
X63117Y177819D01*
X63985D01*
X64787Y178151D01*
X65400Y178764D01*
X65732Y179566D01*
Y180434D01*
X65400Y181236D01*
X64787Y181849D01*
X63985Y182181D01*
D02*
G37*
G36*
X27598Y187721D02*
X13787D01*
Y179421D01*
X27598D01*
Y187721D01*
D02*
G37*
G36*
X136524Y180878D02*
X135578D01*
X134731Y180527D01*
X135573Y179686D01*
X134866Y178979D01*
X134024Y179820D01*
X133673Y178973D01*
Y178027D01*
X134024Y177180D01*
X134866Y178022D01*
X135573Y177314D01*
X134665Y176407D01*
X134681Y176250D01*
X134665Y176093D01*
X135573Y175186D01*
X134866Y174478D01*
X134024Y175320D01*
X133673Y174473D01*
Y173527D01*
X134024Y172680D01*
X134866Y173521D01*
X135573Y172814D01*
X134731Y171973D01*
X135578Y171622D01*
X136524D01*
X137371Y171973D01*
X136530Y172814D01*
X137237Y173521D01*
X138078Y172680D01*
X138429Y173527D01*
Y174473D01*
X138078Y175320D01*
X137237Y174478D01*
X136530Y175186D01*
X137437Y176093D01*
X137422Y176250D01*
X137437Y176407D01*
X136530Y177314D01*
X137237Y178022D01*
X138078Y177180D01*
X138429Y178027D01*
Y178973D01*
X138078Y179820D01*
X137237Y178979D01*
X136530Y179686D01*
X137371Y180527D01*
X136524Y180878D01*
D02*
G37*
G36*
X8823Y164843D02*
X7955D01*
X7220Y164538D01*
X8062Y163696D01*
X7355Y162989D01*
X6513Y163831D01*
X6208Y163096D01*
Y162228D01*
X6513Y161493D01*
X7355Y162335D01*
X8062Y161627D01*
X7220Y160785D01*
X7955Y160481D01*
X8823D01*
X9559Y160785D01*
X8716Y161627D01*
X9424Y162335D01*
X10266Y161493D01*
X10571Y162228D01*
Y163096D01*
X10266Y163831D01*
X9424Y162989D01*
X8716Y163696D01*
X9559Y164538D01*
X8823Y164843D01*
D02*
G37*
G36*
X169485Y136681D02*
X168617D01*
X167882Y136376D01*
X168724Y135534D01*
X168017Y134827D01*
X167175Y135669D01*
X166870Y134934D01*
Y134066D01*
X167114Y133476D01*
X166884Y132986D01*
X166835Y132944D01*
X166383Y132884D01*
X165660Y132585D01*
X165440Y132416D01*
X166241Y131616D01*
X165534Y130909D01*
X164733Y131709D01*
X164565Y131489D01*
X164265Y130767D01*
X164163Y129992D01*
X164265Y129217D01*
X164565Y128495D01*
X164733Y128275D01*
X165534Y129075D01*
X166241Y128368D01*
X165440Y127568D01*
X165660Y127399D01*
X166383Y127100D01*
X167157Y126998D01*
X168232D01*
Y128131D01*
X169232D01*
Y126998D01*
X170307D01*
X171082Y127100D01*
X171804Y127399D01*
X172024Y127568D01*
X171224Y128368D01*
X171931Y129075D01*
X172731Y128275D01*
X172900Y128495D01*
X173199Y129217D01*
X173301Y129992D01*
X173199Y130767D01*
X172900Y131489D01*
X172731Y131709D01*
X171931Y130909D01*
X171224Y131616D01*
X172024Y132416D01*
X171804Y132585D01*
X171185Y132842D01*
X171042Y133054D01*
X170958Y133405D01*
X171232Y134066D01*
Y134934D01*
X170928Y135669D01*
X170085Y134827D01*
X169378Y135534D01*
X170220Y136376D01*
X169485Y136681D01*
D02*
G37*
G36*
X31716Y133586D02*
X29472D01*
X28936Y133479D01*
X28482Y133176D01*
X28178Y132721D01*
X28071Y132185D01*
Y127815D01*
X28178Y127279D01*
X28482Y126824D01*
X28936Y126521D01*
X29240Y126460D01*
X29473Y126012D01*
Y125264D01*
X28389Y124180D01*
X28103Y123752D01*
X28048Y123477D01*
X27915Y123388D01*
X27551Y123276D01*
X27187Y123388D01*
X27060Y123473D01*
X27000Y123777D01*
X26713Y124206D01*
X25732Y125187D01*
Y125934D01*
X25428Y126669D01*
X25660Y126824D01*
X25964Y127279D01*
X26070Y127815D01*
Y129500D01*
X24936D01*
Y130500D01*
X26070D01*
Y132185D01*
X25964Y132721D01*
X25660Y133176D01*
X25205Y133479D01*
X24669Y133586D01*
X24047D01*
Y132451D01*
X23047D01*
Y133586D01*
X22425D01*
X21889Y133479D01*
X21435Y133176D01*
X21131Y132721D01*
X21024Y132185D01*
Y130500D01*
X22159D01*
Y129500D01*
X21024D01*
Y127815D01*
X21131Y127279D01*
X21435Y126824D01*
X21673Y126665D01*
X21370Y125934D01*
Y125066D01*
X21675Y124331D01*
X22517Y125173D01*
X23224Y124466D01*
X22382Y123624D01*
X23117Y123319D01*
X23598D01*
X23868Y122823D01*
X23771Y122337D01*
Y122000D01*
X24903D01*
Y121000D01*
X23771D01*
Y120663D01*
X23868Y120177D01*
X24143Y119765D01*
X24555Y119490D01*
X25041Y119393D01*
X25280D01*
Y120525D01*
X26280D01*
Y119393D01*
X26518D01*
X27004Y119490D01*
X27187Y119612D01*
X27551Y119724D01*
X27915Y119612D01*
X28098Y119490D01*
X28585Y119393D01*
X30061D01*
X30547Y119490D01*
X30959Y119765D01*
X31235Y120177D01*
X31332Y120663D01*
Y122337D01*
X31235Y122823D01*
X31126Y122986D01*
X31440Y123397D01*
X32088D01*
X32890Y123729D01*
X33503Y124342D01*
X33835Y125144D01*
Y126012D01*
X33503Y126813D01*
X33015Y127301D01*
X33117Y127815D01*
Y132185D01*
X33011Y132721D01*
X32707Y133176D01*
X32253Y133479D01*
X31716Y133586D01*
D02*
G37*
G36*
X170307Y98971D02*
X169232D01*
Y97837D01*
X168232D01*
Y98971D01*
X167157D01*
X166383Y98869D01*
X165660Y98569D01*
X165440Y98400D01*
X166241Y97600D01*
X165534Y96893D01*
X164733Y97693D01*
X164565Y97473D01*
X164265Y96751D01*
X164163Y95976D01*
X164265Y95201D01*
X164565Y94479D01*
X164733Y94259D01*
X165534Y95060D01*
X166241Y94353D01*
X165440Y93552D01*
X165660Y93383D01*
X166383Y93084D01*
X167157Y92982D01*
X168232D01*
Y94116D01*
X169232D01*
Y92982D01*
X170307D01*
X171003Y93074D01*
X171370Y92734D01*
Y92566D01*
X171675Y91831D01*
X172517Y92673D01*
X173224Y91966D01*
X172382Y91124D01*
X173117Y90819D01*
X173985D01*
X174721Y91124D01*
X173878Y91966D01*
X174585Y92673D01*
X175428Y91831D01*
X175732Y92566D01*
Y93434D01*
X175428Y94169D01*
X174585Y93327D01*
X173878Y94034D01*
X174721Y94876D01*
X173985Y95181D01*
X173599D01*
X173247Y95564D01*
X173301Y95976D01*
X173199Y96751D01*
X172900Y97473D01*
X172731Y97693D01*
X171931Y96893D01*
X171224Y97600D01*
X172024Y98400D01*
X171804Y98569D01*
X171082Y98869D01*
X170307Y98971D01*
D02*
G37*
G36*
X166717Y90586D02*
X164472D01*
X163936Y90479D01*
X163482Y90176D01*
X163178Y89721D01*
X163072Y89185D01*
Y84815D01*
X163178Y84279D01*
X163482Y83824D01*
X163936Y83521D01*
X164028Y83502D01*
Y82815D01*
X163870Y82434D01*
Y81566D01*
X164202Y80765D01*
X164467Y80500D01*
X164202Y80235D01*
X163870Y79434D01*
Y78566D01*
X164202Y77764D01*
X164816Y77151D01*
X165617Y76819D01*
X166485D01*
X167287Y77151D01*
X167900Y77764D01*
X168232Y78566D01*
Y79434D01*
X167900Y80235D01*
X167636Y80500D01*
X167900Y80765D01*
X168232Y81566D01*
Y82434D01*
X168074Y82815D01*
Y84598D01*
X168117Y84815D01*
Y89185D01*
X168011Y89721D01*
X167707Y90176D01*
X167253Y90479D01*
X166717Y90586D01*
D02*
G37*
G36*
X24595Y71488D02*
X20551D01*
Y70381D01*
X19551D01*
Y71488D01*
X15508D01*
Y68331D01*
X16615D01*
Y67331D01*
X15508D01*
Y64173D01*
X17726D01*
X18004Y63757D01*
X17870Y63434D01*
Y62566D01*
X18175Y61831D01*
X19017Y62673D01*
X19724Y61966D01*
X18630Y60872D01*
Y58496D01*
X16689D01*
Y55634D01*
X17797D01*
Y54634D01*
X16689D01*
Y51772D01*
X19551D01*
Y52879D01*
X20551D01*
Y51772D01*
X23413D01*
Y54634D01*
X22306D01*
Y55634D01*
X23413D01*
Y58496D01*
X21472D01*
Y60872D01*
X20378Y61966D01*
X21085Y62673D01*
X21928Y61831D01*
X22232Y62566D01*
Y63434D01*
X22098Y63757D01*
X22376Y64173D01*
X24595D01*
Y67331D01*
X23487D01*
Y68331D01*
X24595D01*
Y71488D01*
D02*
G37*
G36*
X12985Y60681D02*
X12117D01*
X11316Y60349D01*
X10702Y59736D01*
X10370Y58934D01*
Y58066D01*
X10702Y57265D01*
X10900Y57066D01*
X10693Y56566D01*
X10366D01*
X9830Y56460D01*
X9375Y56156D01*
X9072Y55702D01*
X8965Y55165D01*
Y52921D01*
X9072Y52385D01*
X9375Y51931D01*
X9830Y51627D01*
X10366Y51520D01*
X14736D01*
X15272Y51627D01*
X15727Y51931D01*
X16030Y52385D01*
X16137Y52921D01*
Y55165D01*
X16030Y55702D01*
X15727Y56156D01*
X15272Y56460D01*
X14736Y56566D01*
X14409D01*
X14202Y57066D01*
X14400Y57265D01*
X14732Y58066D01*
Y58934D01*
X14400Y59736D01*
X13787Y60349D01*
X12985Y60681D01*
D02*
G37*
G36*
X23413Y50228D02*
X16689D01*
Y48417D01*
X16078D01*
X16030Y48654D01*
X15727Y49109D01*
X15272Y49412D01*
X14736Y49519D01*
X10366D01*
X9830Y49412D01*
X9375Y49109D01*
X9072Y48654D01*
X8965Y48118D01*
Y45874D01*
X9072Y45338D01*
X9375Y44883D01*
X9830Y44580D01*
X10366Y44473D01*
X14736D01*
X15272Y44580D01*
X15727Y44883D01*
X16030Y45338D01*
X16078Y45575D01*
X16689D01*
Y43504D01*
X20964D01*
X21013Y43004D01*
X20889Y42979D01*
X20547Y42751D01*
X20047Y42862D01*
Y42862D01*
X13323D01*
Y36138D01*
X20047D01*
X20047Y36138D01*
X20547Y36249D01*
X20889Y36021D01*
X21425Y35914D01*
X23669D01*
X24205Y36021D01*
X24660Y36324D01*
X24964Y36779D01*
X25070Y37315D01*
Y41685D01*
X24964Y42221D01*
X24660Y42676D01*
X24205Y42979D01*
X23669Y43086D01*
X23611D01*
X23413Y43504D01*
X23413Y43586D01*
Y50228D01*
D02*
G37*
G36*
X11779Y42862D02*
X8917D01*
Y41755D01*
X7917D01*
Y42862D01*
X5055D01*
Y40000D01*
X6163D01*
Y39000D01*
X5055D01*
Y36138D01*
X6022D01*
X6300Y35722D01*
X6236Y35568D01*
Y34700D01*
X6541Y33964D01*
X7383Y34807D01*
X8090Y34100D01*
X7248Y33257D01*
X7983Y32953D01*
X8851D01*
X9587Y33257D01*
X8744Y34100D01*
X9452Y34807D01*
X10294Y33964D01*
X10598Y34700D01*
Y35568D01*
X10535Y35722D01*
X10812Y36138D01*
X11779D01*
Y39000D01*
X10672D01*
Y40000D01*
X11779D01*
Y42862D01*
D02*
G37*
%LPD*%
G36*
X119312Y178647D02*
X119226Y178667D01*
X119138Y178674D01*
X119049Y178668D01*
X118959Y178650D01*
X118867Y178620D01*
X118774Y178577D01*
X118680Y178522D01*
X118584Y178454D01*
X118487Y178373D01*
X118388Y178280D01*
X117832Y178837D01*
X117924Y178936D01*
X118005Y179033D01*
X118073Y179129D01*
X118128Y179223D01*
X118171Y179316D01*
X118202Y179408D01*
X118219Y179498D01*
X118225Y179587D01*
X118218Y179674D01*
X118198Y179760D01*
X119312Y178647D01*
D02*
G37*
G36*
X104812D02*
X104726Y178667D01*
X104638Y178674D01*
X104549Y178668D01*
X104459Y178650D01*
X104367Y178620D01*
X104274Y178577D01*
X104180Y178522D01*
X104084Y178454D01*
X103987Y178373D01*
X103888Y178280D01*
X103331Y178837D01*
X103425Y178936D01*
X103505Y179033D01*
X103573Y179129D01*
X103628Y179223D01*
X103671Y179316D01*
X103702Y179408D01*
X103719Y179498D01*
X103725Y179587D01*
X103718Y179674D01*
X103698Y179760D01*
X104812Y178647D01*
D02*
G37*
G36*
X151597Y155595D02*
X151605Y155498D01*
X151620Y155413D01*
X151641Y155339D01*
X151668Y155276D01*
X151701Y155224D01*
X151740Y155183D01*
X151785Y155154D01*
X151835Y155135D01*
X151892Y155128D01*
X150772Y154754D01*
X150815Y154795D01*
X150855Y154844D01*
X150890Y154900D01*
X150920Y154963D01*
X150945Y155034D01*
X150966Y155112D01*
X150982Y155198D01*
X150994Y155292D01*
X151001Y155393D01*
X151003Y155501D01*
X151594Y155702D01*
X151597Y155595D01*
D02*
G37*
G36*
X109870Y159103D02*
Y158566D01*
X110202Y157764D01*
X110816Y157151D01*
X111617Y156819D01*
X112485D01*
X113287Y157151D01*
X113815Y157679D01*
X129493D01*
X129679Y157179D01*
X129370Y156434D01*
Y155566D01*
X129702Y154764D01*
X129738Y154729D01*
X129546Y154267D01*
X128971D01*
X128485Y154170D01*
X128073Y153895D01*
X127803D01*
X127390Y154170D01*
X126904Y154267D01*
X125428D01*
X124942Y154170D01*
X124529Y153895D01*
X124497Y153846D01*
X123853Y153783D01*
X123787Y153849D01*
X122985Y154181D01*
X122117D01*
X121316Y153849D01*
X120702Y153235D01*
X120370Y152434D01*
Y151566D01*
X120702Y150765D01*
X121316Y150151D01*
X121652Y150012D01*
X121552Y149512D01*
X118606D01*
Y146953D01*
X118536Y146468D01*
X118498Y146461D01*
X117524D01*
Y146356D01*
X114380D01*
X114352Y146351D01*
X113081D01*
X112576Y146250D01*
X112147Y145964D01*
X111865Y145681D01*
X111117D01*
X110316Y145349D01*
X109702Y144736D01*
X109370Y143934D01*
Y143181D01*
X108617D01*
X107816Y142849D01*
X107271Y142304D01*
X107047Y142454D01*
X106561Y142550D01*
X105085D01*
X104598Y142454D01*
X104415Y142331D01*
X104051Y142220D01*
X103687Y142331D01*
X103504Y142454D01*
X103078Y142538D01*
X102899Y142838D01*
X102832Y142999D01*
X106056Y146224D01*
X106364Y146685D01*
X106472Y147228D01*
Y156413D01*
X109370Y159310D01*
X109870Y159103D01*
D02*
G37*
G36*
X77779Y150677D02*
X77814Y150610D01*
X77862Y150551D01*
X77923Y150499D01*
X77997Y150456D01*
X78084Y150421D01*
X78184Y150393D01*
X78297Y150373D01*
X78422Y150362D01*
X78561Y150358D01*
Y149570D01*
X78425Y149566D01*
X78302Y149555D01*
X78191Y149535D01*
X78093Y149507D01*
X78008Y149472D01*
X77935Y149429D01*
X77875Y149377D01*
X77828Y149318D01*
X77793Y149251D01*
X77771Y149177D01*
X77757Y150751D01*
X77779Y150677D01*
D02*
G37*
G36*
X150522Y150165D02*
X150598Y150101D01*
X150672Y150049D01*
X150743Y150006D01*
X150813Y149974D01*
X150880Y149953D01*
X150945Y149942D01*
X151008Y149942D01*
X151068Y149953D01*
X151127Y149974D01*
X150292Y149138D01*
X150312Y149197D01*
X150323Y149257D01*
X150323Y149320D01*
X150312Y149385D01*
X150291Y149452D01*
X150259Y149522D01*
X150217Y149593D01*
X150164Y149667D01*
X150100Y149743D01*
X150026Y149821D01*
X150444Y150239D01*
X150522Y150165D01*
D02*
G37*
G36*
X77418Y148951D02*
X77343Y148943D01*
X77276Y148920D01*
X77217Y148880D01*
X77166Y148825D01*
X77123Y148754D01*
X77087Y148668D01*
X77060Y148565D01*
X77040Y148447D01*
X77028Y148313D01*
X77024Y148164D01*
X76237D01*
X76233Y148300D01*
X76221Y148424D01*
X76202Y148534D01*
X76174Y148633D01*
X76139Y148718D01*
X76095Y148791D01*
X76044Y148851D01*
X75985Y148898D01*
X75918Y148933D01*
X75843Y148955D01*
X77418Y148951D01*
D02*
G37*
G36*
X104038Y167379D02*
X104768Y167077D01*
X105551Y166974D01*
X107288D01*
X107594Y166474D01*
X107370Y165934D01*
Y165066D01*
X107675Y164331D01*
X108517Y165173D01*
X109224Y164466D01*
X108382Y163624D01*
X108788Y163455D01*
X108906Y162865D01*
X104046Y158006D01*
X103738Y157545D01*
X103630Y157001D01*
Y148078D01*
X103472Y147961D01*
X102972Y148212D01*
Y167698D01*
X103472Y167814D01*
X104038Y167379D01*
D02*
G37*
G36*
X161127Y146886D02*
X161068Y146907D01*
X161008Y146917D01*
X160945Y146917D01*
X160880Y146906D01*
X160813Y146885D01*
X160743Y146853D01*
X160672Y146811D01*
X160598Y146758D01*
X160522Y146695D01*
X160444Y146621D01*
X160026Y147038D01*
X160100Y147116D01*
X160164Y147192D01*
X160217Y147266D01*
X160259Y147338D01*
X160291Y147407D01*
X160312Y147474D01*
X160323Y147539D01*
X160323Y147602D01*
X160312Y147663D01*
X160292Y147721D01*
X161127Y146886D01*
D02*
G37*
G36*
X156127D02*
X156068Y146907D01*
X156008Y146917D01*
X155945Y146917D01*
X155880Y146906D01*
X155813Y146885D01*
X155743Y146853D01*
X155672Y146811D01*
X155598Y146758D01*
X155522Y146695D01*
X155444Y146621D01*
X155026Y147038D01*
X155100Y147116D01*
X155164Y147192D01*
X155217Y147266D01*
X155259Y147338D01*
X155291Y147407D01*
X155312Y147474D01*
X155323Y147539D01*
X155323Y147602D01*
X155313Y147663D01*
X155291Y147721D01*
X156127Y146886D01*
D02*
G37*
G36*
X86252Y146445D02*
X85465D01*
X85461Y146595D01*
X85449Y146728D01*
X85429Y146846D01*
X85402Y146949D01*
X85366Y147035D01*
X85323Y147106D01*
X85272Y147161D01*
X85213Y147201D01*
X85146Y147224D01*
X85071Y147232D01*
X86228Y147248D01*
X86252Y146445D01*
D02*
G37*
G36*
X86260Y145676D02*
X86272Y145551D01*
X86292Y145439D01*
X86319Y145341D01*
X86355Y145254D01*
X86398Y145181D01*
X86449Y145121D01*
X86508Y145073D01*
X86575Y145038D01*
X86650Y145016D01*
X85075D01*
X85150Y145038D01*
X85217Y145073D01*
X85276Y145121D01*
X85327Y145181D01*
X85371Y145254D01*
X85406Y145341D01*
X85434Y145439D01*
X85453Y145551D01*
X85465Y145676D01*
X85469Y145813D01*
X86256D01*
X86260Y145676D01*
D02*
G37*
G36*
X118536Y144488D02*
X118530Y144535D01*
X118512Y144577D01*
X118482Y144614D01*
X118441Y144646D01*
X118388Y144673D01*
X118323Y144695D01*
X118246Y144712D01*
X118158Y144725D01*
X118057Y144732D01*
X117945Y144735D01*
Y145325D01*
X118057Y145326D01*
X118323Y145345D01*
X118388Y145356D01*
X118441Y145370D01*
X118482Y145386D01*
X118512Y145404D01*
X118530Y145425D01*
X118536Y145449D01*
Y144488D01*
D02*
G37*
G36*
X84886Y143163D02*
X84878Y143238D01*
X84854Y143305D01*
X84815Y143364D01*
X84760Y143415D01*
X84689Y143458D01*
X84602Y143494D01*
X84500Y143521D01*
X84382Y143541D01*
X84248Y143553D01*
X84099Y143557D01*
Y144344D01*
X84248Y144348D01*
X84382Y144360D01*
X84500Y144379D01*
X84602Y144407D01*
X84689Y144442D01*
X84760Y144486D01*
X84815Y144537D01*
X84854Y144596D01*
X84878Y144663D01*
X84886Y144738D01*
Y143163D01*
D02*
G37*
G36*
X118536Y142520D02*
X118530Y142555D01*
X118512Y142586D01*
X118482Y142614D01*
X118441Y142638D01*
X118388Y142658D01*
X118323Y142675D01*
X118246Y142688D01*
X118158Y142697D01*
X117945Y142705D01*
Y143295D01*
X118057Y143297D01*
X118246Y143312D01*
X118323Y143325D01*
X118388Y143342D01*
X118441Y143362D01*
X118482Y143386D01*
X118512Y143414D01*
X118530Y143445D01*
X118536Y143480D01*
Y142520D01*
D02*
G37*
G36*
X84226Y142215D02*
X84638Y141940D01*
X85124Y141843D01*
X86601D01*
X87087Y141940D01*
X87270Y142062D01*
X87634Y142174D01*
X87998Y142062D01*
X88182Y141940D01*
X88668Y141843D01*
X90144D01*
X90630Y141940D01*
X90698Y141985D01*
X91176Y141840D01*
X91214Y141749D01*
X91770Y141193D01*
X91726Y140922D01*
X91617Y140693D01*
X86930D01*
X86786Y140908D01*
X86374Y141184D01*
X85888Y141280D01*
X84215D01*
X83728Y141184D01*
X83316Y140908D01*
X83041Y140496D01*
X82944Y140010D01*
Y138533D01*
X83041Y138047D01*
X83316Y137635D01*
Y137365D01*
X83041Y136953D01*
X82944Y136467D01*
Y136399D01*
X82444Y136192D01*
X82318Y136318D01*
X81516Y136650D01*
X80649D01*
X79847Y136318D01*
X79234Y135704D01*
X78902Y134902D01*
Y134035D01*
X79178Y133368D01*
X78945Y132868D01*
X76610D01*
Y139350D01*
X77298Y139635D01*
X77313Y139650D01*
X77828Y139135D01*
X78629Y138803D01*
X79497D01*
X80232Y139108D01*
X79390Y139950D01*
X80097Y140657D01*
X80939Y139815D01*
X81244Y140550D01*
Y141418D01*
X80991Y142029D01*
X81256Y142529D01*
X84016D01*
X84226Y142215D01*
D02*
G37*
G36*
X118536Y140551D02*
X118530Y140584D01*
X118512Y140612D01*
X118482Y140638D01*
X118441Y140660D01*
X118388Y140678D01*
X118323Y140693D01*
X118246Y140705D01*
X118158Y140714D01*
X117945Y140720D01*
Y141311D01*
X118057Y141313D01*
X118246Y141329D01*
X118323Y141343D01*
X118388Y141361D01*
X118441Y141383D01*
X118482Y141409D01*
X118512Y141439D01*
X118530Y141473D01*
X118536Y141512D01*
Y140551D01*
D02*
G37*
G36*
X106810Y141256D02*
X106836Y141206D01*
X106872Y141162D01*
X106917Y141123D01*
X106972Y141091D01*
X107036Y141064D01*
X107110Y141043D01*
X107194Y141029D01*
X107287Y141020D01*
X107390Y141017D01*
Y140426D01*
X107278Y140423D01*
X107178Y140415D01*
X107089Y140400D01*
X107012Y140379D01*
X106947Y140353D01*
X106894Y140320D01*
X106853Y140282D01*
X106823Y140237D01*
X106806Y140187D01*
X106800Y140131D01*
X106793Y141312D01*
X106810Y141256D01*
D02*
G37*
G36*
X102138Y139368D02*
X102054Y139364D01*
X101971Y139351D01*
X101887Y139330D01*
X101804Y139301D01*
X101720Y139264D01*
X101637Y139218D01*
X101553Y139163D01*
X101470Y139101D01*
X101386Y139030D01*
X101303Y138951D01*
X100885Y139368D01*
X100964Y139452D01*
X101035Y139535D01*
X101098Y139619D01*
X101152Y139702D01*
X101198Y139786D01*
X101236Y139869D01*
X101265Y139953D01*
X101286Y140036D01*
X101298Y140120D01*
X101303Y140203D01*
X102138Y139368D01*
D02*
G37*
G36*
X86139Y139984D02*
X86174Y139917D01*
X86221Y139858D01*
X86282Y139807D01*
X86355Y139764D01*
X86441Y139728D01*
X86540Y139701D01*
X86652Y139681D01*
X86777Y139669D01*
X86914Y139665D01*
Y138878D01*
X86777Y138874D01*
X86652Y138862D01*
X86540Y138842D01*
X86441Y138815D01*
X86355Y138779D01*
X86282Y138736D01*
X86221Y138685D01*
X86174Y138626D01*
X86139Y138559D01*
X86117Y138484D01*
Y140059D01*
X86139Y139984D01*
D02*
G37*
G36*
X67053Y138666D02*
X66994Y138653D01*
X66952Y138632D01*
X66927Y138603D01*
X66919Y138566D01*
X66927Y138520D01*
X66952Y138465D01*
X66994Y138403D01*
X67053Y138332D01*
X67128Y138252D01*
X66293D01*
X66209Y138332D01*
X66126Y138403D01*
X66042Y138465D01*
X65958Y138520D01*
X65875Y138566D01*
X65791Y138603D01*
X65708Y138632D01*
X65624Y138653D01*
X65541Y138666D01*
X65457Y138670D01*
X67128D01*
X67053Y138666D01*
D02*
G37*
G36*
X50586Y138664D02*
X50535Y138646D01*
X50491Y138617D01*
X50453Y138575D01*
X50420Y138522D01*
X50394Y138457D01*
X50373Y138381D01*
X50358Y138292D01*
X50349Y138191D01*
X50346Y138079D01*
X49756D01*
X49794Y138670D01*
X50642D01*
X50586Y138664D01*
D02*
G37*
G36*
X119618Y137833D02*
X119612Y137889D01*
X119595Y137939D01*
X119565Y137983D01*
X119524Y138022D01*
X119471Y138054D01*
X119406Y138081D01*
X119329Y138101D01*
X119240Y138116D01*
X119140Y138125D01*
X119028Y138128D01*
Y138718D01*
X119140Y138722D01*
X119240Y138730D01*
X119329Y138745D01*
X119406Y138766D01*
X119471Y138792D01*
X119524Y138825D01*
X119565Y138863D01*
X119595Y138908D01*
X119612Y138958D01*
X119618Y139014D01*
Y137833D01*
D02*
G37*
G36*
X106806Y137034D02*
X106823Y136984D01*
X106853Y136940D01*
X106894Y136902D01*
X106947Y136869D01*
X107012Y136843D01*
X107089Y136822D01*
X107178Y136807D01*
X107278Y136798D01*
X107390Y136795D01*
Y136205D01*
X107278Y136202D01*
X107178Y136193D01*
X107089Y136178D01*
X107012Y136158D01*
X106947Y136131D01*
X106894Y136098D01*
X106853Y136060D01*
X106823Y136016D01*
X106806Y135966D01*
X106800Y135909D01*
Y137091D01*
X106806Y137034D01*
D02*
G37*
G36*
X113807Y135790D02*
X113816Y135690D01*
X113831Y135601D01*
X113852Y135524D01*
X113878Y135459D01*
X113911Y135406D01*
X113949Y135365D01*
X113993Y135336D01*
X114043Y135318D01*
X114100Y135312D01*
X112918D01*
X112975Y135318D01*
X113025Y135336D01*
X113069Y135365D01*
X113108Y135406D01*
X113140Y135459D01*
X113166Y135524D01*
X113187Y135601D01*
X113202Y135690D01*
X113211Y135790D01*
X113214Y135902D01*
X113804D01*
X113807Y135790D01*
D02*
G37*
G36*
X94356Y135977D02*
X94251Y135865D01*
X94156Y135754D01*
X94073Y135643D01*
X94000Y135531D01*
X93939Y135420D01*
X93889Y135309D01*
X93850Y135197D01*
X93822Y135086D01*
X93805Y134975D01*
X93800Y134863D01*
X92785Y136075D01*
X92896Y136081D01*
X93007Y136098D01*
X93119Y136125D01*
X93230Y136164D01*
X93341Y136214D01*
X93453Y136276D01*
X93564Y136348D01*
X93675Y136432D01*
X93787Y136526D01*
X93898Y136632D01*
X94356Y135977D01*
D02*
G37*
G36*
X102814Y135419D02*
X102764Y135401D01*
X102719Y135372D01*
X102681Y135330D01*
X102649Y135277D01*
X102622Y135212D01*
X102601Y135135D01*
X102587Y135047D01*
X102578Y134946D01*
X102575Y134834D01*
X101984D01*
X101981Y134946D01*
X101972Y135047D01*
X101958Y135135D01*
X101937Y135212D01*
X101910Y135277D01*
X101878Y135330D01*
X101840Y135372D01*
X101795Y135401D01*
X101745Y135419D01*
X101689Y135425D01*
X102870D01*
X102814Y135419D01*
D02*
G37*
G36*
X85748Y134744D02*
X85681Y134720D01*
X85622Y134681D01*
X85571Y134625D01*
X85528Y134555D01*
X85492Y134468D01*
X85465Y134366D01*
X85445Y134248D01*
X85433Y134114D01*
X85429Y133964D01*
X84642D01*
X84638Y134114D01*
X84626Y134248D01*
X84606Y134366D01*
X84579Y134468D01*
X84543Y134555D01*
X84500Y134625D01*
X84449Y134681D01*
X84390Y134720D01*
X84323Y134744D01*
X84248Y134751D01*
X85823D01*
X85748Y134744D01*
D02*
G37*
G36*
X108989Y133547D02*
X108983Y133603D01*
X108965Y133653D01*
X108936Y133698D01*
X108894Y133736D01*
X108841Y133769D01*
X108776Y133795D01*
X108700Y133816D01*
X108611Y133831D01*
X108510Y133840D01*
X108398Y133843D01*
Y134433D01*
X108510Y134436D01*
X108611Y134445D01*
X108700Y134460D01*
X108776Y134480D01*
X108841Y134507D01*
X108894Y134539D01*
X108936Y134578D01*
X108965Y134622D01*
X108983Y134672D01*
X108989Y134728D01*
Y133547D01*
D02*
G37*
G36*
X89318Y133925D02*
X89206Y133919D01*
X89095Y133903D01*
X88984Y133875D01*
X88872Y133836D01*
X88761Y133785D01*
X88650Y133724D01*
X88538Y133652D01*
X88427Y133568D01*
X88316Y133474D01*
X88204Y133368D01*
X87746Y134023D01*
X87852Y134134D01*
X87946Y134246D01*
X88030Y134357D01*
X88102Y134469D01*
X88164Y134580D01*
X88214Y134691D01*
X88253Y134803D01*
X88280Y134914D01*
X88297Y135025D01*
X88303Y135137D01*
X89318Y133925D01*
D02*
G37*
G36*
X87384Y132494D02*
X87411Y132140D01*
X87428Y132053D01*
X87448Y131982D01*
X87472Y131927D01*
X87500Y131888D01*
X87532Y131864D01*
X87567Y131856D01*
X86410D01*
X86445Y131864D01*
X86476Y131888D01*
X86504Y131927D01*
X86528Y131982D01*
X86548Y132053D01*
X86565Y132140D01*
X86578Y132242D01*
X86593Y132494D01*
X86594Y132643D01*
X87382D01*
X87384Y132494D01*
D02*
G37*
G36*
X85431D02*
X85456Y132140D01*
X85471Y132053D01*
X85490Y131982D01*
X85512Y131927D01*
X85537Y131888D01*
X85566Y131864D01*
X85598Y131856D01*
X84441D01*
X84479Y131864D01*
X84513Y131888D01*
X84543Y131927D01*
X84570Y131982D01*
X84592Y132053D01*
X84610Y132140D01*
X84624Y132242D01*
X84640Y132494D01*
X84642Y132643D01*
X85429D01*
X85431Y132494D01*
D02*
G37*
G36*
X81381Y132334D02*
X81389Y132234D01*
X81403Y132146D01*
X81423Y132069D01*
X81449Y132004D01*
X81480Y131951D01*
X81517Y131909D01*
X81559Y131880D01*
X81607Y131862D01*
X81661Y131856D01*
X80504D01*
X80558Y131862D01*
X80606Y131880D01*
X80649Y131909D01*
X80685Y131951D01*
X80717Y132004D01*
X80742Y132069D01*
X80762Y132146D01*
X80776Y132234D01*
X80785Y132334D01*
X80787Y132447D01*
X81378D01*
X81381Y132334D01*
D02*
G37*
G36*
X75584Y132494D02*
X75610Y132140D01*
X75626Y132053D01*
X75645Y131982D01*
X75668Y131927D01*
X75693Y131888D01*
X75723Y131864D01*
X75756Y131856D01*
X74599D01*
X74636Y131864D01*
X74669Y131888D01*
X74699Y131927D01*
X74725Y131982D01*
X74746Y132053D01*
X74764Y132140D01*
X74778Y132242D01*
X74793Y132494D01*
X74795Y132643D01*
X75583D01*
X75584Y132494D01*
D02*
G37*
G36*
X73604D02*
X73632Y132140D01*
X73649Y132053D01*
X73669Y131982D01*
X73693Y131927D01*
X73721Y131888D01*
X73752Y131864D01*
X73787Y131856D01*
X72630D01*
X72665Y131864D01*
X72697Y131888D01*
X72724Y131927D01*
X72748Y131982D01*
X72769Y132053D01*
X72785Y132140D01*
X72798Y132242D01*
X72813Y132494D01*
X72815Y132643D01*
X73602D01*
X73604Y132494D01*
D02*
G37*
G36*
X69570Y132334D02*
X69578Y132234D01*
X69592Y132146D01*
X69612Y132069D01*
X69638Y132004D01*
X69669Y131951D01*
X69706Y131909D01*
X69748Y131880D01*
X69796Y131862D01*
X69850Y131856D01*
X68693D01*
X68747Y131862D01*
X68795Y131880D01*
X68838Y131909D01*
X68874Y131951D01*
X68906Y132004D01*
X68931Y132069D01*
X68951Y132146D01*
X68965Y132234D01*
X68973Y132334D01*
X68976Y132447D01*
X69567D01*
X69570Y132334D01*
D02*
G37*
G36*
X67601D02*
X67610Y132234D01*
X67624Y132146D01*
X67644Y132069D01*
X67669Y132004D01*
X67700Y131951D01*
X67737Y131909D01*
X67780Y131880D01*
X67828Y131862D01*
X67882Y131856D01*
X66725D01*
X66778Y131862D01*
X66827Y131880D01*
X66869Y131909D01*
X66906Y131951D01*
X66937Y132004D01*
X66962Y132069D01*
X66982Y132146D01*
X66997Y132234D01*
X67005Y132334D01*
X67008Y132447D01*
X67598D01*
X67601Y132334D01*
D02*
G37*
G36*
X139034Y150150D02*
X139462Y149863D01*
X139968Y149763D01*
X143285D01*
X143504Y149263D01*
X143060Y148494D01*
X142784Y147463D01*
Y146396D01*
X143060Y145366D01*
X143594Y144442D01*
X144348Y143688D01*
X145272Y143155D01*
X146302Y142879D01*
X147369D01*
X148399Y143155D01*
X149323Y143688D01*
X150077Y144442D01*
X150610Y145366D01*
X150634Y145455D01*
X151100Y145715D01*
X151461Y145603D01*
X151621Y145083D01*
X134859Y128321D01*
X133300D01*
X133076Y128821D01*
X133237Y129062D01*
X133334Y129549D01*
Y129787D01*
X132202D01*
Y130787D01*
X133334D01*
Y131025D01*
X133237Y131511D01*
X132962Y131923D01*
Y132193D01*
X133237Y132606D01*
X133334Y133092D01*
Y134568D01*
X133237Y135054D01*
X132962Y135467D01*
X132870Y135528D01*
X132799Y136163D01*
X132900Y136265D01*
X133232Y137066D01*
Y137934D01*
X132900Y138735D01*
X132934Y139078D01*
X132962Y139097D01*
X133237Y139509D01*
X133334Y139995D01*
Y141472D01*
X133237Y141958D01*
X132962Y142370D01*
Y142640D01*
X133237Y143052D01*
X133334Y143539D01*
Y143777D01*
X132202D01*
Y144777D01*
X133334D01*
Y145015D01*
X133237Y145501D01*
X132962Y145913D01*
X132550Y146189D01*
X132335Y146232D01*
Y146822D01*
X132650Y147137D01*
X132982Y147939D01*
Y148807D01*
X132677Y149542D01*
X131835Y148700D01*
X131128Y149407D01*
X131970Y150250D01*
X131754Y150339D01*
X131608Y150818D01*
X131621Y150837D01*
X131718Y151323D01*
Y151660D01*
X130586D01*
Y152660D01*
X131718D01*
Y152997D01*
X131654Y153319D01*
X131941Y153800D01*
X131995Y153823D01*
X132787Y154151D01*
X133315Y154679D01*
X134504D01*
X139034Y150150D01*
D02*
G37*
G36*
X54998Y125726D02*
X55204Y125556D01*
X55306Y125487D01*
X55407Y125428D01*
X55508Y125380D01*
X55608Y125343D01*
X55707Y125317D01*
X55805Y125301D01*
X55903Y125295D01*
Y124705D01*
X55805Y124699D01*
X55707Y124683D01*
X55608Y124657D01*
X55508Y124620D01*
X55407Y124572D01*
X55306Y124513D01*
X55204Y124444D01*
X55102Y124365D01*
X54998Y124274D01*
X54895Y124173D01*
Y125827D01*
X54998Y125726D01*
D02*
G37*
G36*
X103028Y124561D02*
X102702Y124235D01*
X102370Y123434D01*
Y122566D01*
X102702Y121765D01*
X103316Y121151D01*
X104117Y120819D01*
X104488D01*
X104870Y120434D01*
Y119566D01*
X105175Y118831D01*
X106017Y119673D01*
X106724Y118966D01*
X105882Y118124D01*
X106617Y117819D01*
X107485D01*
X108221Y118124D01*
X107378Y118966D01*
X108085Y119673D01*
X109002Y118756D01*
X109612D01*
Y114626D01*
Y110689D01*
Y106752D01*
Y102323D01*
X109112Y102224D01*
X108900Y102735D01*
X108287Y103349D01*
X107485Y103681D01*
X106617D01*
X105816Y103349D01*
X105202Y102735D01*
X104870Y101934D01*
Y101066D01*
X105202Y100265D01*
X105467Y100000D01*
X105202Y99735D01*
X104870Y98934D01*
Y98066D01*
X105202Y97264D01*
X105816Y96651D01*
X106617Y96319D01*
X107485D01*
X108287Y96651D01*
X108527Y96892D01*
X108605Y96942D01*
X108690Y97025D01*
X108751Y97078D01*
X108804Y97119D01*
X108848Y97149D01*
X108882Y97169D01*
X108905Y97179D01*
X109612D01*
Y94941D01*
Y91004D01*
Y87067D01*
Y83130D01*
Y79462D01*
X109112Y79255D01*
X108955Y79413D01*
X108536Y79692D01*
X108042Y79791D01*
X104934D01*
X104916Y79800D01*
X104877Y79823D01*
X104839Y79850D01*
X104689Y79976D01*
X104607Y80056D01*
X104528Y80108D01*
X104287Y80349D01*
X103485Y80681D01*
X102617D01*
X101816Y80349D01*
X101202Y79735D01*
X100870Y78934D01*
Y78079D01*
X100316Y77849D01*
X99702Y77236D01*
X99370Y76434D01*
Y75566D01*
X99702Y74765D01*
X100316Y74151D01*
X101117Y73819D01*
X101985D01*
X102401Y73991D01*
X102675Y73331D01*
X103517Y74173D01*
X104224Y73466D01*
X103307Y72549D01*
Y71939D01*
X95933D01*
X95833Y72439D01*
X96045Y72527D01*
X96659Y73140D01*
X96991Y73942D01*
Y74810D01*
X96659Y75611D01*
X96045Y76225D01*
X95244Y76557D01*
X94376D01*
X93574Y76225D01*
X92961Y75611D01*
X92629Y74810D01*
Y73942D01*
X92961Y73140D01*
X93574Y72527D01*
X93786Y72439D01*
X93687Y71939D01*
X63374D01*
X63275Y72439D01*
X63721Y72624D01*
X62878Y73466D01*
X63585Y74173D01*
X64428Y73331D01*
X64732Y74066D01*
Y74934D01*
X64428Y75669D01*
X63585Y74827D01*
X62878Y75534D01*
X63721Y76376D01*
X62985Y76681D01*
X62117D01*
X61316Y76349D01*
X60801Y75835D01*
X60287Y76349D01*
X59485Y76681D01*
X58617D01*
X57816Y76349D01*
X57202Y75735D01*
X56990Y75224D01*
X56490Y75256D01*
Y77224D01*
Y81555D01*
X57411D01*
X57816Y81151D01*
X58617Y80819D01*
X59485D01*
X60287Y81151D01*
X60900Y81765D01*
X61232Y82566D01*
Y83434D01*
X60900Y84236D01*
X60386Y84750D01*
X60900Y85264D01*
X61232Y86066D01*
Y86934D01*
X60928Y87669D01*
X60085Y86827D01*
X59378Y87534D01*
X60342Y88498D01*
X60341Y88500D01*
X60456Y88820D01*
X60900Y89265D01*
X61232Y90066D01*
Y90934D01*
X60900Y91736D01*
X60386Y92250D01*
X60900Y92765D01*
X61232Y93566D01*
Y94434D01*
X60900Y95236D01*
X60287Y95849D01*
X59485Y96181D01*
X58617D01*
X57816Y95849D01*
X57202Y95236D01*
X56990Y94724D01*
X56490Y94823D01*
Y96909D01*
Y100898D01*
X57147D01*
X57202Y100765D01*
X57816Y100151D01*
X58617Y99819D01*
X59485D01*
X60287Y100151D01*
X60900Y100765D01*
X61232Y101566D01*
Y102434D01*
X60900Y103235D01*
X60386Y103750D01*
X60900Y104264D01*
X61232Y105066D01*
Y105934D01*
X60928Y106669D01*
X60085Y105827D01*
X59378Y106534D01*
X60220Y107376D01*
X59485Y107681D01*
X58617D01*
X57882Y107376D01*
X58724Y106534D01*
X58017Y105827D01*
X57175Y106669D01*
X56990Y106224D01*
X56490Y106323D01*
Y110177D01*
X56990Y110276D01*
X57202Y109765D01*
X57816Y109151D01*
X58617Y108819D01*
X59485D01*
X60287Y109151D01*
X60900Y109765D01*
X61232Y110566D01*
Y111434D01*
X60900Y112235D01*
X60287Y112849D01*
X59485Y113181D01*
X58617D01*
X58445Y113110D01*
X58341Y113213D01*
X57913Y113500D01*
X57408Y113600D01*
X56490D01*
Y116063D01*
X56990Y116331D01*
X57066Y116280D01*
X57571Y116179D01*
X60051D01*
X60127Y116194D01*
X60627Y115784D01*
Y115534D01*
X60959Y114733D01*
X61572Y114119D01*
X62374Y113787D01*
X63241D01*
X64043Y114119D01*
X64657Y114733D01*
X64989Y115534D01*
Y116038D01*
X65489Y116372D01*
X65617Y116319D01*
X66485D01*
X67220Y116624D01*
X66378Y117466D01*
X67085Y118173D01*
X67928Y117331D01*
X68232Y118066D01*
Y118934D01*
X67928Y119669D01*
X67085Y118827D01*
X66378Y119534D01*
X67220Y120376D01*
X67033Y120454D01*
Y121839D01*
X66932Y122344D01*
X66646Y122773D01*
X64820Y124599D01*
X65011Y125061D01*
X67180D01*
X67458Y124645D01*
X67370Y124434D01*
Y123566D01*
X67702Y122765D01*
X68316Y122151D01*
X69117Y121819D01*
X69985D01*
X70787Y122151D01*
X71400Y122765D01*
X71732Y123566D01*
Y124434D01*
X71728Y124445D01*
X71879Y124595D01*
X72165Y125024D01*
X72172Y125061D01*
X102821D01*
X103028Y124561D01*
D02*
G37*
G36*
X45805Y122603D02*
X45821Y122558D01*
X45847Y122518D01*
X45885Y122484D01*
X45932Y122454D01*
X45991Y122430D01*
X46060Y122412D01*
X46140Y122398D01*
X46230Y122390D01*
X46331Y122388D01*
Y121856D01*
X46237Y121854D01*
X46152Y121846D01*
X46075Y121832D01*
X46007Y121814D01*
X45948Y121790D01*
X45898Y121761D01*
X45856Y121726D01*
X45824Y121686D01*
X45800Y121641D01*
X45785Y121591D01*
X45800Y122653D01*
X45805Y122603D01*
D02*
G37*
G36*
X40450Y121443D02*
X39771Y121417D01*
Y121949D01*
X39872Y121951D01*
X39963Y121959D01*
X40042Y121973D01*
X40111Y121991D01*
X40170Y122015D01*
X40218Y122045D01*
X40255Y122079D01*
X40281Y122119D01*
X40297Y122164D01*
X40303Y122215D01*
X40450Y121443D01*
D02*
G37*
G36*
X147799Y121264D02*
X147780Y121299D01*
X147721Y121330D01*
X147622Y121358D01*
X147484Y121382D01*
X147307Y121403D01*
X146540Y121441D01*
X145831Y121449D01*
Y123417D01*
X146205Y123419D01*
X147622Y123508D01*
X147721Y123536D01*
X147780Y123567D01*
X147799Y123602D01*
Y121264D01*
D02*
G37*
G36*
X57656Y119230D02*
X57556Y119340D01*
X57457Y119439D01*
X57358Y119526D01*
X57259Y119602D01*
X57161Y119666D01*
X57063Y119718D01*
X56966Y119759D01*
X56869Y119788D01*
X56773Y119805D01*
X56677Y119811D01*
X56712Y120343D01*
X56804Y120348D01*
X56899Y120364D01*
X56996Y120391D01*
X57097Y120429D01*
X57200Y120477D01*
X57307Y120536D01*
X57417Y120606D01*
X57529Y120686D01*
X57763Y120880D01*
X57656Y119230D01*
D02*
G37*
G36*
X122166Y126066D02*
X122594Y125780D01*
X123100Y125679D01*
X128798D01*
X128950Y125179D01*
X128842Y125107D01*
X122158Y118423D01*
X121658Y118631D01*
Y119466D01*
X121562Y119953D01*
X121286Y120365D01*
Y120635D01*
X121562Y121047D01*
X121658Y121534D01*
Y121772D01*
X120526D01*
Y122772D01*
X121658D01*
Y123010D01*
X121562Y123496D01*
X121286Y123908D01*
X120874Y124184D01*
X120388Y124280D01*
X120051D01*
Y123148D01*
X119051D01*
Y124280D01*
X118715D01*
X118228Y124184D01*
X117833Y123920D01*
X117419Y123713D01*
X115920D01*
X115586Y124213D01*
X115732Y124566D01*
Y125434D01*
X115400Y126235D01*
X114787Y126849D01*
X113985Y127181D01*
X114075Y127644D01*
X120588D01*
X122166Y126066D01*
D02*
G37*
G36*
X40305Y117507D02*
X40299Y117558D01*
X40283Y117603D01*
X40257Y117643D01*
X40220Y117677D01*
X40172Y117706D01*
X40113Y117730D01*
X40044Y117749D01*
X39965Y117762D01*
X39874Y117770D01*
X39773Y117773D01*
Y118304D01*
X39874Y118307D01*
X39965Y118315D01*
X40044Y118328D01*
X40113Y118347D01*
X40172Y118371D01*
X40220Y118400D01*
X40257Y118435D01*
X40283Y118474D01*
X40299Y118520D01*
X40305Y118570D01*
Y117507D01*
D02*
G37*
G36*
X28504Y117220D02*
X28717Y117041D01*
X28821Y116968D01*
X28924Y116906D01*
X29024Y116856D01*
X29123Y116816D01*
X29221Y116788D01*
X29317Y116771D01*
X29411Y116766D01*
Y116234D01*
X29317Y116229D01*
X29221Y116212D01*
X29123Y116184D01*
X29024Y116145D01*
X28924Y116094D01*
X28821Y116032D01*
X28717Y115959D01*
X28611Y115875D01*
X28504Y115780D01*
X28395Y115673D01*
Y117327D01*
X28504Y117220D01*
D02*
G37*
G36*
X19734Y116336D02*
X19758Y116058D01*
X19780Y115933D01*
X19809Y115817D01*
X19844Y115710D01*
X19887Y115612D01*
X19936Y115523D01*
X19991Y115444D01*
X20054Y115373D01*
X19678Y114997D01*
X19608Y115060D01*
X19528Y115116D01*
X19439Y115165D01*
X19342Y115207D01*
X19234Y115243D01*
X19118Y115271D01*
X18993Y115293D01*
X18859Y115309D01*
X18715Y115317D01*
X18563Y115319D01*
X19732Y116488D01*
X19734Y116336D01*
D02*
G37*
G36*
X45634Y114729D02*
X45650Y114684D01*
X45677Y114644D01*
X45714Y114609D01*
X45762Y114580D01*
X45821Y114556D01*
X45890Y114538D01*
X45969Y114524D01*
X46060Y114516D01*
X46161Y114514D01*
Y113982D01*
X46060Y113980D01*
X45969Y113972D01*
X45890Y113958D01*
X45821Y113940D01*
X45762Y113916D01*
X45714Y113887D01*
X45677Y113852D01*
X45650Y113812D01*
X45634Y113767D01*
X45629Y113716D01*
Y114779D01*
X45634Y114729D01*
D02*
G37*
G36*
X38950Y114740D02*
X39164Y114560D01*
X39268Y114487D01*
X39370Y114425D01*
X39471Y114375D01*
X39570Y114336D01*
X39668Y114307D01*
X39754Y114292D01*
X39792Y114296D01*
X39872Y114309D01*
X39941Y114328D01*
X39999Y114351D01*
X40047Y114381D01*
X40084Y114415D01*
X40111Y114455D01*
X40127Y114500D01*
X40132Y114551D01*
Y113488D01*
X40127Y113538D01*
X40111Y113584D01*
X40084Y113623D01*
X40047Y113658D01*
X39999Y113687D01*
X39941Y113711D01*
X39872Y113730D01*
X39792Y113743D01*
X39754Y113746D01*
X39668Y113731D01*
X39570Y113703D01*
X39471Y113664D01*
X39370Y113613D01*
X39268Y113552D01*
X39164Y113479D01*
X39058Y113394D01*
X38950Y113299D01*
X38841Y113193D01*
Y114846D01*
X38950Y114740D01*
D02*
G37*
G36*
X17316Y114651D02*
X18117Y114319D01*
X18459D01*
X18551Y114299D01*
X18679Y114298D01*
X18771Y114293D01*
X18847Y114284D01*
X18907Y114273D01*
X18950Y114262D01*
X18970Y114256D01*
X20083Y113143D01*
X19920Y112599D01*
X19382Y112376D01*
X20224Y111534D01*
X19517Y110827D01*
X18675Y111669D01*
X18370Y110934D01*
Y110066D01*
X18518Y109709D01*
X18184Y109209D01*
X16916D01*
Y106346D01*
X18024D01*
Y105347D01*
X16916D01*
Y102484D01*
Y95791D01*
X22505D01*
X22530Y95785D01*
X22546Y95784D01*
X22558Y95778D01*
X22581Y95762D01*
X22612Y95739D01*
X22614Y95738D01*
X23289Y95062D01*
X23718Y94776D01*
X24223Y94675D01*
X33198D01*
X33704Y94776D01*
X34132Y95062D01*
X35077Y96007D01*
X39633D01*
X39844Y95691D01*
X40256Y95416D01*
X40742Y95319D01*
X42416D01*
X42902Y95416D01*
X43314Y95691D01*
X43589Y96103D01*
X43686Y96590D01*
Y96961D01*
X44186Y97074D01*
X44478Y96679D01*
X44444Y96510D01*
Y95631D01*
X42948Y94134D01*
X42874Y94184D01*
X42388Y94280D01*
X40715D01*
X40228Y94184D01*
X39816Y93908D01*
X39671Y93691D01*
X29138D01*
X28632Y93590D01*
X28204Y93304D01*
X22727Y87827D01*
X17376D01*
X16372Y88831D01*
Y114888D01*
X16872Y115095D01*
X17316Y114651D01*
D02*
G37*
G36*
X35817Y114233D02*
Y113585D01*
X36149Y112784D01*
X36762Y112170D01*
X37564Y111838D01*
X38432D01*
X39233Y112170D01*
X39428Y112365D01*
X39472Y112360D01*
X39885Y112085D01*
X40371Y111988D01*
X41234D01*
X41527Y111525D01*
X41522Y111488D01*
X41143Y111235D01*
X40868Y110823D01*
X40771Y110337D01*
Y110160D01*
X38976D01*
X38787Y110349D01*
X37985Y110681D01*
X37117D01*
X36382Y110376D01*
X37224Y109534D01*
X36517Y108827D01*
X35675Y109669D01*
X35370Y108934D01*
Y108066D01*
X35675Y107331D01*
X36517Y108173D01*
X37224Y107466D01*
X36344Y106586D01*
X36255Y106135D01*
X33089D01*
Y109209D01*
X25578D01*
Y102484D01*
Y99654D01*
X26685D01*
Y98654D01*
X25578D01*
Y97317D01*
X24770D01*
X24482Y97605D01*
X24480Y97607D01*
X24457Y97638D01*
X24442Y97662D01*
X24435Y97673D01*
X24434Y97689D01*
X24428Y97715D01*
Y102484D01*
Y105347D01*
X23320D01*
Y106346D01*
X24428D01*
Y109209D01*
X22918D01*
X22584Y109709D01*
X22732Y110066D01*
Y110934D01*
X22400Y111735D01*
X22388Y111748D01*
X22580Y112209D01*
X32551D01*
X33045Y112308D01*
X33464Y112587D01*
X35317Y114441D01*
X35817Y114233D01*
D02*
G37*
G36*
X116415Y110854D02*
X116439Y110823D01*
X116478Y110795D01*
X116533Y110771D01*
X116604Y110751D01*
X116691Y110734D01*
X116793Y110721D01*
X117045Y110707D01*
X117195Y110705D01*
Y109917D01*
X117045Y109915D01*
X116691Y109888D01*
X116604Y109871D01*
X116533Y109851D01*
X116478Y109827D01*
X116439Y109799D01*
X116415Y109768D01*
X116407Y109732D01*
Y110890D01*
X116415Y110854D01*
D02*
G37*
G36*
Y108886D02*
X116439Y108854D01*
X116478Y108827D01*
X116533Y108803D01*
X116604Y108782D01*
X116691Y108766D01*
X116793Y108753D01*
X117045Y108738D01*
X117195Y108736D01*
Y107949D01*
X117045Y107947D01*
X116691Y107919D01*
X116604Y107903D01*
X116533Y107882D01*
X116478Y107858D01*
X116439Y107831D01*
X116415Y107799D01*
X116407Y107764D01*
Y108921D01*
X116415Y108886D01*
D02*
G37*
G36*
X40376Y104224D02*
X40360Y104280D01*
X40334Y104330D01*
X40298Y104375D01*
X40253Y104413D01*
X40198Y104445D01*
X40134Y104472D01*
X40060Y104493D01*
X39976Y104507D01*
X39883Y104516D01*
X39780Y104519D01*
Y105110D01*
X39892Y105113D01*
X39993Y105122D01*
X40081Y105136D01*
X40158Y105157D01*
X40223Y105183D01*
X40276Y105216D01*
X40318Y105254D01*
X40347Y105299D01*
X40365Y105349D01*
X40371Y105405D01*
X40376Y104224D01*
D02*
G37*
G36*
X32083Y105349D02*
X32101Y105299D01*
X32131Y105254D01*
X32172Y105216D01*
X32225Y105183D01*
X32290Y105157D01*
X32367Y105136D01*
X32455Y105122D01*
X32556Y105113D01*
X32668Y105110D01*
Y104519D01*
X32556Y104516D01*
X32455Y104507D01*
X32367Y104493D01*
X32290Y104472D01*
X32225Y104445D01*
X32172Y104413D01*
X32131Y104375D01*
X32101Y104330D01*
X32083Y104280D01*
X32077Y104224D01*
Y105405D01*
X32083Y105349D01*
D02*
G37*
G36*
X125817Y105465D02*
X125929Y105370D01*
X126040Y105287D01*
X126152Y105214D01*
X126263Y105153D01*
X126374Y105103D01*
X126486Y105064D01*
X126597Y105036D01*
X126708Y105019D01*
X126820Y105014D01*
X125706Y103900D01*
X125700Y104012D01*
X125684Y104123D01*
X125656Y104234D01*
X125617Y104346D01*
X125567Y104457D01*
X125506Y104568D01*
X125433Y104680D01*
X125350Y104791D01*
X125255Y104903D01*
X125149Y105014D01*
X125706Y105571D01*
X125817Y105465D01*
D02*
G37*
G36*
X121817D02*
X121929Y105370D01*
X122040Y105287D01*
X122152Y105214D01*
X122263Y105153D01*
X122374Y105103D01*
X122486Y105064D01*
X122597Y105036D01*
X122708Y105019D01*
X122820Y105014D01*
X121706Y103900D01*
X121701Y104012D01*
X121684Y104123D01*
X121656Y104234D01*
X121617Y104346D01*
X121567Y104457D01*
X121506Y104568D01*
X121433Y104680D01*
X121350Y104791D01*
X121255Y104903D01*
X121149Y105014D01*
X121706Y105571D01*
X121817Y105465D01*
D02*
G37*
G36*
X42329Y104688D02*
X42341Y104604D01*
X42362Y104521D01*
X42391Y104437D01*
X42429Y104354D01*
X42475Y104270D01*
X42529Y104187D01*
X42592Y104103D01*
X42663Y104020D01*
X42742Y103936D01*
X42247Y103596D01*
X42163Y103675D01*
X42080Y103746D01*
X41996Y103809D01*
X41913Y103863D01*
X41829Y103909D01*
X41746Y103947D01*
X41662Y103976D01*
X41579Y103997D01*
X41495Y104009D01*
X41412Y104014D01*
X42324Y104771D01*
X42329Y104688D01*
D02*
G37*
G36*
X147799Y102366D02*
X147780Y102401D01*
X147721Y102433D01*
X147622Y102461D01*
X147484Y102485D01*
X147307Y102505D01*
X146540Y102544D01*
X145831Y102551D01*
Y104520D01*
X146205Y104522D01*
X147622Y104610D01*
X147721Y104638D01*
X147780Y104669D01*
X147799Y104704D01*
Y102366D01*
D02*
G37*
G36*
X108235Y101632D02*
X108312Y101389D01*
X108356Y101278D01*
X108457Y101074D01*
X108513Y100982D01*
X108573Y100896D01*
X108637Y100816D01*
X108705Y100743D01*
X108353Y100260D01*
X108283Y100322D01*
X108209Y100374D01*
X108131Y100414D01*
X108048Y100444D01*
X107961Y100463D01*
X107871Y100471D01*
X107775Y100468D01*
X107676Y100454D01*
X107573Y100429D01*
X107465Y100394D01*
X108203Y101762D01*
X108235Y101632D01*
D02*
G37*
G36*
X110624Y99890D02*
X110618Y99944D01*
X110601Y99992D01*
X110571Y100034D01*
X110530Y100071D01*
X110477Y100102D01*
X110412Y100128D01*
X110335Y100148D01*
X110246Y100162D01*
X110146Y100170D01*
X110034Y100173D01*
Y100764D01*
X110146Y100767D01*
X110246Y100775D01*
X110335Y100789D01*
X110412Y100809D01*
X110477Y100835D01*
X110530Y100866D01*
X110571Y100903D01*
X110601Y100945D01*
X110618Y100993D01*
X110624Y101047D01*
Y99890D01*
D02*
G37*
G36*
X49695D02*
X49689Y99944D01*
X49671Y99992D01*
X49642Y100034D01*
X49601Y100071D01*
X49547Y100102D01*
X49483Y100128D01*
X49406Y100148D01*
X49317Y100162D01*
X49217Y100170D01*
X49104Y100173D01*
Y100764D01*
X49217Y100767D01*
X49317Y100775D01*
X49406Y100789D01*
X49483Y100809D01*
X49547Y100835D01*
X49601Y100866D01*
X49642Y100903D01*
X49671Y100945D01*
X49689Y100993D01*
X49695Y101047D01*
Y99890D01*
D02*
G37*
G36*
X127494Y99509D02*
X127427Y99485D01*
X127368Y99446D01*
X127317Y99391D01*
X127273Y99320D01*
X127238Y99233D01*
X127210Y99131D01*
X127191Y99013D01*
X127179Y98879D01*
X127175Y98729D01*
X126388D01*
X126384Y98879D01*
X126372Y99013D01*
X126352Y99131D01*
X126325Y99233D01*
X126289Y99320D01*
X126246Y99391D01*
X126195Y99446D01*
X126136Y99485D01*
X126069Y99509D01*
X125994Y99517D01*
X127569D01*
X127494Y99509D01*
D02*
G37*
G36*
X123494D02*
X123427Y99485D01*
X123368Y99446D01*
X123317Y99391D01*
X123274Y99320D01*
X123238Y99233D01*
X123211Y99131D01*
X123191Y99013D01*
X123179Y98879D01*
X123175Y98729D01*
X122388D01*
X122384Y98879D01*
X122372Y99013D01*
X122352Y99131D01*
X122325Y99233D01*
X122289Y99320D01*
X122246Y99391D01*
X122195Y99446D01*
X122136Y99485D01*
X122069Y99509D01*
X121994Y99517D01*
X123569D01*
X123494Y99509D01*
D02*
G37*
G36*
X110624Y97922D02*
X110618Y97975D01*
X110601Y98023D01*
X110571Y98066D01*
X110530Y98103D01*
X110477Y98134D01*
X110412Y98159D01*
X110335Y98179D01*
X110246Y98193D01*
X110146Y98202D01*
X110034Y98205D01*
Y98795D01*
X110146Y98798D01*
X110246Y98807D01*
X110335Y98821D01*
X110412Y98841D01*
X110477Y98866D01*
X110530Y98897D01*
X110571Y98934D01*
X110601Y98977D01*
X110618Y99025D01*
X110624Y99079D01*
Y97922D01*
D02*
G37*
G36*
X43058Y98291D02*
X42982Y98213D01*
X42719Y97911D01*
X42691Y97868D01*
X42670Y97831D01*
X42658Y97800D01*
X42654Y97774D01*
X42124Y98305D01*
X42149Y98309D01*
X42181Y98321D01*
X42218Y98341D01*
X42261Y98369D01*
X42309Y98406D01*
X42424Y98503D01*
X42641Y98709D01*
X43058Y98291D01*
D02*
G37*
G36*
X107999Y99226D02*
X108204Y99056D01*
X108306Y98987D01*
X108407Y98928D01*
X108508Y98880D01*
X108608Y98843D01*
X108707Y98817D01*
X108806Y98801D01*
X108903Y98795D01*
Y98205D01*
X108806Y98199D01*
X108707Y98184D01*
X108608Y98157D01*
X108508Y98120D01*
X108407Y98072D01*
X108306Y98013D01*
X108204Y97944D01*
X108102Y97865D01*
X107999Y97774D01*
X107895Y97673D01*
Y99327D01*
X107999Y99226D01*
D02*
G37*
G36*
X40504Y96737D02*
X40498Y96793D01*
X40480Y96844D01*
X40451Y96888D01*
X40409Y96926D01*
X40356Y96959D01*
X40291Y96985D01*
X40214Y97006D01*
X40126Y97021D01*
X40025Y97030D01*
X39913Y97033D01*
Y97623D01*
X40025Y97626D01*
X40126Y97635D01*
X40214Y97650D01*
X40291Y97670D01*
X40356Y97697D01*
X40409Y97729D01*
X40451Y97768D01*
X40480Y97812D01*
X40498Y97862D01*
X40504Y97918D01*
Y96737D01*
D02*
G37*
G36*
X23420Y97555D02*
X23433Y97471D01*
X23453Y97388D01*
X23483Y97304D01*
X23520Y97221D01*
X23566Y97137D01*
X23620Y97054D01*
X23683Y96970D01*
X23754Y96887D01*
X23833Y96803D01*
X23416Y96386D01*
X23332Y96465D01*
X23249Y96536D01*
X23165Y96599D01*
X23082Y96653D01*
X22998Y96699D01*
X22915Y96737D01*
X22831Y96766D01*
X22748Y96787D01*
X22664Y96799D01*
X22581Y96803D01*
X23416Y97638D01*
X23420Y97555D01*
D02*
G37*
G36*
X59039Y92819D02*
X58887Y92817D01*
X58609Y92793D01*
X58484Y92771D01*
X58368Y92743D01*
X58261Y92707D01*
X58163Y92665D01*
X58074Y92616D01*
X57995Y92560D01*
X57924Y92497D01*
X57548Y92873D01*
X57611Y92944D01*
X57667Y93023D01*
X57716Y93112D01*
X57758Y93210D01*
X57794Y93317D01*
X57822Y93433D01*
X57845Y93558D01*
X57860Y93692D01*
X57868Y93836D01*
X57870Y93988D01*
X59039Y92819D01*
D02*
G37*
G36*
X55484Y93076D02*
X55499Y93030D01*
X55526Y92990D01*
X55563Y92956D01*
X55611Y92927D01*
X55669Y92903D01*
X55739Y92884D01*
X55818Y92871D01*
X55909Y92863D01*
X56010Y92860D01*
Y92329D01*
X55909Y92326D01*
X55818Y92318D01*
X55739Y92305D01*
X55669Y92286D01*
X55611Y92262D01*
X55563Y92233D01*
X55526Y92198D01*
X55499Y92159D01*
X55484Y92114D01*
X55478Y92063D01*
Y93126D01*
X55484Y93076D01*
D02*
G37*
G36*
Y91044D02*
X55499Y90999D01*
X55526Y90959D01*
X55563Y90924D01*
X55611Y90895D01*
X55669Y90871D01*
X55739Y90853D01*
X55818Y90839D01*
X55909Y90831D01*
X56010Y90829D01*
Y90297D01*
X55909Y90295D01*
X55818Y90287D01*
X55739Y90275D01*
X55669Y90257D01*
X55611Y90235D01*
X55563Y90207D01*
X55526Y90175D01*
X55499Y90137D01*
X55484Y90095D01*
X55478Y90047D01*
Y91094D01*
X55484Y91044D01*
D02*
G37*
G36*
X58165Y89719D02*
X58063Y89829D01*
X57963Y89927D01*
X57862Y90014D01*
X57763Y90089D01*
X57664Y90153D01*
X57566Y90205D01*
X57468Y90245D01*
X57371Y90274D01*
X57275Y90292D01*
X57179Y90297D01*
X57208Y90829D01*
X57300Y90834D01*
X57395Y90850D01*
X57493Y90877D01*
X57593Y90915D01*
X57696Y90964D01*
X57802Y91024D01*
X57911Y91094D01*
X58022Y91176D01*
X58253Y91371D01*
X58165Y89719D01*
D02*
G37*
G36*
X104004Y79220D02*
X104217Y79041D01*
X104321Y78968D01*
X104424Y78906D01*
X104524Y78856D01*
X104623Y78816D01*
X104721Y78788D01*
X104817Y78771D01*
X104911Y78766D01*
Y78234D01*
X104817Y78229D01*
X104721Y78212D01*
X104623Y78184D01*
X104524Y78145D01*
X104424Y78094D01*
X104321Y78032D01*
X104217Y77959D01*
X104111Y77875D01*
X104004Y77780D01*
X103895Y77673D01*
Y79327D01*
X104004Y79220D01*
D02*
G37*
G36*
X110624Y76315D02*
X110619Y76365D01*
X110603Y76411D01*
X110576Y76451D01*
X110539Y76485D01*
X110491Y76514D01*
X110433Y76538D01*
X110364Y76557D01*
X110284Y76570D01*
X110194Y76578D01*
X110093Y76581D01*
Y77112D01*
X110194Y77115D01*
X110284Y77123D01*
X110364Y77136D01*
X110433Y77155D01*
X110491Y77179D01*
X110539Y77208D01*
X110576Y77242D01*
X110603Y77282D01*
X110619Y77328D01*
X110624Y77378D01*
Y76315D01*
D02*
G37*
G36*
X102186Y77014D02*
X102858Y76772D01*
X102961Y76746D01*
X103132Y76716D01*
X103202Y76713D01*
X103427Y76181D01*
X103324Y76175D01*
X103227Y76156D01*
X103136Y76125D01*
X103049Y76081D01*
X102968Y76024D01*
X102893Y75955D01*
X102823Y75874D01*
X102758Y75780D01*
X102699Y75673D01*
X102645Y75554D01*
X102019Y77084D01*
X102186Y77014D01*
D02*
G37*
G36*
X110624Y74347D02*
X110619Y74397D01*
X110603Y74442D01*
X110576Y74482D01*
X110539Y74516D01*
X110491Y74546D01*
X110433Y74570D01*
X110364Y74588D01*
X110284Y74602D01*
X110194Y74610D01*
X110093Y74612D01*
Y75144D01*
X110194Y75146D01*
X110284Y75154D01*
X110364Y75168D01*
X110433Y75186D01*
X110491Y75210D01*
X110539Y75239D01*
X110576Y75274D01*
X110603Y75314D01*
X110619Y75359D01*
X110624Y75410D01*
Y74347D01*
D02*
G37*
G36*
X156277Y73722D02*
X156173Y73473D01*
Y72527D01*
X156524Y71680D01*
X157366Y72522D01*
X158073Y71814D01*
X157146Y70888D01*
X157139Y70832D01*
X157009Y70526D01*
X155051D01*
Y69392D01*
X154051D01*
Y70526D01*
X150551D01*
X149768Y70423D01*
X149038Y70121D01*
X148812Y69947D01*
X149611Y69147D01*
X148904Y68440D01*
X148105Y69239D01*
X148084Y69213D01*
X147617D01*
X147428Y69669D01*
X146585Y68827D01*
X145878Y69534D01*
X146721Y70376D01*
X145985Y70681D01*
X145117D01*
X144382Y70376D01*
X145224Y69534D01*
X144517Y68827D01*
X143675Y69669D01*
X143370Y68934D01*
Y68845D01*
X142908Y68654D01*
X141972Y69590D01*
Y72000D01*
X141864Y72544D01*
X141556Y73005D01*
X140885Y73676D01*
X141076Y74138D01*
X155999D01*
X156277Y73722D01*
D02*
G37*
G36*
X164987Y70130D02*
X164999Y69997D01*
X165018Y69880D01*
X165046Y69779D01*
X165081Y69693D01*
X165125Y69622D01*
X165176Y69568D01*
X165235Y69529D01*
X165302Y69505D01*
X165377Y69498D01*
X163802Y69046D01*
X163877Y69115D01*
X163944Y69191D01*
X164003Y69275D01*
X164054Y69368D01*
X164097Y69467D01*
X164132Y69575D01*
X164160Y69691D01*
X164180Y69814D01*
X164192Y69945D01*
X164196Y70084D01*
X164983Y70278D01*
X164987Y70130D01*
D02*
G37*
G36*
X117234Y70343D02*
X117260Y70078D01*
X117283Y69957D01*
X117313Y69844D01*
X117350Y69739D01*
X117394Y69642D01*
X117446Y69553D01*
X117504Y69472D01*
X117570Y69399D01*
X117152Y68981D01*
X117079Y69047D01*
X116998Y69105D01*
X116909Y69157D01*
X116812Y69201D01*
X116707Y69238D01*
X116595Y69269D01*
X116474Y69292D01*
X116345Y69308D01*
X116208Y69317D01*
X116063Y69319D01*
X117232Y70488D01*
X117234Y70343D01*
D02*
G37*
G36*
X106428Y73331D02*
X106628Y73814D01*
X107183Y73965D01*
X107602Y73686D01*
X108096Y73587D01*
X109612D01*
Y73287D01*
X116197D01*
X116534Y72854D01*
X116464Y72681D01*
X115617D01*
X114816Y72349D01*
X114202Y71736D01*
X113870Y70934D01*
Y70066D01*
X114202Y69265D01*
X114816Y68651D01*
X115617Y68319D01*
X115958D01*
X116049Y68300D01*
X116167Y68298D01*
X116247Y68292D01*
X116254Y68292D01*
Y64995D01*
X115754Y64895D01*
X115578Y65320D01*
X114737Y64478D01*
X114030Y65186D01*
X114871Y66027D01*
X114024Y66378D01*
X113078D01*
X112204Y66016D01*
X112051Y65863D01*
X111898Y66016D01*
X111517Y66174D01*
X111399Y66764D01*
X111400Y66764D01*
X111732Y67566D01*
Y68434D01*
X111400Y69235D01*
X110787Y69849D01*
X109985Y70181D01*
X109117D01*
X108764Y70035D01*
X108264Y70369D01*
Y71939D01*
X105949D01*
Y72395D01*
X104878Y73466D01*
X105585Y74173D01*
X106428Y73331D01*
D02*
G37*
G36*
X57202Y73264D02*
X57816Y72651D01*
X57920Y72608D01*
Y71939D01*
X57839D01*
Y64821D01*
X49522D01*
X49017Y64720D01*
X48887Y64634D01*
X48483Y64965D01*
X48732Y65566D01*
Y66434D01*
X48428Y67169D01*
X47585Y66327D01*
X46878Y67034D01*
X47872Y68028D01*
Y68316D01*
X47874Y68316D01*
X48286Y68592D01*
X48561Y69004D01*
X48658Y69490D01*
Y69728D01*
X47526D01*
Y70728D01*
X48658D01*
Y70967D01*
X48561Y71453D01*
X48286Y71865D01*
Y72135D01*
X48561Y72547D01*
X48615Y72816D01*
X48658Y73033D01*
X48658Y73034D01*
X48683Y73287D01*
X56490D01*
Y73677D01*
X56990Y73776D01*
X57202Y73264D01*
D02*
G37*
G36*
X93127Y65138D02*
X93078Y65121D01*
X93035Y65091D01*
X92997Y65051D01*
X92966Y64998D01*
X92940Y64934D01*
X92920Y64858D01*
X92905Y64770D01*
X92897Y64671D01*
X92894Y64560D01*
X92303D01*
X92315Y65144D01*
X93182D01*
X93127Y65138D01*
D02*
G37*
G36*
X95387Y65138D02*
X95339Y65120D01*
X95296Y65091D01*
X95259Y65049D01*
X95228Y64996D01*
X95203Y64931D01*
X95183Y64855D01*
X95169Y64766D01*
X95160Y64666D01*
X95157Y64553D01*
X94567D01*
X94564Y64666D01*
X94556Y64766D01*
X94541Y64855D01*
X94522Y64931D01*
X94496Y64996D01*
X94465Y65049D01*
X94428Y65091D01*
X94386Y65120D01*
X94337Y65138D01*
X94284Y65144D01*
X95441D01*
X95387Y65138D01*
D02*
G37*
G36*
X89481D02*
X89433Y65120D01*
X89391Y65091D01*
X89354Y65049D01*
X89323Y64996D01*
X89297Y64931D01*
X89277Y64855D01*
X89263Y64766D01*
X89255Y64666D01*
X89252Y64553D01*
X88661D01*
X88659Y64666D01*
X88650Y64766D01*
X88636Y64855D01*
X88616Y64931D01*
X88591Y64996D01*
X88559Y65049D01*
X88523Y65091D01*
X88480Y65120D01*
X88432Y65138D01*
X88378Y65144D01*
X89535D01*
X89481Y65138D01*
D02*
G37*
G36*
X85544D02*
X85496Y65120D01*
X85454Y65091D01*
X85417Y65049D01*
X85386Y64996D01*
X85360Y64931D01*
X85340Y64855D01*
X85326Y64766D01*
X85318Y64666D01*
X85315Y64553D01*
X84724D01*
X84722Y64666D01*
X84713Y64766D01*
X84699Y64855D01*
X84679Y64931D01*
X84654Y64996D01*
X84622Y65049D01*
X84586Y65091D01*
X84543Y65120D01*
X84495Y65138D01*
X84441Y65144D01*
X85598D01*
X85544Y65138D01*
D02*
G37*
G36*
X83336D02*
X83285Y65120D01*
X83241Y65091D01*
X83203Y65049D01*
X83170Y64996D01*
X83144Y64931D01*
X83123Y64855D01*
X83108Y64766D01*
X83099Y64666D01*
X83096Y64553D01*
X82506D01*
X82506Y64666D01*
X82479Y65138D01*
X82473Y65144D01*
X83392D01*
X83336Y65138D01*
D02*
G37*
G36*
X81607D02*
X81559Y65120D01*
X81517Y65091D01*
X81480Y65049D01*
X81449Y64996D01*
X81423Y64931D01*
X81403Y64855D01*
X81389Y64766D01*
X81381Y64666D01*
X81378Y64553D01*
X80787D01*
X80785Y64666D01*
X80776Y64766D01*
X80762Y64855D01*
X80742Y64931D01*
X80717Y64996D01*
X80685Y65049D01*
X80649Y65091D01*
X80606Y65120D01*
X80558Y65138D01*
X80504Y65144D01*
X81661D01*
X81607Y65138D01*
D02*
G37*
G36*
X101311Y65136D02*
X101280Y65112D01*
X101252Y65073D01*
X101228Y65018D01*
X101208Y64947D01*
X101191Y64860D01*
X101178Y64758D01*
X101163Y64506D01*
X101161Y64356D01*
X100374D01*
X100372Y64506D01*
X100344Y64860D01*
X100328Y64947D01*
X100308Y65018D01*
X100283Y65073D01*
X100256Y65112D01*
X100224Y65136D01*
X100189Y65144D01*
X101346D01*
X101311Y65136D01*
D02*
G37*
G36*
X99343D02*
X99311Y65112D01*
X99283Y65073D01*
X99260Y65018D01*
X99239Y64947D01*
X99222Y64860D01*
X99210Y64758D01*
X99195Y64506D01*
X99193Y64356D01*
X98405D01*
X98404Y64506D01*
X98376Y64860D01*
X98359Y64947D01*
X98339Y65018D01*
X98315Y65073D01*
X98287Y65112D01*
X98256Y65136D01*
X98221Y65144D01*
X99378D01*
X99343Y65136D01*
D02*
G37*
G36*
X83096Y64256D02*
X83101Y64167D01*
X83114Y64072D01*
X83136Y63973D01*
X83167Y63870D01*
X83207Y63761D01*
X83255Y63648D01*
X83379Y63408D01*
X83454Y63281D01*
X83538Y63149D01*
X81922Y63499D01*
X82033Y63574D01*
X82132Y63653D01*
X82220Y63734D01*
X82296Y63818D01*
X82360Y63906D01*
X82412Y63996D01*
X82453Y64090D01*
X82482Y64186D01*
X82500Y64286D01*
X82506Y64389D01*
X83096Y64256D01*
D02*
G37*
G36*
X80570Y63601D02*
X80504Y63528D01*
X80446Y63447D01*
X80395Y63358D01*
X80350Y63261D01*
X80313Y63156D01*
X80283Y63043D01*
X80260Y62922D01*
X80243Y62793D01*
X80234Y62657D01*
X80232Y62512D01*
X79063Y63681D01*
X79208Y63683D01*
X79474Y63708D01*
X79594Y63731D01*
X79707Y63762D01*
X79812Y63799D01*
X79909Y63843D01*
X79998Y63895D01*
X80079Y63953D01*
X80152Y64018D01*
X80570Y63601D01*
D02*
G37*
G36*
X67387Y62837D02*
X67318Y62760D01*
X67260Y62677D01*
X67213Y62588D01*
X67177Y62494D01*
X67152Y62393D01*
X67138Y62288D01*
X67135Y62176D01*
X67143Y62059D01*
X67162Y61936D01*
X67191Y61808D01*
X65766Y62646D01*
X65920Y62687D01*
X66321Y62820D01*
X66434Y62869D01*
X66633Y62972D01*
X66717Y63027D01*
X66792Y63083D01*
X66857Y63142D01*
X67387Y62837D01*
D02*
G37*
G36*
X115578Y62680D02*
X115754Y63104D01*
X116254Y63005D01*
Y59571D01*
X107437Y50753D01*
X107013Y51037D01*
X107232Y51566D01*
Y52434D01*
X106900Y53236D01*
X106287Y53849D01*
X105485Y54181D01*
X104617D01*
X103816Y53849D01*
X103287Y53321D01*
X102425D01*
X100192Y55554D01*
X100191Y55555D01*
X100167Y55586D01*
X100158Y55600D01*
Y56467D01*
X100062Y56953D01*
X99786Y57365D01*
Y57635D01*
X100062Y58047D01*
X100134Y58413D01*
X100366Y58614D01*
X100658Y58677D01*
X100851Y58499D01*
X100851Y58488D01*
X100870Y58402D01*
Y58066D01*
X101202Y57265D01*
X101816Y56651D01*
X102617Y56319D01*
X103485D01*
X104287Y56651D01*
X104900Y57265D01*
X105232Y58066D01*
Y58934D01*
X104936Y59649D01*
X105143Y59916D01*
X105283Y60019D01*
X105327Y59990D01*
X105813Y59893D01*
X106051D01*
Y61025D01*
X107051D01*
Y59893D01*
X107289D01*
X107776Y59990D01*
X108188Y60265D01*
X108463Y60677D01*
X108560Y61163D01*
Y61975D01*
X109022Y62167D01*
X109204Y61984D01*
X110078Y61622D01*
X111024D01*
X111898Y61984D01*
X112051Y62137D01*
X112204Y61984D01*
X113078Y61622D01*
X114024D01*
X114871Y61973D01*
X114030Y62814D01*
X114737Y63521D01*
X115578Y62680D01*
D02*
G37*
G36*
X95157Y61844D02*
X95165Y61243D01*
X94272Y61390D01*
X94328Y61396D01*
X94378Y61414D01*
X94422Y61443D01*
X94461Y61484D01*
X94493Y61537D01*
X94520Y61602D01*
X94540Y61679D01*
X94555Y61768D01*
X94564Y61868D01*
X94567Y61980D01*
X95157Y61844D01*
D02*
G37*
G36*
X90463Y61712D02*
X90472Y61611D01*
X90486Y61523D01*
X90507Y61446D01*
X90534Y61381D01*
X90566Y61328D01*
X90605Y61286D01*
X90649Y61257D01*
X90699Y61239D01*
X90755Y61233D01*
X89574D01*
X89630Y61239D01*
X89680Y61257D01*
X89725Y61286D01*
X89763Y61328D01*
X89796Y61381D01*
X89822Y61446D01*
X89843Y61523D01*
X89858Y61611D01*
X89866Y61712D01*
X89869Y61824D01*
X90460D01*
X90463Y61712D01*
D02*
G37*
G36*
X98796Y61570D02*
X98722Y61481D01*
X98657Y61390D01*
X98601Y61296D01*
X98553Y61200D01*
X98514Y61100D01*
X98484Y60999D01*
X98462Y60894D01*
X98454Y60827D01*
X98461Y60752D01*
X98480Y60634D01*
X98508Y60532D01*
X98543Y60445D01*
X98587Y60374D01*
X98638Y60319D01*
X98697Y60280D01*
X98764Y60256D01*
X98839Y60249D01*
X97264D01*
X97339Y60256D01*
X97405Y60280D01*
X97465Y60319D01*
X97516Y60374D01*
X97559Y60445D01*
X97594Y60532D01*
X97622Y60634D01*
X97642Y60752D01*
X97648Y60827D01*
X97640Y60894D01*
X97619Y60999D01*
X97588Y61100D01*
X97549Y61200D01*
X97502Y61296D01*
X97445Y61390D01*
X97380Y61481D01*
X97307Y61570D01*
X97224Y61656D01*
X98878D01*
X98796Y61570D01*
D02*
G37*
G36*
X70330Y60692D02*
X70338Y60599D01*
X70350Y60517D01*
X70368Y60445D01*
X70390Y60385D01*
X70418Y60336D01*
X70451Y60298D01*
X70489Y60270D01*
X70532Y60254D01*
X70580Y60249D01*
X69485D01*
X69533Y60254D01*
X69576Y60270D01*
X69613Y60298D01*
X69646Y60336D01*
X69674Y60385D01*
X69697Y60445D01*
X69714Y60517D01*
X69727Y60599D01*
X69735Y60692D01*
X69737Y60796D01*
X70328D01*
X70330Y60692D01*
D02*
G37*
G36*
X62349Y60727D02*
X62358Y60626D01*
X62373Y60538D01*
X62394Y60461D01*
X62420Y60396D01*
X62453Y60343D01*
X62491Y60302D01*
X62535Y60272D01*
X62586Y60254D01*
X62642Y60249D01*
X61461D01*
X61517Y60254D01*
X61567Y60272D01*
X61611Y60302D01*
X61650Y60343D01*
X61682Y60396D01*
X61709Y60461D01*
X61729Y60538D01*
X61744Y60626D01*
X61753Y60727D01*
X61756Y60839D01*
X62347D01*
X62349Y60727D01*
D02*
G37*
G36*
X102122Y59992D02*
X102206Y59926D01*
X102295Y59868D01*
X102389Y59817D01*
X102487Y59775D01*
X102589Y59740D01*
X102695Y59713D01*
X102805Y59694D01*
X102920Y59684D01*
X103039Y59681D01*
X101870Y58512D01*
X101867Y58631D01*
X101857Y58746D01*
X101838Y58856D01*
X101811Y58963D01*
X101777Y59065D01*
X101734Y59162D01*
X101684Y59256D01*
X101625Y59345D01*
X101559Y59430D01*
X101484Y59510D01*
X102041Y60067D01*
X102122Y59992D01*
D02*
G37*
G36*
X163213Y58901D02*
X163310Y58820D01*
X163404Y58754D01*
X163495Y58702D01*
X163583Y58664D01*
X163669Y58640D01*
X163751Y58629D01*
X163831Y58633D01*
X163908Y58651D01*
X163982Y58683D01*
X163088Y57350D01*
X163093Y57451D01*
X163087Y57551D01*
X163070Y57651D01*
X163043Y57751D01*
X163005Y57850D01*
X162957Y57948D01*
X162898Y58046D01*
X162828Y58144D01*
X162748Y58241D01*
X162657Y58337D01*
X163113Y58995D01*
X163213Y58901D01*
D02*
G37*
G36*
X54785Y57559D02*
X54616Y57351D01*
X54548Y57249D01*
X54490Y57147D01*
X54442Y57046D01*
X54405Y56946D01*
X54379Y56847D01*
X54363Y56748D01*
X54357Y56651D01*
X53767Y56645D01*
X53762Y56743D01*
X53746Y56842D01*
X53719Y56941D01*
X53681Y57041D01*
X53633Y57141D01*
X53575Y57241D01*
X53505Y57342D01*
X53425Y57444D01*
X53334Y57546D01*
X53232Y57649D01*
X54886Y57664D01*
X54785Y57559D01*
D02*
G37*
G36*
X82544Y57249D02*
X82465Y57165D01*
X82394Y57082D01*
X82331Y56998D01*
X82277Y56914D01*
X82231Y56831D01*
X82193Y56747D01*
X82164Y56664D01*
X82143Y56580D01*
X82131Y56497D01*
X82126Y56413D01*
X81291Y57249D01*
X81375Y57253D01*
X81458Y57265D01*
X81542Y57286D01*
X81625Y57315D01*
X81709Y57353D01*
X81792Y57399D01*
X81876Y57453D01*
X81959Y57516D01*
X82043Y57587D01*
X82126Y57666D01*
X82544Y57249D01*
D02*
G37*
G36*
X54360Y56416D02*
X54369Y56316D01*
X54384Y56227D01*
X54405Y56151D01*
X54431Y56086D01*
X54464Y56033D01*
X54502Y55991D01*
X54546Y55962D01*
X54597Y55944D01*
X54653Y55938D01*
X53472D01*
X53528Y55944D01*
X53578Y55962D01*
X53622Y55991D01*
X53661Y56033D01*
X53693Y56086D01*
X53720Y56151D01*
X53740Y56227D01*
X53755Y56316D01*
X53764Y56416D01*
X53767Y56529D01*
X54357D01*
X54360Y56416D01*
D02*
G37*
G36*
X90699Y55730D02*
X90649Y55712D01*
X90605Y55683D01*
X90566Y55642D01*
X90534Y55589D01*
X90507Y55524D01*
X90486Y55447D01*
X90472Y55358D01*
X90463Y55258D01*
X90460Y55146D01*
X89869D01*
X89866Y55258D01*
X89858Y55358D01*
X89843Y55447D01*
X89822Y55524D01*
X89796Y55589D01*
X89763Y55642D01*
X89725Y55683D01*
X89680Y55712D01*
X89630Y55730D01*
X89574Y55736D01*
X90755D01*
X90699Y55730D01*
D02*
G37*
G36*
X99131Y55503D02*
X99143Y55420D01*
X99164Y55336D01*
X99193Y55253D01*
X99231Y55169D01*
X99277Y55086D01*
X99331Y55002D01*
X99394Y54918D01*
X99465Y54835D01*
X99544Y54751D01*
X99126Y54334D01*
X99043Y54413D01*
X98959Y54484D01*
X98876Y54547D01*
X98792Y54601D01*
X98709Y54647D01*
X98625Y54685D01*
X98542Y54714D01*
X98458Y54735D01*
X98375Y54747D01*
X98291Y54751D01*
X99126Y55587D01*
X99131Y55503D01*
D02*
G37*
G36*
X61811Y54751D02*
X61728Y54747D01*
X61644Y54735D01*
X61560Y54714D01*
X61477Y54685D01*
X61393Y54647D01*
X61310Y54601D01*
X61226Y54547D01*
X61143Y54484D01*
X61059Y54413D01*
X60976Y54334D01*
X60558Y54751D01*
X60638Y54835D01*
X60709Y54918D01*
X60771Y55002D01*
X60826Y55086D01*
X60871Y55169D01*
X60909Y55253D01*
X60938Y55336D01*
X60959Y55420D01*
X60972Y55503D01*
X60976Y55587D01*
X61811Y54751D01*
D02*
G37*
G36*
X49553Y54272D02*
X49547Y54328D01*
X49529Y54378D01*
X49500Y54423D01*
X49459Y54461D01*
X49406Y54494D01*
X49341Y54520D01*
X49264Y54541D01*
X49175Y54556D01*
X49075Y54564D01*
X48963Y54567D01*
Y55158D01*
X49075Y55161D01*
X49175Y55170D01*
X49264Y55185D01*
X49341Y55205D01*
X49406Y55232D01*
X49459Y55264D01*
X49500Y55303D01*
X49529Y55347D01*
X49547Y55397D01*
X49553Y55453D01*
Y54272D01*
D02*
G37*
G36*
X70586Y54746D02*
X70535Y54728D01*
X70491Y54698D01*
X70453Y54657D01*
X70420Y54604D01*
X70394Y54539D01*
X70373Y54462D01*
X70358Y54374D01*
X70349Y54273D01*
X70346Y54161D01*
X69756D01*
X69753Y54273D01*
X69744Y54374D01*
X69729Y54462D01*
X69709Y54539D01*
X69682Y54604D01*
X69650Y54657D01*
X69611Y54698D01*
X69567Y54728D01*
X69517Y54746D01*
X69461Y54751D01*
X70642D01*
X70586Y54746D01*
D02*
G37*
G36*
X80910Y51752D02*
X80826Y51747D01*
X80743Y51735D01*
X80659Y51714D01*
X80575Y51685D01*
X80492Y51647D01*
X80408Y51601D01*
X80325Y51547D01*
X80241Y51484D01*
X80158Y51413D01*
X80074Y51334D01*
X79558Y51653D01*
X79638Y51737D01*
X79709Y51820D01*
X79771Y51904D01*
X79826Y51987D01*
X79871Y52071D01*
X79909Y52154D01*
X79938Y52238D01*
X79959Y52321D01*
X79972Y52405D01*
X79976Y52488D01*
X80910Y51752D01*
D02*
G37*
G36*
X96041Y54504D02*
X96316Y54092D01*
X96728Y53816D01*
X97215Y53720D01*
X98278D01*
X98292Y53711D01*
X98323Y53687D01*
X98325Y53686D01*
X100944Y51066D01*
X101051Y50995D01*
X101027Y50762D01*
X100500Y50468D01*
X99985Y50681D01*
X99117D01*
X98316Y50349D01*
X97702Y49736D01*
X97370Y48934D01*
Y48066D01*
X97702Y47265D01*
X98316Y46651D01*
X99117Y46319D01*
X99985D01*
X100787Y46651D01*
X101400Y47265D01*
X101571Y47676D01*
X102074Y47879D01*
X102876Y47547D01*
X103524D01*
X103731Y47047D01*
X91194Y34511D01*
X90638Y34662D01*
X90428Y35169D01*
X89585Y34327D01*
X88878Y35034D01*
X89720Y35876D01*
X88985Y36181D01*
X88807D01*
X88600Y36681D01*
X95042Y43123D01*
X95328Y43551D01*
X95429Y44057D01*
Y54452D01*
X95529Y54515D01*
X96041Y54504D01*
D02*
G37*
G36*
X50137Y49394D02*
X50030Y49429D01*
X49926Y49454D01*
X49827Y49468D01*
X49732Y49471D01*
X49641Y49463D01*
X49554Y49444D01*
X49472Y49414D01*
X49393Y49374D01*
X49319Y49322D01*
X49249Y49260D01*
X48897Y49743D01*
X48965Y49816D01*
X49029Y49896D01*
X49089Y49982D01*
X49145Y50074D01*
X49198Y50173D01*
X49246Y50278D01*
X49331Y50507D01*
X49367Y50632D01*
X49400Y50762D01*
X50137Y49394D01*
D02*
G37*
G36*
X84578Y49727D02*
X84587Y49626D01*
X84601Y49538D01*
X84622Y49461D01*
X84649Y49396D01*
X84681Y49343D01*
X84720Y49302D01*
X84764Y49272D01*
X84814Y49254D01*
X84870Y49248D01*
X83689D01*
X83745Y49254D01*
X83795Y49272D01*
X83840Y49302D01*
X83878Y49343D01*
X83910Y49396D01*
X83937Y49461D01*
X83958Y49538D01*
X83972Y49626D01*
X83981Y49727D01*
X83984Y49839D01*
X84575D01*
X84578Y49727D01*
D02*
G37*
G36*
X60498Y50226D02*
X60704Y50056D01*
X60806Y49987D01*
X60907Y49928D01*
X61008Y49880D01*
X61108Y49843D01*
X61207Y49817D01*
X61305Y49801D01*
X61403Y49795D01*
Y49205D01*
X61305Y49199D01*
X61207Y49183D01*
X61108Y49157D01*
X61008Y49120D01*
X60907Y49072D01*
X60806Y49013D01*
X60704Y48944D01*
X60602Y48865D01*
X60498Y48774D01*
X60395Y48673D01*
Y50327D01*
X60498Y50226D01*
D02*
G37*
G36*
X163487Y48627D02*
X163584Y48546D01*
X163680Y48478D01*
X163774Y48423D01*
X163867Y48380D01*
X163959Y48350D01*
X164049Y48332D01*
X164138Y48326D01*
X164225Y48333D01*
X164312Y48353D01*
X163198Y47240D01*
X163218Y47326D01*
X163225Y47413D01*
X163219Y47502D01*
X163202Y47592D01*
X163171Y47684D01*
X163128Y47777D01*
X163073Y47871D01*
X163005Y47967D01*
X162925Y48064D01*
X162831Y48163D01*
X163388Y48720D01*
X163487Y48627D01*
D02*
G37*
G36*
X113039Y47319D02*
X112894Y47317D01*
X112629Y47292D01*
X112508Y47269D01*
X112395Y47238D01*
X112290Y47201D01*
X112193Y47157D01*
X112104Y47105D01*
X112023Y47047D01*
X111950Y46981D01*
X111533Y47399D01*
X111598Y47472D01*
X111656Y47553D01*
X111708Y47642D01*
X111752Y47739D01*
X111790Y47844D01*
X111820Y47957D01*
X111843Y48078D01*
X111859Y48206D01*
X111868Y48343D01*
X111870Y48488D01*
X113039Y47319D01*
D02*
G37*
G36*
X140630Y58411D02*
Y57408D01*
X140738Y56864D01*
X141046Y56403D01*
X148436Y49013D01*
X148412Y48640D01*
X147931Y48013D01*
X147628Y47283D01*
X147586Y46961D01*
X147382Y46876D01*
X148224Y46034D01*
X147517Y45327D01*
X146675Y46169D01*
X146370Y45434D01*
Y45252D01*
X145908Y45060D01*
X139972Y50996D01*
Y58000D01*
X139882Y58452D01*
X140139Y58674D01*
X140295Y58747D01*
X140630Y58411D01*
D02*
G37*
G36*
X83811Y43751D02*
X83728Y43747D01*
X83644Y43735D01*
X83561Y43714D01*
X83477Y43685D01*
X83394Y43647D01*
X83310Y43601D01*
X83227Y43547D01*
X83143Y43484D01*
X83059Y43413D01*
X82976Y43334D01*
X82558Y43751D01*
X82638Y43835D01*
X82709Y43918D01*
X82771Y44002D01*
X82826Y44086D01*
X82872Y44169D01*
X82909Y44253D01*
X82938Y44336D01*
X82959Y44420D01*
X82972Y44503D01*
X82976Y44587D01*
X83811Y43751D01*
D02*
G37*
G36*
X117630Y56558D02*
Y37581D01*
X115365Y35317D01*
X115057Y34855D01*
X114949Y34312D01*
Y31389D01*
X114449Y31168D01*
X113834Y31423D01*
X113051Y31526D01*
X112987D01*
X112900Y31736D01*
X112287Y32349D01*
X111485Y32681D01*
X110617D01*
X110429Y32603D01*
X109929Y32937D01*
Y33473D01*
X109567Y34347D01*
X108898Y35016D01*
X108024Y35378D01*
X107821D01*
X107419Y35780D01*
X106763Y36219D01*
X106679Y36235D01*
X106398Y36516D01*
X105524Y36878D01*
X104578D01*
X103704Y36516D01*
X103035Y35847D01*
X102673Y34973D01*
Y34027D01*
X103028Y33170D01*
Y31876D01*
X102881Y31767D01*
X102734Y31671D01*
X102608Y31601D01*
X102507Y31555D01*
X102434Y31530D01*
X102412Y31526D01*
X98652D01*
X98369Y31951D01*
X104908Y38489D01*
X105464Y38338D01*
X105675Y37831D01*
X106517Y38673D01*
X107224Y37966D01*
X106382Y37124D01*
X107117Y36819D01*
X107985D01*
X108721Y37124D01*
X107878Y37966D01*
X108585Y38673D01*
X109428Y37831D01*
X109732Y38566D01*
Y39434D01*
X109428Y40169D01*
X108585Y39327D01*
X107878Y40034D01*
X108721Y40876D01*
X108213Y41087D01*
X108062Y41643D01*
X109086Y42667D01*
X109576Y42569D01*
X109675Y42331D01*
X110517Y43173D01*
X111224Y42466D01*
X110382Y41624D01*
X111117Y41319D01*
X111985D01*
X112721Y41624D01*
X111878Y42466D01*
X112585Y43173D01*
X113428Y42331D01*
X113732Y43066D01*
Y43934D01*
X113428Y44669D01*
X112585Y43827D01*
X111878Y44534D01*
X112721Y45376D01*
X112482Y45475D01*
X112384Y45966D01*
X112674Y46256D01*
X112698Y46264D01*
X112736Y46274D01*
X112773Y46281D01*
X112950Y46298D01*
X113054Y46299D01*
X113145Y46319D01*
X113485D01*
X114287Y46651D01*
X114900Y47265D01*
X115232Y48066D01*
Y48934D01*
X114900Y49736D01*
X114287Y50349D01*
X113485Y50681D01*
X112617D01*
X111816Y50349D01*
X111202Y49736D01*
X110870Y48934D01*
Y48594D01*
X110851Y48502D01*
X110849Y48384D01*
X110844Y48304D01*
X110835Y48237D01*
X110825Y48185D01*
X110815Y48147D01*
X110807Y48123D01*
X94617Y31934D01*
X94331Y31505D01*
X94272Y31208D01*
X93827Y30994D01*
X93730Y30993D01*
X93564Y31120D01*
X92834Y31423D01*
X92582Y31456D01*
X92403Y31984D01*
X117168Y56749D01*
X117630Y56558D01*
D02*
G37*
G36*
X82614Y50610D02*
X82757Y50488D01*
X82728Y50184D01*
X82316Y49908D01*
X82041Y49496D01*
X81944Y49010D01*
Y47534D01*
X82041Y47047D01*
X82316Y46635D01*
Y46365D01*
X82041Y45953D01*
X81944Y45467D01*
Y44600D01*
X81935Y44586D01*
X81912Y44555D01*
X81910Y44554D01*
X79181Y41824D01*
X78681Y42031D01*
Y42434D01*
X78376Y43169D01*
X77534Y42327D01*
X76827Y43034D01*
X77669Y43876D01*
X76934Y44181D01*
X76066D01*
X75331Y43876D01*
X76173Y43034D01*
X75466Y42327D01*
X74624Y43169D01*
X74319Y42434D01*
Y41566D01*
X74624Y40831D01*
X75466Y41673D01*
X76173Y40966D01*
X75331Y40124D01*
X76066Y39819D01*
X76468D01*
X76676Y39319D01*
X73617Y36261D01*
X73331Y35832D01*
X73230Y35327D01*
Y31239D01*
X72730Y30993D01*
X72564Y31120D01*
X71834Y31423D01*
X71051Y31526D01*
X70372D01*
Y40181D01*
X80876Y50686D01*
X80878Y50687D01*
X80909Y50711D01*
X80923Y50720D01*
X81888D01*
X82307Y50803D01*
X82614Y50610D01*
D02*
G37*
G36*
X77159Y63632D02*
X76870Y62934D01*
Y62066D01*
X77202Y61264D01*
X77816Y60651D01*
X78617Y60319D01*
X79485D01*
X80287Y60651D01*
X80801Y61165D01*
X81316Y60651D01*
X82117Y60319D01*
X82622D01*
X82829Y59819D01*
X81324Y58314D01*
X81323Y58313D01*
X81292Y58289D01*
X81278Y58280D01*
X80215D01*
X79728Y58184D01*
X79316Y57908D01*
X79041Y57496D01*
X78944Y57010D01*
Y55533D01*
X79041Y55047D01*
X79316Y54635D01*
Y54365D01*
X79041Y53953D01*
X78944Y53466D01*
Y52502D01*
X78935Y52488D01*
X78912Y52457D01*
X78910Y52455D01*
X68117Y41662D01*
X67831Y41234D01*
X67730Y40728D01*
Y31526D01*
X67051D01*
X66268Y31423D01*
X65538Y31120D01*
X64912Y30640D01*
X64431Y30013D01*
X64128Y29283D01*
X64053Y28713D01*
X63549D01*
X63474Y29283D01*
X63172Y30013D01*
X62691Y30640D01*
X62064Y31120D01*
X61334Y31423D01*
X60670Y31510D01*
X60661Y31533D01*
X60622Y31679D01*
X60587Y31886D01*
X60574Y32030D01*
Y32500D01*
X60420Y33274D01*
X59982Y33931D01*
X58482Y35431D01*
X57825Y35869D01*
X57051Y36023D01*
X36389D01*
X35422Y36990D01*
X35067Y37847D01*
X34398Y38516D01*
X33524Y38878D01*
X32660D01*
X32608Y38930D01*
X32147Y39238D01*
X32118Y39244D01*
Y40642D01*
X32618Y40849D01*
X32816Y40651D01*
X33617Y40319D01*
X34485D01*
X35221Y40624D01*
X34378Y41466D01*
X35085Y42173D01*
X35928Y41331D01*
X36232Y42066D01*
Y42934D01*
X35900Y43736D01*
X35915Y43885D01*
X36111Y44016D01*
X36281Y44271D01*
X37127D01*
X37163Y44218D01*
X37607Y43920D01*
X37909Y43861D01*
X37883Y43730D01*
Y42096D01*
X37988Y41572D01*
X38278Y41137D01*
Y40811D01*
X37749Y40283D01*
X37417Y39481D01*
Y38613D01*
X37749Y37812D01*
X38363Y37198D01*
X39165Y36866D01*
X40032D01*
X40834Y37198D01*
X41129Y37493D01*
X41482Y37779D01*
X41782Y37493D01*
X42103Y37172D01*
X42905Y36840D01*
X43772D01*
X44508Y37144D01*
X43666Y37986D01*
X44373Y38693D01*
X45215Y37851D01*
X45520Y38587D01*
Y39454D01*
X45188Y40256D01*
X45425Y40726D01*
X45848D01*
X46373Y40830D01*
X46818Y41127D01*
X47115Y41572D01*
X47219Y42096D01*
Y42604D01*
X47719Y42984D01*
X47886Y42951D01*
X50239D01*
X50418Y42451D01*
X49931Y41964D01*
X49598Y41162D01*
Y40295D01*
X49931Y39493D01*
X50544Y38879D01*
X51346Y38547D01*
X52213D01*
X53015Y38879D01*
X53220Y39084D01*
X53816Y39092D01*
X54228Y38816D01*
X54715Y38720D01*
X56388D01*
X56874Y38816D01*
X57286Y39092D01*
X57561Y39504D01*
X57658Y39990D01*
Y41467D01*
X57561Y41953D01*
X57286Y42365D01*
Y42538D01*
X57655Y42951D01*
X64030D01*
X64535Y43051D01*
X64964Y43338D01*
X73347Y51721D01*
X73633Y52150D01*
X73734Y52655D01*
Y60642D01*
X73633Y61147D01*
X73347Y61576D01*
X72561Y62362D01*
Y64132D01*
X76945D01*
X77159Y63632D01*
D02*
G37*
G36*
X163487Y38127D02*
X163584Y38046D01*
X163680Y37978D01*
X163774Y37923D01*
X163867Y37880D01*
X163959Y37850D01*
X164049Y37832D01*
X164138Y37826D01*
X164225Y37833D01*
X164312Y37853D01*
X163198Y36740D01*
X163218Y36826D01*
X163225Y36913D01*
X163219Y37002D01*
X163202Y37092D01*
X163171Y37184D01*
X163128Y37277D01*
X163073Y37371D01*
X163005Y37467D01*
X162925Y37564D01*
X162831Y37663D01*
X163388Y38220D01*
X163487Y38127D01*
D02*
G37*
G36*
X121573Y70246D02*
Y60057D01*
X121682Y59513D01*
X121990Y59052D01*
X125311Y55730D01*
Y31527D01*
X124817Y31223D01*
X124709Y31295D01*
X124582Y31320D01*
X124334Y31423D01*
X123551Y31526D01*
X123487D01*
X123428Y31669D01*
X122585Y30827D01*
X121878Y31534D01*
X122721Y32376D01*
X121985Y32681D01*
X121117D01*
X120382Y32376D01*
X121224Y31534D01*
X120517Y30827D01*
X119675Y31669D01*
X119615Y31526D01*
X119551D01*
X118768Y31423D01*
X118291Y31225D01*
X117791Y31527D01*
Y33723D01*
X120056Y35988D01*
X120364Y36449D01*
X120472Y36993D01*
Y70382D01*
X120786Y70592D01*
X121187D01*
X121573Y70246D01*
D02*
G37*
G36*
X90349Y30976D02*
X90358Y30876D01*
X90373Y30787D01*
X90394Y30710D01*
X90420Y30645D01*
X90453Y30592D01*
X90491Y30551D01*
X90535Y30521D01*
X90586Y30503D01*
X90642Y30498D01*
X89461D01*
X89517Y30503D01*
X89567Y30521D01*
X89611Y30551D01*
X89650Y30592D01*
X89682Y30645D01*
X89709Y30710D01*
X89729Y30787D01*
X89744Y30876D01*
X89753Y30976D01*
X89756Y31088D01*
X90346D01*
X90349Y30976D01*
D02*
G37*
G36*
X79849D02*
X79858Y30876D01*
X79873Y30787D01*
X79894Y30710D01*
X79920Y30645D01*
X79953Y30592D01*
X79991Y30551D01*
X80035Y30521D01*
X80086Y30503D01*
X80142Y30498D01*
X78961D01*
X79017Y30503D01*
X79067Y30521D01*
X79111Y30551D01*
X79150Y30592D01*
X79182Y30645D01*
X79209Y30710D01*
X79229Y30787D01*
X79244Y30876D01*
X79253Y30976D01*
X79256Y31088D01*
X79847D01*
X79849Y30976D01*
D02*
G37*
G36*
X69349D02*
X69358Y30876D01*
X69373Y30787D01*
X69394Y30710D01*
X69420Y30645D01*
X69453Y30592D01*
X69491Y30551D01*
X69535Y30521D01*
X69586Y30503D01*
X69642Y30498D01*
X68461D01*
X68517Y30503D01*
X68567Y30521D01*
X68611Y30551D01*
X68650Y30592D01*
X68682Y30645D01*
X68709Y30710D01*
X68729Y30787D01*
X68744Y30876D01*
X68753Y30976D01*
X68756Y31088D01*
X69346D01*
X69349Y30976D01*
D02*
G37*
G36*
X59545Y32092D02*
X59575Y31758D01*
X59624Y31462D01*
X59693Y31206D01*
X59781Y30990D01*
X59890Y30813D01*
X60018Y30675D01*
X60165Y30576D01*
X60333Y30517D01*
X60520Y30498D01*
X56583D01*
X56770Y30517D01*
X56937Y30576D01*
X57085Y30675D01*
X57213Y30813D01*
X57321Y30990D01*
X57410Y31206D01*
X57478Y31462D01*
X57528Y31758D01*
X57557Y32092D01*
X57567Y32466D01*
X59535D01*
X59545Y32092D01*
D02*
G37*
G36*
X105747Y30304D02*
X105519Y30068D01*
X105136Y29622D01*
X104980Y29412D01*
X104848Y29210D01*
X104741Y29015D01*
X104657Y28830D01*
X104597Y28653D01*
X104561Y28483D01*
X104549Y28323D01*
X102374Y30498D01*
X102535Y30510D01*
X102704Y30545D01*
X102881Y30606D01*
X103067Y30689D01*
X103261Y30797D01*
X103463Y30929D01*
X103674Y31085D01*
X104120Y31468D01*
X104355Y31696D01*
X105747Y30304D01*
D02*
G37*
G36*
X115046Y15938D02*
X114952Y15838D01*
X114872Y15741D01*
X114805Y15647D01*
X114753Y15556D01*
X114715Y15468D01*
X114691Y15382D01*
X114681Y15300D01*
X114684Y15220D01*
X114702Y15143D01*
X114734Y15069D01*
X113401Y15963D01*
X113502Y15958D01*
X113602Y15964D01*
X113703Y15981D01*
X113802Y16008D01*
X113901Y16046D01*
X114000Y16094D01*
X114098Y16153D01*
X114195Y16223D01*
X114292Y16303D01*
X114388Y16394D01*
X115046Y15938D01*
D02*
G37*
G36*
X94069Y15601D02*
X93994Y15521D01*
X93930Y15445D01*
X93877Y15370D01*
X93834Y15299D01*
X93803Y15230D01*
X93783Y15164D01*
X93773Y15100D01*
X93775Y15039D01*
X93787Y14980D01*
X93811Y14925D01*
X92976Y15760D01*
X93032Y15736D01*
X93090Y15724D01*
X93151Y15722D01*
X93215Y15731D01*
X93281Y15752D01*
X93350Y15783D01*
X93422Y15825D01*
X93496Y15879D01*
X93572Y15943D01*
X93652Y16018D01*
X94069Y15601D01*
D02*
G37*
G36*
X83570D02*
X83494Y15521D01*
X83430Y15445D01*
X83377Y15370D01*
X83334Y15299D01*
X83303Y15230D01*
X83283Y15164D01*
X83273Y15100D01*
X83275Y15039D01*
X83288Y14980D01*
X83311Y14925D01*
X82476Y15760D01*
X82532Y15736D01*
X82590Y15724D01*
X82651Y15722D01*
X82715Y15731D01*
X82781Y15752D01*
X82850Y15783D01*
X82921Y15825D01*
X82996Y15879D01*
X83073Y15943D01*
X83152Y16018D01*
X83570Y15601D01*
D02*
G37*
G36*
X73070D02*
X72994Y15521D01*
X72930Y15445D01*
X72877Y15370D01*
X72834Y15299D01*
X72803Y15230D01*
X72783Y15164D01*
X72773Y15100D01*
X72775Y15039D01*
X72787Y14980D01*
X72811Y14925D01*
X71976Y15760D01*
X72032Y15736D01*
X72090Y15724D01*
X72151Y15722D01*
X72215Y15731D01*
X72281Y15752D01*
X72350Y15783D01*
X72421Y15825D01*
X72496Y15879D01*
X72572Y15943D01*
X72652Y16018D01*
X73070Y15601D01*
D02*
G37*
%LPC*%
G36*
X112985Y153181D02*
X112117D01*
X111382Y152876D01*
X112224Y152034D01*
X111517Y151327D01*
X110675Y152169D01*
X110370Y151434D01*
Y150566D01*
X110675Y149831D01*
X111517Y150673D01*
X112224Y149966D01*
X111382Y149124D01*
X112117Y148819D01*
X112985D01*
X113721Y149124D01*
X112878Y149966D01*
X113585Y150673D01*
X114428Y149831D01*
X114732Y150566D01*
Y151434D01*
X114428Y152169D01*
X113585Y151327D01*
X112878Y152034D01*
X113721Y152876D01*
X112985Y153181D01*
D02*
G37*
G36*
X96485Y121181D02*
X95617D01*
X94882Y120876D01*
X95724Y120034D01*
X95017Y119327D01*
X94175Y120169D01*
X93870Y119434D01*
Y118566D01*
X94175Y117831D01*
X95017Y118673D01*
X95724Y117966D01*
X94882Y117124D01*
X95617Y116819D01*
X96485D01*
X97220Y117124D01*
X96378Y117966D01*
X97085Y118673D01*
X97928Y117831D01*
X98232Y118566D01*
Y119434D01*
X97928Y120169D01*
X97085Y119327D01*
X96378Y120034D01*
X97220Y120876D01*
X96485Y121181D01*
D02*
G37*
G36*
X86613Y120934D02*
X85745D01*
X84943Y120601D01*
X84330Y119988D01*
X83998Y119186D01*
Y118319D01*
X84330Y117517D01*
X84943Y116903D01*
X85745Y116571D01*
X86613D01*
X87414Y116903D01*
X88028Y117517D01*
X88360Y118319D01*
Y119186D01*
X88028Y119988D01*
X87414Y120601D01*
X86613Y120934D01*
D02*
G37*
G36*
X76485Y81181D02*
X75617D01*
X74882Y80876D01*
X75724Y80034D01*
X75017Y79327D01*
X74175Y80169D01*
X73870Y79434D01*
Y78566D01*
X74175Y77831D01*
X75017Y78673D01*
X75724Y77966D01*
X74882Y77124D01*
X75617Y76819D01*
X76485D01*
X77220Y77124D01*
X76378Y77966D01*
X77085Y78673D01*
X77928Y77831D01*
X78232Y78566D01*
Y79434D01*
X77928Y80169D01*
X77085Y79327D01*
X76378Y80034D01*
X77220Y80876D01*
X76485Y81181D01*
D02*
G37*
G36*
X81485D02*
X80617D01*
X79816Y80849D01*
X79202Y80235D01*
X78870Y79434D01*
Y78566D01*
X79202Y77764D01*
X79816Y77151D01*
X80617Y76819D01*
X81485D01*
X82287Y77151D01*
X82900Y77764D01*
X83232Y78566D01*
Y79434D01*
X82900Y80235D01*
X82287Y80849D01*
X81485Y81181D01*
D02*
G37*
%LPD*%
G36*
X59407Y180534D02*
X59425Y180484D01*
X59455Y180440D01*
X59496Y180402D01*
X59549Y180369D01*
X59614Y180342D01*
X59691Y180322D01*
X59779Y180307D01*
X59880Y180298D01*
X59992Y180295D01*
Y179705D01*
X59880Y179702D01*
X59779Y179693D01*
X59691Y179678D01*
X59614Y179657D01*
X59549Y179631D01*
X59496Y179598D01*
X59455Y179560D01*
X59425Y179516D01*
X59407Y179466D01*
X59401Y179409D01*
Y180591D01*
X59407Y180534D01*
D02*
G37*
G36*
X54701Y179409D02*
X54695Y179466D01*
X54677Y179516D01*
X54648Y179560D01*
X54606Y179598D01*
X54553Y179631D01*
X54488Y179657D01*
X54412Y179678D01*
X54323Y179693D01*
X54223Y179702D01*
X54110Y179705D01*
Y180295D01*
X54223Y180298D01*
X54323Y180307D01*
X54412Y180322D01*
X54488Y180342D01*
X54553Y180369D01*
X54606Y180402D01*
X54648Y180440D01*
X54677Y180484D01*
X54695Y180534D01*
X54701Y180591D01*
Y179409D01*
D02*
G37*
G36*
X39979Y176526D02*
X39987Y176432D01*
X40000Y176349D01*
X40018Y176277D01*
X40041Y176216D01*
X40069Y176167D01*
X40103Y176128D01*
X40141Y176101D01*
X40185Y176084D01*
X40233Y176078D01*
X39130D01*
X39178Y176084D01*
X39222Y176101D01*
X39261Y176128D01*
X39294Y176167D01*
X39322Y176216D01*
X39345Y176277D01*
X39363Y176349D01*
X39376Y176432D01*
X39384Y176526D01*
X39386Y176630D01*
X39977D01*
X39979Y176526D01*
D02*
G37*
G36*
X54701Y174291D02*
X54695Y174347D01*
X54677Y174398D01*
X54648Y174442D01*
X54606Y174480D01*
X54553Y174513D01*
X54488Y174539D01*
X54412Y174560D01*
X54323Y174575D01*
X54223Y174584D01*
X54110Y174587D01*
Y175177D01*
X54223Y175180D01*
X54323Y175189D01*
X54412Y175204D01*
X54488Y175224D01*
X54553Y175251D01*
X54606Y175283D01*
X54648Y175322D01*
X54677Y175366D01*
X54695Y175416D01*
X54701Y175472D01*
Y174291D01*
D02*
G37*
G36*
X59406Y174858D02*
X59418Y174775D01*
X59439Y174691D01*
X59468Y174608D01*
X59506Y174524D01*
X59552Y174441D01*
X59606Y174357D01*
X59669Y174274D01*
X59740Y174190D01*
X59819Y174107D01*
X59401Y173689D01*
X59318Y173768D01*
X59234Y173839D01*
X59151Y173902D01*
X59067Y173956D01*
X58984Y174002D01*
X58900Y174040D01*
X58817Y174069D01*
X58733Y174090D01*
X58650Y174102D01*
X58566Y174107D01*
X59401Y174942D01*
X59406Y174858D01*
D02*
G37*
G36*
X61394Y170728D02*
X61403Y170627D01*
X61417Y170539D01*
X61438Y170462D01*
X61465Y170397D01*
X61497Y170344D01*
X61536Y170302D01*
X61580Y170273D01*
X61630Y170255D01*
X61686Y170249D01*
X60505D01*
X60561Y170255D01*
X60611Y170273D01*
X60656Y170302D01*
X60694Y170344D01*
X60726Y170397D01*
X60753Y170462D01*
X60774Y170539D01*
X60789Y170627D01*
X60797Y170728D01*
X60800Y170840D01*
X61391D01*
X61394Y170728D01*
D02*
G37*
G36*
X56659Y170588D02*
X56743Y170517D01*
X56826Y170454D01*
X56910Y170400D01*
X56993Y170354D01*
X57077Y170316D01*
X57160Y170287D01*
X57244Y170266D01*
X57327Y170253D01*
X57411Y170249D01*
X56575Y169414D01*
X56571Y169498D01*
X56559Y169581D01*
X56538Y169665D01*
X56509Y169748D01*
X56471Y169832D01*
X56425Y169915D01*
X56371Y169999D01*
X56308Y170082D01*
X56237Y170166D01*
X56158Y170249D01*
X56575Y170667D01*
X56659Y170588D01*
D02*
G37*
G36*
X57411Y168099D02*
X57327Y168095D01*
X57244Y168082D01*
X57160Y168061D01*
X57077Y168032D01*
X56993Y167994D01*
X56910Y167948D01*
X56826Y167894D01*
X56743Y167832D01*
X56659Y167761D01*
X56575Y167681D01*
X56158Y168099D01*
X56237Y168182D01*
X56308Y168266D01*
X56371Y168349D01*
X56425Y168433D01*
X56471Y168516D01*
X56509Y168600D01*
X56538Y168683D01*
X56559Y168767D01*
X56571Y168850D01*
X56575Y168934D01*
X57411Y168099D01*
D02*
G37*
G36*
X61630Y168093D02*
X61580Y168075D01*
X61536Y168046D01*
X61497Y168004D01*
X61465Y167951D01*
X61438Y167886D01*
X61417Y167809D01*
X61403Y167721D01*
X61394Y167620D01*
X61391Y167508D01*
X60800D01*
X60797Y167620D01*
X60789Y167721D01*
X60774Y167809D01*
X60753Y167886D01*
X60726Y167951D01*
X60694Y168004D01*
X60656Y168046D01*
X60611Y168075D01*
X60561Y168093D01*
X60505Y168099D01*
X61686D01*
X61630Y168093D01*
D02*
G37*
G36*
X40784Y168204D02*
X40704Y168121D01*
X40633Y168037D01*
X40571Y167954D01*
X40516Y167870D01*
X40470Y167787D01*
X40433Y167703D01*
X40404Y167620D01*
X40383Y167536D01*
X40370Y167453D01*
X40366Y167369D01*
X39531Y168204D01*
X39614Y168209D01*
X39698Y168221D01*
X39781Y168242D01*
X39865Y168271D01*
X39948Y168309D01*
X40032Y168355D01*
X40115Y168409D01*
X40199Y168472D01*
X40282Y168543D01*
X40366Y168622D01*
X40784Y168204D01*
D02*
G37*
G36*
X61394Y166482D02*
X61403Y166382D01*
X61417Y166294D01*
X61438Y166217D01*
X61465Y166152D01*
X61497Y166099D01*
X61536Y166057D01*
X61580Y166028D01*
X61630Y166010D01*
X61686Y166004D01*
X60505D01*
X60561Y166010D01*
X60611Y166028D01*
X60656Y166057D01*
X60694Y166099D01*
X60726Y166152D01*
X60753Y166217D01*
X60774Y166294D01*
X60789Y166382D01*
X60797Y166482D01*
X60800Y166595D01*
X61391D01*
X61394Y166482D01*
D02*
G37*
G36*
X56359D02*
X56368Y166382D01*
X56383Y166294D01*
X56404Y166217D01*
X56430Y166152D01*
X56463Y166099D01*
X56501Y166057D01*
X56545Y166028D01*
X56596Y166010D01*
X56652Y166004D01*
X55471D01*
X55527Y166010D01*
X55577Y166028D01*
X55621Y166057D01*
X55660Y166099D01*
X55692Y166152D01*
X55719Y166217D01*
X55739Y166294D01*
X55754Y166382D01*
X55763Y166482D01*
X55766Y166595D01*
X56356D01*
X56359Y166482D01*
D02*
G37*
D10*
X161445Y39606D02*
X167051Y34000D01*
X169051D01*
X122051Y182500D02*
X124051D01*
X116732Y177181D02*
X122051Y182500D01*
X107551D02*
X109551D01*
X116732Y168682D02*
Y177181D01*
X105051Y157001D02*
X116732Y168682D01*
X92823Y135000D02*
Y135098D01*
X93413Y135689D02*
X93512D01*
X92823Y135098D02*
X93413Y135689D01*
X93512D02*
X105051Y147228D01*
Y157001D01*
X101551Y176500D02*
X107551Y182500D01*
X93823Y139272D02*
X101551Y147000D01*
Y176500D01*
X85051Y139272D02*
X93823D01*
X12551Y54043D02*
Y58500D01*
X20051Y55134D02*
Y63000D01*
X138769Y92920D02*
X147054D01*
X150110Y95976D01*
X159600Y88053D02*
Y90445D01*
X160051Y90896D01*
Y93000D01*
X8417Y35134D02*
Y39500D01*
X16685D02*
X22547D01*
X30106Y37925D02*
X31603D01*
X33028Y36500D01*
X164589Y68984D02*
Y70581D01*
X161110Y74060D02*
Y74060D01*
Y74060D02*
X164589Y70581D01*
X159611Y75559D02*
X161110Y74060D01*
X168437Y65115D02*
X171051Y62500D01*
X166808Y65115D02*
X171051Y62500D01*
X139992Y75559D02*
X159611D01*
X126781Y88770D02*
X139992Y75559D01*
X164589Y68984D02*
X168073Y65500D01*
X166808Y65115D02*
X168437D01*
X166025Y65898D02*
X166808Y65115D01*
X168073Y65500D02*
X169051D01*
X163970Y65712D02*
X165839D01*
X149353Y39606D02*
X161445D01*
X162157Y49394D02*
X167051Y44500D01*
X150065Y49394D02*
X162157D01*
X167051Y44500D02*
X169051D01*
X166551Y55000D02*
X169051D01*
X149233Y60319D02*
X161232D01*
X166551Y55000D01*
X125448Y15027D02*
X125448D01*
X121551Y11131D02*
X125448Y15027D01*
X125448D02*
X126732Y16312D01*
Y56319D01*
X121551Y10000D02*
Y11131D01*
X111051Y12500D02*
X116370Y17819D01*
Y34312D01*
X111051Y10000D02*
Y12500D01*
X116370Y34312D02*
X119051Y36993D01*
Y72228D01*
X122994Y60057D02*
X126732Y56319D01*
X12551Y46996D02*
X19921D01*
X138551Y50408D02*
X149353Y39606D01*
X138551Y50408D02*
Y58000D01*
X122781Y89770D02*
X140551Y72000D01*
Y69001D02*
Y72000D01*
Y69001D02*
X149233Y60319D01*
X142051Y57408D02*
X150065Y49394D01*
X122781Y89770D02*
Y100494D01*
X133051Y68000D02*
X142051Y59000D01*
X133051Y68000D02*
Y76000D01*
X142051Y57408D02*
Y59000D01*
X113713Y106177D02*
X116502D01*
X113516Y106374D02*
X113713Y106177D01*
X120805Y88246D02*
X133051Y76000D01*
X116502Y106177D02*
X120805Y101874D01*
Y88246D02*
Y101874D01*
X119518Y86034D02*
Y101193D01*
X116502Y104209D02*
X119518Y101193D01*
Y86034D02*
X129051Y76500D01*
X113516Y104405D02*
X113713Y104209D01*
X116502D01*
X129051Y67500D02*
Y76500D01*
Y67500D02*
X138551Y58000D01*
X126781Y88770D02*
Y100494D01*
X122994Y60057D02*
Y72164D01*
X139444Y101349D02*
X142901D01*
X86988Y132709D02*
X88591Y134311D01*
X88689D01*
X89280Y134902D01*
X86988Y128965D02*
Y132709D01*
X89280Y134902D02*
Y135000D01*
X85020Y128965D02*
X85035Y128980D01*
Y135713D01*
X85051Y135728D01*
X73209Y128965D02*
Y142062D01*
X75097Y143950D01*
X75177Y128965D02*
X75189Y128976D01*
Y140184D01*
X85863Y143950D02*
Y146214D01*
X82515Y149964D02*
X82551Y150000D01*
X85563Y147972D02*
Y147984D01*
X85858Y146219D02*
Y147689D01*
Y146219D02*
X85863Y146214D01*
X85563Y147984D02*
X85858Y147689D01*
X76063Y141058D02*
Y141484D01*
X75189Y140184D02*
X76063Y141058D01*
X76563Y146484D02*
X76631Y146552D01*
Y149860D01*
X76698Y149928D01*
X76734Y149964D01*
X82515D01*
X75097Y143950D02*
X85863D01*
X122683Y104037D02*
X122781D01*
X113516Y108343D02*
X118377D01*
X122683Y104037D01*
X120409Y110311D02*
X126683Y104037D01*
X113516Y110311D02*
X120409D01*
X126683Y104037D02*
X126781D01*
X100768Y60783D02*
Y68035D01*
Y60783D02*
X103051Y58500D01*
X98051Y59272D02*
Y62500D01*
Y62926D01*
X98799Y63674D02*
Y68035D01*
X98051Y62926D02*
X98799Y63674D01*
X119051Y75772D02*
Y81000D01*
X113713Y82555D02*
X117496D01*
X119051Y81000D01*
X118028Y84524D02*
X122994Y79557D01*
X113713Y84524D02*
X118028D01*
X122994Y75708D02*
Y79557D01*
X113516Y82752D02*
X113713Y82555D01*
X113516Y84720D02*
X113713Y84524D01*
X132047Y94466D02*
Y101000D01*
D12*
X139500Y185000D02*
Y187205D01*
X46154Y47500D02*
X53724D01*
X61953Y55728D02*
X62051D01*
X53724Y47500D02*
X61953Y55728D01*
X71240Y61815D02*
Y68035D01*
Y61815D02*
X72413Y60642D01*
Y52655D02*
Y60642D01*
X60551Y44272D02*
X64030D01*
X72413Y52655D01*
X46154Y45531D02*
X46626D01*
X47886Y44272D02*
X60551D01*
X46626Y45531D02*
X47886Y44272D01*
X70051Y52520D02*
Y55728D01*
X47016Y49468D02*
X49040D01*
X50072Y50500D01*
X50551D01*
X59551Y49500D02*
X67031D01*
X70051Y52520D01*
X63268Y67937D02*
X63366Y68035D01*
X39598Y52087D02*
Y53576D01*
X63268Y64602D02*
Y67937D01*
X62166Y63500D02*
X63268Y64602D01*
X49522Y63500D02*
X62166D01*
X39598Y53576D02*
X49522Y63500D01*
X34376Y49196D02*
X34463Y49284D01*
X30089Y49234D02*
X34338D01*
X30051Y49272D02*
X30089Y49234D01*
X34338D02*
X34376Y49196D01*
X34463Y49284D02*
X34512Y49332D01*
X38813D01*
X39598Y39047D02*
Y42913D01*
X39680Y42832D01*
X38813Y49332D02*
X38949Y49468D01*
X34463Y49284D02*
Y52912D01*
X34551Y53000D01*
X41551Y88728D02*
X41650D01*
X45039Y85339D02*
X45712D01*
X41650Y88728D02*
X45039Y85339D01*
X52587Y82752D02*
X52711Y82876D01*
X52587Y82752D02*
Y84720D01*
X46051Y85000D02*
X46191Y84860D01*
X45712Y85339D02*
X46051Y85000D01*
X52447Y84860D02*
X52587Y84720D01*
X46191Y84860D02*
X52447D01*
X51780Y40728D02*
X55551D01*
X52711Y82876D02*
X58927D01*
X59240Y68224D02*
X59429Y68035D01*
X58927Y82876D02*
X59051Y83000D01*
X59240Y68224D02*
Y74311D01*
X59051Y74500D02*
X59240Y74311D01*
X52805Y102218D02*
X58833D01*
X59051Y102000D01*
X46323Y109500D02*
Y109598D01*
X52587Y102437D02*
X52805Y102218D01*
X57408Y112279D02*
X58687Y111000D01*
X52587Y112279D02*
X57408D01*
X58687Y111000D02*
X59051D01*
X29323Y121500D02*
Y123247D01*
X31654Y125578D01*
X30595Y126742D02*
X31654Y125682D01*
X30595Y126742D02*
Y130000D01*
X31654Y125578D02*
Y125682D01*
X46323Y109598D02*
X49004Y112279D01*
X52447Y112140D02*
X52587Y112279D01*
X49004D02*
X52587D01*
X59429Y125122D02*
Y128965D01*
X61061Y141660D02*
X61594Y141126D01*
Y135500D02*
Y141126D01*
X62808Y115968D02*
Y121744D01*
X59429Y125122D02*
X62808Y121744D01*
X61594Y135500D02*
X66051D01*
X76797Y153471D02*
X81107D01*
X76698D02*
X76797D01*
X82551Y151969D02*
Y152027D01*
Y151969D02*
X82945Y152362D01*
Y153287D01*
X76570Y153600D02*
X76698Y153471D01*
X76797D02*
X79224Y155899D01*
X72680Y153600D02*
X76570D01*
X72551Y153728D02*
X72680Y153600D01*
X79224Y155899D02*
Y156645D01*
X79563Y156984D01*
X81107Y153471D02*
X82551Y152027D01*
X83595Y153937D02*
Y153996D01*
X82945Y153287D02*
X83595Y153937D01*
Y153996D02*
X83693Y154095D01*
Y158386D01*
X79563Y156984D02*
X81063Y158484D01*
X83693Y158386D02*
X83791Y158484D01*
X81063D02*
X83791D01*
X98051Y55728D02*
X98150D01*
X101878Y52000D02*
X105051D01*
X152288Y34000D02*
X154551D01*
X149968Y55000D02*
X154551D01*
X98150Y55728D02*
X101878Y52000D01*
X106673Y68035D02*
X106709Y68000D01*
X109551D01*
X113516Y122122D02*
X113551Y122158D01*
X92584Y142984D02*
X93063D01*
X113551Y122158D02*
Y125000D01*
X89406Y143950D02*
X91617D01*
X92584Y142984D01*
X88575Y150000D02*
X90200D01*
X90709Y150509D02*
X93152D01*
X90200Y150000D02*
X90709Y150509D01*
X126004Y147577D02*
X126085Y147658D01*
X93152Y150509D02*
X96475D01*
X96649Y150682D01*
X122551Y152000D02*
X122631Y152080D01*
X131139Y133918D02*
Y137412D01*
X131051Y137500D02*
X131139Y137412D01*
Y133918D02*
X131227Y133830D01*
X165594Y87000D02*
X166051Y86543D01*
X165594Y87000D02*
X166597Y88003D01*
X126644Y141032D02*
X126793Y140883D01*
X131078D01*
X126085Y147658D02*
Y152079D01*
X122631Y152080D02*
X126086D01*
X126085Y152079D02*
X126086Y152080D01*
X126166Y152160D01*
X131051Y137500D02*
X131139Y137588D01*
Y140646D01*
X131227Y140734D01*
X131229Y140731D01*
X131078Y140883D02*
X131227Y140734D01*
X161835Y153430D02*
Y157284D01*
X111051Y24500D02*
Y30500D01*
X45504Y53000D02*
X47367Y54863D01*
X50530D01*
X34051Y42500D02*
X34213Y42662D01*
Y45490D01*
X34376Y45653D01*
X34338Y45690D02*
X34376Y45653D01*
X34436Y45592D01*
X30051Y45728D02*
X30089Y45690D01*
X34338D01*
X38888Y45592D02*
X38949Y45531D01*
X38888Y45592D02*
X38949Y45653D01*
X34436Y45592D02*
X38888D01*
X38949Y45653D02*
Y47500D01*
X20051Y63000D02*
Y67831D01*
X29333Y99154D02*
X33705D01*
X35551Y101000D01*
X46551Y66000D02*
Y70228D01*
X42551Y80500D02*
X42733Y80682D01*
X46369D01*
X46551Y80865D01*
X46686Y89077D02*
Y92094D01*
X46551Y92228D02*
X46686Y92094D01*
X61398Y68035D02*
Y72867D01*
X52291Y86984D02*
X52587Y86689D01*
X52681Y86594D02*
X58957D01*
X52587Y86689D02*
X52681Y86594D01*
X46686Y89077D02*
X48778Y86984D01*
X52291D01*
X62551Y74021D02*
Y74500D01*
X61398Y72867D02*
X62551Y74021D01*
X58957Y86594D02*
X59051Y86500D01*
X20551Y105967D02*
X20672Y105847D01*
X20551Y105967D02*
Y110500D01*
X35616Y100936D02*
X41515D01*
X35551Y101000D02*
X35616Y100936D01*
X37551Y108500D02*
X37890Y108839D01*
X25780Y121500D02*
Y123272D01*
X41515Y100936D02*
X41579Y100871D01*
X52530Y104462D02*
X52587Y104405D01*
X57477D01*
X37890Y108839D02*
X42118D01*
X42779Y109500D01*
Y109402D02*
Y109500D01*
X44891Y105089D02*
Y107290D01*
X42779Y109402D02*
X44891Y107290D01*
X16551Y157500D02*
X16965D01*
X17839Y158374D02*
X29551D01*
X16965Y157500D02*
X17839Y158374D01*
X23547Y130000D02*
X23551Y129996D01*
Y125500D02*
Y129996D01*
Y125500D02*
X25780Y123272D01*
X54051Y135500D02*
X58051D01*
X44272Y177220D02*
X49350D01*
X44051Y177000D02*
X44272Y177220D01*
X56061Y139937D02*
Y141660D01*
X49350Y177220D02*
X49571Y177441D01*
X57477Y104405D02*
X58572Y105500D01*
X59051D01*
X61398Y128965D02*
X61693Y128669D01*
X58051Y135500D02*
Y137947D01*
X61693Y125858D02*
X65712Y121839D01*
X61693Y125858D02*
Y128669D01*
X65712Y118839D02*
Y121839D01*
Y118839D02*
X66051Y118500D01*
X56061Y139937D02*
X58051Y137947D01*
X71551Y160521D02*
X72551Y159521D01*
Y157272D02*
Y159521D01*
X71551Y160521D02*
Y161000D01*
X81060Y147972D02*
X83595D01*
X79648Y146561D02*
X81060Y147972D01*
X87532D02*
X92047D01*
X85563Y153996D02*
X87532D01*
X87335Y158484D02*
X87433Y158386D01*
Y154095D02*
Y158386D01*
X87335Y158484D02*
X90451D01*
X87433Y154095D02*
X87532Y153996D01*
X103310Y49729D02*
X103551Y49487D01*
X121551Y27423D02*
X124204Y30075D01*
X104628Y68112D02*
Y74423D01*
X104551Y74500D02*
X104628Y74423D01*
X106551Y62000D02*
Y62098D01*
X104705Y63945D02*
X106551Y62098D01*
X104628Y68112D02*
X104705Y68035D01*
Y63945D02*
Y68035D01*
X153051Y64000D02*
X154551Y62500D01*
X154829D01*
X158404Y66075D01*
X158547Y87000D02*
X159600Y88053D01*
X173417Y93000D02*
X173551D01*
X107128Y120077D02*
X113439D01*
X107051Y120000D02*
X107128Y120077D01*
X113439D02*
X113516Y120153D01*
X113811Y120449D01*
X116461D02*
X117215Y121202D01*
X113811Y120449D02*
X116461D01*
X117215Y121904D02*
X117583Y122272D01*
X117215Y121202D02*
Y121904D01*
X117583Y122272D02*
X119551D01*
X127838Y130287D02*
X131227D01*
X96675Y146966D02*
X96702Y146992D01*
X126644Y144968D02*
X130437D01*
X93054Y146966D02*
X93152D01*
X90451Y158484D02*
X90873Y158063D01*
X92047Y147972D02*
X93054Y146966D01*
X93152D02*
X96675D01*
X109551Y165500D02*
Y172000D01*
X126644Y143000D02*
Y144968D01*
X131014Y144490D02*
Y148160D01*
X131128Y144277D02*
X131227D01*
X131229Y144274D01*
X130437Y144968D02*
X131128Y144277D01*
X131014Y144490D02*
X131227Y144277D01*
X129709Y149944D02*
Y152160D01*
X130801Y148373D02*
Y148852D01*
Y148373D02*
X131014Y148160D01*
X129709Y149944D02*
X130801Y148852D01*
X150051Y97522D02*
Y100386D01*
X151597Y95976D02*
X152276D01*
X150051Y97522D02*
X151597Y95976D01*
X150110D02*
X151597D01*
X168732D02*
X170441D01*
X150051Y125583D02*
Y128446D01*
X151597Y129992D01*
X168732D02*
X169051Y130311D01*
X151597Y129992D02*
X152276D01*
X156835Y153430D02*
Y157120D01*
X121551Y24500D02*
Y27000D01*
Y27423D01*
Y30500D01*
X119051Y24500D02*
X121551Y27000D01*
X52587Y118185D02*
X56886D01*
X57571Y117500D01*
X60051D01*
X61012Y118461D01*
Y121539D01*
X57551Y125000D02*
X61012Y121539D01*
X54051Y125000D02*
X57551D01*
X69051Y12000D02*
X74551Y17500D01*
X69051Y10000D02*
Y12000D01*
X74551Y17500D02*
Y35327D01*
X79551Y10000D02*
Y12000D01*
X84551Y17000D01*
Y34500D01*
X95551Y17500D02*
Y31000D01*
X90051Y10000D02*
Y12000D01*
X95551Y17500D01*
X79051Y9500D02*
X79551Y10000D01*
X79051Y9500D02*
X80051Y8500D01*
X48051Y10000D02*
Y16000D01*
Y24500D02*
Y30500D01*
X74551Y35327D02*
X83953Y44728D01*
X95551Y31000D02*
X113051Y48500D01*
X84551Y34500D02*
X94108Y44057D01*
X90051Y24500D02*
Y31500D01*
X117575Y59024D02*
Y68976D01*
X90051Y31500D02*
X117575Y59024D01*
X94108Y44057D02*
Y56870D01*
X83953Y44728D02*
X84051D01*
X79551Y24500D02*
Y34000D01*
X90165Y44613D02*
Y56713D01*
X79551Y34000D02*
X90165Y44613D01*
X69051Y40728D02*
X81051Y52728D01*
X69051Y24500D02*
Y40728D01*
X19921Y46996D02*
X20051Y46866D01*
X139968Y151083D02*
X149182D01*
X135051Y156000D02*
X139968Y151083D01*
X131551Y156000D02*
X135051D01*
X149182Y151083D02*
X151835Y148430D01*
X81083Y128965D02*
Y134468D01*
X61096Y169174D02*
Y172412D01*
X58626Y174882D02*
X61096Y172412D01*
X57051Y174882D02*
X58626D01*
X61096Y163049D02*
Y169174D01*
X61061Y163014D02*
X61096Y163049D01*
X38409Y166248D02*
X47043Y174882D01*
X29551Y166248D02*
X38409D01*
X47043Y174882D02*
X57051D01*
X54671Y170620D02*
X56205D01*
X57552Y169272D01*
X54551Y170500D02*
X54671Y170620D01*
X57552Y169076D02*
Y169272D01*
X56061Y167584D02*
X57552Y169076D01*
X56061Y163014D02*
Y167584D01*
X43051Y180000D02*
X63551D01*
X38008Y174122D02*
X39682Y175795D01*
Y176630D02*
X43051Y180000D01*
X39682Y175795D02*
Y176630D01*
X29551Y174122D02*
X38008D01*
X52551Y133000D02*
X66957D01*
X50051Y135500D02*
Y142500D01*
Y135500D02*
X52551Y133000D01*
X69272Y128965D02*
Y135691D01*
X65025Y139937D02*
X69272Y135691D01*
X65025Y139937D02*
Y141660D01*
X67303Y128965D02*
Y132654D01*
X66957Y133000D02*
X67303Y132654D01*
X15051Y88283D02*
Y135000D01*
X29138Y92370D02*
X43051D01*
X15051Y88283D02*
X19165Y84169D01*
X20051D01*
X112051Y159000D02*
X148205D01*
X151298Y155907D01*
Y153967D02*
Y155907D01*
Y153967D02*
X151835Y153430D01*
X150682D02*
X151835D01*
X113516Y116217D02*
X121819D01*
X129776Y124173D02*
X137579D01*
X121819Y116217D02*
X129776Y124173D01*
X137579D02*
X161835Y148430D01*
X121135Y128965D02*
X123100Y127000D01*
X135406D02*
X156835Y148430D01*
X123100Y127000D02*
X135406D01*
X106673Y128965D02*
X121135D01*
X113081Y145030D02*
X114374D01*
X117728D02*
X119397D01*
X111551Y143500D02*
X113081Y145030D01*
X114374D02*
X114380Y145035D01*
X117723D01*
X117728Y145030D01*
X119397D02*
X119459Y144968D01*
X96339Y134021D02*
X96831Y133528D01*
Y128965D02*
Y133528D01*
X96339Y134021D02*
Y134500D01*
X126004Y138423D02*
X126028Y138400D01*
Y134524D02*
Y138400D01*
Y134524D02*
X126051Y134500D01*
X104628Y123077D02*
Y128888D01*
X104705Y128965D01*
X104551Y123000D02*
X104628Y123077D01*
X119065Y143000D02*
X119262Y142803D01*
X117531Y143000D02*
X119065D01*
X117070Y143461D02*
X117531Y143000D01*
X113509Y141938D02*
X115032Y143461D01*
X117070D01*
X113509Y134237D02*
Y141938D01*
X116067Y141016D02*
X119443D01*
X119459Y141032D01*
X116051Y141000D02*
X116067Y141016D01*
X105823Y140443D02*
X106101Y140722D01*
X108773D02*
X109051Y141000D01*
X106101Y140722D02*
X108773D01*
X98799Y136865D02*
X102279Y140345D01*
Y140443D01*
X98799Y128965D02*
Y136865D01*
X100768Y132838D02*
X102279Y134349D01*
X100768Y128965D02*
Y132838D01*
X102279Y134349D02*
Y136500D01*
X116590Y137440D02*
X117573Y138423D01*
X116111Y137440D02*
X116590D01*
X117573Y138423D02*
X120098D01*
X107792Y136500D02*
X108484Y137192D01*
X110244D01*
X110551Y137500D01*
X105823Y136500D02*
X107792D01*
X109867Y134138D02*
X109966Y134237D01*
X104574Y134138D02*
X109867D01*
X102835Y132398D02*
X104574Y134138D01*
X102835Y129063D02*
Y132398D01*
X102736Y128965D02*
X102835Y129063D01*
X54062Y54874D02*
Y58489D01*
X54051Y58500D02*
X54062Y58489D01*
Y54874D02*
X54073Y54863D01*
X67303Y63171D02*
Y68035D01*
X66051Y61919D02*
X67303Y63171D01*
X66051Y61500D02*
Y61919D01*
X120098Y137980D02*
Y138423D01*
X119262Y142803D02*
X119459Y143000D01*
X145904Y119589D02*
X146189Y119874D01*
X150051D01*
X70945Y128669D02*
X71240Y128965D01*
X70945Y125529D02*
Y128669D01*
X69551Y124136D02*
X70945Y125529D01*
X69551Y124000D02*
Y124136D01*
X20937Y84169D02*
X29138Y92370D01*
X48984Y96236D02*
X52291D01*
X52587Y96531D01*
X46551Y95772D02*
X48520D01*
X48984Y96236D01*
X46453Y95772D02*
X46551D01*
X43051Y92370D02*
X46453Y95772D01*
X30365Y104815D02*
X41348D01*
X29333Y105847D02*
X30365Y104815D01*
X45792Y100469D02*
X52587D01*
X41446Y104815D02*
X45792Y100469D01*
X41348Y104815D02*
X41446D01*
X20051Y84169D02*
X20937D01*
X20672Y99154D02*
X21066D01*
X24223Y95996D01*
X33198D01*
X34530Y97328D01*
X41579D01*
X41677D02*
X42850Y98500D01*
X41579Y97328D02*
X41677D01*
X42850Y98500D02*
X52587D01*
X46437Y73886D02*
X46551Y73772D01*
X43165Y73886D02*
X46437D01*
X43051Y77500D02*
X43230Y77321D01*
X46551D01*
X47026Y76846D02*
X52587D01*
X46551Y77321D02*
X47026Y76846D01*
X46650Y73772D02*
X47756Y74878D01*
X46551Y73772D02*
X46650D01*
X47756Y74878D02*
X52587D01*
X70032Y59291D02*
Y60796D01*
X69370Y61458D02*
X70032Y60796D01*
X69370Y61458D02*
Y67937D01*
X69272Y68035D02*
X69370Y67937D01*
X70032Y59291D02*
X70051Y59272D01*
X65236Y67937D02*
X65335Y68035D01*
X65236Y64327D02*
Y67937D01*
X62051Y61142D02*
X65236Y64327D01*
X62051Y59272D02*
Y61142D01*
X81083Y64531D02*
Y68035D01*
X79051Y62500D02*
X81083Y64531D01*
X82801Y67785D02*
X83051Y68035D01*
X82801Y62750D02*
Y67785D01*
X82551Y62500D02*
X82801Y62750D01*
X81150Y56272D02*
X85020Y60142D01*
Y68035D01*
X81051Y56272D02*
X81150D01*
X84280Y57523D02*
X88957Y62200D01*
Y68035D01*
X84280Y48500D02*
Y57523D01*
X92598Y64560D02*
Y67740D01*
X90165Y62126D02*
X92598Y64560D01*
Y67740D02*
X92894Y68035D01*
X90165Y60256D02*
Y62126D01*
X94108Y60413D02*
X94173D01*
X94862Y61102D01*
Y68035D01*
X116051Y70500D02*
X117575Y68976D01*
X107531Y101500D02*
X108562Y100469D01*
X107051Y101500D02*
X107531D01*
X108562Y100469D02*
X113516D01*
X107051Y98500D02*
X113516D01*
X130502Y92920D02*
X132047Y94466D01*
X102736Y68035D02*
X102872Y67900D01*
Y62136D02*
Y67900D01*
Y62136D02*
X103008Y62000D01*
X113516Y118185D02*
X113787Y118457D01*
X119280D01*
X119551Y118728D01*
X145717Y107060D02*
X145898D01*
X146902Y108063D02*
X150051D01*
X145898Y107060D02*
X146902Y108063D01*
D16*
X169051Y34000D02*
D03*
X124051Y182500D02*
D03*
Y172000D02*
D03*
X109551Y182500D02*
D03*
X154551Y34000D02*
D03*
Y55000D02*
D03*
Y44500D02*
D03*
Y65500D02*
D03*
X109551Y172000D02*
D03*
X169051Y55000D02*
D03*
Y65500D02*
D03*
Y44500D02*
D03*
D17*
X92823Y135000D02*
D03*
X46323Y109500D02*
D03*
X29323Y121500D02*
D03*
X61594Y135500D02*
D03*
X83791Y158484D02*
D03*
X89406Y143950D02*
D03*
X126166Y152160D02*
D03*
X50530Y54863D02*
D03*
X25780Y121500D02*
D03*
X44891Y105089D02*
D03*
X42779Y109500D02*
D03*
X58051Y135500D02*
D03*
X87335Y158484D02*
D03*
X106551Y62000D02*
D03*
X129709Y152160D02*
D03*
X41109Y114095D02*
D03*
X41282Y118039D02*
D03*
X41280Y122500D02*
D03*
X61096Y169174D02*
D03*
X102279Y136500D02*
D03*
X105823D02*
D03*
X102279Y140443D02*
D03*
X105823D02*
D03*
X109966Y134237D02*
D03*
X113509D02*
D03*
X54073Y54863D02*
D03*
X85863Y143950D02*
D03*
X44652Y114095D02*
D03*
X44825Y118039D02*
D03*
X44823Y122500D02*
D03*
X41348Y105089D02*
D03*
X89280Y135000D02*
D03*
X57552Y169174D02*
D03*
X103008Y62000D02*
D03*
D18*
X85051Y139272D02*
D03*
X62051Y55728D02*
D03*
X55551Y44272D02*
D03*
X70051Y55728D02*
D03*
X34376Y49196D02*
D03*
X30051Y49272D02*
D03*
X41551Y88728D02*
D03*
X55551Y40728D02*
D03*
X72551Y153728D02*
D03*
X76698Y153471D02*
D03*
X98051Y55728D02*
D03*
X93152Y150509D02*
D03*
X131227Y133830D02*
D03*
Y140734D02*
D03*
X30051Y45728D02*
D03*
X34376Y45653D02*
D03*
X41579Y100871D02*
D03*
X46551Y70228D02*
D03*
Y92228D02*
D03*
Y80865D02*
D03*
X72551Y157272D02*
D03*
X119551Y122272D02*
D03*
X93152Y146966D02*
D03*
X131227Y130287D02*
D03*
Y144277D02*
D03*
X122781Y100494D02*
D03*
X119051Y72228D02*
D03*
X126781Y100494D02*
D03*
X122994Y72164D02*
D03*
X76698Y149928D02*
D03*
X41579Y97328D02*
D03*
X94108Y60413D02*
D03*
Y56870D02*
D03*
X90165Y60256D02*
D03*
Y56713D02*
D03*
X122781Y104037D02*
D03*
X126781D02*
D03*
X98051Y59272D02*
D03*
X119051Y75772D02*
D03*
X122994Y75708D02*
D03*
X81051Y56272D02*
D03*
Y52728D02*
D03*
X62051Y59272D02*
D03*
X70051D02*
D03*
X84051Y48272D02*
D03*
Y44728D02*
D03*
X85051Y135728D02*
D03*
X119551Y118728D02*
D03*
X41551Y92272D02*
D03*
X46551Y95772D02*
D03*
Y73772D02*
D03*
Y77321D02*
D03*
D19*
X161835Y153430D02*
D03*
X156835D02*
D03*
X151835D02*
D03*
Y148430D02*
D03*
X156835D02*
D03*
X161835D02*
D03*
D20*
X46154Y49468D02*
D03*
Y47500D02*
D03*
Y45531D02*
D03*
X38949Y47500D02*
D03*
Y49468D02*
D03*
Y45531D02*
D03*
D21*
X45504Y52087D02*
D03*
X43535D02*
D03*
X41567Y42913D02*
D03*
X45504D02*
D03*
X43535D02*
D03*
X41567Y52087D02*
D03*
X39598D02*
D03*
Y42913D02*
D03*
D22*
X71240Y68035D02*
D03*
X63366D02*
D03*
X106673D02*
D03*
X59429Y128965D02*
D03*
Y68035D02*
D03*
X104705D02*
D03*
X61398Y128965D02*
D03*
Y68035D02*
D03*
X65335D02*
D03*
X67303D02*
D03*
X69272D02*
D03*
X73209D02*
D03*
X75177D02*
D03*
X77146D02*
D03*
X79114D02*
D03*
X81083D02*
D03*
X83051D02*
D03*
X85020D02*
D03*
X86988D02*
D03*
X88957D02*
D03*
X90925D02*
D03*
X92894D02*
D03*
X94862D02*
D03*
X96831D02*
D03*
X98799D02*
D03*
X100768D02*
D03*
X102736D02*
D03*
X106673Y128965D02*
D03*
X104705D02*
D03*
X102736D02*
D03*
X100768D02*
D03*
X98799D02*
D03*
X96831D02*
D03*
X94862D02*
D03*
X92894D02*
D03*
X90925D02*
D03*
X88957D02*
D03*
X86988D02*
D03*
X85020D02*
D03*
X83051D02*
D03*
X81083D02*
D03*
X79114D02*
D03*
X77146D02*
D03*
X75177D02*
D03*
X73209D02*
D03*
X71240D02*
D03*
X69272D02*
D03*
X67303D02*
D03*
X65335D02*
D03*
X63366D02*
D03*
D23*
X113516Y122122D02*
D03*
X52587Y112279D02*
D03*
Y102437D02*
D03*
Y84720D02*
D03*
Y82752D02*
D03*
X113516Y120153D02*
D03*
X52587Y104405D02*
D03*
Y86689D02*
D03*
Y120153D02*
D03*
Y118185D02*
D03*
Y122122D02*
D03*
Y116217D02*
D03*
Y114248D02*
D03*
Y110311D02*
D03*
Y108343D02*
D03*
Y106374D02*
D03*
Y100469D02*
D03*
Y98500D02*
D03*
Y96531D02*
D03*
Y94563D02*
D03*
Y92594D02*
D03*
Y90626D02*
D03*
Y88657D02*
D03*
Y80783D02*
D03*
Y78815D02*
D03*
Y76846D02*
D03*
Y74878D02*
D03*
X113516D02*
D03*
Y76846D02*
D03*
Y78815D02*
D03*
Y80783D02*
D03*
Y82752D02*
D03*
Y84720D02*
D03*
Y86689D02*
D03*
Y88657D02*
D03*
Y90626D02*
D03*
Y92594D02*
D03*
Y94563D02*
D03*
Y96531D02*
D03*
Y98500D02*
D03*
Y100469D02*
D03*
Y102437D02*
D03*
Y104405D02*
D03*
Y106374D02*
D03*
Y108343D02*
D03*
Y110311D02*
D03*
Y112279D02*
D03*
Y114248D02*
D03*
Y116217D02*
D03*
Y118185D02*
D03*
D24*
X30595Y130000D02*
D03*
X165594Y87000D02*
D03*
X23547Y130000D02*
D03*
X158547Y87000D02*
D03*
X29594Y39500D02*
D03*
X22547D02*
D03*
X139094Y101000D02*
D03*
X132047D02*
D03*
D25*
X61061Y141660D02*
D03*
X56061D02*
D03*
X51061D02*
D03*
X66061D02*
D03*
Y163014D02*
D03*
X61061D02*
D03*
X56061D02*
D03*
X51061D02*
D03*
D26*
X82551Y151969D02*
D03*
X83595Y153996D02*
D03*
X88575Y150000D02*
D03*
X83595Y147972D02*
D03*
X87532D02*
D03*
X85563Y153996D02*
D03*
X87532D02*
D03*
X82551Y150000D02*
D03*
X85563Y147972D02*
D03*
X88575Y151969D02*
D03*
D27*
X111051Y24500D02*
D03*
X58551Y10000D02*
D03*
X100551D02*
D03*
X121551Y24500D02*
D03*
X90051Y10000D02*
D03*
X79551Y24500D02*
D03*
X69051D02*
D03*
X48051D02*
D03*
X58551D02*
D03*
X90051D02*
D03*
X79551Y10000D02*
D03*
X69051D02*
D03*
X48051D02*
D03*
X100551Y24500D02*
D03*
X111051Y10000D02*
D03*
X121551D02*
D03*
D28*
X12551Y54043D02*
D03*
Y46996D02*
D03*
D29*
X126004Y147577D02*
D03*
X122067Y138423D02*
D03*
X124035D02*
D03*
X126004D02*
D03*
X120098D02*
D03*
X122067Y147577D02*
D03*
X124035D02*
D03*
X120098D02*
D03*
D30*
X126644Y141032D02*
D03*
Y143000D02*
D03*
Y144968D02*
D03*
X119459Y143000D02*
D03*
Y141032D02*
D03*
Y144968D02*
D03*
D31*
X20051Y55134D02*
D03*
Y46866D02*
D03*
D32*
Y67831D02*
D03*
Y84169D02*
D03*
D33*
X29333Y99154D02*
D03*
X20672Y105847D02*
D03*
X29333D02*
D03*
X20672Y99154D02*
D03*
D34*
X29551Y158374D02*
D03*
Y166248D02*
D03*
Y174122D02*
D03*
Y150500D02*
D03*
D35*
X49571Y177441D02*
D03*
X57051Y174882D02*
D03*
Y180000D02*
D03*
D36*
X138769Y92920D02*
D03*
X8417Y39500D02*
D03*
X16685D02*
D03*
X130502Y92920D02*
D03*
D37*
X128130Y113000D02*
D03*
X137972D02*
D03*
Y116740D02*
D03*
Y109260D02*
D03*
X128130Y116740D02*
D03*
Y109260D02*
D03*
D38*
X150051Y100386D02*
D03*
Y125583D02*
D03*
Y122433D02*
D03*
Y103535D02*
D03*
D39*
X20693Y183571D02*
D03*
Y141051D02*
D03*
D40*
X150051Y119874D02*
D03*
Y117905D02*
D03*
Y115937D02*
D03*
Y113969D02*
D03*
Y106095D02*
D03*
Y108063D02*
D03*
Y110031D02*
D03*
Y112000D02*
D03*
D63*
X161445Y39606D02*
D03*
X50551Y50500D02*
D03*
X59551Y49500D02*
D03*
X39598Y39047D02*
D03*
X34551Y53000D02*
D03*
X46051Y85000D02*
D03*
X51780Y40728D02*
D03*
X59051Y74500D02*
D03*
X87051Y57500D02*
D03*
X81051Y79000D02*
D03*
X59051Y83000D02*
D03*
Y102000D02*
D03*
X13051Y109000D02*
D03*
X59051Y111000D02*
D03*
X31654Y125578D02*
D03*
X62808Y115968D02*
D03*
X66051Y135500D02*
D03*
X86179Y118753D02*
D03*
X79563Y156984D02*
D03*
X94810Y74376D02*
D03*
X99551Y48500D02*
D03*
X105051Y52000D02*
D03*
X109551Y68000D02*
D03*
X166051Y79000D02*
D03*
X113551Y125000D02*
D03*
X93063Y142984D02*
D03*
X96649Y150682D02*
D03*
X122551Y152000D02*
D03*
X166051Y82000D02*
D03*
X131051Y137500D02*
D03*
X161835Y157284D02*
D03*
X12551Y58500D02*
D03*
X111051Y30500D02*
D03*
X148551Y34000D02*
D03*
Y55500D02*
D03*
X34051Y42500D02*
D03*
X20051Y63000D02*
D03*
X43339Y39021D02*
D03*
X42551Y80500D02*
D03*
X35551Y101000D02*
D03*
X42563Y66012D02*
D03*
X46551Y66000D02*
D03*
X87051Y54000D02*
D03*
X46686Y89077D02*
D03*
X62551Y74500D02*
D03*
X76051Y79000D02*
D03*
X59051Y86500D02*
D03*
X37551Y108500D02*
D03*
X20551Y110500D02*
D03*
X5551Y119000D02*
D03*
X16551Y157500D02*
D03*
X8389Y162662D02*
D03*
X23551Y125500D02*
D03*
X54051Y135500D02*
D03*
X44051Y177000D02*
D03*
X59051Y105500D02*
D03*
X66051Y118500D02*
D03*
X79063Y140984D02*
D03*
X79648Y146561D02*
D03*
X71551Y161000D02*
D03*
X90873Y158063D02*
D03*
X103310Y49729D02*
D03*
X104551Y74500D02*
D03*
X145551Y68500D02*
D03*
X151051Y78000D02*
D03*
X160051Y93000D02*
D03*
X173551D02*
D03*
X96051Y119000D02*
D03*
X107051Y120000D02*
D03*
X127838Y130287D02*
D03*
X96702Y146992D02*
D03*
X109551Y165500D02*
D03*
X130801Y148373D02*
D03*
X152276Y134276D02*
D03*
X169051Y134500D02*
D03*
X156835Y157120D02*
D03*
X121551Y30500D02*
D03*
X148551Y45000D02*
D03*
X8417Y35134D02*
D03*
X88551Y34000D02*
D03*
X107551Y39000D02*
D03*
X111551Y43500D02*
D03*
X12051Y131000D02*
D03*
X13051Y115500D02*
D03*
X76500Y42000D02*
D03*
X112551Y151000D02*
D03*
X58551Y120000D02*
D03*
X37998Y114019D02*
D03*
X54051Y125000D02*
D03*
X18551Y116500D02*
D03*
X27551D02*
D03*
X48051Y16000D02*
D03*
Y30500D02*
D03*
X113051Y48500D02*
D03*
X162157Y49394D02*
D03*
X131551Y156000D02*
D03*
X81083Y134468D02*
D03*
X54551Y170500D02*
D03*
X63551Y180000D02*
D03*
X15051Y135000D02*
D03*
X112051Y159000D02*
D03*
X111551Y143500D02*
D03*
X96339Y134500D02*
D03*
X126051D02*
D03*
X104551Y123000D02*
D03*
X116051Y141000D02*
D03*
X109051D02*
D03*
X116111Y137440D02*
D03*
X110551Y137500D02*
D03*
X54051Y58500D02*
D03*
X66051Y61500D02*
D03*
X145904Y119589D02*
D03*
X146051Y116500D02*
D03*
X145947Y110189D02*
D03*
X76563Y146484D02*
D03*
X76063Y141484D02*
D03*
X69551Y124000D02*
D03*
X43051Y74000D02*
D03*
Y77500D02*
D03*
X79051Y62500D02*
D03*
X82551D02*
D03*
X116051Y70500D02*
D03*
X107051Y101500D02*
D03*
Y98500D02*
D03*
X101551Y76000D02*
D03*
X103051Y78500D02*
D03*
Y58500D02*
D03*
X59051Y90500D02*
D03*
X98051Y62500D02*
D03*
X59051Y94000D02*
D03*
X145717Y107060D02*
D03*
D65*
X154244Y124362D02*
D03*
Y101606D02*
D03*
D68*
X124051Y172000D02*
X124307Y171745D01*
Y165372D02*
Y171745D01*
X166051Y82000D02*
Y86543D01*
X123051Y113000D02*
X128130D01*
X29594Y38437D02*
Y39500D01*
Y38437D02*
X30106Y37925D01*
X33028Y36500D02*
X33051D01*
X35551Y34000D02*
X57051D01*
X58551Y24500D02*
Y32500D01*
X57051Y34000D02*
X58551Y32500D01*
X107195Y33143D02*
X107338Y33000D01*
X107115Y33223D02*
X107195Y33143D01*
X107551Y33000D02*
X107551D01*
X107338D02*
X107551D01*
X105415Y34349D02*
X105989D01*
X105202D02*
X105415D01*
X106435Y33330D01*
X105264Y34500D02*
X105415Y34349D01*
X107008Y33330D02*
X107221D01*
X106435D02*
X107008D01*
X107115Y33223D01*
X105989Y34349D02*
X107008Y33330D01*
X105051Y34500D02*
X105202Y34349D01*
X105051Y31000D02*
X107195Y33143D01*
X100551Y26500D02*
X105051Y31000D01*
X106435Y33330D02*
X106541Y33223D01*
X105051Y31000D02*
Y34500D01*
X107221Y33330D02*
X107551Y33000D01*
X105051Y34500D02*
X105264D01*
X106541Y33223D02*
X107115D01*
X33551Y34000D02*
X35551D01*
X33202Y36349D02*
X35551Y34000D01*
X31202Y34438D02*
X33051Y36287D01*
X31051Y34000D02*
X31202Y34151D01*
X33051Y36287D02*
Y36500D01*
X31202Y34151D02*
Y34438D01*
X31051Y34000D02*
X33551D01*
X33051Y36500D02*
X33202Y36349D01*
Y34349D02*
Y36349D01*
Y34349D02*
X33551Y34000D01*
X100551Y24500D02*
Y26500D01*
X9154Y140666D02*
X18003Y149516D01*
X9154Y101185D02*
Y140666D01*
X10338Y100000D02*
X10551D01*
X6551D02*
X10338D01*
X6551D02*
X7736Y101185D01*
X9154D02*
X10338Y100000D01*
X7736Y101185D02*
X9154D01*
X28567Y149516D02*
X30535Y151484D01*
X18003Y149516D02*
X28567D01*
X37179Y151484D02*
X39394D01*
X35695Y150000D02*
X37179Y151484D01*
X30535D02*
X32750D01*
X34234Y150000D01*
X38409Y150500D02*
X39394Y151484D01*
X144697Y122433D02*
Y122641D01*
X143051Y124287D02*
X144697Y122641D01*
Y122433D02*
X150051D01*
X143264Y121000D02*
X144697Y122433D01*
X143051Y121000D02*
Y124287D01*
Y124500D01*
Y121000D02*
X143264D01*
X144729Y103535D02*
X150051D01*
X143264Y105000D02*
X144729Y103535D01*
Y103391D02*
Y103535D01*
X143051Y101713D02*
X144729Y103391D01*
X143051Y105000D02*
X143264D01*
X143051Y101713D02*
Y105000D01*
Y101500D02*
Y101713D01*
X142901Y101349D02*
X143051Y101500D01*
X137972Y113000D02*
X143051D01*
X139094Y101000D02*
X139444Y101349D01*
D69*
X148551Y34000D02*
X152288D01*
X148551Y55500D02*
X149468D01*
X149968Y55000D01*
X145551Y68500D02*
X145871D01*
X146780Y67591D01*
X152642D01*
X153051Y68000D01*
X157075Y95976D02*
X160051Y93000D01*
X170441Y95976D02*
X173417Y93000D01*
X152276Y95976D02*
X157075D01*
X152276Y129992D02*
Y134276D01*
X169051Y130311D02*
Y134500D01*
X148551Y45000D02*
X154051D01*
X154551Y44500D01*
D70*
X58474Y120077D02*
X58551Y120000D01*
X52587Y120153D02*
X52663Y120077D01*
X58474D01*
X41033Y114019D02*
X41109Y114095D01*
X37998Y114019D02*
X41033D01*
X18551Y116500D02*
X21551Y113500D01*
X32551D02*
X37090Y118039D01*
X21551Y113500D02*
X32551D01*
X37090Y118039D02*
X41282D01*
X41280Y122402D02*
Y122500D01*
X40561Y121683D02*
X41280Y122402D01*
X31551Y116500D02*
X36734Y121683D01*
X40561D01*
X27551Y116500D02*
X31551D01*
X44825Y117940D02*
Y118039D01*
X46549Y116217D02*
X52587D01*
X44825Y117940D02*
X46549Y116217D01*
X44823Y122500D02*
X45201Y122122D01*
X52587D01*
X44652Y114095D02*
X44805Y114248D01*
X52587D01*
X108096Y74878D02*
X113516D01*
X101551Y76000D02*
X102047D01*
X102493Y76447D02*
X106527D01*
X108096Y74878D01*
X102047Y76000D02*
X102493Y76447D01*
X108042Y78500D02*
X109695Y76846D01*
X103051Y78500D02*
X108042D01*
X52587Y90626D02*
X52650Y90563D01*
X58988D01*
X59051Y90500D01*
X109695Y76846D02*
X113516D01*
X57646Y92594D02*
X59051Y94000D01*
X52587Y92594D02*
X57646D01*
D71*
X149697Y113614D02*
X150051Y113969D01*
X147845Y113614D02*
X149697D01*
X146593Y113531D02*
X146608Y113516D01*
X147747D01*
X146105Y110031D02*
X150051D01*
X147747Y113516D02*
X147845Y113614D01*
X143246Y115795D02*
X143950Y116500D01*
X146051D01*
X137972Y116740D02*
X138917Y115795D01*
X143246D01*
X145442Y113531D02*
X146593D01*
X145947Y110189D02*
X146105Y110031D01*
X145165Y113808D02*
Y113876D01*
X143246Y115795D02*
X145165Y113876D01*
Y113808D02*
X145442Y113531D01*
X153051Y113073D02*
Y114864D01*
X152332Y115583D02*
X153051Y114864D01*
X152366Y112642D02*
X152620D01*
X150051Y115937D02*
X150406Y115583D01*
X152332D01*
X152620Y112642D02*
X153051Y113073D01*
X151724Y112000D02*
X152366Y112642D01*
X149697Y112354D02*
X150051Y112000D01*
X151724D01*
X147747Y112453D02*
X147845Y112354D01*
X146168Y112453D02*
X147747D01*
X147845Y112354D02*
X149697D01*
X145442Y112469D02*
X146152D01*
X145165Y112192D02*
X145442Y112469D01*
X146152D02*
X146168Y112453D01*
X145165Y112124D02*
Y112192D01*
X143246Y110205D02*
X145165Y112124D01*
X138917Y110205D02*
X143246D01*
X137972Y109260D02*
X138917Y110205D01*
X113870Y113894D02*
X116361D01*
X116460Y113795D02*
X118337D01*
X113516Y114248D02*
X113870Y113894D01*
X118337Y113795D02*
X118601Y113531D01*
X120660D01*
X120937Y113808D01*
Y113876D02*
X122857Y115795D01*
X120937Y113808D02*
Y113876D01*
X127185Y115795D02*
X128130Y116740D01*
X122857Y115795D02*
X127185D01*
X113516Y112279D02*
X113870Y112634D01*
X116460Y112732D02*
X117897D01*
X116361Y112634D02*
X116460Y112732D01*
X113870Y112634D02*
X116361D01*
X118160Y112469D02*
X120660D01*
X122857Y110205D02*
X127185D01*
X120937Y112124D02*
X122857Y110205D01*
X127185D02*
X128130Y109260D01*
X116361Y113894D02*
X116460Y113795D01*
X120937Y112124D02*
Y112192D01*
X120660Y112469D02*
X120937Y112192D01*
X117897Y112732D02*
X118160Y112469D01*
X126949Y116740D02*
X128130D01*
D72*
X166835Y150930D02*
D03*
X146835Y154930D02*
D03*
Y146930D02*
D03*
D73*
X152276Y95976D02*
D03*
Y129992D02*
D03*
D74*
X168732Y95976D02*
D03*
Y129992D02*
D03*
D75*
X46635Y162662D02*
D03*
X15139D02*
D03*
D76*
X167323Y13850D02*
D03*
X85551Y176000D02*
D03*
X13780Y13780D02*
D03*
X166772Y176221D02*
D03*
D77*
X124307Y165372D02*
D03*
X110551Y64000D02*
D03*
X113551D02*
D03*
X172051Y72500D02*
D03*
X158551Y73000D02*
D03*
X166551D02*
D03*
X123051Y113000D02*
D03*
X132051Y122000D02*
D03*
X136051D02*
D03*
Y174000D02*
D03*
Y178500D02*
D03*
X58551Y15500D02*
D03*
X100551D02*
D03*
X105051Y34500D02*
D03*
X107551Y33000D02*
D03*
X33051Y36500D02*
D03*
X31051Y34000D02*
D03*
X6551Y100000D02*
D03*
X10551D02*
D03*
X143051Y113000D02*
D03*
Y101500D02*
D03*
Y121000D02*
D03*
Y105000D02*
D03*
Y124500D02*
D03*
D78*
X0Y0D02*
X181102D01*
X0Y190000D02*
X181102D01*
Y0D02*
Y190000D01*
X0Y0D02*
Y190000D01*
M02*
