M48
;Layer_Color=9474304
;FILE_FORMAT=2:5
INCH,TZ
;TYPE=PLATED
T01F00S00C0.01181
T02F00S00C0.01575
T04F00S00C0.04201
T05F00S00C0.11811
%
T01
X474394Y231106
X475106Y240894
X479000Y270500
Y273500
X473000Y284500
X486500
X464000Y269500
X458500Y260000
X461500Y247000
Y236500
Y225500
X434500Y222000
X424000
X420500Y230500
X424500Y235000
X426000Y240000
X416259Y241229
X418000Y243500
X416000Y250000
X411000Y254000
X407759Y265876
X414500Y267500
X416000Y270000
X417500Y266000
X422500Y259500
X429000Y262000
X420000Y290000
Y293000
Y311500
X409000Y310500
X399128Y310252
X379000Y310000
X375757Y307468
X371500Y311500
X372000Y302500
Y297000
Y293500
Y285500
Y282000
Y278000
Y274500
Y266000
X375500
X379000Y253000
X392000Y254000
X395500
X400000Y249000
Y245500
X412500Y240000
X401500Y225500
X389449Y233500
X372500Y241000
X363500Y242000
X364728Y232228
X356287Y230521
X352547Y230547
X347000Y234000
X347500Y244500
X355512Y257512
X359500Y257500
X356000Y265500
Y269000
X355500Y272000
X359000Y276500
X359634Y280577
X348500Y292500
X350500Y300000
X350947Y305519
X340500Y308000
X331500
X326000Y307000
Y300500
X333500Y302000
X318500Y310500
X325500Y250000
X333000Y254500
X367000Y250000
X361000Y222000
Y207500
X321366Y226634
X389000Y270500
X394000
X458665Y298560
X458895Y301690
X459000Y308000
X458853Y311089
X465224Y325776
X444000Y329000
X439000Y326000
X440787Y321787
X429060Y328940
X429000Y332500
X424500Y335000
X422000Y332500
X423500Y329000
X426500Y316500
X417500Y314500
X409287Y326000
X406012Y334484
X409651Y338492
X409597Y342182
X403822Y349563
X392512Y348484
X392597Y338060
X389512Y337984
X389012Y332984
X392012Y332484
X394032Y325969
X379000Y327000
X367000
Y316500
X382500Y315500
X384500Y352500
X367500Y362000
X357000Y368500
X376500Y371500
X422500Y357000
X425000Y350500
X425500Y342500
X435500Y343500
X443750Y339873
X444500Y347500
X329500Y349000
X321338Y354162
X328000Y326500
X325000Y322500
X336500Y317000
X344603Y317078
X482000Y326000
X474784Y348784
X469784Y348620
T02
X471500Y264500
X479500
X485000Y264000
X456000Y293000
Y296500
Y304500
X436000
X426500Y255500
X423500
X420500Y224500
X418000Y226000
X413500Y207000
X371500
X344000Y225500
X346000Y228000
X323500Y291500
X319500
X445000Y313500
X449000
X456000Y312500
Y316000
X449000Y365500
Y370000
X437255Y356872
T04
X459784Y338430
Y346430
X479784Y342430
T05
X480272Y205350
X326728Y205279
X398500Y367500
X479720Y367721
M30
