G04*
G04 #@! TF.GenerationSoftware,Altium Limited,Altium Designer,26.2.0 (7)*
G04*
G04 Layer_Color=16711935*
%FSLAX25Y25*%
%MOIN*%
G70*
G04*
G04 #@! TF.SameCoordinates,17A3E6CB-15BD-4058-B425-0E0A4CEE79B2*
G04*
G04*
G04 #@! TF.FilePolarity,Negative*
G04*
G01*
G75*
G04:AMPARAMS|DCode=42|XSize=25.59mil|YSize=23.62mil|CornerRadius=4.43mil|HoleSize=0mil|Usage=FLASHONLY|Rotation=90.000|XOffset=0mil|YOffset=0mil|HoleType=Round|Shape=RoundedRectangle|*
%AMROUNDEDRECTD42*
21,1,0.02559,0.01476,0,0,90.0*
21,1,0.01673,0.02362,0,0,90.0*
1,1,0.00886,0.00738,0.00837*
1,1,0.00886,0.00738,-0.00837*
1,1,0.00886,-0.00738,-0.00837*
1,1,0.00886,-0.00738,0.00837*
%
%ADD42ROUNDEDRECTD42*%
G04:AMPARAMS|DCode=43|XSize=25.59mil|YSize=23.62mil|CornerRadius=4.43mil|HoleSize=0mil|Usage=FLASHONLY|Rotation=180.000|XOffset=0mil|YOffset=0mil|HoleType=Round|Shape=RoundedRectangle|*
%AMROUNDEDRECTD43*
21,1,0.02559,0.01476,0,0,180.0*
21,1,0.01673,0.02362,0,0,180.0*
1,1,0.00886,-0.00837,0.00738*
1,1,0.00886,0.00837,0.00738*
1,1,0.00886,0.00837,-0.00738*
1,1,0.00886,-0.00837,-0.00738*
%
%ADD43ROUNDEDRECTD43*%
%ADD54R,0.05118X0.05118*%
%ADD58R,0.05118X0.05118*%
%ADD60C,0.06496*%
%ADD61O,0.09071X0.04740*%
%ADD62O,0.07890X0.04740*%
%ADD63C,0.02362*%
%ADD64C,0.24016*%
%ADD65C,0.02559*%
%ADD66C,0.02756*%
%ADD67C,0.03150*%
%ADD99R,0.05512X0.14567*%
G04:AMPARAMS|DCode=100|XSize=33.86mil|YSize=29.94mil|CornerRadius=5.22mil|HoleSize=0mil|Usage=FLASHONLY|Rotation=90.000|XOffset=0mil|YOffset=0mil|HoleType=Round|Shape=RoundedRectangle|*
%AMROUNDEDRECTD100*
21,1,0.03386,0.01950,0,0,90.0*
21,1,0.02342,0.02994,0,0,90.0*
1,1,0.01044,0.00975,0.01171*
1,1,0.01044,0.00975,-0.01171*
1,1,0.01044,-0.00975,-0.01171*
1,1,0.01044,-0.00975,0.01171*
%
%ADD100ROUNDEDRECTD100*%
%ADD101R,0.02756X0.01772*%
%ADD102R,0.02953X0.06890*%
%ADD103R,0.03150X0.05512*%
G04:AMPARAMS|DCode=104|XSize=18.9mil|YSize=17.72mil|CornerRadius=2.59mil|HoleSize=0mil|Usage=FLASHONLY|Rotation=180.000|XOffset=0mil|YOffset=0mil|HoleType=Round|Shape=RoundedRectangle|*
%AMROUNDEDRECTD104*
21,1,0.01890,0.01254,0,0,180.0*
21,1,0.01372,0.01772,0,0,180.0*
1,1,0.00518,-0.00686,0.00627*
1,1,0.00518,0.00686,0.00627*
1,1,0.00518,0.00686,-0.00627*
1,1,0.00518,-0.00686,-0.00627*
%
%ADD104ROUNDEDRECTD104*%
%ADD105R,0.05118X0.05906*%
%ADD106R,0.05118X0.08268*%
%ADD107R,0.04724X0.07087*%
%ADD108R,0.05512X0.05512*%
D42*
X151831Y86431D02*
D03*
X39795Y42913D02*
D03*
X58780Y66057D02*
D03*
Y70000D02*
D03*
X62525Y112262D02*
D03*
X89859Y61481D02*
D03*
X89812Y65424D02*
D03*
X154279Y39500D02*
D03*
X154780Y46500D02*
D03*
X106823Y55000D02*
D03*
Y68000D02*
D03*
X89332Y119077D02*
D03*
X43339Y42913D02*
D03*
X46323Y70500D02*
D03*
X62323Y66057D02*
D03*
Y70000D02*
D03*
X86268Y65424D02*
D03*
X86316Y61481D02*
D03*
X66068Y112262D02*
D03*
X77193Y130037D02*
D03*
X103279Y68000D02*
D03*
X155375Y86431D02*
D03*
X92875Y119077D02*
D03*
X153323Y119000D02*
D03*
X158323Y46500D02*
D03*
X157823Y39500D02*
D03*
X149779Y119000D02*
D03*
X73650Y130037D02*
D03*
X42779Y70500D02*
D03*
X107298Y94236D02*
D03*
X110841D02*
D03*
X103279Y55000D02*
D03*
D43*
X50051Y83228D02*
D03*
X54051D02*
D03*
X53551Y101728D02*
D03*
X9975Y108915D02*
D03*
X41101D02*
D03*
X90017Y57538D02*
D03*
X91113Y74576D02*
D03*
X113516Y122122D02*
D03*
X107051Y147772D02*
D03*
X169551Y82000D02*
D03*
X39551Y81272D02*
D03*
X90017Y53994D02*
D03*
X50051Y86772D02*
D03*
X54051D02*
D03*
X53551Y105272D02*
D03*
X169551Y85543D02*
D03*
X113516Y118579D02*
D03*
X150051Y111000D02*
D03*
X41101Y112459D02*
D03*
X9975D02*
D03*
X107051Y144228D02*
D03*
X35608Y81272D02*
D03*
X38836Y70548D02*
D03*
Y67005D02*
D03*
X35608Y77728D02*
D03*
X39551D02*
D03*
X82051Y58772D02*
D03*
Y55228D02*
D03*
X77551Y58772D02*
D03*
Y55228D02*
D03*
X103551Y94772D02*
D03*
Y91228D02*
D03*
X91113Y78120D02*
D03*
X86070Y74576D02*
D03*
X76169Y118880D02*
D03*
Y122424D02*
D03*
X86070Y78120D02*
D03*
X80975Y118880D02*
D03*
Y122424D02*
D03*
X150051Y107457D02*
D03*
D54*
X129551Y165488D02*
D03*
Y176512D02*
D03*
X134051Y115024D02*
D03*
Y104000D02*
D03*
D58*
X42563Y60500D02*
D03*
X112039Y59000D02*
D03*
X31539Y60500D02*
D03*
X123063Y59000D02*
D03*
D60*
X166835Y150930D02*
D03*
X146835Y154930D02*
D03*
Y146930D02*
D03*
D61*
X152276Y95976D02*
D03*
Y129992D02*
D03*
D62*
X168732Y95976D02*
D03*
Y129992D02*
D03*
D63*
X46635Y162662D02*
D03*
X15139D02*
D03*
D64*
X167323Y13850D02*
D03*
X85551Y176000D02*
D03*
X13780Y13780D02*
D03*
X166772Y176221D02*
D03*
D65*
X154244Y124362D02*
D03*
Y101606D02*
D03*
D66*
X161445Y39606D02*
D03*
X50551Y50500D02*
D03*
X59551Y49500D02*
D03*
X39598Y39047D02*
D03*
X34551Y53000D02*
D03*
X46051Y85000D02*
D03*
X51780Y40728D02*
D03*
X59051Y74500D02*
D03*
X87051Y57500D02*
D03*
X81051Y79000D02*
D03*
X59051Y83000D02*
D03*
Y102000D02*
D03*
X13051Y109000D02*
D03*
X59051Y111000D02*
D03*
X31654Y125578D02*
D03*
X62808Y115968D02*
D03*
X66051Y135500D02*
D03*
X86179Y118753D02*
D03*
X79563Y156984D02*
D03*
X94810Y74376D02*
D03*
X99551Y48500D02*
D03*
X105051Y52000D02*
D03*
X109551Y68000D02*
D03*
X166051Y79000D02*
D03*
X113551Y125000D02*
D03*
X93063Y142984D02*
D03*
X96649Y150682D02*
D03*
X122551Y152000D02*
D03*
X166051Y82000D02*
D03*
X131051Y137500D02*
D03*
X161835Y157284D02*
D03*
X12551Y58500D02*
D03*
X111051Y30500D02*
D03*
X148551Y34000D02*
D03*
Y55500D02*
D03*
X34051Y42500D02*
D03*
X20051Y63000D02*
D03*
X43339Y39021D02*
D03*
X42551Y80500D02*
D03*
X35551Y101000D02*
D03*
X42563Y66012D02*
D03*
X46551Y66000D02*
D03*
X87051Y54000D02*
D03*
X46686Y89077D02*
D03*
X62551Y74500D02*
D03*
X76051Y79000D02*
D03*
X59051Y86500D02*
D03*
X37551Y108500D02*
D03*
X20551Y110500D02*
D03*
X5551Y119000D02*
D03*
X16551Y157500D02*
D03*
X8389Y162662D02*
D03*
X23551Y125500D02*
D03*
X54051Y135500D02*
D03*
X44051Y177000D02*
D03*
X59051Y105500D02*
D03*
X66051Y118500D02*
D03*
X79063Y140984D02*
D03*
X79648Y146561D02*
D03*
X71551Y161000D02*
D03*
X90873Y158063D02*
D03*
X103310Y49729D02*
D03*
X104551Y74500D02*
D03*
X145551Y68500D02*
D03*
X151051Y78000D02*
D03*
X160051Y93000D02*
D03*
X173551D02*
D03*
X96051Y119000D02*
D03*
X107051Y120000D02*
D03*
X127838Y130287D02*
D03*
X96702Y146992D02*
D03*
X109551Y165500D02*
D03*
X130801Y148373D02*
D03*
X152276Y134276D02*
D03*
X169051Y134500D02*
D03*
X156835Y157120D02*
D03*
X121551Y30500D02*
D03*
X148551Y45000D02*
D03*
X8417Y35134D02*
D03*
X88551Y34000D02*
D03*
X107551Y39000D02*
D03*
X111551Y43500D02*
D03*
X12051Y131000D02*
D03*
X13051Y115500D02*
D03*
X76500Y42000D02*
D03*
X112551Y151000D02*
D03*
X58551Y120000D02*
D03*
X37998Y114019D02*
D03*
X54051Y125000D02*
D03*
X18551Y116500D02*
D03*
X27551D02*
D03*
X48051Y16000D02*
D03*
Y30500D02*
D03*
X113051Y48500D02*
D03*
X162157Y49394D02*
D03*
X131551Y156000D02*
D03*
X81083Y134468D02*
D03*
X54551Y170500D02*
D03*
X63551Y180000D02*
D03*
X15051Y135000D02*
D03*
X112051Y159000D02*
D03*
X111551Y143500D02*
D03*
X96339Y134500D02*
D03*
X126051D02*
D03*
X104551Y123000D02*
D03*
X116051Y141000D02*
D03*
X109051D02*
D03*
X116111Y137440D02*
D03*
X110551Y137500D02*
D03*
X54051Y58500D02*
D03*
X66051Y61500D02*
D03*
X145904Y119589D02*
D03*
X146051Y116500D02*
D03*
X145947Y110189D02*
D03*
X76563Y146484D02*
D03*
X76063Y141484D02*
D03*
X69551Y124000D02*
D03*
X43051Y74000D02*
D03*
Y77500D02*
D03*
X79051Y62500D02*
D03*
X82551D02*
D03*
X116051Y70500D02*
D03*
X107051Y101500D02*
D03*
Y98500D02*
D03*
X101551Y76000D02*
D03*
X103051Y78500D02*
D03*
Y58500D02*
D03*
X59051Y90500D02*
D03*
X98051Y62500D02*
D03*
X59051Y94000D02*
D03*
X145717Y107060D02*
D03*
D67*
X124307Y165372D02*
D03*
X110551Y64000D02*
D03*
X113551D02*
D03*
X172051Y72500D02*
D03*
X158551Y73000D02*
D03*
X166551D02*
D03*
X123051Y113000D02*
D03*
X132051Y122000D02*
D03*
X136051D02*
D03*
Y174000D02*
D03*
Y178500D02*
D03*
X58551Y15500D02*
D03*
X100551D02*
D03*
X105051Y34500D02*
D03*
X107551Y33000D02*
D03*
X33051Y36500D02*
D03*
X31051Y34000D02*
D03*
X6551Y100000D02*
D03*
X10551D02*
D03*
X143051Y113000D02*
D03*
Y101500D02*
D03*
Y121000D02*
D03*
Y105000D02*
D03*
Y124500D02*
D03*
D99*
X146059Y78000D02*
D03*
D100*
X151183Y90998D02*
D03*
X156695D02*
D03*
D101*
X154051Y80618D02*
D03*
Y75500D02*
D03*
X162319Y78059D02*
D03*
Y80618D02*
D03*
X154051Y78059D02*
D03*
X162319Y75500D02*
D03*
D102*
X81051Y84327D02*
D03*
X86051Y112673D02*
D03*
X91051D02*
D03*
X76051Y84327D02*
D03*
X91051D02*
D03*
X86051D02*
D03*
X76051Y112673D02*
D03*
X81051D02*
D03*
D103*
X31714Y121126D02*
D03*
X23053D02*
D03*
X10061D02*
D03*
X14391D02*
D03*
X18722D02*
D03*
X27384D02*
D03*
X36045D02*
D03*
X40376D02*
D03*
X44706D02*
D03*
D104*
X94039Y57468D02*
D03*
X98035Y52488D02*
D03*
X96067Y58512D02*
D03*
X94039Y53531D02*
D03*
X100063D02*
D03*
X94039Y55500D02*
D03*
X100063Y57468D02*
D03*
Y55500D02*
D03*
X98035Y58512D02*
D03*
X96067Y52488D02*
D03*
D105*
X5730Y124473D02*
D03*
X63525D02*
D03*
D106*
X4076Y162662D02*
D03*
X65179D02*
D03*
D107*
X158185Y78059D02*
D03*
D108*
X122043Y87055D02*
D03*
Y68945D02*
D03*
Y78000D02*
D03*
M02*
