G04*
G04 #@! TF.GenerationSoftware,Altium Limited,Altium Designer,26.2.0 (7)*
G04*
G04 Layer_Color=65535*
%FSLAX25Y25*%
%MOIN*%
G70*
G04*
G04 #@! TF.SameCoordinates,17A3E6CB-15BD-4058-B425-0E0A4CEE79B2*
G04*
G04*
G04 #@! TF.FilePolarity,Positive*
G04*
G01*
G75*
%ADD10C,0.00787*%
%ADD11C,0.00984*%
%ADD12C,0.00591*%
%ADD13C,0.00394*%
%ADD14C,0.00500*%
%ADD15C,0.01575*%
D10*
X46095Y55374D02*
G03*
X46095Y55374I-394J0D01*
G01*
X145504Y100386D02*
G03*
X145504Y100386I-394J0D01*
G01*
X80051Y152165D02*
G03*
X80051Y152165I-394J0D01*
G01*
X35239Y106437D02*
G03*
X34451Y106437I-394J0D01*
G01*
D02*
G03*
X35239Y106437I394J0D01*
G01*
X56870Y124681D02*
X109232D01*
Y72319D02*
Y124681D01*
X56870Y72319D02*
X109232D01*
X56870D02*
Y124681D01*
X12350Y41961D02*
X12752D01*
X12350Y37039D02*
X12752D01*
X22512Y50799D02*
Y51201D01*
X17591Y50799D02*
Y51201D01*
X48915Y146038D02*
Y158636D01*
X68207D01*
Y146038D02*
Y158636D01*
X48915Y146038D02*
X68207D01*
X48404Y138656D02*
Y144660D01*
X54689Y173110D02*
X59413D01*
X10850Y138787D02*
X13311D01*
X28075D02*
X30535D01*
Y177567D02*
Y185835D01*
Y138787D02*
Y147055D01*
X10850Y185835D02*
X13311D01*
X28075D02*
X30535D01*
X10850Y138787D02*
Y185835D01*
X134435Y95381D02*
X134836D01*
X134435Y90459D02*
X134836D01*
X131870Y118756D02*
X134232D01*
Y107244D02*
Y118756D01*
X131870Y107244D02*
X134232D01*
X131870D02*
Y118756D01*
X125768Y119299D02*
X130492D01*
X25760Y68126D02*
Y83874D01*
X14343Y68126D02*
Y83874D01*
D11*
X51161Y125075D02*
G03*
X51161Y125075I-492J0D01*
G01*
X43035Y150500D02*
G03*
X43035Y150500I-492J0D01*
G01*
D12*
X119803Y135126D02*
G03*
X119803Y135126I-295J0D01*
G01*
X24870Y41665D02*
X27232D01*
X24870Y37335D02*
X27232D01*
X160870Y89165D02*
X163232D01*
X160870Y84835D02*
X163232D01*
X10386Y49319D02*
Y51681D01*
X14717Y49319D02*
Y51681D01*
X104051Y135713D02*
Y137287D01*
Y139656D02*
Y141231D01*
X111737Y133449D02*
Y135024D01*
X52302Y54075D02*
Y55650D01*
X71764Y155500D02*
X73339D01*
X85563Y157697D02*
Y159272D01*
X87634Y143163D02*
Y144738D01*
X75911Y151700D02*
X77486D01*
X92365Y148737D02*
X93940D01*
X42881Y113308D02*
Y114883D01*
X43053Y117251D02*
Y118826D01*
X43051Y121713D02*
Y123287D01*
X44551Y108713D02*
Y110287D01*
X40792Y99099D02*
X42366D01*
X93321Y58641D02*
X94895D01*
X89377Y58485D02*
X90952D01*
X97264Y57500D02*
X98839D01*
X118264Y74000D02*
X119839D01*
X122207Y73936D02*
X123782D01*
X43119Y104302D02*
Y105876D01*
X25870Y127835D02*
X28232D01*
X25870Y132165D02*
X28232D01*
X130439Y132058D02*
X132014D01*
X130439Y142505D02*
X132014D01*
X27551Y120713D02*
Y122287D01*
X29264Y47500D02*
X30839D01*
X33588Y47424D02*
X35163D01*
X54764Y42500D02*
X56339D01*
X80264Y54500D02*
X81839D01*
X61264Y57500D02*
X62839D01*
X69264D02*
X70839D01*
X83264Y46500D02*
X84839D01*
X127938Y151372D02*
Y152947D01*
X84264Y137500D02*
X85839D01*
X91051Y134213D02*
Y135787D01*
X59823Y134713D02*
Y136287D01*
X59324Y168387D02*
Y169961D01*
X118764Y120500D02*
X120339D01*
X40764Y90500D02*
X42339D01*
X125994Y102265D02*
X127569D01*
X121994D02*
X123569D01*
X45764Y94000D02*
X47339D01*
X45764Y72000D02*
X47339D01*
X45764Y79093D02*
X47339D01*
X134370Y98835D02*
X136732D01*
X134370Y103165D02*
X136732D01*
X104780Y61213D02*
Y62787D01*
D13*
X20051Y88598D02*
G03*
X20051Y88992I0J197D01*
G01*
D02*
G03*
X20051Y88598I0J-197D01*
G01*
X176335Y138930D02*
Y162930D01*
X137335D02*
X176335D01*
X137335Y138930D02*
Y162930D01*
Y138930D02*
X176335D01*
D14*
X47472Y51398D02*
Y53405D01*
Y41594D02*
Y43602D01*
X37630Y51398D02*
Y53405D01*
Y41594D02*
Y43602D01*
X118130Y137094D02*
Y139279D01*
Y146721D02*
Y148906D01*
X127972Y146721D02*
Y148906D01*
Y137094D02*
Y139279D01*
X118130Y137094D02*
X118347D01*
X118130Y148906D02*
X118347D01*
X127756D02*
X127972D01*
X127756Y137094D02*
X127972D01*
X178969Y95386D02*
Y130583D01*
X174047Y95386D02*
X178969D01*
X157905D02*
X163417D01*
X174047Y130583D02*
X178969D01*
X157905D02*
X163417D01*
X81508Y146929D02*
X82217D01*
X81508D02*
Y148504D01*
Y153465D02*
Y155039D01*
X82217D01*
X88910D02*
X89618D01*
Y153465D02*
Y155039D01*
X88910Y146929D02*
X89618D01*
Y148504D01*
D15*
X4051Y37000D02*
Y42000D01*
X17551Y59500D02*
X22551D01*
X143135Y90420D02*
Y95420D01*
M02*
